%TF.GenerationSoftware,KiCad,Pcbnew,(6.0.4)*%
%TF.CreationDate,2022-04-12T12:42:18-04:00*%
%TF.ProjectId,batteryboard,62617474-6572-4796-926f-6172642e6b69,rev?*%
%TF.SameCoordinates,Original*%
%TF.FileFunction,Legend,Bot*%
%TF.FilePolarity,Positive*%
%FSLAX46Y46*%
G04 Gerber Fmt 4.6, Leading zero omitted, Abs format (unit mm)*
G04 Created by KiCad (PCBNEW (6.0.4)) date 2022-04-12 12:42:18*
%MOMM*%
%LPD*%
G01*
G04 APERTURE LIST*
%ADD10C,0.381000*%
%ADD11C,0.127000*%
%ADD12C,0.500000*%
%ADD13C,0.100000*%
%ADD14C,0.060000*%
%ADD15C,0.120000*%
G04 APERTURE END LIST*
D10*
X102924428Y-137477500D02*
X103015142Y-137749642D01*
X103105857Y-137840357D01*
X103287285Y-137931071D01*
X103559428Y-137931071D01*
X103740857Y-137840357D01*
X103831571Y-137749642D01*
X103922285Y-137568214D01*
X103922285Y-136842500D01*
X102017285Y-136842500D01*
X102017285Y-137477500D01*
X102108000Y-137658928D01*
X102198714Y-137749642D01*
X102380142Y-137840357D01*
X102561571Y-137840357D01*
X102743000Y-137749642D01*
X102833714Y-137658928D01*
X102924428Y-137477500D01*
X102924428Y-136842500D01*
X103922285Y-138747500D02*
X102017285Y-138747500D01*
X103378000Y-139382500D01*
X102017285Y-140017500D01*
X103922285Y-140017500D01*
X82477428Y-138049000D02*
X82568142Y-138321142D01*
X82658857Y-138411857D01*
X82840285Y-138502571D01*
X83112428Y-138502571D01*
X83293857Y-138411857D01*
X83384571Y-138321142D01*
X83475285Y-138139714D01*
X83475285Y-137414000D01*
X81570285Y-137414000D01*
X81570285Y-138049000D01*
X81661000Y-138230428D01*
X81751714Y-138321142D01*
X81933142Y-138411857D01*
X82114571Y-138411857D01*
X82296000Y-138321142D01*
X82386714Y-138230428D01*
X82477428Y-138049000D01*
X82477428Y-137414000D01*
X83475285Y-139319000D02*
X81570285Y-139319000D01*
X82931000Y-139954000D01*
X81570285Y-140589000D01*
X83475285Y-140589000D01*
X72571428Y-138049000D02*
X72662142Y-138321142D01*
X72752857Y-138411857D01*
X72934285Y-138502571D01*
X73206428Y-138502571D01*
X73387857Y-138411857D01*
X73478571Y-138321142D01*
X73569285Y-138139714D01*
X73569285Y-137414000D01*
X71664285Y-137414000D01*
X71664285Y-138049000D01*
X71755000Y-138230428D01*
X71845714Y-138321142D01*
X72027142Y-138411857D01*
X72208571Y-138411857D01*
X72390000Y-138321142D01*
X72480714Y-138230428D01*
X72571428Y-138049000D01*
X72571428Y-137414000D01*
X73569285Y-139319000D02*
X71664285Y-139319000D01*
X73025000Y-139954000D01*
X71664285Y-140589000D01*
X73569285Y-140589000D01*
X124133428Y-138049000D02*
X124224142Y-138321142D01*
X124314857Y-138411857D01*
X124496285Y-138502571D01*
X124768428Y-138502571D01*
X124949857Y-138411857D01*
X125040571Y-138321142D01*
X125131285Y-138139714D01*
X125131285Y-137414000D01*
X123226285Y-137414000D01*
X123226285Y-138049000D01*
X123317000Y-138230428D01*
X123407714Y-138321142D01*
X123589142Y-138411857D01*
X123770571Y-138411857D01*
X123952000Y-138321142D01*
X124042714Y-138230428D01*
X124133428Y-138049000D01*
X124133428Y-137414000D01*
X125131285Y-139319000D02*
X123226285Y-139319000D01*
X124587000Y-139954000D01*
X123226285Y-140589000D01*
X125131285Y-140589000D01*
X123879428Y-52931785D02*
X123970142Y-53203928D01*
X124060857Y-53294642D01*
X124242285Y-53385357D01*
X124514428Y-53385357D01*
X124695857Y-53294642D01*
X124786571Y-53203928D01*
X124877285Y-53022500D01*
X124877285Y-52296785D01*
X122972285Y-52296785D01*
X122972285Y-52931785D01*
X123063000Y-53113214D01*
X123153714Y-53203928D01*
X123335142Y-53294642D01*
X123516571Y-53294642D01*
X123698000Y-53203928D01*
X123788714Y-53113214D01*
X123879428Y-52931785D01*
X123879428Y-52296785D01*
X124151571Y-54201785D02*
X124151571Y-55653214D01*
X103051428Y-52423785D02*
X103142142Y-52695928D01*
X103232857Y-52786642D01*
X103414285Y-52877357D01*
X103686428Y-52877357D01*
X103867857Y-52786642D01*
X103958571Y-52695928D01*
X104049285Y-52514500D01*
X104049285Y-51788785D01*
X102144285Y-51788785D01*
X102144285Y-52423785D01*
X102235000Y-52605214D01*
X102325714Y-52695928D01*
X102507142Y-52786642D01*
X102688571Y-52786642D01*
X102870000Y-52695928D01*
X102960714Y-52605214D01*
X103051428Y-52423785D01*
X103051428Y-51788785D01*
X103323571Y-53693785D02*
X103323571Y-55145214D01*
X83538785Y-51852285D02*
X81633785Y-51852285D01*
X81633785Y-52578000D01*
X81724500Y-52759428D01*
X81815214Y-52850142D01*
X81996642Y-52940857D01*
X82268785Y-52940857D01*
X82450214Y-52850142D01*
X82540928Y-52759428D01*
X82631642Y-52578000D01*
X82631642Y-51852285D01*
X82813071Y-53757285D02*
X82813071Y-55208714D01*
X83538785Y-54483000D02*
X82087357Y-54483000D01*
X73632785Y-52296785D02*
X71727785Y-52296785D01*
X71727785Y-53022500D01*
X71818500Y-53203928D01*
X71909214Y-53294642D01*
X72090642Y-53385357D01*
X72362785Y-53385357D01*
X72544214Y-53294642D01*
X72634928Y-53203928D01*
X72725642Y-53022500D01*
X72725642Y-52296785D01*
X72907071Y-54201785D02*
X72907071Y-55653214D01*
X73632785Y-54927500D02*
X72181357Y-54927500D01*
X77542571Y-77696785D02*
X77542571Y-79148214D01*
X77542571Y-81506785D02*
X77542571Y-82958214D01*
X78268285Y-82232500D02*
X76816857Y-82232500D01*
X77542571Y-87348785D02*
X77542571Y-88800214D01*
X77542571Y-91158785D02*
X77542571Y-92610214D01*
X78268285Y-91884500D02*
X76816857Y-91884500D01*
D11*
X87650561Y-95233671D02*
X88104133Y-95233671D01*
X88194847Y-95203433D01*
X88255323Y-95142957D01*
X88285561Y-95052242D01*
X88285561Y-94991766D01*
X88285561Y-95868671D02*
X88285561Y-95505814D01*
X88285561Y-95687242D02*
X87650561Y-95687242D01*
X87741276Y-95626766D01*
X87801752Y-95566290D01*
X87831990Y-95505814D01*
X87650561Y-96261766D02*
X87650561Y-96322242D01*
X87680800Y-96382719D01*
X87711038Y-96412957D01*
X87771514Y-96443195D01*
X87892466Y-96473433D01*
X88043657Y-96473433D01*
X88164609Y-96443195D01*
X88225085Y-96412957D01*
X88255323Y-96382719D01*
X88285561Y-96322242D01*
X88285561Y-96261766D01*
X88255323Y-96201290D01*
X88225085Y-96171052D01*
X88164609Y-96140814D01*
X88043657Y-96110576D01*
X87892466Y-96110576D01*
X87771514Y-96140814D01*
X87711038Y-96171052D01*
X87680800Y-96201290D01*
X87650561Y-96261766D01*
X87862228Y-97017719D02*
X88285561Y-97017719D01*
X87620323Y-96866528D02*
X88073895Y-96715338D01*
X88073895Y-97108433D01*
D12*
X88355442Y-118670338D02*
X88355442Y-122479861D01*
X88355442Y-69620338D02*
X88355442Y-73429861D01*
X90260204Y-71525100D02*
X86450680Y-71525100D01*
D11*
X128925561Y-95208271D02*
X129379133Y-95208271D01*
X129469847Y-95178033D01*
X129530323Y-95117557D01*
X129560561Y-95026842D01*
X129560561Y-94966366D01*
X129560561Y-95843271D02*
X129560561Y-95480414D01*
X129560561Y-95661842D02*
X128925561Y-95661842D01*
X129016276Y-95601366D01*
X129076752Y-95540890D01*
X129106990Y-95480414D01*
X128925561Y-96236366D02*
X128925561Y-96296842D01*
X128955800Y-96357319D01*
X128986038Y-96387557D01*
X129046514Y-96417795D01*
X129167466Y-96448033D01*
X129318657Y-96448033D01*
X129439609Y-96417795D01*
X129500085Y-96387557D01*
X129530323Y-96357319D01*
X129560561Y-96296842D01*
X129560561Y-96236366D01*
X129530323Y-96175890D01*
X129500085Y-96145652D01*
X129439609Y-96115414D01*
X129318657Y-96085176D01*
X129167466Y-96085176D01*
X129046514Y-96115414D01*
X128986038Y-96145652D01*
X128955800Y-96175890D01*
X128925561Y-96236366D01*
X129560561Y-97052795D02*
X129560561Y-96689938D01*
X129560561Y-96871366D02*
X128925561Y-96871366D01*
X129016276Y-96810890D01*
X129076752Y-96750414D01*
X129106990Y-96689938D01*
D12*
X129630442Y-118644938D02*
X129630442Y-122454461D01*
X131535204Y-120549700D02*
X127725680Y-120549700D01*
X129630442Y-69594938D02*
X129630442Y-73404461D01*
D11*
X108275361Y-95208271D02*
X108728933Y-95208271D01*
X108819647Y-95178033D01*
X108880123Y-95117557D01*
X108910361Y-95026842D01*
X108910361Y-94966366D01*
X108910361Y-95843271D02*
X108910361Y-95480414D01*
X108910361Y-95661842D02*
X108275361Y-95661842D01*
X108366076Y-95601366D01*
X108426552Y-95540890D01*
X108456790Y-95480414D01*
X108275361Y-96236366D02*
X108275361Y-96296842D01*
X108305600Y-96357319D01*
X108335838Y-96387557D01*
X108396314Y-96417795D01*
X108517266Y-96448033D01*
X108668457Y-96448033D01*
X108789409Y-96417795D01*
X108849885Y-96387557D01*
X108880123Y-96357319D01*
X108910361Y-96296842D01*
X108910361Y-96236366D01*
X108880123Y-96175890D01*
X108849885Y-96145652D01*
X108789409Y-96115414D01*
X108668457Y-96085176D01*
X108517266Y-96085176D01*
X108396314Y-96115414D01*
X108335838Y-96145652D01*
X108305600Y-96175890D01*
X108275361Y-96236366D01*
X108335838Y-96689938D02*
X108305600Y-96720176D01*
X108275361Y-96780652D01*
X108275361Y-96931842D01*
X108305600Y-96992319D01*
X108335838Y-97022557D01*
X108396314Y-97052795D01*
X108456790Y-97052795D01*
X108547504Y-97022557D01*
X108910361Y-96659700D01*
X108910361Y-97052795D01*
D12*
X108980242Y-69594938D02*
X108980242Y-73404461D01*
X108980242Y-118644938D02*
X108980242Y-122454461D01*
X110885004Y-120549700D02*
X107075480Y-120549700D01*
D11*
X67000361Y-95233671D02*
X67453933Y-95233671D01*
X67544647Y-95203433D01*
X67605123Y-95142957D01*
X67635361Y-95052242D01*
X67635361Y-94991766D01*
X67635361Y-95868671D02*
X67635361Y-95505814D01*
X67635361Y-95687242D02*
X67000361Y-95687242D01*
X67091076Y-95626766D01*
X67151552Y-95566290D01*
X67181790Y-95505814D01*
X67000361Y-96261766D02*
X67000361Y-96322242D01*
X67030600Y-96382719D01*
X67060838Y-96412957D01*
X67121314Y-96443195D01*
X67242266Y-96473433D01*
X67393457Y-96473433D01*
X67514409Y-96443195D01*
X67574885Y-96412957D01*
X67605123Y-96382719D01*
X67635361Y-96322242D01*
X67635361Y-96261766D01*
X67605123Y-96201290D01*
X67574885Y-96171052D01*
X67514409Y-96140814D01*
X67393457Y-96110576D01*
X67242266Y-96110576D01*
X67121314Y-96140814D01*
X67060838Y-96171052D01*
X67030600Y-96201290D01*
X67000361Y-96261766D01*
X67000361Y-97047957D02*
X67000361Y-96745576D01*
X67302742Y-96715338D01*
X67272504Y-96745576D01*
X67242266Y-96806052D01*
X67242266Y-96957242D01*
X67272504Y-97017719D01*
X67302742Y-97047957D01*
X67363219Y-97078195D01*
X67514409Y-97078195D01*
X67574885Y-97047957D01*
X67605123Y-97017719D01*
X67635361Y-96957242D01*
X67635361Y-96806052D01*
X67605123Y-96745576D01*
X67574885Y-96715338D01*
D12*
X67705242Y-118670338D02*
X67705242Y-122479861D01*
X67705242Y-69620338D02*
X67705242Y-73429861D01*
X69610004Y-71525100D02*
X65800480Y-71525100D01*
D11*
X59723261Y-43122547D02*
X59088261Y-43122547D01*
X59088261Y-43273738D01*
X59118500Y-43364452D01*
X59178976Y-43424928D01*
X59239452Y-43455166D01*
X59360404Y-43485404D01*
X59451119Y-43485404D01*
X59572071Y-43455166D01*
X59632547Y-43424928D01*
X59693023Y-43364452D01*
X59723261Y-43273738D01*
X59723261Y-43122547D01*
X59088261Y-43697071D02*
X59088261Y-44090166D01*
X59330166Y-43878500D01*
X59330166Y-43969214D01*
X59360404Y-44029690D01*
X59390642Y-44059928D01*
X59451119Y-44090166D01*
X59602309Y-44090166D01*
X59662785Y-44059928D01*
X59693023Y-44029690D01*
X59723261Y-43969214D01*
X59723261Y-43787785D01*
X59693023Y-43727309D01*
X59662785Y-43697071D01*
X59088261Y-44483261D02*
X59088261Y-44543738D01*
X59118500Y-44604214D01*
X59148738Y-44634452D01*
X59209214Y-44664690D01*
X59330166Y-44694928D01*
X59481357Y-44694928D01*
X59602309Y-44664690D01*
X59662785Y-44634452D01*
X59693023Y-44604214D01*
X59723261Y-44543738D01*
X59723261Y-44483261D01*
X59693023Y-44422785D01*
X59662785Y-44392547D01*
X59602309Y-44362309D01*
X59481357Y-44332071D01*
X59330166Y-44332071D01*
X59209214Y-44362309D01*
X59148738Y-44392547D01*
X59118500Y-44422785D01*
X59088261Y-44483261D01*
X59723261Y-45299690D02*
X59723261Y-44936833D01*
X59723261Y-45118261D02*
X59088261Y-45118261D01*
X59178976Y-45057785D01*
X59239452Y-44997309D01*
X59269690Y-44936833D01*
X63533261Y-43122547D02*
X62898261Y-43122547D01*
X62898261Y-43273738D01*
X62928500Y-43364452D01*
X62988976Y-43424928D01*
X63049452Y-43455166D01*
X63170404Y-43485404D01*
X63261119Y-43485404D01*
X63382071Y-43455166D01*
X63442547Y-43424928D01*
X63503023Y-43364452D01*
X63533261Y-43273738D01*
X63533261Y-43122547D01*
X62898261Y-43697071D02*
X62898261Y-44090166D01*
X63140166Y-43878500D01*
X63140166Y-43969214D01*
X63170404Y-44029690D01*
X63200642Y-44059928D01*
X63261119Y-44090166D01*
X63412309Y-44090166D01*
X63472785Y-44059928D01*
X63503023Y-44029690D01*
X63533261Y-43969214D01*
X63533261Y-43787785D01*
X63503023Y-43727309D01*
X63472785Y-43697071D01*
X62898261Y-44483261D02*
X62898261Y-44543738D01*
X62928500Y-44604214D01*
X62958738Y-44634452D01*
X63019214Y-44664690D01*
X63140166Y-44694928D01*
X63291357Y-44694928D01*
X63412309Y-44664690D01*
X63472785Y-44634452D01*
X63503023Y-44604214D01*
X63533261Y-44543738D01*
X63533261Y-44483261D01*
X63503023Y-44422785D01*
X63472785Y-44392547D01*
X63412309Y-44362309D01*
X63291357Y-44332071D01*
X63140166Y-44332071D01*
X63019214Y-44362309D01*
X62958738Y-44392547D01*
X62928500Y-44422785D01*
X62898261Y-44483261D01*
X62958738Y-44936833D02*
X62928500Y-44967071D01*
X62898261Y-45027547D01*
X62898261Y-45178738D01*
X62928500Y-45239214D01*
X62958738Y-45269452D01*
X63019214Y-45299690D01*
X63079690Y-45299690D01*
X63170404Y-45269452D01*
X63533261Y-44906595D01*
X63533261Y-45299690D01*
X67343261Y-42868547D02*
X66708261Y-42868547D01*
X66708261Y-43019738D01*
X66738500Y-43110452D01*
X66798976Y-43170928D01*
X66859452Y-43201166D01*
X66980404Y-43231404D01*
X67071119Y-43231404D01*
X67192071Y-43201166D01*
X67252547Y-43170928D01*
X67313023Y-43110452D01*
X67343261Y-43019738D01*
X67343261Y-42868547D01*
X66708261Y-43443071D02*
X66708261Y-43836166D01*
X66950166Y-43624500D01*
X66950166Y-43715214D01*
X66980404Y-43775690D01*
X67010642Y-43805928D01*
X67071119Y-43836166D01*
X67222309Y-43836166D01*
X67282785Y-43805928D01*
X67313023Y-43775690D01*
X67343261Y-43715214D01*
X67343261Y-43533785D01*
X67313023Y-43473309D01*
X67282785Y-43443071D01*
X66708261Y-44229261D02*
X66708261Y-44289738D01*
X66738500Y-44350214D01*
X66768738Y-44380452D01*
X66829214Y-44410690D01*
X66950166Y-44440928D01*
X67101357Y-44440928D01*
X67222309Y-44410690D01*
X67282785Y-44380452D01*
X67313023Y-44350214D01*
X67343261Y-44289738D01*
X67343261Y-44229261D01*
X67313023Y-44168785D01*
X67282785Y-44138547D01*
X67222309Y-44108309D01*
X67101357Y-44078071D01*
X66950166Y-44078071D01*
X66829214Y-44108309D01*
X66768738Y-44138547D01*
X66738500Y-44168785D01*
X66708261Y-44229261D01*
X66919928Y-44985214D02*
X67343261Y-44985214D01*
X66678023Y-44834023D02*
X67131595Y-44682833D01*
X67131595Y-45075928D01*
X62641238Y-47785261D02*
X62611000Y-47724785D01*
X62550523Y-47664309D01*
X62459809Y-47573595D01*
X62429571Y-47513119D01*
X62429571Y-47452642D01*
X62580761Y-47482880D02*
X62550523Y-47422404D01*
X62490047Y-47361928D01*
X62369095Y-47331690D01*
X62157428Y-47331690D01*
X62036476Y-47361928D01*
X61976000Y-47422404D01*
X61945761Y-47482880D01*
X61945761Y-47603833D01*
X61976000Y-47664309D01*
X62036476Y-47724785D01*
X62157428Y-47755023D01*
X62369095Y-47755023D01*
X62490047Y-47724785D01*
X62550523Y-47664309D01*
X62580761Y-47603833D01*
X62580761Y-47482880D01*
X61945761Y-47966690D02*
X61945761Y-48359785D01*
X62187666Y-48148119D01*
X62187666Y-48238833D01*
X62217904Y-48299309D01*
X62248142Y-48329547D01*
X62308619Y-48359785D01*
X62459809Y-48359785D01*
X62520285Y-48329547D01*
X62550523Y-48299309D01*
X62580761Y-48238833D01*
X62580761Y-48057404D01*
X62550523Y-47996928D01*
X62520285Y-47966690D01*
X61945761Y-48752880D02*
X61945761Y-48813357D01*
X61976000Y-48873833D01*
X62006238Y-48904071D01*
X62066714Y-48934309D01*
X62187666Y-48964547D01*
X62338857Y-48964547D01*
X62459809Y-48934309D01*
X62520285Y-48904071D01*
X62550523Y-48873833D01*
X62580761Y-48813357D01*
X62580761Y-48752880D01*
X62550523Y-48692404D01*
X62520285Y-48662166D01*
X62459809Y-48631928D01*
X62338857Y-48601690D01*
X62187666Y-48601690D01*
X62066714Y-48631928D01*
X62006238Y-48662166D01*
X61976000Y-48692404D01*
X61945761Y-48752880D01*
X62580761Y-49569309D02*
X62580761Y-49206452D01*
X62580761Y-49387880D02*
X61945761Y-49387880D01*
X62036476Y-49327404D01*
X62096952Y-49266928D01*
X62127190Y-49206452D01*
X66451238Y-47912261D02*
X66421000Y-47851785D01*
X66360523Y-47791309D01*
X66269809Y-47700595D01*
X66239571Y-47640119D01*
X66239571Y-47579642D01*
X66390761Y-47609880D02*
X66360523Y-47549404D01*
X66300047Y-47488928D01*
X66179095Y-47458690D01*
X65967428Y-47458690D01*
X65846476Y-47488928D01*
X65786000Y-47549404D01*
X65755761Y-47609880D01*
X65755761Y-47730833D01*
X65786000Y-47791309D01*
X65846476Y-47851785D01*
X65967428Y-47882023D01*
X66179095Y-47882023D01*
X66300047Y-47851785D01*
X66360523Y-47791309D01*
X66390761Y-47730833D01*
X66390761Y-47609880D01*
X65755761Y-48093690D02*
X65755761Y-48486785D01*
X65997666Y-48275119D01*
X65997666Y-48365833D01*
X66027904Y-48426309D01*
X66058142Y-48456547D01*
X66118619Y-48486785D01*
X66269809Y-48486785D01*
X66330285Y-48456547D01*
X66360523Y-48426309D01*
X66390761Y-48365833D01*
X66390761Y-48184404D01*
X66360523Y-48123928D01*
X66330285Y-48093690D01*
X65755761Y-48879880D02*
X65755761Y-48940357D01*
X65786000Y-49000833D01*
X65816238Y-49031071D01*
X65876714Y-49061309D01*
X65997666Y-49091547D01*
X66148857Y-49091547D01*
X66269809Y-49061309D01*
X66330285Y-49031071D01*
X66360523Y-49000833D01*
X66390761Y-48940357D01*
X66390761Y-48879880D01*
X66360523Y-48819404D01*
X66330285Y-48789166D01*
X66269809Y-48758928D01*
X66148857Y-48728690D01*
X65997666Y-48728690D01*
X65876714Y-48758928D01*
X65816238Y-48789166D01*
X65786000Y-48819404D01*
X65755761Y-48879880D01*
X65816238Y-49333452D02*
X65786000Y-49363690D01*
X65755761Y-49424166D01*
X65755761Y-49575357D01*
X65786000Y-49635833D01*
X65816238Y-49666071D01*
X65876714Y-49696309D01*
X65937190Y-49696309D01*
X66027904Y-49666071D01*
X66390761Y-49303214D01*
X66390761Y-49696309D01*
X69943738Y-47975761D02*
X69913500Y-47915285D01*
X69853023Y-47854809D01*
X69762309Y-47764095D01*
X69732071Y-47703619D01*
X69732071Y-47643142D01*
X69883261Y-47673380D02*
X69853023Y-47612904D01*
X69792547Y-47552428D01*
X69671595Y-47522190D01*
X69459928Y-47522190D01*
X69338976Y-47552428D01*
X69278500Y-47612904D01*
X69248261Y-47673380D01*
X69248261Y-47794333D01*
X69278500Y-47854809D01*
X69338976Y-47915285D01*
X69459928Y-47945523D01*
X69671595Y-47945523D01*
X69792547Y-47915285D01*
X69853023Y-47854809D01*
X69883261Y-47794333D01*
X69883261Y-47673380D01*
X69248261Y-48157190D02*
X69248261Y-48550285D01*
X69490166Y-48338619D01*
X69490166Y-48429333D01*
X69520404Y-48489809D01*
X69550642Y-48520047D01*
X69611119Y-48550285D01*
X69762309Y-48550285D01*
X69822785Y-48520047D01*
X69853023Y-48489809D01*
X69883261Y-48429333D01*
X69883261Y-48247904D01*
X69853023Y-48187428D01*
X69822785Y-48157190D01*
X69248261Y-48943380D02*
X69248261Y-49003857D01*
X69278500Y-49064333D01*
X69308738Y-49094571D01*
X69369214Y-49124809D01*
X69490166Y-49155047D01*
X69641357Y-49155047D01*
X69762309Y-49124809D01*
X69822785Y-49094571D01*
X69853023Y-49064333D01*
X69883261Y-49003857D01*
X69883261Y-48943380D01*
X69853023Y-48882904D01*
X69822785Y-48852666D01*
X69762309Y-48822428D01*
X69641357Y-48792190D01*
X69490166Y-48792190D01*
X69369214Y-48822428D01*
X69308738Y-48852666D01*
X69278500Y-48882904D01*
X69248261Y-48943380D01*
X69459928Y-49699333D02*
X69883261Y-49699333D01*
X69218023Y-49548142D02*
X69671595Y-49396952D01*
X69671595Y-49790047D01*
X60485261Y-46850904D02*
X60182880Y-46639238D01*
X60485261Y-46488047D02*
X59850261Y-46488047D01*
X59850261Y-46729952D01*
X59880500Y-46790428D01*
X59910738Y-46820666D01*
X59971214Y-46850904D01*
X60061928Y-46850904D01*
X60122404Y-46820666D01*
X60152642Y-46790428D01*
X60182880Y-46729952D01*
X60182880Y-46488047D01*
X59850261Y-47062571D02*
X59850261Y-47455666D01*
X60092166Y-47244000D01*
X60092166Y-47334714D01*
X60122404Y-47395190D01*
X60152642Y-47425428D01*
X60213119Y-47455666D01*
X60364309Y-47455666D01*
X60424785Y-47425428D01*
X60455023Y-47395190D01*
X60485261Y-47334714D01*
X60485261Y-47153285D01*
X60455023Y-47092809D01*
X60424785Y-47062571D01*
X59850261Y-47848761D02*
X59850261Y-47909238D01*
X59880500Y-47969714D01*
X59910738Y-47999952D01*
X59971214Y-48030190D01*
X60092166Y-48060428D01*
X60243357Y-48060428D01*
X60364309Y-48030190D01*
X60424785Y-47999952D01*
X60455023Y-47969714D01*
X60485261Y-47909238D01*
X60485261Y-47848761D01*
X60455023Y-47788285D01*
X60424785Y-47758047D01*
X60364309Y-47727809D01*
X60243357Y-47697571D01*
X60092166Y-47697571D01*
X59971214Y-47727809D01*
X59910738Y-47758047D01*
X59880500Y-47788285D01*
X59850261Y-47848761D01*
X59910738Y-48302333D02*
X59880500Y-48332571D01*
X59850261Y-48393047D01*
X59850261Y-48544238D01*
X59880500Y-48604714D01*
X59910738Y-48634952D01*
X59971214Y-48665190D01*
X60031690Y-48665190D01*
X60122404Y-48634952D01*
X60485261Y-48272095D01*
X60485261Y-48665190D01*
X64295261Y-46977904D02*
X63992880Y-46766238D01*
X64295261Y-46615047D02*
X63660261Y-46615047D01*
X63660261Y-46856952D01*
X63690500Y-46917428D01*
X63720738Y-46947666D01*
X63781214Y-46977904D01*
X63871928Y-46977904D01*
X63932404Y-46947666D01*
X63962642Y-46917428D01*
X63992880Y-46856952D01*
X63992880Y-46615047D01*
X63660261Y-47189571D02*
X63660261Y-47582666D01*
X63902166Y-47371000D01*
X63902166Y-47461714D01*
X63932404Y-47522190D01*
X63962642Y-47552428D01*
X64023119Y-47582666D01*
X64174309Y-47582666D01*
X64234785Y-47552428D01*
X64265023Y-47522190D01*
X64295261Y-47461714D01*
X64295261Y-47280285D01*
X64265023Y-47219809D01*
X64234785Y-47189571D01*
X63660261Y-47975761D02*
X63660261Y-48036238D01*
X63690500Y-48096714D01*
X63720738Y-48126952D01*
X63781214Y-48157190D01*
X63902166Y-48187428D01*
X64053357Y-48187428D01*
X64174309Y-48157190D01*
X64234785Y-48126952D01*
X64265023Y-48096714D01*
X64295261Y-48036238D01*
X64295261Y-47975761D01*
X64265023Y-47915285D01*
X64234785Y-47885047D01*
X64174309Y-47854809D01*
X64053357Y-47824571D01*
X63902166Y-47824571D01*
X63781214Y-47854809D01*
X63720738Y-47885047D01*
X63690500Y-47915285D01*
X63660261Y-47975761D01*
X63871928Y-48731714D02*
X64295261Y-48731714D01*
X63630023Y-48580523D02*
X64083595Y-48429333D01*
X64083595Y-48822428D01*
X67851261Y-48819404D02*
X67548880Y-48607738D01*
X67851261Y-48456547D02*
X67216261Y-48456547D01*
X67216261Y-48698452D01*
X67246500Y-48758928D01*
X67276738Y-48789166D01*
X67337214Y-48819404D01*
X67427928Y-48819404D01*
X67488404Y-48789166D01*
X67518642Y-48758928D01*
X67548880Y-48698452D01*
X67548880Y-48456547D01*
X67216261Y-49031071D02*
X67216261Y-49424166D01*
X67458166Y-49212500D01*
X67458166Y-49303214D01*
X67488404Y-49363690D01*
X67518642Y-49393928D01*
X67579119Y-49424166D01*
X67730309Y-49424166D01*
X67790785Y-49393928D01*
X67821023Y-49363690D01*
X67851261Y-49303214D01*
X67851261Y-49121785D01*
X67821023Y-49061309D01*
X67790785Y-49031071D01*
X67216261Y-49817261D02*
X67216261Y-49877738D01*
X67246500Y-49938214D01*
X67276738Y-49968452D01*
X67337214Y-49998690D01*
X67458166Y-50028928D01*
X67609357Y-50028928D01*
X67730309Y-49998690D01*
X67790785Y-49968452D01*
X67821023Y-49938214D01*
X67851261Y-49877738D01*
X67851261Y-49817261D01*
X67821023Y-49756785D01*
X67790785Y-49726547D01*
X67730309Y-49696309D01*
X67609357Y-49666071D01*
X67458166Y-49666071D01*
X67337214Y-49696309D01*
X67276738Y-49726547D01*
X67246500Y-49756785D01*
X67216261Y-49817261D01*
X67488404Y-50391785D02*
X67458166Y-50331309D01*
X67427928Y-50301071D01*
X67367452Y-50270833D01*
X67337214Y-50270833D01*
X67276738Y-50301071D01*
X67246500Y-50331309D01*
X67216261Y-50391785D01*
X67216261Y-50512738D01*
X67246500Y-50573214D01*
X67276738Y-50603452D01*
X67337214Y-50633690D01*
X67367452Y-50633690D01*
X67427928Y-50603452D01*
X67458166Y-50573214D01*
X67488404Y-50512738D01*
X67488404Y-50391785D01*
X67518642Y-50331309D01*
X67548880Y-50301071D01*
X67609357Y-50270833D01*
X67730309Y-50270833D01*
X67790785Y-50301071D01*
X67821023Y-50331309D01*
X67851261Y-50391785D01*
X67851261Y-50512738D01*
X67821023Y-50573214D01*
X67790785Y-50603452D01*
X67730309Y-50633690D01*
X67609357Y-50633690D01*
X67548880Y-50603452D01*
X67518642Y-50573214D01*
X67488404Y-50512738D01*
X61501261Y-47676404D02*
X61198880Y-47464738D01*
X61501261Y-47313547D02*
X60866261Y-47313547D01*
X60866261Y-47555452D01*
X60896500Y-47615928D01*
X60926738Y-47646166D01*
X60987214Y-47676404D01*
X61077928Y-47676404D01*
X61138404Y-47646166D01*
X61168642Y-47615928D01*
X61198880Y-47555452D01*
X61198880Y-47313547D01*
X60866261Y-47888071D02*
X60866261Y-48281166D01*
X61108166Y-48069500D01*
X61108166Y-48160214D01*
X61138404Y-48220690D01*
X61168642Y-48250928D01*
X61229119Y-48281166D01*
X61380309Y-48281166D01*
X61440785Y-48250928D01*
X61471023Y-48220690D01*
X61501261Y-48160214D01*
X61501261Y-47978785D01*
X61471023Y-47918309D01*
X61440785Y-47888071D01*
X60866261Y-48674261D02*
X60866261Y-48734738D01*
X60896500Y-48795214D01*
X60926738Y-48825452D01*
X60987214Y-48855690D01*
X61108166Y-48885928D01*
X61259357Y-48885928D01*
X61380309Y-48855690D01*
X61440785Y-48825452D01*
X61471023Y-48795214D01*
X61501261Y-48734738D01*
X61501261Y-48674261D01*
X61471023Y-48613785D01*
X61440785Y-48583547D01*
X61380309Y-48553309D01*
X61259357Y-48523071D01*
X61108166Y-48523071D01*
X60987214Y-48553309D01*
X60926738Y-48583547D01*
X60896500Y-48613785D01*
X60866261Y-48674261D01*
X61501261Y-49490690D02*
X61501261Y-49127833D01*
X61501261Y-49309261D02*
X60866261Y-49309261D01*
X60956976Y-49248785D01*
X61017452Y-49188309D01*
X61047690Y-49127833D01*
X65438261Y-47803404D02*
X65135880Y-47591738D01*
X65438261Y-47440547D02*
X64803261Y-47440547D01*
X64803261Y-47682452D01*
X64833500Y-47742928D01*
X64863738Y-47773166D01*
X64924214Y-47803404D01*
X65014928Y-47803404D01*
X65075404Y-47773166D01*
X65105642Y-47742928D01*
X65135880Y-47682452D01*
X65135880Y-47440547D01*
X64803261Y-48015071D02*
X64803261Y-48408166D01*
X65045166Y-48196500D01*
X65045166Y-48287214D01*
X65075404Y-48347690D01*
X65105642Y-48377928D01*
X65166119Y-48408166D01*
X65317309Y-48408166D01*
X65377785Y-48377928D01*
X65408023Y-48347690D01*
X65438261Y-48287214D01*
X65438261Y-48105785D01*
X65408023Y-48045309D01*
X65377785Y-48015071D01*
X64803261Y-48801261D02*
X64803261Y-48861738D01*
X64833500Y-48922214D01*
X64863738Y-48952452D01*
X64924214Y-48982690D01*
X65045166Y-49012928D01*
X65196357Y-49012928D01*
X65317309Y-48982690D01*
X65377785Y-48952452D01*
X65408023Y-48922214D01*
X65438261Y-48861738D01*
X65438261Y-48801261D01*
X65408023Y-48740785D01*
X65377785Y-48710547D01*
X65317309Y-48680309D01*
X65196357Y-48650071D01*
X65045166Y-48650071D01*
X64924214Y-48680309D01*
X64863738Y-48710547D01*
X64833500Y-48740785D01*
X64803261Y-48801261D01*
X64803261Y-49224595D02*
X64803261Y-49617690D01*
X65045166Y-49406023D01*
X65045166Y-49496738D01*
X65075404Y-49557214D01*
X65105642Y-49587452D01*
X65166119Y-49617690D01*
X65317309Y-49617690D01*
X65377785Y-49587452D01*
X65408023Y-49557214D01*
X65438261Y-49496738D01*
X65438261Y-49315309D01*
X65408023Y-49254833D01*
X65377785Y-49224595D01*
X68994261Y-47930404D02*
X68691880Y-47718738D01*
X68994261Y-47567547D02*
X68359261Y-47567547D01*
X68359261Y-47809452D01*
X68389500Y-47869928D01*
X68419738Y-47900166D01*
X68480214Y-47930404D01*
X68570928Y-47930404D01*
X68631404Y-47900166D01*
X68661642Y-47869928D01*
X68691880Y-47809452D01*
X68691880Y-47567547D01*
X68359261Y-48142071D02*
X68359261Y-48535166D01*
X68601166Y-48323500D01*
X68601166Y-48414214D01*
X68631404Y-48474690D01*
X68661642Y-48504928D01*
X68722119Y-48535166D01*
X68873309Y-48535166D01*
X68933785Y-48504928D01*
X68964023Y-48474690D01*
X68994261Y-48414214D01*
X68994261Y-48232785D01*
X68964023Y-48172309D01*
X68933785Y-48142071D01*
X68359261Y-48928261D02*
X68359261Y-48988738D01*
X68389500Y-49049214D01*
X68419738Y-49079452D01*
X68480214Y-49109690D01*
X68601166Y-49139928D01*
X68752357Y-49139928D01*
X68873309Y-49109690D01*
X68933785Y-49079452D01*
X68964023Y-49049214D01*
X68994261Y-48988738D01*
X68994261Y-48928261D01*
X68964023Y-48867785D01*
X68933785Y-48837547D01*
X68873309Y-48807309D01*
X68752357Y-48777071D01*
X68601166Y-48777071D01*
X68480214Y-48807309D01*
X68419738Y-48837547D01*
X68389500Y-48867785D01*
X68359261Y-48928261D01*
X68359261Y-49351595D02*
X68359261Y-49774928D01*
X68994261Y-49502785D01*
D12*
X98158300Y-57188100D02*
X77838300Y-57188100D01*
X98158300Y-57315100D02*
X77838300Y-57315100D01*
X98158300Y-57315100D02*
X98158300Y-56934100D01*
D13*
X98323300Y-57525100D02*
X77673300Y-57525100D01*
D12*
X98158300Y-56934100D02*
X77838300Y-56934100D01*
D13*
X77673300Y-57315100D02*
X77673300Y-134575100D01*
X77673300Y-134575100D02*
X98323300Y-134575100D01*
X98323300Y-134575100D02*
X98323300Y-56934100D01*
D12*
X98158300Y-57061100D02*
X77838300Y-57061100D01*
X77838300Y-57315100D02*
X77838300Y-56934100D01*
D13*
X118948300Y-57499700D02*
X118948300Y-135140700D01*
D12*
X139433300Y-134759700D02*
X139433300Y-135140700D01*
X119113300Y-134759700D02*
X119113300Y-135140700D01*
X119113300Y-134886700D02*
X139433300Y-134886700D01*
X119113300Y-135140700D02*
X139433300Y-135140700D01*
D13*
X139598300Y-134759700D02*
X139598300Y-57499700D01*
X139598300Y-57499700D02*
X118948300Y-57499700D01*
D12*
X119113300Y-135013700D02*
X139433300Y-135013700D01*
D13*
X118948300Y-134549700D02*
X139598300Y-134549700D01*
D12*
X119113300Y-134759700D02*
X139433300Y-134759700D01*
X98463100Y-134886700D02*
X118783100Y-134886700D01*
D13*
X118948100Y-134759700D02*
X118948100Y-57499700D01*
X98298100Y-57499700D02*
X98298100Y-135140700D01*
D12*
X118783100Y-134759700D02*
X118783100Y-135140700D01*
D13*
X118948100Y-57499700D02*
X98298100Y-57499700D01*
D12*
X98463100Y-135140700D02*
X118783100Y-135140700D01*
X98463100Y-134759700D02*
X118783100Y-134759700D01*
X98463100Y-135013700D02*
X118783100Y-135013700D01*
X98463100Y-134759700D02*
X98463100Y-135140700D01*
D13*
X98298100Y-134549700D02*
X118948100Y-134549700D01*
D12*
X77508100Y-57315100D02*
X57188100Y-57315100D01*
D13*
X57023100Y-57315100D02*
X57023100Y-134575100D01*
D12*
X77508100Y-57061100D02*
X57188100Y-57061100D01*
D13*
X57023100Y-134575100D02*
X77673100Y-134575100D01*
D12*
X57188100Y-57315100D02*
X57188100Y-56934100D01*
X77508100Y-57315100D02*
X77508100Y-56934100D01*
D13*
X77673100Y-57525100D02*
X57023100Y-57525100D01*
D12*
X77508100Y-57188100D02*
X57188100Y-57188100D01*
D13*
X77673100Y-134575100D02*
X77673100Y-56934100D01*
D12*
X77508100Y-56934100D02*
X57188100Y-56934100D01*
D14*
X60892181Y-42991480D02*
X60992181Y-42891480D01*
X61692181Y-42991480D02*
X61792181Y-42891480D01*
D15*
X61192181Y-43591480D02*
X60992181Y-43591480D01*
D14*
X61792181Y-43091480D02*
X61792181Y-42891480D01*
X61792181Y-42891480D02*
X61892181Y-42991480D01*
D15*
X61592181Y-43191480D02*
X61592181Y-43991480D01*
X61192181Y-43191480D02*
X61192181Y-43991480D01*
X61592181Y-43591480D02*
X61192181Y-43191480D01*
D14*
X60992181Y-43091480D02*
X60992181Y-42891480D01*
X60992181Y-42891480D02*
X61092181Y-42991480D01*
D15*
X61192181Y-43991480D02*
X61592181Y-43591480D01*
X61592181Y-43591480D02*
X61792181Y-43591480D01*
X64992173Y-43991480D02*
X65392173Y-43591480D01*
D14*
X64792173Y-43091480D02*
X64792173Y-42891480D01*
X64792173Y-42891480D02*
X64892173Y-42991480D01*
X64692173Y-42991480D02*
X64792173Y-42891480D01*
X65592173Y-43091480D02*
X65592173Y-42891480D01*
X65492173Y-42991480D02*
X65592173Y-42891480D01*
D15*
X65392173Y-43591480D02*
X64992173Y-43191480D01*
X65392173Y-43191480D02*
X65392173Y-43991480D01*
X64992173Y-43591480D02*
X64792173Y-43591480D01*
D14*
X65592173Y-42891480D02*
X65692173Y-42991480D01*
D15*
X65392173Y-43591480D02*
X65592173Y-43591480D01*
X64992173Y-43191480D02*
X64992173Y-43991480D01*
X69192191Y-43591480D02*
X68792191Y-43191480D01*
X68792191Y-43591480D02*
X68592191Y-43591480D01*
D14*
X68492191Y-42991480D02*
X68592191Y-42891480D01*
D15*
X68792191Y-43991480D02*
X69192191Y-43591480D01*
X68792191Y-43191480D02*
X68792191Y-43991480D01*
X69192191Y-43591480D02*
X69392191Y-43591480D01*
D14*
X69292191Y-42991480D02*
X69392191Y-42891480D01*
X69392191Y-43091480D02*
X69392191Y-42891480D01*
X68592191Y-43091480D02*
X68592191Y-42891480D01*
X68592191Y-42891480D02*
X68692191Y-42991480D01*
X69392191Y-42891480D02*
X69492191Y-42991480D01*
D15*
X69192191Y-43191480D02*
X69192191Y-43991480D01*
X62247400Y-45886600D02*
X61047400Y-45886600D01*
X61047400Y-45886600D02*
X61047400Y-45886600D01*
X62047400Y-44486600D02*
X61447400Y-44486600D01*
X64832000Y-45886600D02*
X64832000Y-45886600D01*
X66032000Y-45886600D02*
X64832000Y-45886600D01*
X65832000Y-44486600D02*
X65232000Y-44486600D01*
X69540400Y-44486600D02*
X68940400Y-44486600D01*
X68540400Y-45886600D02*
X68540400Y-45886600D01*
X69740400Y-45886600D02*
X68540400Y-45886600D01*
X60578000Y-45441841D02*
X60578000Y-45134559D01*
X59818000Y-45441841D02*
X59818000Y-45134559D01*
X63653400Y-45441841D02*
X63653400Y-45134559D01*
X64413400Y-45441841D02*
X64413400Y-45134559D01*
X67234800Y-47397641D02*
X67234800Y-47090359D01*
X67994800Y-47397641D02*
X67994800Y-47090359D01*
X61517559Y-46356000D02*
X61824841Y-46356000D01*
X61517559Y-47116000D02*
X61824841Y-47116000D01*
X65327559Y-46356000D02*
X65634841Y-46356000D01*
X65327559Y-47116000D02*
X65634841Y-47116000D01*
X69010559Y-46356000D02*
X69317841Y-46356000D01*
X69010559Y-47116000D02*
X69317841Y-47116000D01*
M02*
