%TF.GenerationSoftware,KiCad,Pcbnew,(6.0.4)*%
%TF.CreationDate,2022-04-12T12:42:18-04:00*%
%TF.ProjectId,batteryboard,62617474-6572-4796-926f-6172642e6b69,rev?*%
%TF.SameCoordinates,Original*%
%TF.FileFunction,Profile,NP*%
%FSLAX46Y46*%
G04 Gerber Fmt 4.6, Leading zero omitted, Abs format (unit mm)*
G04 Created by KiCad (PCBNEW (6.0.4)) date 2022-04-12 12:42:18*
%MOMM*%
%LPD*%
G01*
G04 APERTURE LIST*
%TA.AperFunction,Profile*%
%ADD10C,0.254000*%
%TD*%
G04 APERTURE END LIST*
D10*
X109626402Y-142773398D02*
X109626402Y-142239998D01*
X109626402Y-142773398D02*
G75*
G03*
X110820202Y-143967198I1193798J-2D01*
G01*
X64742214Y-42841363D02*
X69442149Y-42841363D01*
X141503402Y-105409998D02*
X141503402Y-86639398D01*
X98722190Y-50379354D02*
G75*
G03*
X101122210Y-50379370I1200010J-46D01*
G01*
X124422239Y-50379371D02*
G75*
G03*
X125622219Y-51579361I1199961J-29D01*
G01*
X71022232Y-51529320D02*
G75*
G03*
X72222220Y-50329342I-32J1200020D01*
G01*
X143408400Y-49427575D02*
G75*
G03*
X142305524Y-48324700I-1102900J-25D01*
G01*
X126422213Y-51004361D02*
X126422213Y-44904363D01*
X101122210Y-50379354D02*
X101122210Y-45004363D01*
X98722230Y-50379354D02*
X98722230Y-45004363D01*
X101122220Y-45004353D02*
X124422222Y-45004353D01*
X70222239Y-50954331D02*
X70222239Y-44854333D01*
X124422232Y-50379354D02*
X124422232Y-45004363D01*
X54338847Y-48324702D02*
G75*
G03*
X53238402Y-49425142I-47J-1100398D01*
G01*
X125622220Y-51579361D02*
X125847213Y-51579361D01*
X58338847Y-48324703D02*
G75*
G03*
X58822003Y-47841541I-47J483203D01*
G01*
X72222220Y-50329323D02*
X72222220Y-45004353D01*
X141503402Y-105409998D02*
G75*
G03*
X142265402Y-106171998I761998J-2D01*
G01*
X70797239Y-51529331D02*
X71022232Y-51529331D01*
X72222220Y-45004350D02*
X98722220Y-45004353D01*
X127040060Y-42822678D02*
X127746790Y-42822678D01*
X125847213Y-51579413D02*
G75*
G03*
X126422213Y-51004364I-13J575013D01*
G01*
X53238402Y-85115398D02*
G75*
G03*
X54000402Y-85877398I761998J-2D01*
G01*
X59397198Y-42841386D02*
G75*
G03*
X58822186Y-43416370I2J-575014D01*
G01*
X142646402Y-85877402D02*
G75*
G03*
X143408402Y-85115398I-2J762002D01*
G01*
X137822185Y-47841355D02*
X137822185Y-43391372D01*
X54381402Y-106172002D02*
G75*
G03*
X55143402Y-105409998I-2J762002D01*
G01*
X90500202Y-141046202D02*
G75*
G03*
X89306402Y-142239998I-2J-1193798D01*
G01*
X53238402Y-85115398D02*
X53238402Y-49425142D01*
X143408402Y-106933998D02*
G75*
G03*
X142646402Y-106171998I-762002J-2D01*
G01*
X55143402Y-86639398D02*
G75*
G03*
X54381402Y-85877398I-762002J-2D01*
G01*
X137822203Y-47841355D02*
G75*
G03*
X138305527Y-48324697I483297J-45D01*
G01*
X137822219Y-43391372D02*
G75*
G03*
X137253494Y-42822681I-568719J-28D01*
G01*
X89306402Y-142773398D02*
X89306402Y-142239998D01*
X54338847Y-48324697D02*
X58338847Y-48324697D01*
X70222167Y-50954333D02*
G75*
G03*
X70797239Y-51529333I575033J33D01*
G01*
X143408402Y-85115398D02*
X143408402Y-49427575D01*
X54000402Y-106172002D02*
G75*
G03*
X53238402Y-106933998I-2J-761998D01*
G01*
X138305527Y-48324697D02*
X142305524Y-48324697D01*
X58822003Y-47841541D02*
X58822186Y-43416370D01*
X142265402Y-106171998D02*
X142646402Y-106171998D01*
X142214602Y-143967202D02*
G75*
G03*
X143408402Y-142773398I-2J1193802D01*
G01*
X109626402Y-142239998D02*
G75*
G03*
X108432602Y-141046198I-1193802J-2D01*
G01*
X88112602Y-143967202D02*
G75*
G03*
X89306402Y-142773398I-2J1193802D01*
G01*
X142265402Y-85877398D02*
X142646402Y-85877398D01*
X90500202Y-141046198D02*
X108432602Y-141046198D01*
X70222203Y-44854351D02*
X70222203Y-42841370D01*
X126422177Y-44904381D02*
X126422177Y-42822681D01*
X126422177Y-42822681D02*
X127040068Y-42822681D01*
X142265402Y-85877402D02*
G75*
G03*
X141503402Y-86639398I-2J-761998D01*
G01*
X59397198Y-42841358D02*
X64742207Y-42841358D01*
X127746790Y-42822678D02*
X137253494Y-42822681D01*
X53238393Y-142697198D02*
X53238402Y-106933998D01*
X69442154Y-42841370D02*
X70222203Y-42841370D01*
X53238403Y-142697198D02*
G75*
G03*
X54356002Y-143967198I1193797J-76202D01*
G01*
X110820202Y-143967198D02*
X142214602Y-143967198D01*
X143408402Y-142773398D02*
X143408402Y-106933998D01*
X54000402Y-106171998D02*
X54381402Y-106171998D01*
X54356002Y-143967195D02*
X88112602Y-143967198D01*
X55143402Y-105409998D02*
X55143402Y-86639398D01*
X54000400Y-85877400D02*
X54381400Y-85877400D01*
M02*
