%TF.GenerationSoftware,KiCad,Pcbnew,(6.0.4)*%
%TF.CreationDate,2022-04-12T12:42:18-04:00*%
%TF.ProjectId,batteryboard,62617474-6572-4796-926f-6172642e6b69,rev?*%
%TF.SameCoordinates,Original*%
%TF.FileFunction,Copper,L2,Bot*%
%TF.FilePolarity,Positive*%
%FSLAX46Y46*%
G04 Gerber Fmt 4.6, Leading zero omitted, Abs format (unit mm)*
G04 Created by KiCad (PCBNEW (6.0.4)) date 2022-04-12 12:42:18*
%MOMM*%
%LPD*%
G01*
G04 APERTURE LIST*
G04 Aperture macros list*
%AMRoundRect*
0 Rectangle with rounded corners*
0 $1 Rounding radius*
0 $2 $3 $4 $5 $6 $7 $8 $9 X,Y pos of 4 corners*
0 Add a 4 corners polygon primitive as box body*
4,1,4,$2,$3,$4,$5,$6,$7,$8,$9,$2,$3,0*
0 Add four circle primitives for the rounded corners*
1,1,$1+$1,$2,$3*
1,1,$1+$1,$4,$5*
1,1,$1+$1,$6,$7*
1,1,$1+$1,$8,$9*
0 Add four rect primitives between the rounded corners*
20,1,$1+$1,$2,$3,$4,$5,0*
20,1,$1+$1,$4,$5,$6,$7,0*
20,1,$1+$1,$6,$7,$8,$9,0*
20,1,$1+$1,$8,$9,$2,$3,0*%
%AMFreePoly0*
4,1,12,0.105238,2.379067,0.194454,2.319454,0.254067,2.230238,0.275000,2.125000,0.275000,-1.400000,-0.275000,-1.400000,-0.275000,2.125000,-0.254067,2.230238,-0.194454,2.319454,-0.105238,2.379067,0.000000,2.400000,0.105238,2.379067,0.105238,2.379067,$1*%
G04 Aperture macros list end*
%TA.AperFunction,ComponentPad*%
%ADD10C,2.000000*%
%TD*%
%TA.AperFunction,ComponentPad*%
%ADD11C,5.080000*%
%TD*%
%TA.AperFunction,SMDPad,CuDef*%
%ADD12FreePoly0,0.000000*%
%TD*%
%TA.AperFunction,ComponentPad*%
%ADD13C,1.400000*%
%TD*%
%TA.AperFunction,ComponentPad*%
%ADD14O,1.400000X1.400000*%
%TD*%
%TA.AperFunction,SMDPad,CuDef*%
%ADD15R,6.800000X7.300000*%
%TD*%
%TA.AperFunction,SMDPad,CuDef*%
%ADD16R,4.000000X6.800000*%
%TD*%
%TA.AperFunction,SMDPad,CuDef*%
%ADD17R,4.500000X6.700000*%
%TD*%
%TA.AperFunction,SMDPad,CuDef*%
%ADD18R,0.370000X1.000000*%
%TD*%
%TA.AperFunction,SMDPad,CuDef*%
%ADD19R,0.450000X0.400000*%
%TD*%
%TA.AperFunction,SMDPad,CuDef*%
%ADD20R,0.450000X0.500000*%
%TD*%
%TA.AperFunction,SMDPad,CuDef*%
%ADD21RoundRect,0.135000X0.185000X-0.135000X0.185000X0.135000X-0.185000X0.135000X-0.185000X-0.135000X0*%
%TD*%
%TA.AperFunction,SMDPad,CuDef*%
%ADD22RoundRect,0.135000X-0.135000X-0.185000X0.135000X-0.185000X0.135000X0.185000X-0.135000X0.185000X0*%
%TD*%
%TA.AperFunction,ViaPad*%
%ADD23C,0.584200*%
%TD*%
%TA.AperFunction,ViaPad*%
%ADD24C,0.381000*%
%TD*%
%TA.AperFunction,Conductor*%
%ADD25C,0.508000*%
%TD*%
%TA.AperFunction,Conductor*%
%ADD26C,0.203200*%
%TD*%
%TA.AperFunction,Conductor*%
%ADD27C,0.254000*%
%TD*%
%TA.AperFunction,Conductor*%
%ADD28C,0.279400*%
%TD*%
G04 APERTURE END LIST*
D10*
X55499000Y-67310000D03*
X55499000Y-71247000D03*
X55499000Y-74930000D03*
X55499000Y-63500000D03*
D11*
X62118400Y-53157200D03*
X135778400Y-53157200D03*
X138318400Y-138887200D03*
X58318400Y-138887200D03*
D12*
X73122220Y-47404353D03*
X73922220Y-47404353D03*
X74722220Y-47404353D03*
X75522220Y-47404353D03*
X76322220Y-47404353D03*
X77122220Y-47404353D03*
X77922220Y-47404353D03*
X78722220Y-47404353D03*
X79522220Y-47404353D03*
X80322220Y-47404353D03*
X81122220Y-47404353D03*
X81922220Y-47404353D03*
X82722220Y-47404353D03*
X83522220Y-47404353D03*
X84322220Y-47404353D03*
X85122220Y-47404353D03*
X85922220Y-47404353D03*
X86722220Y-47404353D03*
X87522220Y-47404353D03*
X88322220Y-47404353D03*
X89122220Y-47404353D03*
X89922220Y-47404353D03*
X90722220Y-47404353D03*
X91522220Y-47404353D03*
X92322220Y-47404353D03*
X93122220Y-47404353D03*
X93922220Y-47404353D03*
X94722220Y-47404353D03*
X95522220Y-47404353D03*
X96322220Y-47404353D03*
X97122220Y-47404353D03*
X97922220Y-47404353D03*
X101922220Y-47404353D03*
X102722220Y-47404353D03*
X103522220Y-47404353D03*
X104322220Y-47404353D03*
X105122220Y-47404353D03*
X105922220Y-47404353D03*
X106722220Y-47404353D03*
X107522220Y-47404353D03*
X108322220Y-47404353D03*
X109122220Y-47404353D03*
X109922220Y-47404353D03*
X110722220Y-47404353D03*
X111522220Y-47404353D03*
X112322220Y-47404353D03*
X113122220Y-47404353D03*
X113922220Y-47404353D03*
X114722220Y-47404353D03*
X115522220Y-47404353D03*
X116322220Y-47404353D03*
X117122220Y-47404353D03*
X117922220Y-47404353D03*
X118722220Y-47404353D03*
X119522220Y-47404353D03*
X120322220Y-47404353D03*
X121122220Y-47404353D03*
X121922220Y-47404353D03*
X122722220Y-47404353D03*
X123522220Y-47404353D03*
D13*
X89739000Y-93599000D03*
D14*
X84659000Y-93599000D03*
D15*
X87998300Y-136825100D03*
X87998300Y-55275100D03*
D16*
X127873300Y-55499700D03*
D15*
X129273300Y-136799700D03*
X108623100Y-55249700D03*
X108623100Y-136799700D03*
X67348100Y-136825100D03*
D17*
X68273100Y-55575100D03*
D18*
X62322181Y-43591480D03*
X60462181Y-43591480D03*
X66122173Y-43591480D03*
X64262173Y-43591480D03*
X69922191Y-43591480D03*
X68062191Y-43591480D03*
D19*
X61172400Y-45586600D03*
X61172400Y-44786600D03*
D20*
X62322400Y-45186600D03*
D19*
X64957000Y-45586600D03*
X64957000Y-44786600D03*
D20*
X66107000Y-45186600D03*
D19*
X68665400Y-45586600D03*
X68665400Y-44786600D03*
D20*
X69815400Y-45186600D03*
D21*
X60198000Y-45798200D03*
X60198000Y-44778200D03*
X64033400Y-45798200D03*
X64033400Y-44778200D03*
X67614800Y-47754000D03*
X67614800Y-46734000D03*
D22*
X61161200Y-46736000D03*
X62181200Y-46736000D03*
X64971200Y-46736000D03*
X65991200Y-46736000D03*
X68654200Y-46736000D03*
X69674200Y-46736000D03*
D23*
X90106500Y-65341500D03*
X90106500Y-64579500D03*
X90106500Y-66103500D03*
X90995500Y-65341500D03*
X90995500Y-66103500D03*
X90995500Y-64579500D03*
X124460000Y-58420000D03*
X125730000Y-59690000D03*
X130810000Y-62230000D03*
X124460000Y-55880000D03*
X132080000Y-53340000D03*
X124460000Y-63500000D03*
X127000000Y-60960000D03*
X125730000Y-62230000D03*
X72825000Y-76273000D03*
X132080000Y-55880000D03*
X132080000Y-60960000D03*
X132080000Y-63500000D03*
X128270000Y-62230000D03*
X127000000Y-63500000D03*
X129540000Y-63500000D03*
X89217500Y-66103500D03*
X68507000Y-76273000D03*
X125730000Y-64770000D03*
X124460000Y-53340000D03*
X128270000Y-64770000D03*
X89217500Y-64579500D03*
X130810000Y-64770000D03*
X124460000Y-60960000D03*
X64443000Y-76273000D03*
X132080000Y-58420000D03*
X89217500Y-65341500D03*
X130810000Y-59690000D03*
X128270000Y-59690000D03*
X129540000Y-60960000D03*
D24*
X66128900Y-45948600D03*
X65493900Y-48463200D03*
X61810900Y-45186600D03*
D23*
X120015000Y-53340000D03*
X117475000Y-52070000D03*
X120000000Y-49800000D03*
X121285000Y-50165000D03*
X117475000Y-53340000D03*
X120015000Y-50800000D03*
X121285000Y-51435000D03*
X118722220Y-50187780D03*
X121285000Y-52705000D03*
X118745000Y-51435000D03*
D24*
X65151000Y-50673000D03*
D23*
X120015000Y-52070000D03*
X117475000Y-50800000D03*
X118745000Y-52705000D03*
X115570000Y-139700000D03*
X114300000Y-135890000D03*
X119380000Y-133350000D03*
X118110000Y-137160000D03*
X116840000Y-133350000D03*
X124460000Y-133350000D03*
X72857000Y-78273000D03*
X113030000Y-137160000D03*
X123190000Y-139700000D03*
X115570000Y-134620000D03*
X121920000Y-133350000D03*
X119380000Y-138430000D03*
X114300000Y-133350000D03*
X123190000Y-137160000D03*
X124460000Y-138430000D03*
X64475000Y-78273000D03*
X95250000Y-79502002D03*
X121920000Y-138430000D03*
X124460000Y-135890000D03*
X119380000Y-135890000D03*
X116840000Y-138430000D03*
X120650000Y-139700000D03*
X68539000Y-78273000D03*
X113030000Y-139700000D03*
X116840000Y-135890000D03*
X120650000Y-137160000D03*
X121920000Y-135890000D03*
X115570000Y-137160000D03*
X120650000Y-134620000D03*
X118110000Y-139700000D03*
X118110000Y-134620000D03*
X113030000Y-134620000D03*
X114300000Y-138430000D03*
X123190000Y-134620000D03*
X100330000Y-55880000D03*
X95250000Y-53340000D03*
X97790000Y-58420000D03*
X96520000Y-54610000D03*
X72898000Y-68326000D03*
X96520000Y-57150000D03*
X72898000Y-64262000D03*
X64262000Y-66294000D03*
X92710000Y-55880000D03*
X92710000Y-53340000D03*
X93980000Y-54610000D03*
X100330000Y-58420000D03*
X102870000Y-58420000D03*
X72898000Y-66294000D03*
X64262000Y-64262000D03*
X96520000Y-52070000D03*
X101600000Y-54610000D03*
X99060000Y-54610000D03*
X102870000Y-53340000D03*
X95250000Y-58420000D03*
X68580000Y-68326000D03*
X104140000Y-57150000D03*
X68580000Y-64262000D03*
X68580000Y-66294000D03*
X104140000Y-54610000D03*
X93980000Y-57150000D03*
X104140000Y-52070000D03*
X100330000Y-53340000D03*
X101600000Y-57150000D03*
X99060000Y-57150000D03*
X95250000Y-55880000D03*
X93980000Y-52070000D03*
X64262000Y-68326000D03*
X92710000Y-58420000D03*
X97790000Y-55880000D03*
X102870000Y-55880000D03*
X97790000Y-53340000D03*
X87122000Y-84455000D03*
X92770500Y-83378500D03*
D24*
X67614800Y-46050200D03*
X67945000Y-44450000D03*
D23*
X68580000Y-82296000D03*
X74295000Y-81534000D03*
X77122220Y-49877780D03*
X87122000Y-66802000D03*
D24*
X60198000Y-46990000D03*
X63334900Y-45796200D03*
X82690208Y-51294792D03*
X84328000Y-51294792D03*
X67945000Y-50266600D03*
X73837800Y-50622200D03*
X61707979Y-48068179D03*
D25*
X55499000Y-67310000D02*
X59944000Y-67310000D01*
X59944000Y-67310000D02*
X61214000Y-68580000D01*
X62992000Y-70358000D02*
X62992000Y-75819000D01*
X61214000Y-68580000D02*
X62992000Y-70358000D01*
D26*
X65493900Y-45732700D02*
X65709800Y-45948600D01*
X65493900Y-45323500D02*
X65493900Y-45732700D01*
X65709800Y-45948600D02*
X66128900Y-45948600D01*
X64957000Y-44786600D02*
X65493900Y-45323500D01*
X68834000Y-50038000D02*
X68834000Y-50673000D01*
D27*
X63195200Y-48463200D02*
X65493900Y-48463200D01*
D26*
X67259200Y-48463200D02*
X68834000Y-50038000D01*
X65493900Y-48463200D02*
X67259200Y-48463200D01*
D27*
X62322400Y-45186600D02*
X61874400Y-45186600D01*
D26*
X68456389Y-44995611D02*
X67780389Y-44995611D01*
X67780389Y-44995611D02*
X66827400Y-45948600D01*
D25*
X117922220Y-47404353D02*
X117922220Y-49850220D01*
D27*
X62322400Y-45881600D02*
X62181200Y-46022800D01*
D26*
X68834000Y-50673000D02*
X68580000Y-50927000D01*
D25*
X118722220Y-47404353D02*
X118722220Y-50187780D01*
D26*
X66827400Y-45948600D02*
X66128900Y-45948600D01*
D27*
X62181200Y-46022800D02*
X62181200Y-46736000D01*
X62181200Y-47449200D02*
X63195200Y-48463200D01*
X62322400Y-45186600D02*
X62322400Y-45881600D01*
D26*
X65405000Y-50927000D02*
X65151000Y-50673000D01*
D27*
X62181200Y-46736000D02*
X62181200Y-47449200D01*
D26*
X68665400Y-44786600D02*
X68456389Y-44995611D01*
X65405000Y-50927000D02*
X68580000Y-50927000D01*
D25*
X55499000Y-71247000D02*
X61976000Y-77724000D01*
X61976000Y-77724000D02*
X63119000Y-77724000D01*
X95250000Y-79502002D02*
X83439002Y-79502002D01*
X55499000Y-63500000D02*
X63881000Y-63500000D01*
X115522220Y-47404353D02*
X115522220Y-50498220D01*
X114722220Y-47404353D02*
X114722220Y-50714220D01*
D27*
X69674200Y-46736000D02*
X69674200Y-51864800D01*
D28*
X91694000Y-84455000D02*
X87122000Y-84455000D01*
X92770500Y-83378500D02*
X91694000Y-84455000D01*
D27*
X61172400Y-44332600D02*
X61913520Y-43591480D01*
X61172400Y-44786600D02*
X61172400Y-44332600D01*
X61913520Y-43591480D02*
X62322181Y-43591480D01*
D26*
X60198000Y-44778200D02*
X60198000Y-44577000D01*
X60198000Y-44577000D02*
X60462181Y-44312819D01*
X60462181Y-44312819D02*
X60462181Y-43591480D01*
X66107000Y-45186600D02*
X66107000Y-43606653D01*
X66107000Y-43606653D02*
X66122173Y-43591480D01*
X64262173Y-44549427D02*
X64033400Y-44778200D01*
X64262173Y-43591480D02*
X64262173Y-44549427D01*
X69815400Y-45186600D02*
X69815400Y-44450393D01*
X69891993Y-44373800D02*
X69891993Y-43591480D01*
X69815400Y-44450393D02*
X69891993Y-44373800D01*
X67614800Y-46734000D02*
X67614800Y-46050200D01*
X68062191Y-44332809D02*
X67945000Y-44450000D01*
X68062191Y-43591480D02*
X68062191Y-44332809D01*
D28*
X74295000Y-81534000D02*
X69342000Y-81534000D01*
X69342000Y-81534000D02*
X68580000Y-82296000D01*
D27*
X87122000Y-68326000D02*
X96774000Y-77978000D01*
X96774000Y-86564000D02*
X96774000Y-77978000D01*
X77122220Y-47404353D02*
X77122220Y-49877780D01*
X89739000Y-93599000D02*
X96774000Y-86564000D01*
X87122000Y-68326000D02*
X87122000Y-66802000D01*
D26*
X67612800Y-47752000D02*
X67614800Y-47754000D01*
X63336900Y-45798200D02*
X63334900Y-45796200D01*
X64033400Y-45798200D02*
X63336900Y-45798200D01*
X66865500Y-47752000D02*
X67612800Y-47752000D01*
X66624200Y-46736000D02*
X66827400Y-46939200D01*
X66827400Y-46939200D02*
X66827400Y-47713900D01*
X64033400Y-47269400D02*
X64033400Y-45798200D01*
X60198000Y-46355000D02*
X60198000Y-46990000D01*
X65991200Y-46736000D02*
X66624200Y-46736000D01*
D27*
X84328000Y-51294792D02*
X82690208Y-51294792D01*
D26*
X64516000Y-47752000D02*
X64033400Y-47269400D01*
X66827400Y-47713900D02*
X66865500Y-47752000D01*
D27*
X60198000Y-46583600D02*
X60198000Y-46355000D01*
X60198000Y-45798200D02*
X60198000Y-46990000D01*
X60198000Y-46355000D02*
X60198000Y-45798200D01*
D26*
X66865500Y-47752000D02*
X64516000Y-47752000D01*
X61172400Y-46724800D02*
X61161200Y-46736000D01*
X61172400Y-45586600D02*
X61172400Y-46724800D01*
X64957000Y-46721800D02*
X64971200Y-46736000D01*
X64957000Y-45586600D02*
X64957000Y-46721800D01*
X68654200Y-46736000D02*
X68654200Y-45597800D01*
X68654200Y-45597800D02*
X68665400Y-45586600D01*
X66776600Y-49098200D02*
X67945000Y-50266600D01*
X62738000Y-49098200D02*
X66776600Y-49098200D01*
D27*
X73837800Y-50622200D02*
X97358200Y-50622200D01*
X97922220Y-50058180D02*
X97922220Y-47404353D01*
D26*
X61707990Y-48068190D02*
X62738000Y-49098200D01*
D27*
X97358200Y-50622200D02*
X97922220Y-50058180D01*
%TA.AperFunction,Conductor*%
G36*
X115840170Y-49278421D02*
G01*
X115864073Y-49283175D01*
X115899091Y-49290141D01*
X115944510Y-49308954D01*
X115964329Y-49322196D01*
X115983939Y-49335300D01*
X116018700Y-49370061D01*
X116045045Y-49409488D01*
X116063860Y-49454911D01*
X116075579Y-49513830D01*
X116078000Y-49538410D01*
X116078000Y-51045590D01*
X116075579Y-51070170D01*
X116063860Y-51129089D01*
X116045045Y-51174512D01*
X116018700Y-51213939D01*
X115983939Y-51248700D01*
X115964329Y-51261804D01*
X115944510Y-51275046D01*
X115899091Y-51293859D01*
X115864073Y-51300825D01*
X115840170Y-51305579D01*
X115815590Y-51308000D01*
X104394000Y-51308000D01*
X104394000Y-60189590D01*
X104391579Y-60214170D01*
X104379860Y-60273089D01*
X104361045Y-60318512D01*
X104334700Y-60357939D01*
X104299939Y-60392700D01*
X104280329Y-60405804D01*
X104260510Y-60419046D01*
X104215091Y-60437859D01*
X104180073Y-60444825D01*
X104156170Y-60449579D01*
X104131590Y-60452000D01*
X81148625Y-60452000D01*
X81080504Y-60431998D01*
X81034011Y-60378342D01*
X81023315Y-60312830D01*
X81042161Y-60133522D01*
X81042161Y-60133519D01*
X81042805Y-60127392D01*
X81024329Y-59924375D01*
X81012643Y-59884668D01*
X80968513Y-59734731D01*
X80966771Y-59728812D01*
X80946443Y-59689928D01*
X80875180Y-59553614D01*
X80875177Y-59553610D01*
X80872325Y-59548154D01*
X80744588Y-59389281D01*
X80588425Y-59258244D01*
X80409784Y-59160036D01*
X80403917Y-59158175D01*
X80403915Y-59158174D01*
X80311897Y-59128984D01*
X80215470Y-59098395D01*
X80056819Y-59080600D01*
X79947000Y-59080600D01*
X79795416Y-59095463D01*
X79600261Y-59154384D01*
X79420266Y-59250089D01*
X79262288Y-59378932D01*
X79253727Y-59389281D01*
X79136274Y-59531256D01*
X79136272Y-59531260D01*
X79132345Y-59536006D01*
X79035386Y-59715328D01*
X79033564Y-59721215D01*
X78982967Y-59884668D01*
X78975104Y-59910068D01*
X78953795Y-60112808D01*
X78971999Y-60312830D01*
X78972158Y-60314580D01*
X78958413Y-60384233D01*
X78909192Y-60435398D01*
X78846677Y-60452000D01*
X73406000Y-60452000D01*
X73406000Y-68047479D01*
X73402746Y-68075928D01*
X73387977Y-68139647D01*
X73363789Y-68418928D01*
X73364033Y-68423363D01*
X73364033Y-68423367D01*
X73378387Y-68684177D01*
X73379193Y-68698831D01*
X73380062Y-68703198D01*
X73401548Y-68811219D01*
X73401548Y-68860379D01*
X73391860Y-68909088D01*
X73373045Y-68954512D01*
X73346700Y-68993939D01*
X73311939Y-69028700D01*
X73292329Y-69041804D01*
X73272510Y-69055046D01*
X73227091Y-69073859D01*
X73192073Y-69080825D01*
X73168170Y-69085579D01*
X73143590Y-69088000D01*
X63254410Y-69088000D01*
X63229830Y-69085579D01*
X63205927Y-69080825D01*
X63170909Y-69073859D01*
X63125490Y-69055046D01*
X63105671Y-69041804D01*
X63086061Y-69028700D01*
X63051300Y-68993939D01*
X63024955Y-68954512D01*
X63006140Y-68909089D01*
X62994421Y-68850170D01*
X62992000Y-68825590D01*
X62992000Y-56650410D01*
X62994421Y-56625830D01*
X63006140Y-56566911D01*
X63024955Y-56521488D01*
X63051300Y-56482061D01*
X63086061Y-56447300D01*
X63105671Y-56434196D01*
X63125490Y-56420954D01*
X63170909Y-56402141D01*
X63205927Y-56395175D01*
X63229830Y-56390421D01*
X63254410Y-56388000D01*
X65405000Y-56388000D01*
X65405000Y-51697410D01*
X65407421Y-51672830D01*
X65416596Y-51626701D01*
X65419141Y-51613909D01*
X65437955Y-51568488D01*
X65442061Y-51562344D01*
X65457499Y-51539239D01*
X65464300Y-51529061D01*
X65499061Y-51494300D01*
X65518874Y-51481061D01*
X65538490Y-51467954D01*
X65583909Y-51449141D01*
X65618927Y-51442175D01*
X65642830Y-51437421D01*
X65667410Y-51435000D01*
X70058987Y-51435000D01*
X70127108Y-51455002D01*
X70156381Y-51481061D01*
X70191744Y-51524145D01*
X70207830Y-51543744D01*
X70212618Y-51547673D01*
X70212620Y-51547675D01*
X70329361Y-51643470D01*
X70329366Y-51643473D01*
X70334150Y-51647399D01*
X70478266Y-51724418D01*
X70634637Y-51771841D01*
X70640794Y-51772447D01*
X70640799Y-51772448D01*
X70781415Y-51786288D01*
X70782160Y-51786398D01*
X70782537Y-51786398D01*
X70787577Y-51786894D01*
X70797257Y-51788819D01*
X70810149Y-51786254D01*
X70834737Y-51783831D01*
X70984759Y-51783831D01*
X71009335Y-51786251D01*
X71010066Y-51786396D01*
X71022239Y-51788817D01*
X71026390Y-51787991D01*
X71040325Y-51786894D01*
X71079231Y-51783831D01*
X71250470Y-51770350D01*
X71441777Y-51724418D01*
X71468267Y-51718058D01*
X71468269Y-51718057D01*
X71473081Y-51716902D01*
X71477656Y-51715007D01*
X71680015Y-51631185D01*
X71680020Y-51631182D01*
X71684591Y-51629289D01*
X71688810Y-51626703D01*
X71688815Y-51626701D01*
X71832003Y-51538954D01*
X71879792Y-51509669D01*
X71931872Y-51465189D01*
X71996661Y-51436158D01*
X72013702Y-51435000D01*
X82183473Y-51435000D01*
X82251594Y-51455002D01*
X82298802Y-51510254D01*
X82308531Y-51532365D01*
X82314308Y-51539238D01*
X82314309Y-51539239D01*
X82384771Y-51623064D01*
X82390551Y-51629940D01*
X82496661Y-51700573D01*
X82618329Y-51738585D01*
X82745776Y-51740921D01*
X82840825Y-51715007D01*
X82860093Y-51709754D01*
X82860094Y-51709754D01*
X82868756Y-51707392D01*
X82889074Y-51694917D01*
X82955003Y-51676292D01*
X84059875Y-51676292D01*
X84117877Y-51693832D01*
X84118878Y-51691734D01*
X84126978Y-51695597D01*
X84134453Y-51700573D01*
X84256121Y-51738585D01*
X84383568Y-51740921D01*
X84478617Y-51715007D01*
X84497885Y-51709754D01*
X84497886Y-51709754D01*
X84506548Y-51707392D01*
X84615175Y-51640696D01*
X84700715Y-51546192D01*
X84704630Y-51538112D01*
X84720160Y-51506060D01*
X84767863Y-51453478D01*
X84833551Y-51435000D01*
X98872056Y-51435000D01*
X98940177Y-51455002D01*
X98953890Y-51465191D01*
X99064594Y-51559746D01*
X99162198Y-51619560D01*
X99255581Y-51676788D01*
X99255584Y-51676790D01*
X99259803Y-51679375D01*
X99471324Y-51766993D01*
X99476135Y-51768148D01*
X99476141Y-51768150D01*
X99689132Y-51819287D01*
X99693947Y-51820443D01*
X99922190Y-51838408D01*
X100150434Y-51820446D01*
X100373058Y-51766999D01*
X100436016Y-51740921D01*
X100580007Y-51681278D01*
X100580009Y-51681277D01*
X100584579Y-51679384D01*
X100779790Y-51559757D01*
X100793936Y-51547675D01*
X100890514Y-51465189D01*
X100955304Y-51436158D01*
X100972345Y-51435000D01*
X101600000Y-51435000D01*
X101600000Y-49538410D01*
X101602421Y-49513830D01*
X101614140Y-49454911D01*
X101632955Y-49409488D01*
X101659300Y-49370061D01*
X101694061Y-49335300D01*
X101713671Y-49322196D01*
X101733490Y-49308954D01*
X101778909Y-49290141D01*
X101813927Y-49283175D01*
X101837830Y-49278421D01*
X101862410Y-49276000D01*
X115815590Y-49276000D01*
X115840170Y-49278421D01*
G37*
%TD.AperFunction*%
%TA.AperFunction,Conductor*%
G36*
X124640253Y-51455002D02*
G01*
X124653963Y-51465189D01*
X124760887Y-51556512D01*
X124760891Y-51556515D01*
X124764646Y-51559722D01*
X124959852Y-51679344D01*
X125171368Y-51766955D01*
X125393986Y-51820399D01*
X125507112Y-51829300D01*
X125605075Y-51837009D01*
X125605076Y-51837009D01*
X125618155Y-51838038D01*
X125622223Y-51838847D01*
X125634443Y-51836416D01*
X125635118Y-51836282D01*
X125659701Y-51833861D01*
X125809728Y-51833861D01*
X125834299Y-51836280D01*
X125847219Y-51838850D01*
X125856411Y-51837022D01*
X125862420Y-51836430D01*
X125862473Y-51836430D01*
X125862566Y-51836416D01*
X126003676Y-51822514D01*
X126003677Y-51822514D01*
X126009836Y-51821907D01*
X126081427Y-51800187D01*
X126160274Y-51776267D01*
X126160279Y-51776265D01*
X126166202Y-51774468D01*
X126310309Y-51697435D01*
X126436618Y-51593767D01*
X126529097Y-51481071D01*
X126587773Y-51441099D01*
X126626500Y-51435000D01*
X132491790Y-51435000D01*
X132516413Y-51437429D01*
X132575424Y-51449187D01*
X132620903Y-51468060D01*
X132660371Y-51494488D01*
X132695145Y-51529354D01*
X132721466Y-51568888D01*
X132740220Y-51614417D01*
X132751823Y-51673455D01*
X132754188Y-51698084D01*
X132715685Y-66412985D01*
X132713204Y-66437536D01*
X132701353Y-66496368D01*
X132682456Y-66541703D01*
X132656054Y-66581042D01*
X132621260Y-66615707D01*
X132581825Y-66641962D01*
X132536419Y-66660691D01*
X132477545Y-66672323D01*
X132452985Y-66674713D01*
X124445703Y-66665947D01*
X122159760Y-66663445D01*
X122112599Y-66654230D01*
X121886562Y-66562675D01*
X121882249Y-66561604D01*
X121882244Y-66561602D01*
X121618824Y-66496168D01*
X121618819Y-66496167D01*
X121614503Y-66495095D01*
X121610075Y-66494641D01*
X121610073Y-66494641D01*
X121519322Y-66485343D01*
X121375428Y-66470600D01*
X121201893Y-66470600D01*
X120993674Y-66485343D01*
X120989319Y-66486281D01*
X120989316Y-66486281D01*
X120723974Y-66543407D01*
X120723972Y-66543407D01*
X120719627Y-66544343D01*
X120456627Y-66641369D01*
X120452706Y-66643485D01*
X120452703Y-66643486D01*
X120447314Y-66646394D01*
X120387348Y-66661504D01*
X117766507Y-66658635D01*
X117556976Y-66658406D01*
X117501684Y-66645558D01*
X117500027Y-66644746D01*
X117496184Y-66642514D01*
X117492067Y-66640846D01*
X117492062Y-66640844D01*
X117240488Y-66538946D01*
X117240485Y-66538945D01*
X117236362Y-66537275D01*
X117232049Y-66536204D01*
X117232044Y-66536202D01*
X116968624Y-66470768D01*
X116968619Y-66470767D01*
X116964303Y-66469695D01*
X116959875Y-66469241D01*
X116959873Y-66469241D01*
X116869122Y-66459943D01*
X116725228Y-66445200D01*
X116551693Y-66445200D01*
X116343474Y-66459943D01*
X116339119Y-66460881D01*
X116339116Y-66460881D01*
X116073774Y-66518007D01*
X116073772Y-66518007D01*
X116069427Y-66518943D01*
X115806427Y-66615969D01*
X115802505Y-66618085D01*
X115802501Y-66618087D01*
X115759554Y-66641260D01*
X115699585Y-66656372D01*
X107749917Y-66647670D01*
X101516475Y-66640846D01*
X101469313Y-66631630D01*
X101236362Y-66537275D01*
X101100332Y-66503485D01*
X100968624Y-66470768D01*
X100968619Y-66470767D01*
X100964303Y-66469695D01*
X100959875Y-66469241D01*
X100959873Y-66469241D01*
X100869122Y-66459943D01*
X100725228Y-66445200D01*
X100551693Y-66445200D01*
X100343474Y-66459943D01*
X100339119Y-66460881D01*
X100339116Y-66460881D01*
X100073774Y-66518007D01*
X100073772Y-66518007D01*
X100069427Y-66518943D01*
X99806427Y-66615969D01*
X99802505Y-66618085D01*
X99802501Y-66618087D01*
X99791951Y-66623779D01*
X99731980Y-66638892D01*
X96816262Y-66635700D01*
X96769100Y-66626485D01*
X96611562Y-66562675D01*
X96607249Y-66561604D01*
X96607244Y-66561602D01*
X96343824Y-66496168D01*
X96343819Y-66496167D01*
X96339503Y-66495095D01*
X96335075Y-66494641D01*
X96335073Y-66494641D01*
X96244322Y-66485343D01*
X96100428Y-66470600D01*
X95926893Y-66470600D01*
X95718674Y-66485343D01*
X95714319Y-66486281D01*
X95714316Y-66486281D01*
X95448974Y-66543407D01*
X95448972Y-66543407D01*
X95444627Y-66544343D01*
X95345150Y-66581042D01*
X95222961Y-66626120D01*
X95179213Y-66633908D01*
X87724682Y-66625747D01*
X87656583Y-66605670D01*
X87608411Y-66547965D01*
X87606523Y-66543407D01*
X87599455Y-66526342D01*
X87511840Y-66412160D01*
X87397659Y-66324545D01*
X87390028Y-66321384D01*
X87272319Y-66272628D01*
X87272315Y-66272627D01*
X87264691Y-66269469D01*
X87122000Y-66250683D01*
X86979309Y-66269469D01*
X86846342Y-66324545D01*
X86732160Y-66412160D01*
X86644545Y-66526342D01*
X86589469Y-66659309D01*
X86570683Y-66802000D01*
X86589469Y-66944691D01*
X86592627Y-66952315D01*
X86592628Y-66952319D01*
X86604409Y-66980760D01*
X86614000Y-67028977D01*
X86614000Y-76699590D01*
X86611579Y-76724170D01*
X86599860Y-76783089D01*
X86581045Y-76828512D01*
X86554700Y-76867939D01*
X86519939Y-76902700D01*
X86500329Y-76915804D01*
X86480510Y-76929046D01*
X86435091Y-76947859D01*
X86400073Y-76954825D01*
X86376170Y-76959579D01*
X86351590Y-76962000D01*
X62746410Y-76962000D01*
X62721830Y-76959579D01*
X62697927Y-76954825D01*
X62662909Y-76947859D01*
X62617490Y-76929046D01*
X62597671Y-76915804D01*
X62578061Y-76902700D01*
X62543300Y-76867939D01*
X62516955Y-76828512D01*
X62498140Y-76783089D01*
X62486421Y-76724170D01*
X62484000Y-76699590D01*
X62484000Y-75573410D01*
X62486421Y-75548830D01*
X62498140Y-75489911D01*
X62516955Y-75444488D01*
X62543300Y-75405061D01*
X62578061Y-75370300D01*
X62597671Y-75357196D01*
X62617490Y-75343954D01*
X62662909Y-75325141D01*
X62697927Y-75318175D01*
X62721830Y-75313421D01*
X62746410Y-75311000D01*
X77470000Y-75311000D01*
X77470000Y-61476410D01*
X77472421Y-61451830D01*
X77484140Y-61392911D01*
X77502955Y-61347488D01*
X77529300Y-61308061D01*
X77564061Y-61273300D01*
X77583671Y-61260196D01*
X77603490Y-61246954D01*
X77648909Y-61228141D01*
X77683927Y-61221175D01*
X77707830Y-61216421D01*
X77732410Y-61214000D01*
X105156000Y-61214000D01*
X105156000Y-60087408D01*
X115578595Y-60087408D01*
X115597071Y-60290425D01*
X115654629Y-60485988D01*
X115657486Y-60491453D01*
X115746220Y-60661186D01*
X115746223Y-60661190D01*
X115749075Y-60666646D01*
X115876812Y-60825519D01*
X116032975Y-60956556D01*
X116211616Y-61054764D01*
X116217483Y-61056625D01*
X116217485Y-61056626D01*
X116235047Y-61062197D01*
X116405930Y-61116405D01*
X116564581Y-61134200D01*
X116674400Y-61134200D01*
X116825984Y-61119337D01*
X117021139Y-61060416D01*
X117201134Y-60964711D01*
X117359112Y-60835868D01*
X117415341Y-60767899D01*
X117485126Y-60683544D01*
X117485128Y-60683540D01*
X117489055Y-60678794D01*
X117586014Y-60499472D01*
X117646296Y-60304732D01*
X117667605Y-60101992D01*
X117649129Y-59898975D01*
X117591571Y-59703412D01*
X117581689Y-59684510D01*
X117499980Y-59528214D01*
X117499977Y-59528210D01*
X117497125Y-59522754D01*
X117369388Y-59363881D01*
X117213225Y-59232844D01*
X117034584Y-59134636D01*
X117028717Y-59132775D01*
X117028715Y-59132774D01*
X116937427Y-59103816D01*
X116840270Y-59072995D01*
X116681619Y-59055200D01*
X116571800Y-59055200D01*
X116420216Y-59070063D01*
X116225061Y-59128984D01*
X116045066Y-59224689D01*
X115887088Y-59353532D01*
X115878527Y-59363881D01*
X115761074Y-59505856D01*
X115761072Y-59505860D01*
X115757145Y-59510606D01*
X115660186Y-59689928D01*
X115599904Y-59884668D01*
X115578595Y-60087408D01*
X105156000Y-60087408D01*
X105156000Y-52078410D01*
X105158421Y-52053830D01*
X105170140Y-51994911D01*
X105188955Y-51949488D01*
X105215300Y-51910061D01*
X105250061Y-51875300D01*
X105269671Y-51862196D01*
X105289490Y-51848954D01*
X105334909Y-51830141D01*
X105373252Y-51822514D01*
X105393830Y-51818421D01*
X105418410Y-51816000D01*
X115815590Y-51816000D01*
X115840170Y-51818421D01*
X115860748Y-51822514D01*
X115899091Y-51830141D01*
X115944510Y-51848954D01*
X115964329Y-51862196D01*
X115983939Y-51875300D01*
X116018700Y-51910061D01*
X116045045Y-51949488D01*
X116063860Y-51994911D01*
X116075579Y-52053830D01*
X116078000Y-52078410D01*
X116078000Y-54864000D01*
X122428000Y-54864000D01*
X122428000Y-51697410D01*
X122430421Y-51672830D01*
X122435175Y-51648927D01*
X122442141Y-51613909D01*
X122460955Y-51568488D01*
X122466499Y-51560192D01*
X122487300Y-51529061D01*
X122522061Y-51494300D01*
X122560399Y-51468683D01*
X122561490Y-51467954D01*
X122606909Y-51449141D01*
X122648208Y-51440926D01*
X122665830Y-51437421D01*
X122690410Y-51435000D01*
X124572132Y-51435000D01*
X124640253Y-51455002D01*
G37*
%TD.AperFunction*%
%TA.AperFunction,Conductor*%
G36*
X134318670Y-130367921D02*
G01*
X134342573Y-130372675D01*
X134377591Y-130379641D01*
X134423010Y-130398454D01*
X134442829Y-130411696D01*
X134462439Y-130424800D01*
X134497200Y-130459561D01*
X134523545Y-130498988D01*
X134542360Y-130544411D01*
X134554079Y-130603330D01*
X134556500Y-130627910D01*
X134556500Y-143586698D01*
X134536498Y-143654819D01*
X134482842Y-143701312D01*
X134430500Y-143712698D01*
X110857678Y-143712698D01*
X110833099Y-143710277D01*
X110820202Y-143707712D01*
X110808031Y-143710133D01*
X110796390Y-143710133D01*
X110785409Y-143709654D01*
X110755522Y-143707039D01*
X110668072Y-143699388D01*
X110646449Y-143695576D01*
X110509591Y-143658905D01*
X110488951Y-143651393D01*
X110360541Y-143591514D01*
X110341520Y-143580532D01*
X110225457Y-143499264D01*
X110208633Y-143485146D01*
X110108454Y-143384967D01*
X110094336Y-143368143D01*
X110013068Y-143252080D01*
X110002086Y-143233059D01*
X109942207Y-143104649D01*
X109934695Y-143084010D01*
X109912362Y-143000662D01*
X109898024Y-142947151D01*
X109894211Y-142925525D01*
X109883946Y-142808191D01*
X109883467Y-142797210D01*
X109883467Y-142785569D01*
X109885888Y-142773398D01*
X109883323Y-142760501D01*
X109880902Y-142735922D01*
X109880902Y-142277474D01*
X109883323Y-142252892D01*
X109885888Y-142239998D01*
X109885047Y-142235772D01*
X109867494Y-142012733D01*
X109814275Y-141791065D01*
X109782385Y-141714075D01*
X109728931Y-141585025D01*
X109728929Y-141585021D01*
X109727036Y-141580451D01*
X109607923Y-141386077D01*
X109459871Y-141212729D01*
X109286523Y-141064677D01*
X109092149Y-140945564D01*
X109087579Y-140943671D01*
X109087575Y-140943669D01*
X108886112Y-140860221D01*
X108881535Y-140858325D01*
X108659867Y-140805106D01*
X108544088Y-140795994D01*
X108449792Y-140788573D01*
X108449791Y-140788573D01*
X108436828Y-140787553D01*
X108432602Y-140786712D01*
X108419705Y-140789277D01*
X108395126Y-140791698D01*
X90537678Y-140791698D01*
X90513099Y-140789277D01*
X90500202Y-140786712D01*
X90495943Y-140787559D01*
X90483994Y-140788499D01*
X90483993Y-140788499D01*
X90358626Y-140798366D01*
X90272938Y-140805110D01*
X90268131Y-140806264D01*
X90268125Y-140806265D01*
X90126960Y-140840156D01*
X90051270Y-140858327D01*
X90046699Y-140860220D01*
X90046697Y-140860221D01*
X89845230Y-140943671D01*
X89845226Y-140943673D01*
X89840656Y-140945566D01*
X89646282Y-141064678D01*
X89642522Y-141067890D01*
X89642517Y-141067893D01*
X89476701Y-141209513D01*
X89476698Y-141209516D01*
X89472934Y-141212731D01*
X89469723Y-141216491D01*
X89469719Y-141216495D01*
X89349421Y-141357345D01*
X89324881Y-141386078D01*
X89205768Y-141580451D01*
X89118529Y-141791065D01*
X89065310Y-142012733D01*
X89047757Y-142235772D01*
X89046916Y-142239998D01*
X89049481Y-142252892D01*
X89051902Y-142277474D01*
X89051902Y-142735922D01*
X89049481Y-142760501D01*
X89046916Y-142773398D01*
X89049337Y-142785569D01*
X89049337Y-142797210D01*
X89048858Y-142808191D01*
X89038593Y-142925526D01*
X89034779Y-142947156D01*
X88998109Y-143084011D01*
X88990597Y-143104650D01*
X88930718Y-143233060D01*
X88919736Y-143252081D01*
X88838470Y-143368141D01*
X88824353Y-143384965D01*
X88724168Y-143485151D01*
X88707344Y-143499268D01*
X88591278Y-143580539D01*
X88572269Y-143591514D01*
X88495484Y-143627320D01*
X88443853Y-143651396D01*
X88423215Y-143658907D01*
X88286360Y-143695578D01*
X88264732Y-143699392D01*
X88169641Y-143707712D01*
X88147432Y-143709655D01*
X88136448Y-143710134D01*
X88124775Y-143710134D01*
X88112602Y-143707712D01*
X88099705Y-143710277D01*
X88075126Y-143712698D01*
X61784499Y-143712696D01*
X61716379Y-143692694D01*
X61669886Y-143639038D01*
X61658500Y-143586696D01*
X61658500Y-131947408D01*
X115578595Y-131947408D01*
X115597071Y-132150425D01*
X115598812Y-132156339D01*
X115598812Y-132156341D01*
X115610490Y-132196019D01*
X115654629Y-132345988D01*
X115657486Y-132351453D01*
X115746220Y-132521186D01*
X115746223Y-132521190D01*
X115749075Y-132526646D01*
X115876812Y-132685519D01*
X116032975Y-132816556D01*
X116211616Y-132914764D01*
X116217483Y-132916625D01*
X116217485Y-132916626D01*
X116235047Y-132922197D01*
X116405930Y-132976405D01*
X116564581Y-132994200D01*
X116674400Y-132994200D01*
X116825984Y-132979337D01*
X117021139Y-132920416D01*
X117201134Y-132824711D01*
X117359112Y-132695868D01*
X117464113Y-132568944D01*
X117485126Y-132543544D01*
X117485128Y-132543540D01*
X117489055Y-132538794D01*
X117586014Y-132359472D01*
X117636611Y-132196019D01*
X117644474Y-132170619D01*
X117644475Y-132170616D01*
X117646296Y-132164732D01*
X117666468Y-131972808D01*
X120228795Y-131972808D01*
X120230122Y-131987392D01*
X120244401Y-132144284D01*
X120247271Y-132175825D01*
X120304829Y-132371388D01*
X120307686Y-132376853D01*
X120396420Y-132546586D01*
X120396423Y-132546590D01*
X120399275Y-132552046D01*
X120527012Y-132710919D01*
X120683175Y-132841956D01*
X120861816Y-132940164D01*
X120867683Y-132942025D01*
X120867685Y-132942026D01*
X120885247Y-132947597D01*
X121056130Y-133001805D01*
X121214781Y-133019600D01*
X121324600Y-133019600D01*
X121476184Y-133004737D01*
X121671339Y-132945816D01*
X121851334Y-132850111D01*
X122009312Y-132721268D01*
X122065541Y-132653299D01*
X122135326Y-132568944D01*
X122135328Y-132568940D01*
X122139255Y-132564194D01*
X122236214Y-132384872D01*
X122296496Y-132190132D01*
X122300670Y-132150425D01*
X122317161Y-131993520D01*
X122317161Y-131993519D01*
X122317805Y-131987392D01*
X122299329Y-131784375D01*
X122289446Y-131750794D01*
X122243513Y-131594731D01*
X122241771Y-131588812D01*
X122221443Y-131549928D01*
X122150180Y-131413614D01*
X122150177Y-131413610D01*
X122147325Y-131408154D01*
X122019588Y-131249281D01*
X121863425Y-131118244D01*
X121684784Y-131020036D01*
X121678917Y-131018175D01*
X121678915Y-131018174D01*
X121581283Y-130987203D01*
X121490470Y-130958395D01*
X121331819Y-130940600D01*
X121222000Y-130940600D01*
X121070416Y-130955463D01*
X120875261Y-131014384D01*
X120695266Y-131110089D01*
X120537288Y-131238932D01*
X120528727Y-131249281D01*
X120411274Y-131391256D01*
X120411272Y-131391260D01*
X120407345Y-131396006D01*
X120310386Y-131575328D01*
X120308564Y-131581215D01*
X120257967Y-131744668D01*
X120250104Y-131770068D01*
X120228795Y-131972808D01*
X117666468Y-131972808D01*
X117667605Y-131961992D01*
X117656051Y-131835040D01*
X117649688Y-131765116D01*
X117649688Y-131765115D01*
X117649129Y-131758975D01*
X117591571Y-131563412D01*
X117581689Y-131544510D01*
X117499980Y-131388214D01*
X117499977Y-131388210D01*
X117497125Y-131382754D01*
X117369388Y-131223881D01*
X117213225Y-131092844D01*
X117034584Y-130994636D01*
X117028717Y-130992775D01*
X117028715Y-130992774D01*
X116865192Y-130940901D01*
X116840270Y-130932995D01*
X116681619Y-130915200D01*
X116571800Y-130915200D01*
X116420216Y-130930063D01*
X116225061Y-130988984D01*
X116045066Y-131084689D01*
X115887088Y-131213532D01*
X115862150Y-131243677D01*
X115761074Y-131365856D01*
X115761072Y-131365860D01*
X115757145Y-131370606D01*
X115660186Y-131549928D01*
X115599904Y-131744668D01*
X115599260Y-131750793D01*
X115599260Y-131750794D01*
X115595085Y-131790516D01*
X115578595Y-131947408D01*
X61658500Y-131947408D01*
X61658500Y-130627910D01*
X61660921Y-130603330D01*
X61672640Y-130544411D01*
X61691455Y-130498988D01*
X61717800Y-130459561D01*
X61752561Y-130424800D01*
X61772171Y-130411696D01*
X61791990Y-130398454D01*
X61837409Y-130379641D01*
X61872427Y-130372675D01*
X61896330Y-130367921D01*
X61920910Y-130365500D01*
X134294090Y-130365500D01*
X134318670Y-130367921D01*
G37*
%TD.AperFunction*%
%TA.AperFunction,Conductor*%
G36*
X124109853Y-49296002D02*
G01*
X124156346Y-49349658D01*
X124167732Y-49402000D01*
X124167732Y-50341887D01*
X124165311Y-50366470D01*
X124162746Y-50379365D01*
X124163567Y-50383491D01*
X124181200Y-50607602D01*
X124182355Y-50612415D01*
X124182356Y-50612419D01*
X124233486Y-50825410D01*
X124234641Y-50830220D01*
X124236533Y-50834788D01*
X124236534Y-50834791D01*
X124255170Y-50879783D01*
X124262759Y-50950373D01*
X124230979Y-51013860D01*
X124169920Y-51050086D01*
X124138761Y-51054000D01*
X121666000Y-51054000D01*
X121666000Y-53839590D01*
X121663579Y-53864170D01*
X121651860Y-53923089D01*
X121633045Y-53968512D01*
X121606700Y-54007939D01*
X121571939Y-54042700D01*
X121552329Y-54055804D01*
X121532510Y-54069046D01*
X121487091Y-54087859D01*
X121452073Y-54094825D01*
X121428170Y-54099579D01*
X121403590Y-54102000D01*
X116848410Y-54102000D01*
X116823830Y-54099579D01*
X116799927Y-54094825D01*
X116764909Y-54087859D01*
X116719490Y-54069046D01*
X116699671Y-54055804D01*
X116680061Y-54042700D01*
X116645300Y-54007939D01*
X116618955Y-53968512D01*
X116600140Y-53923089D01*
X116588421Y-53864170D01*
X116586000Y-53839590D01*
X116586000Y-49538410D01*
X116588421Y-49513830D01*
X116600140Y-49454911D01*
X116618955Y-49409488D01*
X116623959Y-49402000D01*
X116645300Y-49370061D01*
X116680061Y-49335300D01*
X116699671Y-49322196D01*
X116719490Y-49308954D01*
X116764909Y-49290141D01*
X116799927Y-49283175D01*
X116823830Y-49278421D01*
X116848410Y-49276000D01*
X124041732Y-49276000D01*
X124109853Y-49296002D01*
G37*
%TD.AperFunction*%
%TA.AperFunction,Conductor*%
G36*
X83582170Y-77472421D02*
G01*
X83606073Y-77477175D01*
X83641091Y-77484141D01*
X83686510Y-77502954D01*
X83706329Y-77516196D01*
X83725939Y-77529300D01*
X83760700Y-77564061D01*
X83787045Y-77603488D01*
X83805860Y-77648911D01*
X83817579Y-77707830D01*
X83820000Y-77732410D01*
X83820000Y-93111399D01*
X83804415Y-93172098D01*
X83777441Y-93221163D01*
X83775577Y-93227038D01*
X83775576Y-93227041D01*
X83722703Y-93393718D01*
X83720841Y-93399588D01*
X83699975Y-93585609D01*
X83715639Y-93772139D01*
X83767235Y-93952075D01*
X83770049Y-93957551D01*
X83770054Y-93957563D01*
X83806066Y-94027634D01*
X83820000Y-94085228D01*
X83820000Y-130365500D01*
X74549000Y-130365500D01*
X74549000Y-123618928D01*
X78013989Y-123618928D01*
X78014233Y-123623363D01*
X78014233Y-123623367D01*
X78017176Y-123676833D01*
X78029393Y-123898831D01*
X78084082Y-124173771D01*
X78176965Y-124438262D01*
X78179018Y-124442213D01*
X78179020Y-124442219D01*
X78304136Y-124683078D01*
X78306188Y-124687028D01*
X78308771Y-124690643D01*
X78308775Y-124690649D01*
X78466585Y-124911483D01*
X78469173Y-124915104D01*
X78662669Y-125117939D01*
X78666165Y-125120695D01*
X78666166Y-125120696D01*
X78718333Y-125161821D01*
X78882814Y-125291488D01*
X78937187Y-125323070D01*
X79121369Y-125430052D01*
X79121375Y-125430055D01*
X79125216Y-125432286D01*
X79129339Y-125433956D01*
X79380912Y-125535854D01*
X79380915Y-125535855D01*
X79385038Y-125537525D01*
X79389351Y-125538596D01*
X79389356Y-125538598D01*
X79652776Y-125604032D01*
X79652781Y-125604033D01*
X79657097Y-125605105D01*
X79661525Y-125605559D01*
X79661527Y-125605559D01*
X79736209Y-125613211D01*
X79896172Y-125629600D01*
X80069707Y-125629600D01*
X80277926Y-125614857D01*
X80282281Y-125613919D01*
X80282284Y-125613919D01*
X80547626Y-125556793D01*
X80547628Y-125556793D01*
X80551973Y-125555857D01*
X80814973Y-125458831D01*
X80864170Y-125432286D01*
X81057762Y-125327829D01*
X81061678Y-125325716D01*
X81287166Y-125159168D01*
X81486937Y-124962510D01*
X81657007Y-124739667D01*
X81793980Y-124495083D01*
X81895125Y-124233639D01*
X81908026Y-124177983D01*
X81957417Y-123964892D01*
X81958423Y-123960553D01*
X81982611Y-123681272D01*
X81982367Y-123676833D01*
X81967452Y-123405812D01*
X81967451Y-123405805D01*
X81967207Y-123401369D01*
X81912518Y-123126429D01*
X81819635Y-122861938D01*
X81792274Y-122809264D01*
X81692464Y-122617122D01*
X81692463Y-122617120D01*
X81690412Y-122613172D01*
X81687829Y-122609557D01*
X81687825Y-122609551D01*
X81530015Y-122388717D01*
X81530012Y-122388713D01*
X81527427Y-122385096D01*
X81333931Y-122182261D01*
X81285606Y-122144164D01*
X81117282Y-122011468D01*
X81113786Y-122008712D01*
X81004720Y-121945362D01*
X80875231Y-121870148D01*
X80875225Y-121870145D01*
X80871384Y-121867914D01*
X80802043Y-121839828D01*
X80615688Y-121764346D01*
X80615685Y-121764345D01*
X80611562Y-121762675D01*
X80607249Y-121761604D01*
X80607244Y-121761602D01*
X80343824Y-121696168D01*
X80343819Y-121696167D01*
X80339503Y-121695095D01*
X80335075Y-121694641D01*
X80335073Y-121694641D01*
X80244322Y-121685343D01*
X80100428Y-121670600D01*
X79926893Y-121670600D01*
X79718674Y-121685343D01*
X79714319Y-121686281D01*
X79714316Y-121686281D01*
X79448974Y-121743407D01*
X79448972Y-121743407D01*
X79444627Y-121744343D01*
X79181627Y-121841369D01*
X79177709Y-121843483D01*
X79128290Y-121870148D01*
X78934922Y-121974484D01*
X78709434Y-122141032D01*
X78509663Y-122337690D01*
X78339593Y-122560533D01*
X78202620Y-122805117D01*
X78101475Y-123066561D01*
X78100472Y-123070886D01*
X78100471Y-123070891D01*
X78087598Y-123126429D01*
X78038177Y-123339647D01*
X78013989Y-123618928D01*
X74549000Y-123618928D01*
X74549000Y-82090210D01*
X74569002Y-82022089D01*
X74598296Y-81990248D01*
X74678290Y-81928866D01*
X74684840Y-81923840D01*
X74772455Y-81809658D01*
X74827531Y-81676691D01*
X74846317Y-81534000D01*
X74827531Y-81391309D01*
X74772455Y-81258342D01*
X74684840Y-81144160D01*
X74598296Y-81077752D01*
X74556429Y-81020414D01*
X74549000Y-80977790D01*
X74549000Y-78994000D01*
X62746410Y-78994000D01*
X62721830Y-78991579D01*
X62697927Y-78986825D01*
X62662909Y-78979859D01*
X62617490Y-78961046D01*
X62597671Y-78947804D01*
X62578061Y-78934700D01*
X62543300Y-78899939D01*
X62516955Y-78860512D01*
X62498140Y-78815089D01*
X62486421Y-78756170D01*
X62484000Y-78731590D01*
X62484000Y-77732410D01*
X62486421Y-77707830D01*
X62498140Y-77648911D01*
X62516955Y-77603488D01*
X62543300Y-77564061D01*
X62578061Y-77529300D01*
X62597671Y-77516196D01*
X62617490Y-77502954D01*
X62662909Y-77484141D01*
X62697927Y-77477175D01*
X62721830Y-77472421D01*
X62746410Y-77470000D01*
X83557590Y-77470000D01*
X83582170Y-77472421D01*
G37*
%TD.AperFunction*%
M02*
