M48
INCH,TZ
T1C0.0060
T2C0.0150
T3C0.0394
T4C0.1250
%
G90
G05
T1
X23700Y-18340
X24260Y-18155
X24335Y-17790
X24935Y-18030
X25785Y-19080
X26035Y-18090
X26750Y-19790
X29070Y-19930
T2
X35125Y-25425
X35125Y-25725
X35125Y-26025
X35475Y-25425
X35475Y-25725
X35475Y-26025
X35825Y-25425
X35825Y-25725
X35825Y-26025
X36525Y-20475
X36525Y-21325
X36525Y-22175
X36525Y-23025
X37075Y-20475
X37075Y-21325
X37075Y-22175
X37075Y-23025
X37500Y-31300
X37625Y-20475
X37625Y-21325
X37625Y-22175
X37625Y-23025
X40442Y-19450
X41072Y-19450
X45481Y-19531
X45481Y-19819
X45481Y-20119
X46111Y-19439
X46175Y-53925
X46175Y-54625
X46175Y-55325
X46175Y-56025
X46775Y-53925
X46775Y-54625
X46775Y-55325
X46775Y-56025
X47375Y-53925
X47375Y-54625
X47375Y-55325
X47375Y-56025
X48050Y-20475
X48050Y-21325
X48050Y-22175
X48050Y-23025
X48600Y-20475
X48600Y-21325
X48600Y-22175
X48600Y-23025
X49150Y-21325
X49150Y-22175
X49150Y-23025
T3
X22000Y-24750
X22000Y-26250
X22000Y-27800
X22000Y-29250
T4
X22960Y-54680
X24456Y-20928
X53456Y-20928
X54456Y-54680
T0
M30
