%TF.GenerationSoftware,KiCad,Pcbnew,7.0.1*%
%TF.CreationDate,2023-06-20T19:29:40-04:00*%
%TF.ProjectId,batteryboard,62617474-6572-4796-926f-6172642e6b69,rev?*%
%TF.SameCoordinates,Original*%
%TF.FileFunction,Legend,Bot*%
%TF.FilePolarity,Positive*%
%FSLAX46Y46*%
G04 Gerber Fmt 4.6, Leading zero omitted, Abs format (unit mm)*
G04 Created by KiCad (PCBNEW 7.0.1) date 2023-06-20 19:29:40*
%MOMM*%
%LPD*%
G01*
G04 APERTURE LIST*
%ADD10C,0.381000*%
%ADD11C,0.127000*%
%ADD12C,0.500000*%
%ADD13C,0.100000*%
%ADD14C,0.060000*%
%ADD15C,0.120000*%
G04 APERTURE END LIST*
D10*
X102943932Y-137477500D02*
X103034646Y-137749643D01*
X103034646Y-137749643D02*
X103125360Y-137840357D01*
X103125360Y-137840357D02*
X103306789Y-137931071D01*
X103306789Y-137931071D02*
X103578932Y-137931071D01*
X103578932Y-137931071D02*
X103760360Y-137840357D01*
X103760360Y-137840357D02*
X103851075Y-137749643D01*
X103851075Y-137749643D02*
X103941789Y-137568214D01*
X103941789Y-137568214D02*
X103941789Y-136842500D01*
X103941789Y-136842500D02*
X102036789Y-136842500D01*
X102036789Y-136842500D02*
X102036789Y-137477500D01*
X102036789Y-137477500D02*
X102127503Y-137658929D01*
X102127503Y-137658929D02*
X102218217Y-137749643D01*
X102218217Y-137749643D02*
X102399646Y-137840357D01*
X102399646Y-137840357D02*
X102581075Y-137840357D01*
X102581075Y-137840357D02*
X102762503Y-137749643D01*
X102762503Y-137749643D02*
X102853217Y-137658929D01*
X102853217Y-137658929D02*
X102943932Y-137477500D01*
X102943932Y-137477500D02*
X102943932Y-136842500D01*
X103941789Y-138747500D02*
X102036789Y-138747500D01*
X102036789Y-138747500D02*
X103397503Y-139382500D01*
X103397503Y-139382500D02*
X102036789Y-140017500D01*
X102036789Y-140017500D02*
X103941789Y-140017500D01*
X82496932Y-138049000D02*
X82587646Y-138321143D01*
X82587646Y-138321143D02*
X82678360Y-138411857D01*
X82678360Y-138411857D02*
X82859789Y-138502571D01*
X82859789Y-138502571D02*
X83131932Y-138502571D01*
X83131932Y-138502571D02*
X83313360Y-138411857D01*
X83313360Y-138411857D02*
X83404075Y-138321143D01*
X83404075Y-138321143D02*
X83494789Y-138139714D01*
X83494789Y-138139714D02*
X83494789Y-137414000D01*
X83494789Y-137414000D02*
X81589789Y-137414000D01*
X81589789Y-137414000D02*
X81589789Y-138049000D01*
X81589789Y-138049000D02*
X81680503Y-138230429D01*
X81680503Y-138230429D02*
X81771217Y-138321143D01*
X81771217Y-138321143D02*
X81952646Y-138411857D01*
X81952646Y-138411857D02*
X82134075Y-138411857D01*
X82134075Y-138411857D02*
X82315503Y-138321143D01*
X82315503Y-138321143D02*
X82406217Y-138230429D01*
X82406217Y-138230429D02*
X82496932Y-138049000D01*
X82496932Y-138049000D02*
X82496932Y-137414000D01*
X83494789Y-139319000D02*
X81589789Y-139319000D01*
X81589789Y-139319000D02*
X82950503Y-139954000D01*
X82950503Y-139954000D02*
X81589789Y-140589000D01*
X81589789Y-140589000D02*
X83494789Y-140589000D01*
X72590932Y-138049000D02*
X72681646Y-138321143D01*
X72681646Y-138321143D02*
X72772360Y-138411857D01*
X72772360Y-138411857D02*
X72953789Y-138502571D01*
X72953789Y-138502571D02*
X73225932Y-138502571D01*
X73225932Y-138502571D02*
X73407360Y-138411857D01*
X73407360Y-138411857D02*
X73498075Y-138321143D01*
X73498075Y-138321143D02*
X73588789Y-138139714D01*
X73588789Y-138139714D02*
X73588789Y-137414000D01*
X73588789Y-137414000D02*
X71683789Y-137414000D01*
X71683789Y-137414000D02*
X71683789Y-138049000D01*
X71683789Y-138049000D02*
X71774503Y-138230429D01*
X71774503Y-138230429D02*
X71865217Y-138321143D01*
X71865217Y-138321143D02*
X72046646Y-138411857D01*
X72046646Y-138411857D02*
X72228075Y-138411857D01*
X72228075Y-138411857D02*
X72409503Y-138321143D01*
X72409503Y-138321143D02*
X72500217Y-138230429D01*
X72500217Y-138230429D02*
X72590932Y-138049000D01*
X72590932Y-138049000D02*
X72590932Y-137414000D01*
X73588789Y-139319000D02*
X71683789Y-139319000D01*
X71683789Y-139319000D02*
X73044503Y-139954000D01*
X73044503Y-139954000D02*
X71683789Y-140589000D01*
X71683789Y-140589000D02*
X73588789Y-140589000D01*
X124152932Y-138049000D02*
X124243646Y-138321143D01*
X124243646Y-138321143D02*
X124334360Y-138411857D01*
X124334360Y-138411857D02*
X124515789Y-138502571D01*
X124515789Y-138502571D02*
X124787932Y-138502571D01*
X124787932Y-138502571D02*
X124969360Y-138411857D01*
X124969360Y-138411857D02*
X125060075Y-138321143D01*
X125060075Y-138321143D02*
X125150789Y-138139714D01*
X125150789Y-138139714D02*
X125150789Y-137414000D01*
X125150789Y-137414000D02*
X123245789Y-137414000D01*
X123245789Y-137414000D02*
X123245789Y-138049000D01*
X123245789Y-138049000D02*
X123336503Y-138230429D01*
X123336503Y-138230429D02*
X123427217Y-138321143D01*
X123427217Y-138321143D02*
X123608646Y-138411857D01*
X123608646Y-138411857D02*
X123790075Y-138411857D01*
X123790075Y-138411857D02*
X123971503Y-138321143D01*
X123971503Y-138321143D02*
X124062217Y-138230429D01*
X124062217Y-138230429D02*
X124152932Y-138049000D01*
X124152932Y-138049000D02*
X124152932Y-137414000D01*
X125150789Y-139319000D02*
X123245789Y-139319000D01*
X123245789Y-139319000D02*
X124606503Y-139954000D01*
X124606503Y-139954000D02*
X123245789Y-140589000D01*
X123245789Y-140589000D02*
X125150789Y-140589000D01*
X123898932Y-52931786D02*
X123989646Y-53203929D01*
X123989646Y-53203929D02*
X124080360Y-53294643D01*
X124080360Y-53294643D02*
X124261789Y-53385357D01*
X124261789Y-53385357D02*
X124533932Y-53385357D01*
X124533932Y-53385357D02*
X124715360Y-53294643D01*
X124715360Y-53294643D02*
X124806075Y-53203929D01*
X124806075Y-53203929D02*
X124896789Y-53022500D01*
X124896789Y-53022500D02*
X124896789Y-52296786D01*
X124896789Y-52296786D02*
X122991789Y-52296786D01*
X122991789Y-52296786D02*
X122991789Y-52931786D01*
X122991789Y-52931786D02*
X123082503Y-53113215D01*
X123082503Y-53113215D02*
X123173217Y-53203929D01*
X123173217Y-53203929D02*
X123354646Y-53294643D01*
X123354646Y-53294643D02*
X123536075Y-53294643D01*
X123536075Y-53294643D02*
X123717503Y-53203929D01*
X123717503Y-53203929D02*
X123808217Y-53113215D01*
X123808217Y-53113215D02*
X123898932Y-52931786D01*
X123898932Y-52931786D02*
X123898932Y-52296786D01*
X124171075Y-54201786D02*
X124171075Y-55653215D01*
X103070932Y-52423786D02*
X103161646Y-52695929D01*
X103161646Y-52695929D02*
X103252360Y-52786643D01*
X103252360Y-52786643D02*
X103433789Y-52877357D01*
X103433789Y-52877357D02*
X103705932Y-52877357D01*
X103705932Y-52877357D02*
X103887360Y-52786643D01*
X103887360Y-52786643D02*
X103978075Y-52695929D01*
X103978075Y-52695929D02*
X104068789Y-52514500D01*
X104068789Y-52514500D02*
X104068789Y-51788786D01*
X104068789Y-51788786D02*
X102163789Y-51788786D01*
X102163789Y-51788786D02*
X102163789Y-52423786D01*
X102163789Y-52423786D02*
X102254503Y-52605215D01*
X102254503Y-52605215D02*
X102345217Y-52695929D01*
X102345217Y-52695929D02*
X102526646Y-52786643D01*
X102526646Y-52786643D02*
X102708075Y-52786643D01*
X102708075Y-52786643D02*
X102889503Y-52695929D01*
X102889503Y-52695929D02*
X102980217Y-52605215D01*
X102980217Y-52605215D02*
X103070932Y-52423786D01*
X103070932Y-52423786D02*
X103070932Y-51788786D01*
X103343075Y-53693786D02*
X103343075Y-55145215D01*
X83558289Y-51852286D02*
X81653289Y-51852286D01*
X81653289Y-51852286D02*
X81653289Y-52578000D01*
X81653289Y-52578000D02*
X81744003Y-52759429D01*
X81744003Y-52759429D02*
X81834717Y-52850143D01*
X81834717Y-52850143D02*
X82016146Y-52940857D01*
X82016146Y-52940857D02*
X82288289Y-52940857D01*
X82288289Y-52940857D02*
X82469717Y-52850143D01*
X82469717Y-52850143D02*
X82560432Y-52759429D01*
X82560432Y-52759429D02*
X82651146Y-52578000D01*
X82651146Y-52578000D02*
X82651146Y-51852286D01*
X82832575Y-53757286D02*
X82832575Y-55208715D01*
X83558289Y-54483000D02*
X82106860Y-54483000D01*
X73652289Y-52296786D02*
X71747289Y-52296786D01*
X71747289Y-52296786D02*
X71747289Y-53022500D01*
X71747289Y-53022500D02*
X71838003Y-53203929D01*
X71838003Y-53203929D02*
X71928717Y-53294643D01*
X71928717Y-53294643D02*
X72110146Y-53385357D01*
X72110146Y-53385357D02*
X72382289Y-53385357D01*
X72382289Y-53385357D02*
X72563717Y-53294643D01*
X72563717Y-53294643D02*
X72654432Y-53203929D01*
X72654432Y-53203929D02*
X72745146Y-53022500D01*
X72745146Y-53022500D02*
X72745146Y-52296786D01*
X72926575Y-54201786D02*
X72926575Y-55653215D01*
X73652289Y-54927500D02*
X72200860Y-54927500D01*
X77562075Y-77696786D02*
X77562075Y-79148215D01*
X77562075Y-81506786D02*
X77562075Y-82958215D01*
X78287789Y-82232500D02*
X76836360Y-82232500D01*
X77562075Y-87348786D02*
X77562075Y-88800215D01*
X77562075Y-91158786D02*
X77562075Y-92610215D01*
X78287789Y-91884500D02*
X76836360Y-91884500D01*
D11*
%TO.C,J104*%
X87657063Y-95233671D02*
X88110634Y-95233671D01*
X88110634Y-95233671D02*
X88201348Y-95203432D01*
X88201348Y-95203432D02*
X88261825Y-95142956D01*
X88261825Y-95142956D02*
X88292063Y-95052242D01*
X88292063Y-95052242D02*
X88292063Y-94991766D01*
X88292063Y-95868671D02*
X88292063Y-95505814D01*
X88292063Y-95687242D02*
X87657063Y-95687242D01*
X87657063Y-95687242D02*
X87747777Y-95626766D01*
X87747777Y-95626766D02*
X87808253Y-95566290D01*
X87808253Y-95566290D02*
X87838491Y-95505814D01*
X87657063Y-96261766D02*
X87657063Y-96322243D01*
X87657063Y-96322243D02*
X87687301Y-96382719D01*
X87687301Y-96382719D02*
X87717539Y-96412957D01*
X87717539Y-96412957D02*
X87778015Y-96443195D01*
X87778015Y-96443195D02*
X87898967Y-96473433D01*
X87898967Y-96473433D02*
X88050158Y-96473433D01*
X88050158Y-96473433D02*
X88171110Y-96443195D01*
X88171110Y-96443195D02*
X88231586Y-96412957D01*
X88231586Y-96412957D02*
X88261825Y-96382719D01*
X88261825Y-96382719D02*
X88292063Y-96322243D01*
X88292063Y-96322243D02*
X88292063Y-96261766D01*
X88292063Y-96261766D02*
X88261825Y-96201290D01*
X88261825Y-96201290D02*
X88231586Y-96171052D01*
X88231586Y-96171052D02*
X88171110Y-96140814D01*
X88171110Y-96140814D02*
X88050158Y-96110576D01*
X88050158Y-96110576D02*
X87898967Y-96110576D01*
X87898967Y-96110576D02*
X87778015Y-96140814D01*
X87778015Y-96140814D02*
X87717539Y-96171052D01*
X87717539Y-96171052D02*
X87687301Y-96201290D01*
X87687301Y-96201290D02*
X87657063Y-96261766D01*
X87868729Y-97017719D02*
X88292063Y-97017719D01*
X87626825Y-96866528D02*
X88080396Y-96715338D01*
X88080396Y-96715338D02*
X88080396Y-97108433D01*
D12*
X88406633Y-118670338D02*
X88406633Y-122479862D01*
X88406633Y-69620338D02*
X88406633Y-73429862D01*
X90311395Y-71525100D02*
X86501871Y-71525100D01*
D11*
%TO.C,J101*%
X128932063Y-95208271D02*
X129385634Y-95208271D01*
X129385634Y-95208271D02*
X129476348Y-95178032D01*
X129476348Y-95178032D02*
X129536825Y-95117556D01*
X129536825Y-95117556D02*
X129567063Y-95026842D01*
X129567063Y-95026842D02*
X129567063Y-94966366D01*
X129567063Y-95843271D02*
X129567063Y-95480414D01*
X129567063Y-95661842D02*
X128932063Y-95661842D01*
X128932063Y-95661842D02*
X129022777Y-95601366D01*
X129022777Y-95601366D02*
X129083253Y-95540890D01*
X129083253Y-95540890D02*
X129113491Y-95480414D01*
X128932063Y-96236366D02*
X128932063Y-96296843D01*
X128932063Y-96296843D02*
X128962301Y-96357319D01*
X128962301Y-96357319D02*
X128992539Y-96387557D01*
X128992539Y-96387557D02*
X129053015Y-96417795D01*
X129053015Y-96417795D02*
X129173967Y-96448033D01*
X129173967Y-96448033D02*
X129325158Y-96448033D01*
X129325158Y-96448033D02*
X129446110Y-96417795D01*
X129446110Y-96417795D02*
X129506586Y-96387557D01*
X129506586Y-96387557D02*
X129536825Y-96357319D01*
X129536825Y-96357319D02*
X129567063Y-96296843D01*
X129567063Y-96296843D02*
X129567063Y-96236366D01*
X129567063Y-96236366D02*
X129536825Y-96175890D01*
X129536825Y-96175890D02*
X129506586Y-96145652D01*
X129506586Y-96145652D02*
X129446110Y-96115414D01*
X129446110Y-96115414D02*
X129325158Y-96085176D01*
X129325158Y-96085176D02*
X129173967Y-96085176D01*
X129173967Y-96085176D02*
X129053015Y-96115414D01*
X129053015Y-96115414D02*
X128992539Y-96145652D01*
X128992539Y-96145652D02*
X128962301Y-96175890D01*
X128962301Y-96175890D02*
X128932063Y-96236366D01*
X129567063Y-97052795D02*
X129567063Y-96689938D01*
X129567063Y-96871366D02*
X128932063Y-96871366D01*
X128932063Y-96871366D02*
X129022777Y-96810890D01*
X129022777Y-96810890D02*
X129083253Y-96750414D01*
X129083253Y-96750414D02*
X129113491Y-96689938D01*
D12*
X129681633Y-118644938D02*
X129681633Y-122454462D01*
X131586395Y-120549700D02*
X127776871Y-120549700D01*
X129681633Y-69594938D02*
X129681633Y-73404462D01*
D11*
%TO.C,J102*%
X108281863Y-95208271D02*
X108735434Y-95208271D01*
X108735434Y-95208271D02*
X108826148Y-95178032D01*
X108826148Y-95178032D02*
X108886625Y-95117556D01*
X108886625Y-95117556D02*
X108916863Y-95026842D01*
X108916863Y-95026842D02*
X108916863Y-94966366D01*
X108916863Y-95843271D02*
X108916863Y-95480414D01*
X108916863Y-95661842D02*
X108281863Y-95661842D01*
X108281863Y-95661842D02*
X108372577Y-95601366D01*
X108372577Y-95601366D02*
X108433053Y-95540890D01*
X108433053Y-95540890D02*
X108463291Y-95480414D01*
X108281863Y-96236366D02*
X108281863Y-96296843D01*
X108281863Y-96296843D02*
X108312101Y-96357319D01*
X108312101Y-96357319D02*
X108342339Y-96387557D01*
X108342339Y-96387557D02*
X108402815Y-96417795D01*
X108402815Y-96417795D02*
X108523767Y-96448033D01*
X108523767Y-96448033D02*
X108674958Y-96448033D01*
X108674958Y-96448033D02*
X108795910Y-96417795D01*
X108795910Y-96417795D02*
X108856386Y-96387557D01*
X108856386Y-96387557D02*
X108886625Y-96357319D01*
X108886625Y-96357319D02*
X108916863Y-96296843D01*
X108916863Y-96296843D02*
X108916863Y-96236366D01*
X108916863Y-96236366D02*
X108886625Y-96175890D01*
X108886625Y-96175890D02*
X108856386Y-96145652D01*
X108856386Y-96145652D02*
X108795910Y-96115414D01*
X108795910Y-96115414D02*
X108674958Y-96085176D01*
X108674958Y-96085176D02*
X108523767Y-96085176D01*
X108523767Y-96085176D02*
X108402815Y-96115414D01*
X108402815Y-96115414D02*
X108342339Y-96145652D01*
X108342339Y-96145652D02*
X108312101Y-96175890D01*
X108312101Y-96175890D02*
X108281863Y-96236366D01*
X108342339Y-96689938D02*
X108312101Y-96720176D01*
X108312101Y-96720176D02*
X108281863Y-96780652D01*
X108281863Y-96780652D02*
X108281863Y-96931843D01*
X108281863Y-96931843D02*
X108312101Y-96992319D01*
X108312101Y-96992319D02*
X108342339Y-97022557D01*
X108342339Y-97022557D02*
X108402815Y-97052795D01*
X108402815Y-97052795D02*
X108463291Y-97052795D01*
X108463291Y-97052795D02*
X108554005Y-97022557D01*
X108554005Y-97022557D02*
X108916863Y-96659700D01*
X108916863Y-96659700D02*
X108916863Y-97052795D01*
D12*
X109031433Y-69594938D02*
X109031433Y-73404462D01*
X109031433Y-118644938D02*
X109031433Y-122454462D01*
X110936195Y-120549700D02*
X107126671Y-120549700D01*
D11*
%TO.C,J105*%
X67006863Y-95233671D02*
X67460434Y-95233671D01*
X67460434Y-95233671D02*
X67551148Y-95203432D01*
X67551148Y-95203432D02*
X67611625Y-95142956D01*
X67611625Y-95142956D02*
X67641863Y-95052242D01*
X67641863Y-95052242D02*
X67641863Y-94991766D01*
X67641863Y-95868671D02*
X67641863Y-95505814D01*
X67641863Y-95687242D02*
X67006863Y-95687242D01*
X67006863Y-95687242D02*
X67097577Y-95626766D01*
X67097577Y-95626766D02*
X67158053Y-95566290D01*
X67158053Y-95566290D02*
X67188291Y-95505814D01*
X67006863Y-96261766D02*
X67006863Y-96322243D01*
X67006863Y-96322243D02*
X67037101Y-96382719D01*
X67037101Y-96382719D02*
X67067339Y-96412957D01*
X67067339Y-96412957D02*
X67127815Y-96443195D01*
X67127815Y-96443195D02*
X67248767Y-96473433D01*
X67248767Y-96473433D02*
X67399958Y-96473433D01*
X67399958Y-96473433D02*
X67520910Y-96443195D01*
X67520910Y-96443195D02*
X67581386Y-96412957D01*
X67581386Y-96412957D02*
X67611625Y-96382719D01*
X67611625Y-96382719D02*
X67641863Y-96322243D01*
X67641863Y-96322243D02*
X67641863Y-96261766D01*
X67641863Y-96261766D02*
X67611625Y-96201290D01*
X67611625Y-96201290D02*
X67581386Y-96171052D01*
X67581386Y-96171052D02*
X67520910Y-96140814D01*
X67520910Y-96140814D02*
X67399958Y-96110576D01*
X67399958Y-96110576D02*
X67248767Y-96110576D01*
X67248767Y-96110576D02*
X67127815Y-96140814D01*
X67127815Y-96140814D02*
X67067339Y-96171052D01*
X67067339Y-96171052D02*
X67037101Y-96201290D01*
X67037101Y-96201290D02*
X67006863Y-96261766D01*
X67006863Y-97047957D02*
X67006863Y-96745576D01*
X67006863Y-96745576D02*
X67309244Y-96715338D01*
X67309244Y-96715338D02*
X67279005Y-96745576D01*
X67279005Y-96745576D02*
X67248767Y-96806052D01*
X67248767Y-96806052D02*
X67248767Y-96957243D01*
X67248767Y-96957243D02*
X67279005Y-97017719D01*
X67279005Y-97017719D02*
X67309244Y-97047957D01*
X67309244Y-97047957D02*
X67369720Y-97078195D01*
X67369720Y-97078195D02*
X67520910Y-97078195D01*
X67520910Y-97078195D02*
X67581386Y-97047957D01*
X67581386Y-97047957D02*
X67611625Y-97017719D01*
X67611625Y-97017719D02*
X67641863Y-96957243D01*
X67641863Y-96957243D02*
X67641863Y-96806052D01*
X67641863Y-96806052D02*
X67611625Y-96745576D01*
X67611625Y-96745576D02*
X67581386Y-96715338D01*
D12*
X67756433Y-118670338D02*
X67756433Y-122479862D01*
X67756433Y-69620338D02*
X67756433Y-73429862D01*
X69661195Y-71525100D02*
X65851671Y-71525100D01*
D11*
%TO.C,D301*%
X59729763Y-43503547D02*
X59094763Y-43503547D01*
X59094763Y-43503547D02*
X59094763Y-43654737D01*
X59094763Y-43654737D02*
X59125001Y-43745452D01*
X59125001Y-43745452D02*
X59185477Y-43805928D01*
X59185477Y-43805928D02*
X59245953Y-43836166D01*
X59245953Y-43836166D02*
X59366905Y-43866404D01*
X59366905Y-43866404D02*
X59457620Y-43866404D01*
X59457620Y-43866404D02*
X59578572Y-43836166D01*
X59578572Y-43836166D02*
X59639048Y-43805928D01*
X59639048Y-43805928D02*
X59699525Y-43745452D01*
X59699525Y-43745452D02*
X59729763Y-43654737D01*
X59729763Y-43654737D02*
X59729763Y-43503547D01*
X59094763Y-44078071D02*
X59094763Y-44471166D01*
X59094763Y-44471166D02*
X59336667Y-44259499D01*
X59336667Y-44259499D02*
X59336667Y-44350214D01*
X59336667Y-44350214D02*
X59366905Y-44410690D01*
X59366905Y-44410690D02*
X59397144Y-44440928D01*
X59397144Y-44440928D02*
X59457620Y-44471166D01*
X59457620Y-44471166D02*
X59608810Y-44471166D01*
X59608810Y-44471166D02*
X59669286Y-44440928D01*
X59669286Y-44440928D02*
X59699525Y-44410690D01*
X59699525Y-44410690D02*
X59729763Y-44350214D01*
X59729763Y-44350214D02*
X59729763Y-44168785D01*
X59729763Y-44168785D02*
X59699525Y-44108309D01*
X59699525Y-44108309D02*
X59669286Y-44078071D01*
X59094763Y-44864261D02*
X59094763Y-44924738D01*
X59094763Y-44924738D02*
X59125001Y-44985214D01*
X59125001Y-44985214D02*
X59155239Y-45015452D01*
X59155239Y-45015452D02*
X59215715Y-45045690D01*
X59215715Y-45045690D02*
X59336667Y-45075928D01*
X59336667Y-45075928D02*
X59487858Y-45075928D01*
X59487858Y-45075928D02*
X59608810Y-45045690D01*
X59608810Y-45045690D02*
X59669286Y-45015452D01*
X59669286Y-45015452D02*
X59699525Y-44985214D01*
X59699525Y-44985214D02*
X59729763Y-44924738D01*
X59729763Y-44924738D02*
X59729763Y-44864261D01*
X59729763Y-44864261D02*
X59699525Y-44803785D01*
X59699525Y-44803785D02*
X59669286Y-44773547D01*
X59669286Y-44773547D02*
X59608810Y-44743309D01*
X59608810Y-44743309D02*
X59487858Y-44713071D01*
X59487858Y-44713071D02*
X59336667Y-44713071D01*
X59336667Y-44713071D02*
X59215715Y-44743309D01*
X59215715Y-44743309D02*
X59155239Y-44773547D01*
X59155239Y-44773547D02*
X59125001Y-44803785D01*
X59125001Y-44803785D02*
X59094763Y-44864261D01*
X59729763Y-45680690D02*
X59729763Y-45317833D01*
X59729763Y-45499261D02*
X59094763Y-45499261D01*
X59094763Y-45499261D02*
X59185477Y-45438785D01*
X59185477Y-45438785D02*
X59245953Y-45378309D01*
X59245953Y-45378309D02*
X59276191Y-45317833D01*
%TO.C,D302*%
X63539763Y-43503547D02*
X62904763Y-43503547D01*
X62904763Y-43503547D02*
X62904763Y-43654737D01*
X62904763Y-43654737D02*
X62935001Y-43745452D01*
X62935001Y-43745452D02*
X62995477Y-43805928D01*
X62995477Y-43805928D02*
X63055953Y-43836166D01*
X63055953Y-43836166D02*
X63176905Y-43866404D01*
X63176905Y-43866404D02*
X63267620Y-43866404D01*
X63267620Y-43866404D02*
X63388572Y-43836166D01*
X63388572Y-43836166D02*
X63449048Y-43805928D01*
X63449048Y-43805928D02*
X63509525Y-43745452D01*
X63509525Y-43745452D02*
X63539763Y-43654737D01*
X63539763Y-43654737D02*
X63539763Y-43503547D01*
X62904763Y-44078071D02*
X62904763Y-44471166D01*
X62904763Y-44471166D02*
X63146667Y-44259499D01*
X63146667Y-44259499D02*
X63146667Y-44350214D01*
X63146667Y-44350214D02*
X63176905Y-44410690D01*
X63176905Y-44410690D02*
X63207144Y-44440928D01*
X63207144Y-44440928D02*
X63267620Y-44471166D01*
X63267620Y-44471166D02*
X63418810Y-44471166D01*
X63418810Y-44471166D02*
X63479286Y-44440928D01*
X63479286Y-44440928D02*
X63509525Y-44410690D01*
X63509525Y-44410690D02*
X63539763Y-44350214D01*
X63539763Y-44350214D02*
X63539763Y-44168785D01*
X63539763Y-44168785D02*
X63509525Y-44108309D01*
X63509525Y-44108309D02*
X63479286Y-44078071D01*
X62904763Y-44864261D02*
X62904763Y-44924738D01*
X62904763Y-44924738D02*
X62935001Y-44985214D01*
X62935001Y-44985214D02*
X62965239Y-45015452D01*
X62965239Y-45015452D02*
X63025715Y-45045690D01*
X63025715Y-45045690D02*
X63146667Y-45075928D01*
X63146667Y-45075928D02*
X63297858Y-45075928D01*
X63297858Y-45075928D02*
X63418810Y-45045690D01*
X63418810Y-45045690D02*
X63479286Y-45015452D01*
X63479286Y-45015452D02*
X63509525Y-44985214D01*
X63509525Y-44985214D02*
X63539763Y-44924738D01*
X63539763Y-44924738D02*
X63539763Y-44864261D01*
X63539763Y-44864261D02*
X63509525Y-44803785D01*
X63509525Y-44803785D02*
X63479286Y-44773547D01*
X63479286Y-44773547D02*
X63418810Y-44743309D01*
X63418810Y-44743309D02*
X63297858Y-44713071D01*
X63297858Y-44713071D02*
X63146667Y-44713071D01*
X63146667Y-44713071D02*
X63025715Y-44743309D01*
X63025715Y-44743309D02*
X62965239Y-44773547D01*
X62965239Y-44773547D02*
X62935001Y-44803785D01*
X62935001Y-44803785D02*
X62904763Y-44864261D01*
X62965239Y-45317833D02*
X62935001Y-45348071D01*
X62935001Y-45348071D02*
X62904763Y-45408547D01*
X62904763Y-45408547D02*
X62904763Y-45559738D01*
X62904763Y-45559738D02*
X62935001Y-45620214D01*
X62935001Y-45620214D02*
X62965239Y-45650452D01*
X62965239Y-45650452D02*
X63025715Y-45680690D01*
X63025715Y-45680690D02*
X63086191Y-45680690D01*
X63086191Y-45680690D02*
X63176905Y-45650452D01*
X63176905Y-45650452D02*
X63539763Y-45287595D01*
X63539763Y-45287595D02*
X63539763Y-45680690D01*
%TO.C,D304*%
X69838963Y-48837547D02*
X69203963Y-48837547D01*
X69203963Y-48837547D02*
X69203963Y-48988737D01*
X69203963Y-48988737D02*
X69234201Y-49079452D01*
X69234201Y-49079452D02*
X69294677Y-49139928D01*
X69294677Y-49139928D02*
X69355153Y-49170166D01*
X69355153Y-49170166D02*
X69476105Y-49200404D01*
X69476105Y-49200404D02*
X69566820Y-49200404D01*
X69566820Y-49200404D02*
X69687772Y-49170166D01*
X69687772Y-49170166D02*
X69748248Y-49139928D01*
X69748248Y-49139928D02*
X69808725Y-49079452D01*
X69808725Y-49079452D02*
X69838963Y-48988737D01*
X69838963Y-48988737D02*
X69838963Y-48837547D01*
X69203963Y-49412071D02*
X69203963Y-49805166D01*
X69203963Y-49805166D02*
X69445867Y-49593499D01*
X69445867Y-49593499D02*
X69445867Y-49684214D01*
X69445867Y-49684214D02*
X69476105Y-49744690D01*
X69476105Y-49744690D02*
X69506344Y-49774928D01*
X69506344Y-49774928D02*
X69566820Y-49805166D01*
X69566820Y-49805166D02*
X69718010Y-49805166D01*
X69718010Y-49805166D02*
X69778486Y-49774928D01*
X69778486Y-49774928D02*
X69808725Y-49744690D01*
X69808725Y-49744690D02*
X69838963Y-49684214D01*
X69838963Y-49684214D02*
X69838963Y-49502785D01*
X69838963Y-49502785D02*
X69808725Y-49442309D01*
X69808725Y-49442309D02*
X69778486Y-49412071D01*
X69203963Y-50198261D02*
X69203963Y-50258738D01*
X69203963Y-50258738D02*
X69234201Y-50319214D01*
X69234201Y-50319214D02*
X69264439Y-50349452D01*
X69264439Y-50349452D02*
X69324915Y-50379690D01*
X69324915Y-50379690D02*
X69445867Y-50409928D01*
X69445867Y-50409928D02*
X69597058Y-50409928D01*
X69597058Y-50409928D02*
X69718010Y-50379690D01*
X69718010Y-50379690D02*
X69778486Y-50349452D01*
X69778486Y-50349452D02*
X69808725Y-50319214D01*
X69808725Y-50319214D02*
X69838963Y-50258738D01*
X69838963Y-50258738D02*
X69838963Y-50198261D01*
X69838963Y-50198261D02*
X69808725Y-50137785D01*
X69808725Y-50137785D02*
X69778486Y-50107547D01*
X69778486Y-50107547D02*
X69718010Y-50077309D01*
X69718010Y-50077309D02*
X69597058Y-50047071D01*
X69597058Y-50047071D02*
X69445867Y-50047071D01*
X69445867Y-50047071D02*
X69324915Y-50077309D01*
X69324915Y-50077309D02*
X69264439Y-50107547D01*
X69264439Y-50107547D02*
X69234201Y-50137785D01*
X69234201Y-50137785D02*
X69203963Y-50198261D01*
X69415629Y-50954214D02*
X69838963Y-50954214D01*
X69173725Y-50803023D02*
X69627296Y-50651833D01*
X69627296Y-50651833D02*
X69627296Y-51044928D01*
%TO.C,Q302*%
X66267239Y-48229761D02*
X66237001Y-48169285D01*
X66237001Y-48169285D02*
X66176525Y-48108809D01*
X66176525Y-48108809D02*
X66085810Y-48018095D01*
X66085810Y-48018095D02*
X66055572Y-47957618D01*
X66055572Y-47957618D02*
X66055572Y-47897142D01*
X66206763Y-47927380D02*
X66176525Y-47866904D01*
X66176525Y-47866904D02*
X66116048Y-47806428D01*
X66116048Y-47806428D02*
X65995096Y-47776190D01*
X65995096Y-47776190D02*
X65783429Y-47776190D01*
X65783429Y-47776190D02*
X65662477Y-47806428D01*
X65662477Y-47806428D02*
X65602001Y-47866904D01*
X65602001Y-47866904D02*
X65571763Y-47927380D01*
X65571763Y-47927380D02*
X65571763Y-48048333D01*
X65571763Y-48048333D02*
X65602001Y-48108809D01*
X65602001Y-48108809D02*
X65662477Y-48169285D01*
X65662477Y-48169285D02*
X65783429Y-48199523D01*
X65783429Y-48199523D02*
X65995096Y-48199523D01*
X65995096Y-48199523D02*
X66116048Y-48169285D01*
X66116048Y-48169285D02*
X66176525Y-48108809D01*
X66176525Y-48108809D02*
X66206763Y-48048333D01*
X66206763Y-48048333D02*
X66206763Y-47927380D01*
X65571763Y-48411190D02*
X65571763Y-48804285D01*
X65571763Y-48804285D02*
X65813667Y-48592618D01*
X65813667Y-48592618D02*
X65813667Y-48683333D01*
X65813667Y-48683333D02*
X65843905Y-48743809D01*
X65843905Y-48743809D02*
X65874144Y-48774047D01*
X65874144Y-48774047D02*
X65934620Y-48804285D01*
X65934620Y-48804285D02*
X66085810Y-48804285D01*
X66085810Y-48804285D02*
X66146286Y-48774047D01*
X66146286Y-48774047D02*
X66176525Y-48743809D01*
X66176525Y-48743809D02*
X66206763Y-48683333D01*
X66206763Y-48683333D02*
X66206763Y-48501904D01*
X66206763Y-48501904D02*
X66176525Y-48441428D01*
X66176525Y-48441428D02*
X66146286Y-48411190D01*
X65571763Y-49197380D02*
X65571763Y-49257857D01*
X65571763Y-49257857D02*
X65602001Y-49318333D01*
X65602001Y-49318333D02*
X65632239Y-49348571D01*
X65632239Y-49348571D02*
X65692715Y-49378809D01*
X65692715Y-49378809D02*
X65813667Y-49409047D01*
X65813667Y-49409047D02*
X65964858Y-49409047D01*
X65964858Y-49409047D02*
X66085810Y-49378809D01*
X66085810Y-49378809D02*
X66146286Y-49348571D01*
X66146286Y-49348571D02*
X66176525Y-49318333D01*
X66176525Y-49318333D02*
X66206763Y-49257857D01*
X66206763Y-49257857D02*
X66206763Y-49197380D01*
X66206763Y-49197380D02*
X66176525Y-49136904D01*
X66176525Y-49136904D02*
X66146286Y-49106666D01*
X66146286Y-49106666D02*
X66085810Y-49076428D01*
X66085810Y-49076428D02*
X65964858Y-49046190D01*
X65964858Y-49046190D02*
X65813667Y-49046190D01*
X65813667Y-49046190D02*
X65692715Y-49076428D01*
X65692715Y-49076428D02*
X65632239Y-49106666D01*
X65632239Y-49106666D02*
X65602001Y-49136904D01*
X65602001Y-49136904D02*
X65571763Y-49197380D01*
X65632239Y-49650952D02*
X65602001Y-49681190D01*
X65602001Y-49681190D02*
X65571763Y-49741666D01*
X65571763Y-49741666D02*
X65571763Y-49892857D01*
X65571763Y-49892857D02*
X65602001Y-49953333D01*
X65602001Y-49953333D02*
X65632239Y-49983571D01*
X65632239Y-49983571D02*
X65692715Y-50013809D01*
X65692715Y-50013809D02*
X65753191Y-50013809D01*
X65753191Y-50013809D02*
X65843905Y-49983571D01*
X65843905Y-49983571D02*
X66206763Y-49620714D01*
X66206763Y-49620714D02*
X66206763Y-50013809D01*
%TO.C,Q304*%
X69010439Y-49245761D02*
X68980201Y-49185285D01*
X68980201Y-49185285D02*
X68919725Y-49124809D01*
X68919725Y-49124809D02*
X68829010Y-49034095D01*
X68829010Y-49034095D02*
X68798772Y-48973618D01*
X68798772Y-48973618D02*
X68798772Y-48913142D01*
X68949963Y-48943380D02*
X68919725Y-48882904D01*
X68919725Y-48882904D02*
X68859248Y-48822428D01*
X68859248Y-48822428D02*
X68738296Y-48792190D01*
X68738296Y-48792190D02*
X68526629Y-48792190D01*
X68526629Y-48792190D02*
X68405677Y-48822428D01*
X68405677Y-48822428D02*
X68345201Y-48882904D01*
X68345201Y-48882904D02*
X68314963Y-48943380D01*
X68314963Y-48943380D02*
X68314963Y-49064333D01*
X68314963Y-49064333D02*
X68345201Y-49124809D01*
X68345201Y-49124809D02*
X68405677Y-49185285D01*
X68405677Y-49185285D02*
X68526629Y-49215523D01*
X68526629Y-49215523D02*
X68738296Y-49215523D01*
X68738296Y-49215523D02*
X68859248Y-49185285D01*
X68859248Y-49185285D02*
X68919725Y-49124809D01*
X68919725Y-49124809D02*
X68949963Y-49064333D01*
X68949963Y-49064333D02*
X68949963Y-48943380D01*
X68314963Y-49427190D02*
X68314963Y-49820285D01*
X68314963Y-49820285D02*
X68556867Y-49608618D01*
X68556867Y-49608618D02*
X68556867Y-49699333D01*
X68556867Y-49699333D02*
X68587105Y-49759809D01*
X68587105Y-49759809D02*
X68617344Y-49790047D01*
X68617344Y-49790047D02*
X68677820Y-49820285D01*
X68677820Y-49820285D02*
X68829010Y-49820285D01*
X68829010Y-49820285D02*
X68889486Y-49790047D01*
X68889486Y-49790047D02*
X68919725Y-49759809D01*
X68919725Y-49759809D02*
X68949963Y-49699333D01*
X68949963Y-49699333D02*
X68949963Y-49517904D01*
X68949963Y-49517904D02*
X68919725Y-49457428D01*
X68919725Y-49457428D02*
X68889486Y-49427190D01*
X68314963Y-50213380D02*
X68314963Y-50273857D01*
X68314963Y-50273857D02*
X68345201Y-50334333D01*
X68345201Y-50334333D02*
X68375439Y-50364571D01*
X68375439Y-50364571D02*
X68435915Y-50394809D01*
X68435915Y-50394809D02*
X68556867Y-50425047D01*
X68556867Y-50425047D02*
X68708058Y-50425047D01*
X68708058Y-50425047D02*
X68829010Y-50394809D01*
X68829010Y-50394809D02*
X68889486Y-50364571D01*
X68889486Y-50364571D02*
X68919725Y-50334333D01*
X68919725Y-50334333D02*
X68949963Y-50273857D01*
X68949963Y-50273857D02*
X68949963Y-50213380D01*
X68949963Y-50213380D02*
X68919725Y-50152904D01*
X68919725Y-50152904D02*
X68889486Y-50122666D01*
X68889486Y-50122666D02*
X68829010Y-50092428D01*
X68829010Y-50092428D02*
X68708058Y-50062190D01*
X68708058Y-50062190D02*
X68556867Y-50062190D01*
X68556867Y-50062190D02*
X68435915Y-50092428D01*
X68435915Y-50092428D02*
X68375439Y-50122666D01*
X68375439Y-50122666D02*
X68345201Y-50152904D01*
X68345201Y-50152904D02*
X68314963Y-50213380D01*
X68526629Y-50969333D02*
X68949963Y-50969333D01*
X68284725Y-50818142D02*
X68738296Y-50666952D01*
X68738296Y-50666952D02*
X68738296Y-51060047D01*
%TO.C,R302*%
X60364763Y-47231904D02*
X60062382Y-47020237D01*
X60364763Y-46869047D02*
X59729763Y-46869047D01*
X59729763Y-46869047D02*
X59729763Y-47110952D01*
X59729763Y-47110952D02*
X59760001Y-47171428D01*
X59760001Y-47171428D02*
X59790239Y-47201666D01*
X59790239Y-47201666D02*
X59850715Y-47231904D01*
X59850715Y-47231904D02*
X59941429Y-47231904D01*
X59941429Y-47231904D02*
X60001905Y-47201666D01*
X60001905Y-47201666D02*
X60032144Y-47171428D01*
X60032144Y-47171428D02*
X60062382Y-47110952D01*
X60062382Y-47110952D02*
X60062382Y-46869047D01*
X59729763Y-47443571D02*
X59729763Y-47836666D01*
X59729763Y-47836666D02*
X59971667Y-47624999D01*
X59971667Y-47624999D02*
X59971667Y-47715714D01*
X59971667Y-47715714D02*
X60001905Y-47776190D01*
X60001905Y-47776190D02*
X60032144Y-47806428D01*
X60032144Y-47806428D02*
X60092620Y-47836666D01*
X60092620Y-47836666D02*
X60243810Y-47836666D01*
X60243810Y-47836666D02*
X60304286Y-47806428D01*
X60304286Y-47806428D02*
X60334525Y-47776190D01*
X60334525Y-47776190D02*
X60364763Y-47715714D01*
X60364763Y-47715714D02*
X60364763Y-47534285D01*
X60364763Y-47534285D02*
X60334525Y-47473809D01*
X60334525Y-47473809D02*
X60304286Y-47443571D01*
X59729763Y-48229761D02*
X59729763Y-48290238D01*
X59729763Y-48290238D02*
X59760001Y-48350714D01*
X59760001Y-48350714D02*
X59790239Y-48380952D01*
X59790239Y-48380952D02*
X59850715Y-48411190D01*
X59850715Y-48411190D02*
X59971667Y-48441428D01*
X59971667Y-48441428D02*
X60122858Y-48441428D01*
X60122858Y-48441428D02*
X60243810Y-48411190D01*
X60243810Y-48411190D02*
X60304286Y-48380952D01*
X60304286Y-48380952D02*
X60334525Y-48350714D01*
X60334525Y-48350714D02*
X60364763Y-48290238D01*
X60364763Y-48290238D02*
X60364763Y-48229761D01*
X60364763Y-48229761D02*
X60334525Y-48169285D01*
X60334525Y-48169285D02*
X60304286Y-48139047D01*
X60304286Y-48139047D02*
X60243810Y-48108809D01*
X60243810Y-48108809D02*
X60122858Y-48078571D01*
X60122858Y-48078571D02*
X59971667Y-48078571D01*
X59971667Y-48078571D02*
X59850715Y-48108809D01*
X59850715Y-48108809D02*
X59790239Y-48139047D01*
X59790239Y-48139047D02*
X59760001Y-48169285D01*
X59760001Y-48169285D02*
X59729763Y-48229761D01*
X59790239Y-48683333D02*
X59760001Y-48713571D01*
X59760001Y-48713571D02*
X59729763Y-48774047D01*
X59729763Y-48774047D02*
X59729763Y-48925238D01*
X59729763Y-48925238D02*
X59760001Y-48985714D01*
X59760001Y-48985714D02*
X59790239Y-49015952D01*
X59790239Y-49015952D02*
X59850715Y-49046190D01*
X59850715Y-49046190D02*
X59911191Y-49046190D01*
X59911191Y-49046190D02*
X60001905Y-49015952D01*
X60001905Y-49015952D02*
X60364763Y-48653095D01*
X60364763Y-48653095D02*
X60364763Y-49046190D01*
%TO.C,R304*%
X64301763Y-47358904D02*
X63999382Y-47147237D01*
X64301763Y-46996047D02*
X63666763Y-46996047D01*
X63666763Y-46996047D02*
X63666763Y-47237952D01*
X63666763Y-47237952D02*
X63697001Y-47298428D01*
X63697001Y-47298428D02*
X63727239Y-47328666D01*
X63727239Y-47328666D02*
X63787715Y-47358904D01*
X63787715Y-47358904D02*
X63878429Y-47358904D01*
X63878429Y-47358904D02*
X63938905Y-47328666D01*
X63938905Y-47328666D02*
X63969144Y-47298428D01*
X63969144Y-47298428D02*
X63999382Y-47237952D01*
X63999382Y-47237952D02*
X63999382Y-46996047D01*
X63666763Y-47570571D02*
X63666763Y-47963666D01*
X63666763Y-47963666D02*
X63908667Y-47751999D01*
X63908667Y-47751999D02*
X63908667Y-47842714D01*
X63908667Y-47842714D02*
X63938905Y-47903190D01*
X63938905Y-47903190D02*
X63969144Y-47933428D01*
X63969144Y-47933428D02*
X64029620Y-47963666D01*
X64029620Y-47963666D02*
X64180810Y-47963666D01*
X64180810Y-47963666D02*
X64241286Y-47933428D01*
X64241286Y-47933428D02*
X64271525Y-47903190D01*
X64271525Y-47903190D02*
X64301763Y-47842714D01*
X64301763Y-47842714D02*
X64301763Y-47661285D01*
X64301763Y-47661285D02*
X64271525Y-47600809D01*
X64271525Y-47600809D02*
X64241286Y-47570571D01*
X63666763Y-48356761D02*
X63666763Y-48417238D01*
X63666763Y-48417238D02*
X63697001Y-48477714D01*
X63697001Y-48477714D02*
X63727239Y-48507952D01*
X63727239Y-48507952D02*
X63787715Y-48538190D01*
X63787715Y-48538190D02*
X63908667Y-48568428D01*
X63908667Y-48568428D02*
X64059858Y-48568428D01*
X64059858Y-48568428D02*
X64180810Y-48538190D01*
X64180810Y-48538190D02*
X64241286Y-48507952D01*
X64241286Y-48507952D02*
X64271525Y-48477714D01*
X64271525Y-48477714D02*
X64301763Y-48417238D01*
X64301763Y-48417238D02*
X64301763Y-48356761D01*
X64301763Y-48356761D02*
X64271525Y-48296285D01*
X64271525Y-48296285D02*
X64241286Y-48266047D01*
X64241286Y-48266047D02*
X64180810Y-48235809D01*
X64180810Y-48235809D02*
X64059858Y-48205571D01*
X64059858Y-48205571D02*
X63908667Y-48205571D01*
X63908667Y-48205571D02*
X63787715Y-48235809D01*
X63787715Y-48235809D02*
X63727239Y-48266047D01*
X63727239Y-48266047D02*
X63697001Y-48296285D01*
X63697001Y-48296285D02*
X63666763Y-48356761D01*
X63878429Y-49112714D02*
X64301763Y-49112714D01*
X63636525Y-48961523D02*
X64090096Y-48810333D01*
X64090096Y-48810333D02*
X64090096Y-49203428D01*
%TO.C,R308*%
X67095763Y-49200404D02*
X66793382Y-48988737D01*
X67095763Y-48837547D02*
X66460763Y-48837547D01*
X66460763Y-48837547D02*
X66460763Y-49079452D01*
X66460763Y-49079452D02*
X66491001Y-49139928D01*
X66491001Y-49139928D02*
X66521239Y-49170166D01*
X66521239Y-49170166D02*
X66581715Y-49200404D01*
X66581715Y-49200404D02*
X66672429Y-49200404D01*
X66672429Y-49200404D02*
X66732905Y-49170166D01*
X66732905Y-49170166D02*
X66763144Y-49139928D01*
X66763144Y-49139928D02*
X66793382Y-49079452D01*
X66793382Y-49079452D02*
X66793382Y-48837547D01*
X66460763Y-49412071D02*
X66460763Y-49805166D01*
X66460763Y-49805166D02*
X66702667Y-49593499D01*
X66702667Y-49593499D02*
X66702667Y-49684214D01*
X66702667Y-49684214D02*
X66732905Y-49744690D01*
X66732905Y-49744690D02*
X66763144Y-49774928D01*
X66763144Y-49774928D02*
X66823620Y-49805166D01*
X66823620Y-49805166D02*
X66974810Y-49805166D01*
X66974810Y-49805166D02*
X67035286Y-49774928D01*
X67035286Y-49774928D02*
X67065525Y-49744690D01*
X67065525Y-49744690D02*
X67095763Y-49684214D01*
X67095763Y-49684214D02*
X67095763Y-49502785D01*
X67095763Y-49502785D02*
X67065525Y-49442309D01*
X67065525Y-49442309D02*
X67035286Y-49412071D01*
X66460763Y-50198261D02*
X66460763Y-50258738D01*
X66460763Y-50258738D02*
X66491001Y-50319214D01*
X66491001Y-50319214D02*
X66521239Y-50349452D01*
X66521239Y-50349452D02*
X66581715Y-50379690D01*
X66581715Y-50379690D02*
X66702667Y-50409928D01*
X66702667Y-50409928D02*
X66853858Y-50409928D01*
X66853858Y-50409928D02*
X66974810Y-50379690D01*
X66974810Y-50379690D02*
X67035286Y-50349452D01*
X67035286Y-50349452D02*
X67065525Y-50319214D01*
X67065525Y-50319214D02*
X67095763Y-50258738D01*
X67095763Y-50258738D02*
X67095763Y-50198261D01*
X67095763Y-50198261D02*
X67065525Y-50137785D01*
X67065525Y-50137785D02*
X67035286Y-50107547D01*
X67035286Y-50107547D02*
X66974810Y-50077309D01*
X66974810Y-50077309D02*
X66853858Y-50047071D01*
X66853858Y-50047071D02*
X66702667Y-50047071D01*
X66702667Y-50047071D02*
X66581715Y-50077309D01*
X66581715Y-50077309D02*
X66521239Y-50107547D01*
X66521239Y-50107547D02*
X66491001Y-50137785D01*
X66491001Y-50137785D02*
X66460763Y-50198261D01*
X66732905Y-50772785D02*
X66702667Y-50712309D01*
X66702667Y-50712309D02*
X66672429Y-50682071D01*
X66672429Y-50682071D02*
X66611953Y-50651833D01*
X66611953Y-50651833D02*
X66581715Y-50651833D01*
X66581715Y-50651833D02*
X66521239Y-50682071D01*
X66521239Y-50682071D02*
X66491001Y-50712309D01*
X66491001Y-50712309D02*
X66460763Y-50772785D01*
X66460763Y-50772785D02*
X66460763Y-50893738D01*
X66460763Y-50893738D02*
X66491001Y-50954214D01*
X66491001Y-50954214D02*
X66521239Y-50984452D01*
X66521239Y-50984452D02*
X66581715Y-51014690D01*
X66581715Y-51014690D02*
X66611953Y-51014690D01*
X66611953Y-51014690D02*
X66672429Y-50984452D01*
X66672429Y-50984452D02*
X66702667Y-50954214D01*
X66702667Y-50954214D02*
X66732905Y-50893738D01*
X66732905Y-50893738D02*
X66732905Y-50772785D01*
X66732905Y-50772785D02*
X66763144Y-50712309D01*
X66763144Y-50712309D02*
X66793382Y-50682071D01*
X66793382Y-50682071D02*
X66853858Y-50651833D01*
X66853858Y-50651833D02*
X66974810Y-50651833D01*
X66974810Y-50651833D02*
X67035286Y-50682071D01*
X67035286Y-50682071D02*
X67065525Y-50712309D01*
X67065525Y-50712309D02*
X67095763Y-50772785D01*
X67095763Y-50772785D02*
X67095763Y-50893738D01*
X67095763Y-50893738D02*
X67065525Y-50954214D01*
X67065525Y-50954214D02*
X67035286Y-50984452D01*
X67035286Y-50984452D02*
X66974810Y-51014690D01*
X66974810Y-51014690D02*
X66853858Y-51014690D01*
X66853858Y-51014690D02*
X66793382Y-50984452D01*
X66793382Y-50984452D02*
X66763144Y-50954214D01*
X66763144Y-50954214D02*
X66732905Y-50893738D01*
%TO.C,R301*%
X61507763Y-48311404D02*
X61205382Y-48099737D01*
X61507763Y-47948547D02*
X60872763Y-47948547D01*
X60872763Y-47948547D02*
X60872763Y-48190452D01*
X60872763Y-48190452D02*
X60903001Y-48250928D01*
X60903001Y-48250928D02*
X60933239Y-48281166D01*
X60933239Y-48281166D02*
X60993715Y-48311404D01*
X60993715Y-48311404D02*
X61084429Y-48311404D01*
X61084429Y-48311404D02*
X61144905Y-48281166D01*
X61144905Y-48281166D02*
X61175144Y-48250928D01*
X61175144Y-48250928D02*
X61205382Y-48190452D01*
X61205382Y-48190452D02*
X61205382Y-47948547D01*
X60872763Y-48523071D02*
X60872763Y-48916166D01*
X60872763Y-48916166D02*
X61114667Y-48704499D01*
X61114667Y-48704499D02*
X61114667Y-48795214D01*
X61114667Y-48795214D02*
X61144905Y-48855690D01*
X61144905Y-48855690D02*
X61175144Y-48885928D01*
X61175144Y-48885928D02*
X61235620Y-48916166D01*
X61235620Y-48916166D02*
X61386810Y-48916166D01*
X61386810Y-48916166D02*
X61447286Y-48885928D01*
X61447286Y-48885928D02*
X61477525Y-48855690D01*
X61477525Y-48855690D02*
X61507763Y-48795214D01*
X61507763Y-48795214D02*
X61507763Y-48613785D01*
X61507763Y-48613785D02*
X61477525Y-48553309D01*
X61477525Y-48553309D02*
X61447286Y-48523071D01*
X60872763Y-49309261D02*
X60872763Y-49369738D01*
X60872763Y-49369738D02*
X60903001Y-49430214D01*
X60903001Y-49430214D02*
X60933239Y-49460452D01*
X60933239Y-49460452D02*
X60993715Y-49490690D01*
X60993715Y-49490690D02*
X61114667Y-49520928D01*
X61114667Y-49520928D02*
X61265858Y-49520928D01*
X61265858Y-49520928D02*
X61386810Y-49490690D01*
X61386810Y-49490690D02*
X61447286Y-49460452D01*
X61447286Y-49460452D02*
X61477525Y-49430214D01*
X61477525Y-49430214D02*
X61507763Y-49369738D01*
X61507763Y-49369738D02*
X61507763Y-49309261D01*
X61507763Y-49309261D02*
X61477525Y-49248785D01*
X61477525Y-49248785D02*
X61447286Y-49218547D01*
X61447286Y-49218547D02*
X61386810Y-49188309D01*
X61386810Y-49188309D02*
X61265858Y-49158071D01*
X61265858Y-49158071D02*
X61114667Y-49158071D01*
X61114667Y-49158071D02*
X60993715Y-49188309D01*
X60993715Y-49188309D02*
X60933239Y-49218547D01*
X60933239Y-49218547D02*
X60903001Y-49248785D01*
X60903001Y-49248785D02*
X60872763Y-49309261D01*
X61507763Y-50125690D02*
X61507763Y-49762833D01*
X61507763Y-49944261D02*
X60872763Y-49944261D01*
X60872763Y-49944261D02*
X60963477Y-49883785D01*
X60963477Y-49883785D02*
X61023953Y-49823309D01*
X61023953Y-49823309D02*
X61054191Y-49762833D01*
%TO.C,R303*%
X65190763Y-48184404D02*
X64888382Y-47972737D01*
X65190763Y-47821547D02*
X64555763Y-47821547D01*
X64555763Y-47821547D02*
X64555763Y-48063452D01*
X64555763Y-48063452D02*
X64586001Y-48123928D01*
X64586001Y-48123928D02*
X64616239Y-48154166D01*
X64616239Y-48154166D02*
X64676715Y-48184404D01*
X64676715Y-48184404D02*
X64767429Y-48184404D01*
X64767429Y-48184404D02*
X64827905Y-48154166D01*
X64827905Y-48154166D02*
X64858144Y-48123928D01*
X64858144Y-48123928D02*
X64888382Y-48063452D01*
X64888382Y-48063452D02*
X64888382Y-47821547D01*
X64555763Y-48396071D02*
X64555763Y-48789166D01*
X64555763Y-48789166D02*
X64797667Y-48577499D01*
X64797667Y-48577499D02*
X64797667Y-48668214D01*
X64797667Y-48668214D02*
X64827905Y-48728690D01*
X64827905Y-48728690D02*
X64858144Y-48758928D01*
X64858144Y-48758928D02*
X64918620Y-48789166D01*
X64918620Y-48789166D02*
X65069810Y-48789166D01*
X65069810Y-48789166D02*
X65130286Y-48758928D01*
X65130286Y-48758928D02*
X65160525Y-48728690D01*
X65160525Y-48728690D02*
X65190763Y-48668214D01*
X65190763Y-48668214D02*
X65190763Y-48486785D01*
X65190763Y-48486785D02*
X65160525Y-48426309D01*
X65160525Y-48426309D02*
X65130286Y-48396071D01*
X64555763Y-49182261D02*
X64555763Y-49242738D01*
X64555763Y-49242738D02*
X64586001Y-49303214D01*
X64586001Y-49303214D02*
X64616239Y-49333452D01*
X64616239Y-49333452D02*
X64676715Y-49363690D01*
X64676715Y-49363690D02*
X64797667Y-49393928D01*
X64797667Y-49393928D02*
X64948858Y-49393928D01*
X64948858Y-49393928D02*
X65069810Y-49363690D01*
X65069810Y-49363690D02*
X65130286Y-49333452D01*
X65130286Y-49333452D02*
X65160525Y-49303214D01*
X65160525Y-49303214D02*
X65190763Y-49242738D01*
X65190763Y-49242738D02*
X65190763Y-49182261D01*
X65190763Y-49182261D02*
X65160525Y-49121785D01*
X65160525Y-49121785D02*
X65130286Y-49091547D01*
X65130286Y-49091547D02*
X65069810Y-49061309D01*
X65069810Y-49061309D02*
X64948858Y-49031071D01*
X64948858Y-49031071D02*
X64797667Y-49031071D01*
X64797667Y-49031071D02*
X64676715Y-49061309D01*
X64676715Y-49061309D02*
X64616239Y-49091547D01*
X64616239Y-49091547D02*
X64586001Y-49121785D01*
X64586001Y-49121785D02*
X64555763Y-49182261D01*
X64555763Y-49605595D02*
X64555763Y-49998690D01*
X64555763Y-49998690D02*
X64797667Y-49787023D01*
X64797667Y-49787023D02*
X64797667Y-49877738D01*
X64797667Y-49877738D02*
X64827905Y-49938214D01*
X64827905Y-49938214D02*
X64858144Y-49968452D01*
X64858144Y-49968452D02*
X64918620Y-49998690D01*
X64918620Y-49998690D02*
X65069810Y-49998690D01*
X65069810Y-49998690D02*
X65130286Y-49968452D01*
X65130286Y-49968452D02*
X65160525Y-49938214D01*
X65160525Y-49938214D02*
X65190763Y-49877738D01*
X65190763Y-49877738D02*
X65190763Y-49696309D01*
X65190763Y-49696309D02*
X65160525Y-49635833D01*
X65160525Y-49635833D02*
X65130286Y-49605595D01*
%TO.C,R307*%
X68060963Y-49200404D02*
X67758582Y-48988737D01*
X68060963Y-48837547D02*
X67425963Y-48837547D01*
X67425963Y-48837547D02*
X67425963Y-49079452D01*
X67425963Y-49079452D02*
X67456201Y-49139928D01*
X67456201Y-49139928D02*
X67486439Y-49170166D01*
X67486439Y-49170166D02*
X67546915Y-49200404D01*
X67546915Y-49200404D02*
X67637629Y-49200404D01*
X67637629Y-49200404D02*
X67698105Y-49170166D01*
X67698105Y-49170166D02*
X67728344Y-49139928D01*
X67728344Y-49139928D02*
X67758582Y-49079452D01*
X67758582Y-49079452D02*
X67758582Y-48837547D01*
X67425963Y-49412071D02*
X67425963Y-49805166D01*
X67425963Y-49805166D02*
X67667867Y-49593499D01*
X67667867Y-49593499D02*
X67667867Y-49684214D01*
X67667867Y-49684214D02*
X67698105Y-49744690D01*
X67698105Y-49744690D02*
X67728344Y-49774928D01*
X67728344Y-49774928D02*
X67788820Y-49805166D01*
X67788820Y-49805166D02*
X67940010Y-49805166D01*
X67940010Y-49805166D02*
X68000486Y-49774928D01*
X68000486Y-49774928D02*
X68030725Y-49744690D01*
X68030725Y-49744690D02*
X68060963Y-49684214D01*
X68060963Y-49684214D02*
X68060963Y-49502785D01*
X68060963Y-49502785D02*
X68030725Y-49442309D01*
X68030725Y-49442309D02*
X68000486Y-49412071D01*
X67425963Y-50198261D02*
X67425963Y-50258738D01*
X67425963Y-50258738D02*
X67456201Y-50319214D01*
X67456201Y-50319214D02*
X67486439Y-50349452D01*
X67486439Y-50349452D02*
X67546915Y-50379690D01*
X67546915Y-50379690D02*
X67667867Y-50409928D01*
X67667867Y-50409928D02*
X67819058Y-50409928D01*
X67819058Y-50409928D02*
X67940010Y-50379690D01*
X67940010Y-50379690D02*
X68000486Y-50349452D01*
X68000486Y-50349452D02*
X68030725Y-50319214D01*
X68030725Y-50319214D02*
X68060963Y-50258738D01*
X68060963Y-50258738D02*
X68060963Y-50198261D01*
X68060963Y-50198261D02*
X68030725Y-50137785D01*
X68030725Y-50137785D02*
X68000486Y-50107547D01*
X68000486Y-50107547D02*
X67940010Y-50077309D01*
X67940010Y-50077309D02*
X67819058Y-50047071D01*
X67819058Y-50047071D02*
X67667867Y-50047071D01*
X67667867Y-50047071D02*
X67546915Y-50077309D01*
X67546915Y-50077309D02*
X67486439Y-50107547D01*
X67486439Y-50107547D02*
X67456201Y-50137785D01*
X67456201Y-50137785D02*
X67425963Y-50198261D01*
X67425963Y-50621595D02*
X67425963Y-51044928D01*
X67425963Y-51044928D02*
X68060963Y-50772785D01*
%TO.C,Q301*%
X62584239Y-48356761D02*
X62554001Y-48296285D01*
X62554001Y-48296285D02*
X62493525Y-48235809D01*
X62493525Y-48235809D02*
X62402810Y-48145095D01*
X62402810Y-48145095D02*
X62372572Y-48084618D01*
X62372572Y-48084618D02*
X62372572Y-48024142D01*
X62523763Y-48054380D02*
X62493525Y-47993904D01*
X62493525Y-47993904D02*
X62433048Y-47933428D01*
X62433048Y-47933428D02*
X62312096Y-47903190D01*
X62312096Y-47903190D02*
X62100429Y-47903190D01*
X62100429Y-47903190D02*
X61979477Y-47933428D01*
X61979477Y-47933428D02*
X61919001Y-47993904D01*
X61919001Y-47993904D02*
X61888763Y-48054380D01*
X61888763Y-48054380D02*
X61888763Y-48175333D01*
X61888763Y-48175333D02*
X61919001Y-48235809D01*
X61919001Y-48235809D02*
X61979477Y-48296285D01*
X61979477Y-48296285D02*
X62100429Y-48326523D01*
X62100429Y-48326523D02*
X62312096Y-48326523D01*
X62312096Y-48326523D02*
X62433048Y-48296285D01*
X62433048Y-48296285D02*
X62493525Y-48235809D01*
X62493525Y-48235809D02*
X62523763Y-48175333D01*
X62523763Y-48175333D02*
X62523763Y-48054380D01*
X61888763Y-48538190D02*
X61888763Y-48931285D01*
X61888763Y-48931285D02*
X62130667Y-48719618D01*
X62130667Y-48719618D02*
X62130667Y-48810333D01*
X62130667Y-48810333D02*
X62160905Y-48870809D01*
X62160905Y-48870809D02*
X62191144Y-48901047D01*
X62191144Y-48901047D02*
X62251620Y-48931285D01*
X62251620Y-48931285D02*
X62402810Y-48931285D01*
X62402810Y-48931285D02*
X62463286Y-48901047D01*
X62463286Y-48901047D02*
X62493525Y-48870809D01*
X62493525Y-48870809D02*
X62523763Y-48810333D01*
X62523763Y-48810333D02*
X62523763Y-48628904D01*
X62523763Y-48628904D02*
X62493525Y-48568428D01*
X62493525Y-48568428D02*
X62463286Y-48538190D01*
X61888763Y-49324380D02*
X61888763Y-49384857D01*
X61888763Y-49384857D02*
X61919001Y-49445333D01*
X61919001Y-49445333D02*
X61949239Y-49475571D01*
X61949239Y-49475571D02*
X62009715Y-49505809D01*
X62009715Y-49505809D02*
X62130667Y-49536047D01*
X62130667Y-49536047D02*
X62281858Y-49536047D01*
X62281858Y-49536047D02*
X62402810Y-49505809D01*
X62402810Y-49505809D02*
X62463286Y-49475571D01*
X62463286Y-49475571D02*
X62493525Y-49445333D01*
X62493525Y-49445333D02*
X62523763Y-49384857D01*
X62523763Y-49384857D02*
X62523763Y-49324380D01*
X62523763Y-49324380D02*
X62493525Y-49263904D01*
X62493525Y-49263904D02*
X62463286Y-49233666D01*
X62463286Y-49233666D02*
X62402810Y-49203428D01*
X62402810Y-49203428D02*
X62281858Y-49173190D01*
X62281858Y-49173190D02*
X62130667Y-49173190D01*
X62130667Y-49173190D02*
X62009715Y-49203428D01*
X62009715Y-49203428D02*
X61949239Y-49233666D01*
X61949239Y-49233666D02*
X61919001Y-49263904D01*
X61919001Y-49263904D02*
X61888763Y-49324380D01*
X62523763Y-50140809D02*
X62523763Y-49777952D01*
X62523763Y-49959380D02*
X61888763Y-49959380D01*
X61888763Y-49959380D02*
X61979477Y-49898904D01*
X61979477Y-49898904D02*
X62039953Y-49838428D01*
X62039953Y-49838428D02*
X62070191Y-49777952D01*
D13*
%TO.C,J104*%
X77673300Y-134575100D02*
X98323300Y-134575100D01*
X98323300Y-134575100D02*
X98323300Y-56934100D01*
X98323300Y-57525100D02*
X77673300Y-57525100D01*
X77673300Y-57315100D02*
X77673300Y-134575100D01*
D12*
X77838300Y-57315100D02*
X77838300Y-56934100D01*
X98158300Y-57315100D02*
X77838300Y-57315100D01*
X98158300Y-57315100D02*
X98158300Y-56934100D01*
X98158300Y-57188100D02*
X77838300Y-57188100D01*
X98158300Y-57061100D02*
X77838300Y-57061100D01*
X98158300Y-56934100D02*
X77838300Y-56934100D01*
D13*
%TO.C,J101*%
X139598300Y-57499700D02*
X118948300Y-57499700D01*
X118948300Y-57499700D02*
X118948300Y-135140700D01*
X118948300Y-134549700D02*
X139598300Y-134549700D01*
X139598300Y-134759700D02*
X139598300Y-57499700D01*
D12*
X139433300Y-134759700D02*
X139433300Y-135140700D01*
X119113300Y-134759700D02*
X139433300Y-134759700D01*
X119113300Y-134759700D02*
X119113300Y-135140700D01*
X119113300Y-134886700D02*
X139433300Y-134886700D01*
X119113300Y-135013700D02*
X139433300Y-135013700D01*
X119113300Y-135140700D02*
X139433300Y-135140700D01*
D13*
%TO.C,J102*%
X118948100Y-57499700D02*
X98298100Y-57499700D01*
X98298100Y-57499700D02*
X98298100Y-135140700D01*
X98298100Y-134549700D02*
X118948100Y-134549700D01*
X118948100Y-134759700D02*
X118948100Y-57499700D01*
D12*
X118783100Y-134759700D02*
X118783100Y-135140700D01*
X98463100Y-134759700D02*
X118783100Y-134759700D01*
X98463100Y-134759700D02*
X98463100Y-135140700D01*
X98463100Y-134886700D02*
X118783100Y-134886700D01*
X98463100Y-135013700D02*
X118783100Y-135013700D01*
X98463100Y-135140700D02*
X118783100Y-135140700D01*
D13*
%TO.C,J105*%
X57023100Y-134575100D02*
X77673100Y-134575100D01*
X77673100Y-134575100D02*
X77673100Y-56934100D01*
X77673100Y-57525100D02*
X57023100Y-57525100D01*
X57023100Y-57315100D02*
X57023100Y-134575100D01*
D12*
X57188100Y-57315100D02*
X57188100Y-56934100D01*
X77508100Y-57315100D02*
X57188100Y-57315100D01*
X77508100Y-57315100D02*
X77508100Y-56934100D01*
X77508100Y-57188100D02*
X57188100Y-57188100D01*
X77508100Y-57061100D02*
X57188100Y-57061100D01*
X77508100Y-56934100D02*
X57188100Y-56934100D01*
D14*
%TO.C,D301*%
X61792181Y-43272480D02*
X61892181Y-43372480D01*
X60992181Y-43272480D02*
X61092181Y-43372480D01*
X61692181Y-43372480D02*
X61792181Y-43272480D01*
X60892181Y-43372480D02*
X60992181Y-43272480D01*
X61792181Y-43472480D02*
X61792181Y-43272480D01*
X60992181Y-43472480D02*
X60992181Y-43272480D01*
D15*
X61592181Y-43572480D02*
X61592181Y-44372480D01*
X61192181Y-43572480D02*
X61192181Y-44372480D01*
X61592181Y-43972480D02*
X61192181Y-43572480D01*
X61592181Y-43972480D02*
X61792181Y-43972480D01*
X61192181Y-43972480D02*
X60992181Y-43972480D01*
X61192181Y-44372480D02*
X61592181Y-43972480D01*
D14*
%TO.C,D302*%
X65592173Y-43272480D02*
X65692173Y-43372480D01*
X64792173Y-43272480D02*
X64892173Y-43372480D01*
X65492173Y-43372480D02*
X65592173Y-43272480D01*
X64692173Y-43372480D02*
X64792173Y-43272480D01*
X65592173Y-43472480D02*
X65592173Y-43272480D01*
X64792173Y-43472480D02*
X64792173Y-43272480D01*
D15*
X65392173Y-43572480D02*
X65392173Y-44372480D01*
X64992173Y-43572480D02*
X64992173Y-44372480D01*
X65392173Y-43972480D02*
X64992173Y-43572480D01*
X65392173Y-43972480D02*
X65592173Y-43972480D01*
X64992173Y-43972480D02*
X64792173Y-43972480D01*
X64992173Y-44372480D02*
X65392173Y-43972480D01*
D14*
%TO.C,D304*%
X68807991Y-43272480D02*
X68907991Y-43372480D01*
X68007991Y-43272480D02*
X68107991Y-43372480D01*
X68707991Y-43372480D02*
X68807991Y-43272480D01*
X67907991Y-43372480D02*
X68007991Y-43272480D01*
X68807991Y-43472480D02*
X68807991Y-43272480D01*
X68007991Y-43472480D02*
X68007991Y-43272480D01*
D15*
X68607991Y-43572480D02*
X68607991Y-44372480D01*
X68207991Y-43572480D02*
X68207991Y-44372480D01*
X68607991Y-43972480D02*
X68207991Y-43572480D01*
X68607991Y-43972480D02*
X68807991Y-43972480D01*
X68207991Y-43972480D02*
X68007991Y-43972480D01*
X68207991Y-44372480D02*
X68607991Y-43972480D01*
%TO.C,Q302*%
X65086000Y-46267600D02*
X65086000Y-46267600D01*
X66086000Y-44867600D02*
X65486000Y-44867600D01*
X66286000Y-46267600D02*
X65086000Y-46267600D01*
%TO.C,Q304*%
X67956200Y-46267600D02*
X67956200Y-46267600D01*
X68956200Y-44867600D02*
X68356200Y-44867600D01*
X69156200Y-46267600D02*
X67956200Y-46267600D01*
%TO.C,R302*%
X59818000Y-45822841D02*
X59818000Y-45515559D01*
X60578000Y-45822841D02*
X60578000Y-45515559D01*
%TO.C,R304*%
X63653400Y-45822841D02*
X63653400Y-45515559D01*
X64413400Y-45822841D02*
X64413400Y-45515559D01*
%TO.C,R308*%
X66650600Y-47778641D02*
X66650600Y-47471359D01*
X67410600Y-47778641D02*
X67410600Y-47471359D01*
%TO.C,R301*%
X61517559Y-46737000D02*
X61824841Y-46737000D01*
X61517559Y-47497000D02*
X61824841Y-47497000D01*
%TO.C,R303*%
X65327559Y-46737000D02*
X65634841Y-46737000D01*
X65327559Y-47497000D02*
X65634841Y-47497000D01*
%TO.C,R307*%
X68426359Y-46737000D02*
X68733641Y-46737000D01*
X68426359Y-47497000D02*
X68733641Y-47497000D01*
%TO.C,Q301*%
X62276000Y-44767600D02*
X61676000Y-44767600D01*
X62476000Y-46367600D02*
X61276000Y-46367600D01*
%TD*%
M02*
