%TF.GenerationSoftware,KiCad,Pcbnew,7.0.1*%
%TF.CreationDate,2023-06-20T19:29:45-04:00*%
%TF.ProjectId,batteryboard,62617474-6572-4796-926f-6172642e6b69,rev?*%
%TF.SameCoordinates,Original*%
%TF.FileFunction,Drillmap*%
%TF.FilePolarity,Positive*%
%FSLAX45Y45*%
G04 Gerber Fmt 4.5, Leading zero omitted, Abs format (unit mm)*
G04 Created by KiCad (PCBNEW 7.0.1) date 2023-06-20 19:29:45*
%MOMM*%
%LPD*%
G01*
G04 APERTURE LIST*
%ADD10C,0.254000*%
%ADD11C,0.200000*%
%ADD12C,0.157000*%
%ADD13C,0.345000*%
G04 APERTURE END LIST*
D10*
X10962640Y-14277340D02*
X10962640Y-14224000D01*
X10962640Y-14277340D02*
G75*
G03*
X11082020Y-14396720I119380J0D01*
G01*
X6474221Y-4284136D02*
X6944215Y-4284136D01*
X14150340Y-10541000D02*
X14150340Y-8663940D01*
X9872219Y-5037935D02*
G75*
G03*
X10112221Y-5037937I120001J-5D01*
G01*
X12442224Y-5037937D02*
G75*
G03*
X12562222Y-5157936I119996J-3D01*
G01*
X7102223Y-5152932D02*
G75*
G03*
X7222222Y-5032934I-3J120002D01*
G01*
X14340840Y-4942758D02*
G75*
G03*
X14230552Y-4832470I-110290J-3D01*
G01*
X12642221Y-5100436D02*
X12642221Y-4490436D01*
X10112221Y-5037935D02*
X10112221Y-4500436D01*
X9872223Y-5037935D02*
X9872223Y-4500436D01*
X10112222Y-4500435D02*
X12442222Y-4500435D01*
X7022224Y-5095433D02*
X7022224Y-4485433D01*
X12442223Y-5037935D02*
X12442223Y-4500436D01*
X5433885Y-4832470D02*
G75*
G03*
X5323840Y-4942514I-5J-110040D01*
G01*
X12562222Y-5157936D02*
X12584721Y-5157936D01*
X5833885Y-4832470D02*
G75*
G03*
X5882200Y-4784154I-5J48320D01*
G01*
X7222222Y-5032932D02*
X7222222Y-4500435D01*
X14150340Y-10541000D02*
G75*
G03*
X14226540Y-10617200I76200J0D01*
G01*
X7079724Y-5152933D02*
X7102223Y-5152933D01*
X7222222Y-4500435D02*
X9872222Y-4500435D01*
X12704006Y-4282268D02*
X12774679Y-4282268D01*
X12584721Y-5157941D02*
G75*
G03*
X12642221Y-5100436I-1J57501D01*
G01*
X5323840Y-8511540D02*
G75*
G03*
X5400040Y-8587740I76200J0D01*
G01*
X5939720Y-4284139D02*
G75*
G03*
X5882219Y-4341637I0J-57501D01*
G01*
X14264640Y-8587740D02*
G75*
G03*
X14340840Y-8511540I0J76200D01*
G01*
X13782218Y-4784136D02*
X13782218Y-4339137D01*
X5438140Y-10617200D02*
G75*
G03*
X5514340Y-10541000I0J76200D01*
G01*
X9050020Y-14104620D02*
G75*
G03*
X8930640Y-14224000I0J-119380D01*
G01*
X5323840Y-8511540D02*
X5323840Y-4942514D01*
X14340840Y-10693400D02*
G75*
G03*
X14264640Y-10617200I-76200J0D01*
G01*
X5514340Y-8663940D02*
G75*
G03*
X5438140Y-8587740I-76200J0D01*
G01*
X13782220Y-4784136D02*
G75*
G03*
X13830553Y-4832470I48330J-5D01*
G01*
X13782222Y-4339137D02*
G75*
G03*
X13725349Y-4282268I-56872J-3D01*
G01*
X8930640Y-14277340D02*
X8930640Y-14224000D01*
X5433885Y-4832470D02*
X5833885Y-4832470D01*
X7022217Y-5095433D02*
G75*
G03*
X7079724Y-5152933I57503J3D01*
G01*
X14340840Y-8511540D02*
X14340840Y-4942758D01*
X5400040Y-10617200D02*
G75*
G03*
X5323840Y-10693400I0J-76200D01*
G01*
X13830553Y-4832470D02*
X14230552Y-4832470D01*
X5882200Y-4784154D02*
X5882219Y-4341637D01*
X14226540Y-10617200D02*
X14264640Y-10617200D01*
X14221460Y-14396720D02*
G75*
G03*
X14340840Y-14277340I0J119380D01*
G01*
X10962640Y-14224000D02*
G75*
G03*
X10843260Y-14104620I-119380J0D01*
G01*
X8811260Y-14396720D02*
G75*
G03*
X8930640Y-14277340I0J119380D01*
G01*
X14226540Y-8587740D02*
X14264640Y-8587740D01*
X9050020Y-14104620D02*
X10843260Y-14104620D01*
X7022220Y-4485435D02*
X7022220Y-4284137D01*
X12642218Y-4490438D02*
X12642218Y-4282268D01*
X12642218Y-4282268D02*
X12704007Y-4282268D01*
X14226540Y-8587740D02*
G75*
G03*
X14150340Y-8663940I0J-76200D01*
G01*
X5939720Y-4284136D02*
X6474221Y-4284136D01*
X12774679Y-4282268D02*
X13725349Y-4282268D01*
X5323839Y-14269720D02*
X5323840Y-10693400D01*
X6944215Y-4284137D02*
X7022220Y-4284137D01*
X5323840Y-14269720D02*
G75*
G03*
X5435600Y-14396720I119380J-7620D01*
G01*
X11082020Y-14396720D02*
X14221460Y-14396720D01*
X14340840Y-14277340D02*
X14340840Y-10693400D01*
X5400040Y-10617200D02*
X5438140Y-10617200D01*
X5435600Y-14396719D02*
X8811260Y-14396720D01*
X5514340Y-10541000D02*
X5514340Y-8663940D01*
X5400040Y-8587740D02*
X5438140Y-8587740D01*
D11*
D12*
X5856310Y-5933510D02*
X6013310Y-6090510D01*
X6013310Y-5933510D02*
X5856310Y-6090510D01*
X7921330Y-5933510D02*
X8078330Y-6090510D01*
X8078330Y-5933510D02*
X7921330Y-6090510D01*
X11583810Y-5930970D02*
X11740810Y-6087970D01*
X11740810Y-5930970D02*
X11583810Y-6087970D01*
X11583810Y-13116970D02*
X11740810Y-13273970D01*
X11740810Y-13116970D02*
X11583810Y-13273970D01*
X12048830Y-13119510D02*
X12205830Y-13276510D01*
X12205830Y-13119510D02*
X12048830Y-13276510D01*
X13648830Y-13116970D02*
X13805830Y-13273970D01*
X13805830Y-13116970D02*
X13648830Y-13273970D01*
D13*
X6107310Y-12365010D02*
G75*
G03*
X6107310Y-12365010I-172500J0D01*
G01*
X7707310Y-6845010D02*
G75*
G03*
X7707310Y-6845010I-172500J0D01*
G01*
X8172330Y-12365010D02*
G75*
G03*
X8172330Y-12365010I-172500J0D01*
G01*
X9772330Y-6845010D02*
G75*
G03*
X9772330Y-6845010I-172500J0D01*
G01*
X10234810Y-6842470D02*
G75*
G03*
X10234810Y-6842470I-172500J0D01*
G01*
X10234810Y-12362470D02*
G75*
G03*
X10234810Y-12362470I-172500J0D01*
G01*
X11834810Y-6842470D02*
G75*
G03*
X11834810Y-6842470I-172500J0D01*
G01*
X11834810Y-12362470D02*
G75*
G03*
X11834810Y-12362470I-172500J0D01*
G01*
X12299830Y-6845010D02*
G75*
G03*
X12299830Y-6845010I-172500J0D01*
G01*
X12299830Y-12362470D02*
G75*
G03*
X12299830Y-12362470I-172500J0D01*
G01*
X13899830Y-6842470D02*
G75*
G03*
X13899830Y-6842470I-172500J0D01*
G01*
X13899830Y-12365010D02*
G75*
G03*
X13899830Y-12365010I-172500J0D01*
G01*
D11*
X5558516Y-14721944D02*
X5558516Y-14521944D01*
X5558516Y-14521944D02*
X5606135Y-14521944D01*
X5606135Y-14521944D02*
X5634707Y-14531467D01*
X5634707Y-14531467D02*
X5653754Y-14550515D01*
X5653754Y-14550515D02*
X5663278Y-14569563D01*
X5663278Y-14569563D02*
X5672802Y-14607658D01*
X5672802Y-14607658D02*
X5672802Y-14636229D01*
X5672802Y-14636229D02*
X5663278Y-14674324D01*
X5663278Y-14674324D02*
X5653754Y-14693372D01*
X5653754Y-14693372D02*
X5634707Y-14712420D01*
X5634707Y-14712420D02*
X5606135Y-14721944D01*
X5606135Y-14721944D02*
X5558516Y-14721944D01*
X5758516Y-14721944D02*
X5758516Y-14588610D01*
X5758516Y-14626705D02*
X5768040Y-14607658D01*
X5768040Y-14607658D02*
X5777564Y-14598134D01*
X5777564Y-14598134D02*
X5796611Y-14588610D01*
X5796611Y-14588610D02*
X5815659Y-14588610D01*
X5882326Y-14721944D02*
X5882326Y-14588610D01*
X5882326Y-14521944D02*
X5872802Y-14531467D01*
X5872802Y-14531467D02*
X5882326Y-14540991D01*
X5882326Y-14540991D02*
X5891850Y-14531467D01*
X5891850Y-14531467D02*
X5882326Y-14521944D01*
X5882326Y-14521944D02*
X5882326Y-14540991D01*
X6006135Y-14721944D02*
X5987088Y-14712420D01*
X5987088Y-14712420D02*
X5977564Y-14693372D01*
X5977564Y-14693372D02*
X5977564Y-14521944D01*
X6110897Y-14721944D02*
X6091850Y-14712420D01*
X6091850Y-14712420D02*
X6082326Y-14693372D01*
X6082326Y-14693372D02*
X6082326Y-14521944D01*
X6339469Y-14721944D02*
X6339469Y-14521944D01*
X6339469Y-14521944D02*
X6406135Y-14664801D01*
X6406135Y-14664801D02*
X6472802Y-14521944D01*
X6472802Y-14521944D02*
X6472802Y-14721944D01*
X6653754Y-14721944D02*
X6653754Y-14617182D01*
X6653754Y-14617182D02*
X6644231Y-14598134D01*
X6644231Y-14598134D02*
X6625183Y-14588610D01*
X6625183Y-14588610D02*
X6587088Y-14588610D01*
X6587088Y-14588610D02*
X6568040Y-14598134D01*
X6653754Y-14712420D02*
X6634707Y-14721944D01*
X6634707Y-14721944D02*
X6587088Y-14721944D01*
X6587088Y-14721944D02*
X6568040Y-14712420D01*
X6568040Y-14712420D02*
X6558516Y-14693372D01*
X6558516Y-14693372D02*
X6558516Y-14674324D01*
X6558516Y-14674324D02*
X6568040Y-14655277D01*
X6568040Y-14655277D02*
X6587088Y-14645753D01*
X6587088Y-14645753D02*
X6634707Y-14645753D01*
X6634707Y-14645753D02*
X6653754Y-14636229D01*
X6748992Y-14588610D02*
X6748992Y-14788610D01*
X6748992Y-14598134D02*
X6768040Y-14588610D01*
X6768040Y-14588610D02*
X6806135Y-14588610D01*
X6806135Y-14588610D02*
X6825183Y-14598134D01*
X6825183Y-14598134D02*
X6834707Y-14607658D01*
X6834707Y-14607658D02*
X6844231Y-14626705D01*
X6844231Y-14626705D02*
X6844231Y-14683848D01*
X6844231Y-14683848D02*
X6834707Y-14702896D01*
X6834707Y-14702896D02*
X6825183Y-14712420D01*
X6825183Y-14712420D02*
X6806135Y-14721944D01*
X6806135Y-14721944D02*
X6768040Y-14721944D01*
X6768040Y-14721944D02*
X6748992Y-14712420D01*
X6929945Y-14702896D02*
X6939469Y-14712420D01*
X6939469Y-14712420D02*
X6929945Y-14721944D01*
X6929945Y-14721944D02*
X6920421Y-14712420D01*
X6920421Y-14712420D02*
X6929945Y-14702896D01*
X6929945Y-14702896D02*
X6929945Y-14721944D01*
X6929945Y-14598134D02*
X6939469Y-14607658D01*
X6939469Y-14607658D02*
X6929945Y-14617182D01*
X6929945Y-14617182D02*
X6920421Y-14607658D01*
X6920421Y-14607658D02*
X6929945Y-14598134D01*
X6929945Y-14598134D02*
X6929945Y-14617182D01*
D12*
X5153897Y-14970920D02*
X5310897Y-15127920D01*
X5310897Y-14970920D02*
X5153897Y-15127920D01*
D11*
X5663278Y-15141944D02*
X5548993Y-15141944D01*
X5606135Y-15141944D02*
X5606135Y-14941944D01*
X5606135Y-14941944D02*
X5587088Y-14970515D01*
X5587088Y-14970515D02*
X5568040Y-14989563D01*
X5568040Y-14989563D02*
X5548993Y-14999086D01*
X5748992Y-15122896D02*
X5758516Y-15132420D01*
X5758516Y-15132420D02*
X5748992Y-15141944D01*
X5748992Y-15141944D02*
X5739469Y-15132420D01*
X5739469Y-15132420D02*
X5748992Y-15122896D01*
X5748992Y-15122896D02*
X5748992Y-15141944D01*
X5939469Y-14941944D02*
X5844231Y-14941944D01*
X5844231Y-14941944D02*
X5834707Y-15037182D01*
X5834707Y-15037182D02*
X5844231Y-15027658D01*
X5844231Y-15027658D02*
X5863278Y-15018134D01*
X5863278Y-15018134D02*
X5910897Y-15018134D01*
X5910897Y-15018134D02*
X5929945Y-15027658D01*
X5929945Y-15027658D02*
X5939469Y-15037182D01*
X5939469Y-15037182D02*
X5948992Y-15056229D01*
X5948992Y-15056229D02*
X5948992Y-15103848D01*
X5948992Y-15103848D02*
X5939469Y-15122896D01*
X5939469Y-15122896D02*
X5929945Y-15132420D01*
X5929945Y-15132420D02*
X5910897Y-15141944D01*
X5910897Y-15141944D02*
X5863278Y-15141944D01*
X5863278Y-15141944D02*
X5844231Y-15132420D01*
X5844231Y-15132420D02*
X5834707Y-15122896D01*
X6015659Y-14941944D02*
X6148992Y-14941944D01*
X6148992Y-14941944D02*
X6063278Y-15141944D01*
X6263278Y-14941944D02*
X6282326Y-14941944D01*
X6282326Y-14941944D02*
X6301373Y-14951467D01*
X6301373Y-14951467D02*
X6310897Y-14960991D01*
X6310897Y-14960991D02*
X6320421Y-14980039D01*
X6320421Y-14980039D02*
X6329945Y-15018134D01*
X6329945Y-15018134D02*
X6329945Y-15065753D01*
X6329945Y-15065753D02*
X6320421Y-15103848D01*
X6320421Y-15103848D02*
X6310897Y-15122896D01*
X6310897Y-15122896D02*
X6301373Y-15132420D01*
X6301373Y-15132420D02*
X6282326Y-15141944D01*
X6282326Y-15141944D02*
X6263278Y-15141944D01*
X6263278Y-15141944D02*
X6244231Y-15132420D01*
X6244231Y-15132420D02*
X6234707Y-15122896D01*
X6234707Y-15122896D02*
X6225183Y-15103848D01*
X6225183Y-15103848D02*
X6215659Y-15065753D01*
X6215659Y-15065753D02*
X6215659Y-15018134D01*
X6215659Y-15018134D02*
X6225183Y-14980039D01*
X6225183Y-14980039D02*
X6234707Y-14960991D01*
X6234707Y-14960991D02*
X6244231Y-14951467D01*
X6244231Y-14951467D02*
X6263278Y-14941944D01*
X6415659Y-15141944D02*
X6415659Y-15008610D01*
X6415659Y-15027658D02*
X6425183Y-15018134D01*
X6425183Y-15018134D02*
X6444231Y-15008610D01*
X6444231Y-15008610D02*
X6472802Y-15008610D01*
X6472802Y-15008610D02*
X6491850Y-15018134D01*
X6491850Y-15018134D02*
X6501373Y-15037182D01*
X6501373Y-15037182D02*
X6501373Y-15141944D01*
X6501373Y-15037182D02*
X6510897Y-15018134D01*
X6510897Y-15018134D02*
X6529945Y-15008610D01*
X6529945Y-15008610D02*
X6558516Y-15008610D01*
X6558516Y-15008610D02*
X6577564Y-15018134D01*
X6577564Y-15018134D02*
X6587088Y-15037182D01*
X6587088Y-15037182D02*
X6587088Y-15141944D01*
X6682326Y-15141944D02*
X6682326Y-15008610D01*
X6682326Y-15027658D02*
X6691850Y-15018134D01*
X6691850Y-15018134D02*
X6710897Y-15008610D01*
X6710897Y-15008610D02*
X6739469Y-15008610D01*
X6739469Y-15008610D02*
X6758516Y-15018134D01*
X6758516Y-15018134D02*
X6768040Y-15037182D01*
X6768040Y-15037182D02*
X6768040Y-15141944D01*
X6768040Y-15037182D02*
X6777564Y-15018134D01*
X6777564Y-15018134D02*
X6796612Y-15008610D01*
X6796612Y-15008610D02*
X6825183Y-15008610D01*
X6825183Y-15008610D02*
X6844231Y-15018134D01*
X6844231Y-15018134D02*
X6853754Y-15037182D01*
X6853754Y-15037182D02*
X6853754Y-15141944D01*
X7244231Y-14932420D02*
X7072802Y-15189563D01*
X7501374Y-14941944D02*
X7520421Y-14941944D01*
X7520421Y-14941944D02*
X7539469Y-14951467D01*
X7539469Y-14951467D02*
X7548993Y-14960991D01*
X7548993Y-14960991D02*
X7558516Y-14980039D01*
X7558516Y-14980039D02*
X7568040Y-15018134D01*
X7568040Y-15018134D02*
X7568040Y-15065753D01*
X7568040Y-15065753D02*
X7558516Y-15103848D01*
X7558516Y-15103848D02*
X7548993Y-15122896D01*
X7548993Y-15122896D02*
X7539469Y-15132420D01*
X7539469Y-15132420D02*
X7520421Y-15141944D01*
X7520421Y-15141944D02*
X7501374Y-15141944D01*
X7501374Y-15141944D02*
X7482326Y-15132420D01*
X7482326Y-15132420D02*
X7472802Y-15122896D01*
X7472802Y-15122896D02*
X7463278Y-15103848D01*
X7463278Y-15103848D02*
X7453755Y-15065753D01*
X7453755Y-15065753D02*
X7453755Y-15018134D01*
X7453755Y-15018134D02*
X7463278Y-14980039D01*
X7463278Y-14980039D02*
X7472802Y-14960991D01*
X7472802Y-14960991D02*
X7482326Y-14951467D01*
X7482326Y-14951467D02*
X7501374Y-14941944D01*
X7653755Y-15122896D02*
X7663278Y-15132420D01*
X7663278Y-15132420D02*
X7653755Y-15141944D01*
X7653755Y-15141944D02*
X7644231Y-15132420D01*
X7644231Y-15132420D02*
X7653755Y-15122896D01*
X7653755Y-15122896D02*
X7653755Y-15141944D01*
X7787088Y-14941944D02*
X7806136Y-14941944D01*
X7806136Y-14941944D02*
X7825183Y-14951467D01*
X7825183Y-14951467D02*
X7834707Y-14960991D01*
X7834707Y-14960991D02*
X7844231Y-14980039D01*
X7844231Y-14980039D02*
X7853755Y-15018134D01*
X7853755Y-15018134D02*
X7853755Y-15065753D01*
X7853755Y-15065753D02*
X7844231Y-15103848D01*
X7844231Y-15103848D02*
X7834707Y-15122896D01*
X7834707Y-15122896D02*
X7825183Y-15132420D01*
X7825183Y-15132420D02*
X7806136Y-15141944D01*
X7806136Y-15141944D02*
X7787088Y-15141944D01*
X7787088Y-15141944D02*
X7768040Y-15132420D01*
X7768040Y-15132420D02*
X7758516Y-15122896D01*
X7758516Y-15122896D02*
X7748993Y-15103848D01*
X7748993Y-15103848D02*
X7739469Y-15065753D01*
X7739469Y-15065753D02*
X7739469Y-15018134D01*
X7739469Y-15018134D02*
X7748993Y-14980039D01*
X7748993Y-14980039D02*
X7758516Y-14960991D01*
X7758516Y-14960991D02*
X7768040Y-14951467D01*
X7768040Y-14951467D02*
X7787088Y-14941944D01*
X8025183Y-14941944D02*
X7987088Y-14941944D01*
X7987088Y-14941944D02*
X7968040Y-14951467D01*
X7968040Y-14951467D02*
X7958516Y-14960991D01*
X7958516Y-14960991D02*
X7939469Y-14989563D01*
X7939469Y-14989563D02*
X7929945Y-15027658D01*
X7929945Y-15027658D02*
X7929945Y-15103848D01*
X7929945Y-15103848D02*
X7939469Y-15122896D01*
X7939469Y-15122896D02*
X7948993Y-15132420D01*
X7948993Y-15132420D02*
X7968040Y-15141944D01*
X7968040Y-15141944D02*
X8006136Y-15141944D01*
X8006136Y-15141944D02*
X8025183Y-15132420D01*
X8025183Y-15132420D02*
X8034707Y-15122896D01*
X8034707Y-15122896D02*
X8044231Y-15103848D01*
X8044231Y-15103848D02*
X8044231Y-15056229D01*
X8044231Y-15056229D02*
X8034707Y-15037182D01*
X8034707Y-15037182D02*
X8025183Y-15027658D01*
X8025183Y-15027658D02*
X8006136Y-15018134D01*
X8006136Y-15018134D02*
X7968040Y-15018134D01*
X7968040Y-15018134D02*
X7948993Y-15027658D01*
X7948993Y-15027658D02*
X7939469Y-15037182D01*
X7939469Y-15037182D02*
X7929945Y-15056229D01*
X8234707Y-15141944D02*
X8120421Y-15141944D01*
X8177564Y-15141944D02*
X8177564Y-14941944D01*
X8177564Y-14941944D02*
X8158516Y-14970515D01*
X8158516Y-14970515D02*
X8139469Y-14989563D01*
X8139469Y-14989563D02*
X8120421Y-14999086D01*
X8348993Y-15027658D02*
X8329945Y-15018134D01*
X8329945Y-15018134D02*
X8320421Y-15008610D01*
X8320421Y-15008610D02*
X8310897Y-14989563D01*
X8310897Y-14989563D02*
X8310897Y-14980039D01*
X8310897Y-14980039D02*
X8320421Y-14960991D01*
X8320421Y-14960991D02*
X8329945Y-14951467D01*
X8329945Y-14951467D02*
X8348993Y-14941944D01*
X8348993Y-14941944D02*
X8387088Y-14941944D01*
X8387088Y-14941944D02*
X8406136Y-14951467D01*
X8406136Y-14951467D02*
X8415659Y-14960991D01*
X8415659Y-14960991D02*
X8425183Y-14980039D01*
X8425183Y-14980039D02*
X8425183Y-14989563D01*
X8425183Y-14989563D02*
X8415659Y-15008610D01*
X8415659Y-15008610D02*
X8406136Y-15018134D01*
X8406136Y-15018134D02*
X8387088Y-15027658D01*
X8387088Y-15027658D02*
X8348993Y-15027658D01*
X8348993Y-15027658D02*
X8329945Y-15037182D01*
X8329945Y-15037182D02*
X8320421Y-15046705D01*
X8320421Y-15046705D02*
X8310897Y-15065753D01*
X8310897Y-15065753D02*
X8310897Y-15103848D01*
X8310897Y-15103848D02*
X8320421Y-15122896D01*
X8320421Y-15122896D02*
X8329945Y-15132420D01*
X8329945Y-15132420D02*
X8348993Y-15141944D01*
X8348993Y-15141944D02*
X8387088Y-15141944D01*
X8387088Y-15141944D02*
X8406136Y-15132420D01*
X8406136Y-15132420D02*
X8415659Y-15122896D01*
X8415659Y-15122896D02*
X8425183Y-15103848D01*
X8425183Y-15103848D02*
X8425183Y-15065753D01*
X8425183Y-15065753D02*
X8415659Y-15046705D01*
X8415659Y-15046705D02*
X8406136Y-15037182D01*
X8406136Y-15037182D02*
X8387088Y-15027658D01*
X8501374Y-14941944D02*
X8501374Y-14980039D01*
X8577564Y-14941944D02*
X8577564Y-14980039D01*
X8872802Y-15218134D02*
X8863279Y-15208610D01*
X8863279Y-15208610D02*
X8844231Y-15180039D01*
X8844231Y-15180039D02*
X8834707Y-15160991D01*
X8834707Y-15160991D02*
X8825183Y-15132420D01*
X8825183Y-15132420D02*
X8815660Y-15084801D01*
X8815660Y-15084801D02*
X8815660Y-15046705D01*
X8815660Y-15046705D02*
X8825183Y-14999086D01*
X8825183Y-14999086D02*
X8834707Y-14970515D01*
X8834707Y-14970515D02*
X8844231Y-14951467D01*
X8844231Y-14951467D02*
X8863279Y-14922896D01*
X8863279Y-14922896D02*
X8872802Y-14913372D01*
X9034707Y-14941944D02*
X8996612Y-14941944D01*
X8996612Y-14941944D02*
X8977564Y-14951467D01*
X8977564Y-14951467D02*
X8968040Y-14960991D01*
X8968040Y-14960991D02*
X8948993Y-14989563D01*
X8948993Y-14989563D02*
X8939469Y-15027658D01*
X8939469Y-15027658D02*
X8939469Y-15103848D01*
X8939469Y-15103848D02*
X8948993Y-15122896D01*
X8948993Y-15122896D02*
X8958517Y-15132420D01*
X8958517Y-15132420D02*
X8977564Y-15141944D01*
X8977564Y-15141944D02*
X9015660Y-15141944D01*
X9015660Y-15141944D02*
X9034707Y-15132420D01*
X9034707Y-15132420D02*
X9044231Y-15122896D01*
X9044231Y-15122896D02*
X9053755Y-15103848D01*
X9053755Y-15103848D02*
X9053755Y-15056229D01*
X9053755Y-15056229D02*
X9044231Y-15037182D01*
X9044231Y-15037182D02*
X9034707Y-15027658D01*
X9034707Y-15027658D02*
X9015660Y-15018134D01*
X9015660Y-15018134D02*
X8977564Y-15018134D01*
X8977564Y-15018134D02*
X8958517Y-15027658D01*
X8958517Y-15027658D02*
X8948993Y-15037182D01*
X8948993Y-15037182D02*
X8939469Y-15056229D01*
X9291850Y-15141944D02*
X9291850Y-14941944D01*
X9377564Y-15141944D02*
X9377564Y-15037182D01*
X9377564Y-15037182D02*
X9368041Y-15018134D01*
X9368041Y-15018134D02*
X9348993Y-15008610D01*
X9348993Y-15008610D02*
X9320421Y-15008610D01*
X9320421Y-15008610D02*
X9301374Y-15018134D01*
X9301374Y-15018134D02*
X9291850Y-15027658D01*
X9501374Y-15141944D02*
X9482326Y-15132420D01*
X9482326Y-15132420D02*
X9472802Y-15122896D01*
X9472802Y-15122896D02*
X9463279Y-15103848D01*
X9463279Y-15103848D02*
X9463279Y-15046705D01*
X9463279Y-15046705D02*
X9472802Y-15027658D01*
X9472802Y-15027658D02*
X9482326Y-15018134D01*
X9482326Y-15018134D02*
X9501374Y-15008610D01*
X9501374Y-15008610D02*
X9529945Y-15008610D01*
X9529945Y-15008610D02*
X9548993Y-15018134D01*
X9548993Y-15018134D02*
X9558517Y-15027658D01*
X9558517Y-15027658D02*
X9568041Y-15046705D01*
X9568041Y-15046705D02*
X9568041Y-15103848D01*
X9568041Y-15103848D02*
X9558517Y-15122896D01*
X9558517Y-15122896D02*
X9548993Y-15132420D01*
X9548993Y-15132420D02*
X9529945Y-15141944D01*
X9529945Y-15141944D02*
X9501374Y-15141944D01*
X9682326Y-15141944D02*
X9663279Y-15132420D01*
X9663279Y-15132420D02*
X9653755Y-15113372D01*
X9653755Y-15113372D02*
X9653755Y-14941944D01*
X9834707Y-15132420D02*
X9815660Y-15141944D01*
X9815660Y-15141944D02*
X9777564Y-15141944D01*
X9777564Y-15141944D02*
X9758517Y-15132420D01*
X9758517Y-15132420D02*
X9748993Y-15113372D01*
X9748993Y-15113372D02*
X9748993Y-15037182D01*
X9748993Y-15037182D02*
X9758517Y-15018134D01*
X9758517Y-15018134D02*
X9777564Y-15008610D01*
X9777564Y-15008610D02*
X9815660Y-15008610D01*
X9815660Y-15008610D02*
X9834707Y-15018134D01*
X9834707Y-15018134D02*
X9844231Y-15037182D01*
X9844231Y-15037182D02*
X9844231Y-15056229D01*
X9844231Y-15056229D02*
X9748993Y-15075277D01*
X9920422Y-15132420D02*
X9939469Y-15141944D01*
X9939469Y-15141944D02*
X9977564Y-15141944D01*
X9977564Y-15141944D02*
X9996612Y-15132420D01*
X9996612Y-15132420D02*
X10006136Y-15113372D01*
X10006136Y-15113372D02*
X10006136Y-15103848D01*
X10006136Y-15103848D02*
X9996612Y-15084801D01*
X9996612Y-15084801D02*
X9977564Y-15075277D01*
X9977564Y-15075277D02*
X9948993Y-15075277D01*
X9948993Y-15075277D02*
X9929945Y-15065753D01*
X9929945Y-15065753D02*
X9920422Y-15046705D01*
X9920422Y-15046705D02*
X9920422Y-15037182D01*
X9920422Y-15037182D02*
X9929945Y-15018134D01*
X9929945Y-15018134D02*
X9948993Y-15008610D01*
X9948993Y-15008610D02*
X9977564Y-15008610D01*
X9977564Y-15008610D02*
X9996612Y-15018134D01*
X10072803Y-15218134D02*
X10082326Y-15208610D01*
X10082326Y-15208610D02*
X10101374Y-15180039D01*
X10101374Y-15180039D02*
X10110898Y-15160991D01*
X10110898Y-15160991D02*
X10120422Y-15132420D01*
X10120422Y-15132420D02*
X10129945Y-15084801D01*
X10129945Y-15084801D02*
X10129945Y-15046705D01*
X10129945Y-15046705D02*
X10120422Y-14999086D01*
X10120422Y-14999086D02*
X10110898Y-14970515D01*
X10110898Y-14970515D02*
X10101374Y-14951467D01*
X10101374Y-14951467D02*
X10082326Y-14922896D01*
X10082326Y-14922896D02*
X10072803Y-14913372D01*
X10434707Y-15218134D02*
X10425183Y-15208610D01*
X10425183Y-15208610D02*
X10406136Y-15180039D01*
X10406136Y-15180039D02*
X10396612Y-15160991D01*
X10396612Y-15160991D02*
X10387088Y-15132420D01*
X10387088Y-15132420D02*
X10377564Y-15084801D01*
X10377564Y-15084801D02*
X10377564Y-15046705D01*
X10377564Y-15046705D02*
X10387088Y-14999086D01*
X10387088Y-14999086D02*
X10396612Y-14970515D01*
X10396612Y-14970515D02*
X10406136Y-14951467D01*
X10406136Y-14951467D02*
X10425183Y-14922896D01*
X10425183Y-14922896D02*
X10434707Y-14913372D01*
X10510898Y-15008610D02*
X10510898Y-15141944D01*
X10510898Y-15027658D02*
X10520422Y-15018134D01*
X10520422Y-15018134D02*
X10539469Y-15008610D01*
X10539469Y-15008610D02*
X10568041Y-15008610D01*
X10568041Y-15008610D02*
X10587088Y-15018134D01*
X10587088Y-15018134D02*
X10596612Y-15037182D01*
X10596612Y-15037182D02*
X10596612Y-15141944D01*
X10720422Y-15141944D02*
X10701374Y-15132420D01*
X10701374Y-15132420D02*
X10691850Y-15122896D01*
X10691850Y-15122896D02*
X10682326Y-15103848D01*
X10682326Y-15103848D02*
X10682326Y-15046705D01*
X10682326Y-15046705D02*
X10691850Y-15027658D01*
X10691850Y-15027658D02*
X10701374Y-15018134D01*
X10701374Y-15018134D02*
X10720422Y-15008610D01*
X10720422Y-15008610D02*
X10748993Y-15008610D01*
X10748993Y-15008610D02*
X10768041Y-15018134D01*
X10768041Y-15018134D02*
X10777564Y-15027658D01*
X10777564Y-15027658D02*
X10787088Y-15046705D01*
X10787088Y-15046705D02*
X10787088Y-15103848D01*
X10787088Y-15103848D02*
X10777564Y-15122896D01*
X10777564Y-15122896D02*
X10768041Y-15132420D01*
X10768041Y-15132420D02*
X10748993Y-15141944D01*
X10748993Y-15141944D02*
X10720422Y-15141944D01*
X10844231Y-15008610D02*
X10920422Y-15008610D01*
X10872803Y-14941944D02*
X10872803Y-15113372D01*
X10872803Y-15113372D02*
X10882326Y-15132420D01*
X10882326Y-15132420D02*
X10901374Y-15141944D01*
X10901374Y-15141944D02*
X10920422Y-15141944D01*
X11139469Y-15008610D02*
X11139469Y-15208610D01*
X11139469Y-15018134D02*
X11158517Y-15008610D01*
X11158517Y-15008610D02*
X11196612Y-15008610D01*
X11196612Y-15008610D02*
X11215660Y-15018134D01*
X11215660Y-15018134D02*
X11225183Y-15027658D01*
X11225183Y-15027658D02*
X11234707Y-15046705D01*
X11234707Y-15046705D02*
X11234707Y-15103848D01*
X11234707Y-15103848D02*
X11225183Y-15122896D01*
X11225183Y-15122896D02*
X11215660Y-15132420D01*
X11215660Y-15132420D02*
X11196612Y-15141944D01*
X11196612Y-15141944D02*
X11158517Y-15141944D01*
X11158517Y-15141944D02*
X11139469Y-15132420D01*
X11348993Y-15141944D02*
X11329945Y-15132420D01*
X11329945Y-15132420D02*
X11320422Y-15113372D01*
X11320422Y-15113372D02*
X11320422Y-14941944D01*
X11510898Y-15141944D02*
X11510898Y-15037182D01*
X11510898Y-15037182D02*
X11501374Y-15018134D01*
X11501374Y-15018134D02*
X11482326Y-15008610D01*
X11482326Y-15008610D02*
X11444231Y-15008610D01*
X11444231Y-15008610D02*
X11425183Y-15018134D01*
X11510898Y-15132420D02*
X11491850Y-15141944D01*
X11491850Y-15141944D02*
X11444231Y-15141944D01*
X11444231Y-15141944D02*
X11425183Y-15132420D01*
X11425183Y-15132420D02*
X11415660Y-15113372D01*
X11415660Y-15113372D02*
X11415660Y-15094324D01*
X11415660Y-15094324D02*
X11425183Y-15075277D01*
X11425183Y-15075277D02*
X11444231Y-15065753D01*
X11444231Y-15065753D02*
X11491850Y-15065753D01*
X11491850Y-15065753D02*
X11510898Y-15056229D01*
X11577564Y-15008610D02*
X11653755Y-15008610D01*
X11606136Y-14941944D02*
X11606136Y-15113372D01*
X11606136Y-15113372D02*
X11615660Y-15132420D01*
X11615660Y-15132420D02*
X11634707Y-15141944D01*
X11634707Y-15141944D02*
X11653755Y-15141944D01*
X11796612Y-15132420D02*
X11777564Y-15141944D01*
X11777564Y-15141944D02*
X11739469Y-15141944D01*
X11739469Y-15141944D02*
X11720422Y-15132420D01*
X11720422Y-15132420D02*
X11710898Y-15113372D01*
X11710898Y-15113372D02*
X11710898Y-15037182D01*
X11710898Y-15037182D02*
X11720422Y-15018134D01*
X11720422Y-15018134D02*
X11739469Y-15008610D01*
X11739469Y-15008610D02*
X11777564Y-15008610D01*
X11777564Y-15008610D02*
X11796612Y-15018134D01*
X11796612Y-15018134D02*
X11806136Y-15037182D01*
X11806136Y-15037182D02*
X11806136Y-15056229D01*
X11806136Y-15056229D02*
X11710898Y-15075277D01*
X11977564Y-15141944D02*
X11977564Y-14941944D01*
X11977564Y-15132420D02*
X11958517Y-15141944D01*
X11958517Y-15141944D02*
X11920422Y-15141944D01*
X11920422Y-15141944D02*
X11901374Y-15132420D01*
X11901374Y-15132420D02*
X11891850Y-15122896D01*
X11891850Y-15122896D02*
X11882326Y-15103848D01*
X11882326Y-15103848D02*
X11882326Y-15046705D01*
X11882326Y-15046705D02*
X11891850Y-15027658D01*
X11891850Y-15027658D02*
X11901374Y-15018134D01*
X11901374Y-15018134D02*
X11920422Y-15008610D01*
X11920422Y-15008610D02*
X11958517Y-15008610D01*
X11958517Y-15008610D02*
X11977564Y-15018134D01*
X12053755Y-15218134D02*
X12063279Y-15208610D01*
X12063279Y-15208610D02*
X12082326Y-15180039D01*
X12082326Y-15180039D02*
X12091850Y-15160991D01*
X12091850Y-15160991D02*
X12101374Y-15132420D01*
X12101374Y-15132420D02*
X12110898Y-15084801D01*
X12110898Y-15084801D02*
X12110898Y-15046705D01*
X12110898Y-15046705D02*
X12101374Y-14999086D01*
X12101374Y-14999086D02*
X12091850Y-14970515D01*
X12091850Y-14970515D02*
X12082326Y-14951467D01*
X12082326Y-14951467D02*
X12063279Y-14922896D01*
X12063279Y-14922896D02*
X12053755Y-14913372D01*
X5310897Y-15326420D02*
G75*
G03*
X5310897Y-15326420I-100000J0D01*
G01*
X5539469Y-15218944D02*
X5663278Y-15218944D01*
X5663278Y-15218944D02*
X5596611Y-15295134D01*
X5596611Y-15295134D02*
X5625183Y-15295134D01*
X5625183Y-15295134D02*
X5644231Y-15304658D01*
X5644231Y-15304658D02*
X5653754Y-15314182D01*
X5653754Y-15314182D02*
X5663278Y-15333229D01*
X5663278Y-15333229D02*
X5663278Y-15380848D01*
X5663278Y-15380848D02*
X5653754Y-15399896D01*
X5653754Y-15399896D02*
X5644231Y-15409420D01*
X5644231Y-15409420D02*
X5625183Y-15418944D01*
X5625183Y-15418944D02*
X5568040Y-15418944D01*
X5568040Y-15418944D02*
X5548993Y-15409420D01*
X5548993Y-15409420D02*
X5539469Y-15399896D01*
X5748992Y-15399896D02*
X5758516Y-15409420D01*
X5758516Y-15409420D02*
X5748992Y-15418944D01*
X5748992Y-15418944D02*
X5739469Y-15409420D01*
X5739469Y-15409420D02*
X5748992Y-15399896D01*
X5748992Y-15399896D02*
X5748992Y-15418944D01*
X5929945Y-15285610D02*
X5929945Y-15418944D01*
X5882326Y-15209420D02*
X5834707Y-15352277D01*
X5834707Y-15352277D02*
X5958516Y-15352277D01*
X6129945Y-15218944D02*
X6034707Y-15218944D01*
X6034707Y-15218944D02*
X6025183Y-15314182D01*
X6025183Y-15314182D02*
X6034707Y-15304658D01*
X6034707Y-15304658D02*
X6053754Y-15295134D01*
X6053754Y-15295134D02*
X6101373Y-15295134D01*
X6101373Y-15295134D02*
X6120421Y-15304658D01*
X6120421Y-15304658D02*
X6129945Y-15314182D01*
X6129945Y-15314182D02*
X6139469Y-15333229D01*
X6139469Y-15333229D02*
X6139469Y-15380848D01*
X6139469Y-15380848D02*
X6129945Y-15399896D01*
X6129945Y-15399896D02*
X6120421Y-15409420D01*
X6120421Y-15409420D02*
X6101373Y-15418944D01*
X6101373Y-15418944D02*
X6053754Y-15418944D01*
X6053754Y-15418944D02*
X6034707Y-15409420D01*
X6034707Y-15409420D02*
X6025183Y-15399896D01*
X6263278Y-15218944D02*
X6282326Y-15218944D01*
X6282326Y-15218944D02*
X6301373Y-15228467D01*
X6301373Y-15228467D02*
X6310897Y-15237991D01*
X6310897Y-15237991D02*
X6320421Y-15257039D01*
X6320421Y-15257039D02*
X6329945Y-15295134D01*
X6329945Y-15295134D02*
X6329945Y-15342753D01*
X6329945Y-15342753D02*
X6320421Y-15380848D01*
X6320421Y-15380848D02*
X6310897Y-15399896D01*
X6310897Y-15399896D02*
X6301373Y-15409420D01*
X6301373Y-15409420D02*
X6282326Y-15418944D01*
X6282326Y-15418944D02*
X6263278Y-15418944D01*
X6263278Y-15418944D02*
X6244231Y-15409420D01*
X6244231Y-15409420D02*
X6234707Y-15399896D01*
X6234707Y-15399896D02*
X6225183Y-15380848D01*
X6225183Y-15380848D02*
X6215659Y-15342753D01*
X6215659Y-15342753D02*
X6215659Y-15295134D01*
X6215659Y-15295134D02*
X6225183Y-15257039D01*
X6225183Y-15257039D02*
X6234707Y-15237991D01*
X6234707Y-15237991D02*
X6244231Y-15228467D01*
X6244231Y-15228467D02*
X6263278Y-15218944D01*
X6415659Y-15418944D02*
X6415659Y-15285610D01*
X6415659Y-15304658D02*
X6425183Y-15295134D01*
X6425183Y-15295134D02*
X6444231Y-15285610D01*
X6444231Y-15285610D02*
X6472802Y-15285610D01*
X6472802Y-15285610D02*
X6491850Y-15295134D01*
X6491850Y-15295134D02*
X6501373Y-15314182D01*
X6501373Y-15314182D02*
X6501373Y-15418944D01*
X6501373Y-15314182D02*
X6510897Y-15295134D01*
X6510897Y-15295134D02*
X6529945Y-15285610D01*
X6529945Y-15285610D02*
X6558516Y-15285610D01*
X6558516Y-15285610D02*
X6577564Y-15295134D01*
X6577564Y-15295134D02*
X6587088Y-15314182D01*
X6587088Y-15314182D02*
X6587088Y-15418944D01*
X6682326Y-15418944D02*
X6682326Y-15285610D01*
X6682326Y-15304658D02*
X6691850Y-15295134D01*
X6691850Y-15295134D02*
X6710897Y-15285610D01*
X6710897Y-15285610D02*
X6739469Y-15285610D01*
X6739469Y-15285610D02*
X6758516Y-15295134D01*
X6758516Y-15295134D02*
X6768040Y-15314182D01*
X6768040Y-15314182D02*
X6768040Y-15418944D01*
X6768040Y-15314182D02*
X6777564Y-15295134D01*
X6777564Y-15295134D02*
X6796612Y-15285610D01*
X6796612Y-15285610D02*
X6825183Y-15285610D01*
X6825183Y-15285610D02*
X6844231Y-15295134D01*
X6844231Y-15295134D02*
X6853754Y-15314182D01*
X6853754Y-15314182D02*
X6853754Y-15418944D01*
X7244231Y-15209420D02*
X7072802Y-15466563D01*
X7501374Y-15218944D02*
X7520421Y-15218944D01*
X7520421Y-15218944D02*
X7539469Y-15228467D01*
X7539469Y-15228467D02*
X7548993Y-15237991D01*
X7548993Y-15237991D02*
X7558516Y-15257039D01*
X7558516Y-15257039D02*
X7568040Y-15295134D01*
X7568040Y-15295134D02*
X7568040Y-15342753D01*
X7568040Y-15342753D02*
X7558516Y-15380848D01*
X7558516Y-15380848D02*
X7548993Y-15399896D01*
X7548993Y-15399896D02*
X7539469Y-15409420D01*
X7539469Y-15409420D02*
X7520421Y-15418944D01*
X7520421Y-15418944D02*
X7501374Y-15418944D01*
X7501374Y-15418944D02*
X7482326Y-15409420D01*
X7482326Y-15409420D02*
X7472802Y-15399896D01*
X7472802Y-15399896D02*
X7463278Y-15380848D01*
X7463278Y-15380848D02*
X7453755Y-15342753D01*
X7453755Y-15342753D02*
X7453755Y-15295134D01*
X7453755Y-15295134D02*
X7463278Y-15257039D01*
X7463278Y-15257039D02*
X7472802Y-15237991D01*
X7472802Y-15237991D02*
X7482326Y-15228467D01*
X7482326Y-15228467D02*
X7501374Y-15218944D01*
X7653755Y-15399896D02*
X7663278Y-15409420D01*
X7663278Y-15409420D02*
X7653755Y-15418944D01*
X7653755Y-15418944D02*
X7644231Y-15409420D01*
X7644231Y-15409420D02*
X7653755Y-15399896D01*
X7653755Y-15399896D02*
X7653755Y-15418944D01*
X7853755Y-15418944D02*
X7739469Y-15418944D01*
X7796612Y-15418944D02*
X7796612Y-15218944D01*
X7796612Y-15218944D02*
X7777564Y-15247515D01*
X7777564Y-15247515D02*
X7758516Y-15266563D01*
X7758516Y-15266563D02*
X7739469Y-15276086D01*
X7920421Y-15218944D02*
X8044231Y-15218944D01*
X8044231Y-15218944D02*
X7977564Y-15295134D01*
X7977564Y-15295134D02*
X8006136Y-15295134D01*
X8006136Y-15295134D02*
X8025183Y-15304658D01*
X8025183Y-15304658D02*
X8034707Y-15314182D01*
X8034707Y-15314182D02*
X8044231Y-15333229D01*
X8044231Y-15333229D02*
X8044231Y-15380848D01*
X8044231Y-15380848D02*
X8034707Y-15399896D01*
X8034707Y-15399896D02*
X8025183Y-15409420D01*
X8025183Y-15409420D02*
X8006136Y-15418944D01*
X8006136Y-15418944D02*
X7948993Y-15418944D01*
X7948993Y-15418944D02*
X7929945Y-15409420D01*
X7929945Y-15409420D02*
X7920421Y-15399896D01*
X8225183Y-15218944D02*
X8129945Y-15218944D01*
X8129945Y-15218944D02*
X8120421Y-15314182D01*
X8120421Y-15314182D02*
X8129945Y-15304658D01*
X8129945Y-15304658D02*
X8148993Y-15295134D01*
X8148993Y-15295134D02*
X8196612Y-15295134D01*
X8196612Y-15295134D02*
X8215659Y-15304658D01*
X8215659Y-15304658D02*
X8225183Y-15314182D01*
X8225183Y-15314182D02*
X8234707Y-15333229D01*
X8234707Y-15333229D02*
X8234707Y-15380848D01*
X8234707Y-15380848D02*
X8225183Y-15399896D01*
X8225183Y-15399896D02*
X8215659Y-15409420D01*
X8215659Y-15409420D02*
X8196612Y-15418944D01*
X8196612Y-15418944D02*
X8148993Y-15418944D01*
X8148993Y-15418944D02*
X8129945Y-15409420D01*
X8129945Y-15409420D02*
X8120421Y-15399896D01*
X8348993Y-15304658D02*
X8329945Y-15295134D01*
X8329945Y-15295134D02*
X8320421Y-15285610D01*
X8320421Y-15285610D02*
X8310897Y-15266563D01*
X8310897Y-15266563D02*
X8310897Y-15257039D01*
X8310897Y-15257039D02*
X8320421Y-15237991D01*
X8320421Y-15237991D02*
X8329945Y-15228467D01*
X8329945Y-15228467D02*
X8348993Y-15218944D01*
X8348993Y-15218944D02*
X8387088Y-15218944D01*
X8387088Y-15218944D02*
X8406136Y-15228467D01*
X8406136Y-15228467D02*
X8415659Y-15237991D01*
X8415659Y-15237991D02*
X8425183Y-15257039D01*
X8425183Y-15257039D02*
X8425183Y-15266563D01*
X8425183Y-15266563D02*
X8415659Y-15285610D01*
X8415659Y-15285610D02*
X8406136Y-15295134D01*
X8406136Y-15295134D02*
X8387088Y-15304658D01*
X8387088Y-15304658D02*
X8348993Y-15304658D01*
X8348993Y-15304658D02*
X8329945Y-15314182D01*
X8329945Y-15314182D02*
X8320421Y-15323705D01*
X8320421Y-15323705D02*
X8310897Y-15342753D01*
X8310897Y-15342753D02*
X8310897Y-15380848D01*
X8310897Y-15380848D02*
X8320421Y-15399896D01*
X8320421Y-15399896D02*
X8329945Y-15409420D01*
X8329945Y-15409420D02*
X8348993Y-15418944D01*
X8348993Y-15418944D02*
X8387088Y-15418944D01*
X8387088Y-15418944D02*
X8406136Y-15409420D01*
X8406136Y-15409420D02*
X8415659Y-15399896D01*
X8415659Y-15399896D02*
X8425183Y-15380848D01*
X8425183Y-15380848D02*
X8425183Y-15342753D01*
X8425183Y-15342753D02*
X8415659Y-15323705D01*
X8415659Y-15323705D02*
X8406136Y-15314182D01*
X8406136Y-15314182D02*
X8387088Y-15304658D01*
X8501374Y-15218944D02*
X8501374Y-15257039D01*
X8577564Y-15218944D02*
X8577564Y-15257039D01*
X8872802Y-15495134D02*
X8863279Y-15485610D01*
X8863279Y-15485610D02*
X8844231Y-15457039D01*
X8844231Y-15457039D02*
X8834707Y-15437991D01*
X8834707Y-15437991D02*
X8825183Y-15409420D01*
X8825183Y-15409420D02*
X8815660Y-15361801D01*
X8815660Y-15361801D02*
X8815660Y-15323705D01*
X8815660Y-15323705D02*
X8825183Y-15276086D01*
X8825183Y-15276086D02*
X8834707Y-15247515D01*
X8834707Y-15247515D02*
X8844231Y-15228467D01*
X8844231Y-15228467D02*
X8863279Y-15199896D01*
X8863279Y-15199896D02*
X8872802Y-15190372D01*
X9053755Y-15418944D02*
X8939469Y-15418944D01*
X8996612Y-15418944D02*
X8996612Y-15218944D01*
X8996612Y-15218944D02*
X8977564Y-15247515D01*
X8977564Y-15247515D02*
X8958517Y-15266563D01*
X8958517Y-15266563D02*
X8939469Y-15276086D01*
X9129945Y-15237991D02*
X9139469Y-15228467D01*
X9139469Y-15228467D02*
X9158517Y-15218944D01*
X9158517Y-15218944D02*
X9206136Y-15218944D01*
X9206136Y-15218944D02*
X9225183Y-15228467D01*
X9225183Y-15228467D02*
X9234707Y-15237991D01*
X9234707Y-15237991D02*
X9244231Y-15257039D01*
X9244231Y-15257039D02*
X9244231Y-15276086D01*
X9244231Y-15276086D02*
X9234707Y-15304658D01*
X9234707Y-15304658D02*
X9120421Y-15418944D01*
X9120421Y-15418944D02*
X9244231Y-15418944D01*
X9482326Y-15418944D02*
X9482326Y-15218944D01*
X9568041Y-15418944D02*
X9568041Y-15314182D01*
X9568041Y-15314182D02*
X9558517Y-15295134D01*
X9558517Y-15295134D02*
X9539469Y-15285610D01*
X9539469Y-15285610D02*
X9510898Y-15285610D01*
X9510898Y-15285610D02*
X9491850Y-15295134D01*
X9491850Y-15295134D02*
X9482326Y-15304658D01*
X9691850Y-15418944D02*
X9672802Y-15409420D01*
X9672802Y-15409420D02*
X9663279Y-15399896D01*
X9663279Y-15399896D02*
X9653755Y-15380848D01*
X9653755Y-15380848D02*
X9653755Y-15323705D01*
X9653755Y-15323705D02*
X9663279Y-15304658D01*
X9663279Y-15304658D02*
X9672802Y-15295134D01*
X9672802Y-15295134D02*
X9691850Y-15285610D01*
X9691850Y-15285610D02*
X9720422Y-15285610D01*
X9720422Y-15285610D02*
X9739469Y-15295134D01*
X9739469Y-15295134D02*
X9748993Y-15304658D01*
X9748993Y-15304658D02*
X9758517Y-15323705D01*
X9758517Y-15323705D02*
X9758517Y-15380848D01*
X9758517Y-15380848D02*
X9748993Y-15399896D01*
X9748993Y-15399896D02*
X9739469Y-15409420D01*
X9739469Y-15409420D02*
X9720422Y-15418944D01*
X9720422Y-15418944D02*
X9691850Y-15418944D01*
X9872802Y-15418944D02*
X9853755Y-15409420D01*
X9853755Y-15409420D02*
X9844231Y-15390372D01*
X9844231Y-15390372D02*
X9844231Y-15218944D01*
X10025183Y-15409420D02*
X10006136Y-15418944D01*
X10006136Y-15418944D02*
X9968041Y-15418944D01*
X9968041Y-15418944D02*
X9948993Y-15409420D01*
X9948993Y-15409420D02*
X9939469Y-15390372D01*
X9939469Y-15390372D02*
X9939469Y-15314182D01*
X9939469Y-15314182D02*
X9948993Y-15295134D01*
X9948993Y-15295134D02*
X9968041Y-15285610D01*
X9968041Y-15285610D02*
X10006136Y-15285610D01*
X10006136Y-15285610D02*
X10025183Y-15295134D01*
X10025183Y-15295134D02*
X10034707Y-15314182D01*
X10034707Y-15314182D02*
X10034707Y-15333229D01*
X10034707Y-15333229D02*
X9939469Y-15352277D01*
X10110898Y-15409420D02*
X10129945Y-15418944D01*
X10129945Y-15418944D02*
X10168041Y-15418944D01*
X10168041Y-15418944D02*
X10187088Y-15409420D01*
X10187088Y-15409420D02*
X10196612Y-15390372D01*
X10196612Y-15390372D02*
X10196612Y-15380848D01*
X10196612Y-15380848D02*
X10187088Y-15361801D01*
X10187088Y-15361801D02*
X10168041Y-15352277D01*
X10168041Y-15352277D02*
X10139469Y-15352277D01*
X10139469Y-15352277D02*
X10120422Y-15342753D01*
X10120422Y-15342753D02*
X10110898Y-15323705D01*
X10110898Y-15323705D02*
X10110898Y-15314182D01*
X10110898Y-15314182D02*
X10120422Y-15295134D01*
X10120422Y-15295134D02*
X10139469Y-15285610D01*
X10139469Y-15285610D02*
X10168041Y-15285610D01*
X10168041Y-15285610D02*
X10187088Y-15295134D01*
X10263279Y-15495134D02*
X10272803Y-15485610D01*
X10272803Y-15485610D02*
X10291850Y-15457039D01*
X10291850Y-15457039D02*
X10301374Y-15437991D01*
X10301374Y-15437991D02*
X10310898Y-15409420D01*
X10310898Y-15409420D02*
X10320422Y-15361801D01*
X10320422Y-15361801D02*
X10320422Y-15323705D01*
X10320422Y-15323705D02*
X10310898Y-15276086D01*
X10310898Y-15276086D02*
X10301374Y-15247515D01*
X10301374Y-15247515D02*
X10291850Y-15228467D01*
X10291850Y-15228467D02*
X10272803Y-15199896D01*
X10272803Y-15199896D02*
X10263279Y-15190372D01*
X10625184Y-15495134D02*
X10615660Y-15485610D01*
X10615660Y-15485610D02*
X10596612Y-15457039D01*
X10596612Y-15457039D02*
X10587088Y-15437991D01*
X10587088Y-15437991D02*
X10577564Y-15409420D01*
X10577564Y-15409420D02*
X10568041Y-15361801D01*
X10568041Y-15361801D02*
X10568041Y-15323705D01*
X10568041Y-15323705D02*
X10577564Y-15276086D01*
X10577564Y-15276086D02*
X10587088Y-15247515D01*
X10587088Y-15247515D02*
X10596612Y-15228467D01*
X10596612Y-15228467D02*
X10615660Y-15199896D01*
X10615660Y-15199896D02*
X10625184Y-15190372D01*
X10701374Y-15285610D02*
X10701374Y-15418944D01*
X10701374Y-15304658D02*
X10710898Y-15295134D01*
X10710898Y-15295134D02*
X10729945Y-15285610D01*
X10729945Y-15285610D02*
X10758517Y-15285610D01*
X10758517Y-15285610D02*
X10777564Y-15295134D01*
X10777564Y-15295134D02*
X10787088Y-15314182D01*
X10787088Y-15314182D02*
X10787088Y-15418944D01*
X10910898Y-15418944D02*
X10891850Y-15409420D01*
X10891850Y-15409420D02*
X10882326Y-15399896D01*
X10882326Y-15399896D02*
X10872803Y-15380848D01*
X10872803Y-15380848D02*
X10872803Y-15323705D01*
X10872803Y-15323705D02*
X10882326Y-15304658D01*
X10882326Y-15304658D02*
X10891850Y-15295134D01*
X10891850Y-15295134D02*
X10910898Y-15285610D01*
X10910898Y-15285610D02*
X10939469Y-15285610D01*
X10939469Y-15285610D02*
X10958517Y-15295134D01*
X10958517Y-15295134D02*
X10968041Y-15304658D01*
X10968041Y-15304658D02*
X10977564Y-15323705D01*
X10977564Y-15323705D02*
X10977564Y-15380848D01*
X10977564Y-15380848D02*
X10968041Y-15399896D01*
X10968041Y-15399896D02*
X10958517Y-15409420D01*
X10958517Y-15409420D02*
X10939469Y-15418944D01*
X10939469Y-15418944D02*
X10910898Y-15418944D01*
X11034707Y-15285610D02*
X11110898Y-15285610D01*
X11063279Y-15218944D02*
X11063279Y-15390372D01*
X11063279Y-15390372D02*
X11072803Y-15409420D01*
X11072803Y-15409420D02*
X11091850Y-15418944D01*
X11091850Y-15418944D02*
X11110898Y-15418944D01*
X11329945Y-15285610D02*
X11329945Y-15485610D01*
X11329945Y-15295134D02*
X11348993Y-15285610D01*
X11348993Y-15285610D02*
X11387088Y-15285610D01*
X11387088Y-15285610D02*
X11406136Y-15295134D01*
X11406136Y-15295134D02*
X11415660Y-15304658D01*
X11415660Y-15304658D02*
X11425183Y-15323705D01*
X11425183Y-15323705D02*
X11425183Y-15380848D01*
X11425183Y-15380848D02*
X11415660Y-15399896D01*
X11415660Y-15399896D02*
X11406136Y-15409420D01*
X11406136Y-15409420D02*
X11387088Y-15418944D01*
X11387088Y-15418944D02*
X11348993Y-15418944D01*
X11348993Y-15418944D02*
X11329945Y-15409420D01*
X11539469Y-15418944D02*
X11520422Y-15409420D01*
X11520422Y-15409420D02*
X11510898Y-15390372D01*
X11510898Y-15390372D02*
X11510898Y-15218944D01*
X11701374Y-15418944D02*
X11701374Y-15314182D01*
X11701374Y-15314182D02*
X11691850Y-15295134D01*
X11691850Y-15295134D02*
X11672803Y-15285610D01*
X11672803Y-15285610D02*
X11634707Y-15285610D01*
X11634707Y-15285610D02*
X11615660Y-15295134D01*
X11701374Y-15409420D02*
X11682326Y-15418944D01*
X11682326Y-15418944D02*
X11634707Y-15418944D01*
X11634707Y-15418944D02*
X11615660Y-15409420D01*
X11615660Y-15409420D02*
X11606136Y-15390372D01*
X11606136Y-15390372D02*
X11606136Y-15371324D01*
X11606136Y-15371324D02*
X11615660Y-15352277D01*
X11615660Y-15352277D02*
X11634707Y-15342753D01*
X11634707Y-15342753D02*
X11682326Y-15342753D01*
X11682326Y-15342753D02*
X11701374Y-15333229D01*
X11768041Y-15285610D02*
X11844231Y-15285610D01*
X11796612Y-15218944D02*
X11796612Y-15390372D01*
X11796612Y-15390372D02*
X11806136Y-15409420D01*
X11806136Y-15409420D02*
X11825183Y-15418944D01*
X11825183Y-15418944D02*
X11844231Y-15418944D01*
X11987088Y-15409420D02*
X11968041Y-15418944D01*
X11968041Y-15418944D02*
X11929945Y-15418944D01*
X11929945Y-15418944D02*
X11910898Y-15409420D01*
X11910898Y-15409420D02*
X11901374Y-15390372D01*
X11901374Y-15390372D02*
X11901374Y-15314182D01*
X11901374Y-15314182D02*
X11910898Y-15295134D01*
X11910898Y-15295134D02*
X11929945Y-15285610D01*
X11929945Y-15285610D02*
X11968041Y-15285610D01*
X11968041Y-15285610D02*
X11987088Y-15295134D01*
X11987088Y-15295134D02*
X11996612Y-15314182D01*
X11996612Y-15314182D02*
X11996612Y-15333229D01*
X11996612Y-15333229D02*
X11901374Y-15352277D01*
X12168041Y-15418944D02*
X12168041Y-15218944D01*
X12168041Y-15409420D02*
X12148993Y-15418944D01*
X12148993Y-15418944D02*
X12110898Y-15418944D01*
X12110898Y-15418944D02*
X12091850Y-15409420D01*
X12091850Y-15409420D02*
X12082326Y-15399896D01*
X12082326Y-15399896D02*
X12072803Y-15380848D01*
X12072803Y-15380848D02*
X12072803Y-15323705D01*
X12072803Y-15323705D02*
X12082326Y-15304658D01*
X12082326Y-15304658D02*
X12091850Y-15295134D01*
X12091850Y-15295134D02*
X12110898Y-15285610D01*
X12110898Y-15285610D02*
X12148993Y-15285610D01*
X12148993Y-15285610D02*
X12168041Y-15295134D01*
X12244231Y-15495134D02*
X12253755Y-15485610D01*
X12253755Y-15485610D02*
X12272803Y-15457039D01*
X12272803Y-15457039D02*
X12282326Y-15437991D01*
X12282326Y-15437991D02*
X12291850Y-15409420D01*
X12291850Y-15409420D02*
X12301374Y-15361801D01*
X12301374Y-15361801D02*
X12301374Y-15323705D01*
X12301374Y-15323705D02*
X12291850Y-15276086D01*
X12291850Y-15276086D02*
X12282326Y-15247515D01*
X12282326Y-15247515D02*
X12272803Y-15228467D01*
X12272803Y-15228467D02*
X12253755Y-15199896D01*
X12253755Y-15199896D02*
X12244231Y-15190372D01*
M02*
