%TF.GenerationSoftware,KiCad,Pcbnew,7.0.1*%
%TF.CreationDate,2023-06-20T19:29:39-04:00*%
%TF.ProjectId,batteryboard,62617474-6572-4796-926f-6172642e6b69,rev?*%
%TF.SameCoordinates,Original*%
%TF.FileFunction,Copper,L1,Top*%
%TF.FilePolarity,Positive*%
%FSLAX46Y46*%
G04 Gerber Fmt 4.6, Leading zero omitted, Abs format (unit mm)*
G04 Created by KiCad (PCBNEW 7.0.1) date 2023-06-20 19:29:39*
%MOMM*%
%LPD*%
G01*
G04 APERTURE LIST*
G04 Aperture macros list*
%AMRoundRect*
0 Rectangle with rounded corners*
0 $1 Rounding radius*
0 $2 $3 $4 $5 $6 $7 $8 $9 X,Y pos of 4 corners*
0 Add a 4 corners polygon primitive as box body*
4,1,4,$2,$3,$4,$5,$6,$7,$8,$9,$2,$3,0*
0 Add four circle primitives for the rounded corners*
1,1,$1+$1,$2,$3*
1,1,$1+$1,$4,$5*
1,1,$1+$1,$6,$7*
1,1,$1+$1,$8,$9*
0 Add four rect primitives between the rounded corners*
20,1,$1+$1,$2,$3,$4,$5,0*
20,1,$1+$1,$4,$5,$6,$7,0*
20,1,$1+$1,$6,$7,$8,$9,0*
20,1,$1+$1,$8,$9,$2,$3,0*%
%AMFreePoly0*
4,1,12,0.105238,2.379067,0.194454,2.319454,0.254067,2.230238,0.275000,2.125000,0.275000,-1.400000,-0.275000,-1.400000,-0.275000,2.125000,-0.254067,2.230238,-0.194454,2.319454,-0.105238,2.379067,0.000000,2.400000,0.105238,2.379067,0.105238,2.379067,$1*%
G04 Aperture macros list end*
%TA.AperFunction,SMDPad,CuDef*%
%ADD10R,4.000000X6.800000*%
%TD*%
%TA.AperFunction,SMDPad,CuDef*%
%ADD11R,6.800000X7.300000*%
%TD*%
%TA.AperFunction,SMDPad,CuDef*%
%ADD12R,0.600000X1.000000*%
%TD*%
%TA.AperFunction,SMDPad,CuDef*%
%ADD13RoundRect,0.225000X-0.225000X-0.250000X0.225000X-0.250000X0.225000X0.250000X-0.225000X0.250000X0*%
%TD*%
%TA.AperFunction,SMDPad,CuDef*%
%ADD14RoundRect,0.225000X-0.250000X0.225000X-0.250000X-0.225000X0.250000X-0.225000X0.250000X0.225000X0*%
%TD*%
%TA.AperFunction,SMDPad,CuDef*%
%ADD15RoundRect,0.200000X-0.275000X0.200000X-0.275000X-0.200000X0.275000X-0.200000X0.275000X0.200000X0*%
%TD*%
%TA.AperFunction,SMDPad,CuDef*%
%ADD16RoundRect,0.200000X0.200000X0.275000X-0.200000X0.275000X-0.200000X-0.275000X0.200000X-0.275000X0*%
%TD*%
%TA.AperFunction,SMDPad,CuDef*%
%ADD17RoundRect,0.150000X0.150000X-0.825000X0.150000X0.825000X-0.150000X0.825000X-0.150000X-0.825000X0*%
%TD*%
%TA.AperFunction,SMDPad,CuDef*%
%ADD18RoundRect,0.150000X-0.150000X0.825000X-0.150000X-0.825000X0.150000X-0.825000X0.150000X0.825000X0*%
%TD*%
%TA.AperFunction,SMDPad,CuDef*%
%ADD19RoundRect,0.200000X-0.200000X-0.275000X0.200000X-0.275000X0.200000X0.275000X-0.200000X0.275000X0*%
%TD*%
%TA.AperFunction,SMDPad,CuDef*%
%ADD20RoundRect,0.249999X0.362501X1.425001X-0.362501X1.425001X-0.362501X-1.425001X0.362501X-1.425001X0*%
%TD*%
%TA.AperFunction,ComponentPad*%
%ADD21C,2.000000*%
%TD*%
%TA.AperFunction,SMDPad,CuDef*%
%ADD22R,0.370000X1.000000*%
%TD*%
%TA.AperFunction,ComponentPad*%
%ADD23C,5.080000*%
%TD*%
%TA.AperFunction,SMDPad,CuDef*%
%ADD24FreePoly0,0.000000*%
%TD*%
%TA.AperFunction,SMDPad,CuDef*%
%ADD25R,0.400000X0.450000*%
%TD*%
%TA.AperFunction,SMDPad,CuDef*%
%ADD26R,0.500000X0.450000*%
%TD*%
%TA.AperFunction,SMDPad,CuDef*%
%ADD27RoundRect,0.135000X0.185000X-0.135000X0.185000X0.135000X-0.185000X0.135000X-0.185000X-0.135000X0*%
%TD*%
%TA.AperFunction,SMDPad,CuDef*%
%ADD28RoundRect,0.135000X-0.135000X-0.185000X0.135000X-0.185000X0.135000X0.185000X-0.135000X0.185000X0*%
%TD*%
%TA.AperFunction,SMDPad,CuDef*%
%ADD29R,2.770000X1.020000*%
%TD*%
%TA.AperFunction,ComponentPad*%
%ADD30C,1.400000*%
%TD*%
%TA.AperFunction,ComponentPad*%
%ADD31O,1.400000X1.400000*%
%TD*%
%TA.AperFunction,ViaPad*%
%ADD32C,0.812800*%
%TD*%
%TA.AperFunction,ViaPad*%
%ADD33C,0.558800*%
%TD*%
%TA.AperFunction,Conductor*%
%ADD34C,0.271780*%
%TD*%
%TA.AperFunction,Conductor*%
%ADD35C,0.279400*%
%TD*%
%TA.AperFunction,Conductor*%
%ADD36C,0.203200*%
%TD*%
%TA.AperFunction,Conductor*%
%ADD37C,0.812800*%
%TD*%
%TA.AperFunction,Conductor*%
%ADD38C,0.609600*%
%TD*%
%TA.AperFunction,Conductor*%
%ADD39C,0.508000*%
%TD*%
%TA.AperFunction,Conductor*%
%ADD40C,0.254000*%
%TD*%
G04 APERTURE END LIST*
D10*
%TO.P,J103,1,NEG*%
%TO.N,B-*%
X127873300Y-55525100D03*
D11*
%TO.P,J103,2,POS*%
%TO.N,BM*%
X129273300Y-136825100D03*
%TD*%
D12*
%TO.P,U101,1,DOUT*%
%TO.N,/DOUT*%
X90172500Y-83378500D03*
%TO.P,U101,2,COUT*%
%TO.N,/COUT*%
X91122500Y-83378500D03*
%TO.P,U101,3,V-*%
%TO.N,/V-*%
X92072500Y-83378500D03*
%TO.P,U101,4,VC*%
%TO.N,Net-(U101-VC)*%
X92072500Y-80578500D03*
%TO.P,U101,5,VDD*%
%TO.N,/VDD*%
X91122500Y-80578500D03*
%TO.P,U101,6,VSS*%
%TO.N,B-*%
X90172500Y-80578500D03*
%TD*%
D11*
%TO.P,J106,1,NEG*%
%TO.N,BM*%
X108623100Y-136799700D03*
%TO.P,J106,2,POS*%
%TO.N,PACK+*%
X108623100Y-55249700D03*
%TD*%
D13*
%TO.P,C104,1*%
%TO.N,B-*%
X90347500Y-76644500D03*
%TO.P,C104,2*%
%TO.N,/VDD*%
X91897500Y-76644500D03*
%TD*%
%TO.P,C103,1*%
%TO.N,B-*%
X90347500Y-78422500D03*
%TO.P,C103,2*%
%TO.N,Net-(U101-VC)*%
X91897500Y-78422500D03*
%TD*%
%TO.P,C102,1*%
%TO.N,B-*%
X93649500Y-81597500D03*
%TO.P,C102,2*%
%TO.N,/V-*%
X95199500Y-81597500D03*
%TD*%
D14*
%TO.P,C101,1*%
%TO.N,Net-(C101-Pad1)*%
X82105500Y-68567000D03*
%TO.P,C101,2*%
%TO.N,PACK-*%
X82105500Y-70117000D03*
%TD*%
D15*
%TO.P,R104,1*%
%TO.N,PACK+*%
X92710000Y-73279500D03*
%TO.P,R104,2*%
%TO.N,/VDD*%
X92710000Y-74929500D03*
%TD*%
D16*
%TO.P,R103,2*%
%TO.N,Net-(U101-VC)*%
X93599500Y-78422500D03*
%TO.P,R103,1*%
%TO.N,BM*%
X95249500Y-78422500D03*
%TD*%
D17*
%TO.P,Q102,1,S*%
%TO.N,PACK-*%
X82740500Y-87755500D03*
%TO.P,Q102,2,S*%
X84010500Y-87755500D03*
%TO.P,Q102,3,S*%
X85280500Y-87755500D03*
%TO.P,Q102,4,G*%
%TO.N,/COUT*%
X86550500Y-87755500D03*
%TO.P,Q102,5,D*%
%TO.N,/Q1D_Q2S*%
X86550500Y-82805500D03*
%TO.P,Q102,6,D*%
X85280500Y-82805500D03*
%TO.P,Q102,7,D*%
X84010500Y-82805500D03*
%TO.P,Q102,8,D*%
X82740500Y-82805500D03*
%TD*%
D18*
%TO.P,Q101,1,S*%
%TO.N,Net-(C101-Pad1)*%
X86550500Y-73534500D03*
%TO.P,Q101,2,S*%
X85280500Y-73534500D03*
%TO.P,Q101,3,S*%
X84010500Y-73534500D03*
%TO.P,Q101,4,G*%
%TO.N,/DOUT*%
X82740500Y-73534500D03*
%TO.P,Q101,5,D*%
%TO.N,/Q1D_Q2S*%
X82740500Y-78484500D03*
%TO.P,Q101,6,D*%
X84010500Y-78484500D03*
%TO.P,Q101,7,D*%
X85280500Y-78484500D03*
%TO.P,Q101,8,D*%
X86550500Y-78484500D03*
%TD*%
D19*
%TO.P,R102,1*%
%TO.N,/V-*%
X93599500Y-83375500D03*
%TO.P,R102,2*%
%TO.N,PACK-*%
X95249500Y-83375500D03*
%TD*%
D20*
%TO.P,R101,1*%
%TO.N,B-*%
X90211500Y-68580000D03*
%TO.P,R101,2*%
%TO.N,Net-(C101-Pad1)*%
X84286500Y-68580000D03*
%TD*%
D21*
%TO.P,TP101,1,1*%
%TO.N,B-*%
X55245000Y-74676000D03*
%TD*%
%TO.P,TP102,1,1*%
%TO.N,BM*%
X55245000Y-78613000D03*
%TD*%
%TO.P,TP103,1,1*%
%TO.N,PACK-*%
X55245000Y-82296000D03*
%TD*%
%TO.P,TP104,1,1*%
%TO.N,PACK+*%
X55245000Y-70866000D03*
%TD*%
D22*
%TO.P,D303,1,K*%
%TO.N,Net-(D303-K)*%
X61862178Y-43972480D03*
%TO.P,D303,2,A*%
%TO.N,Net-(D303-A)*%
X63722178Y-43972480D03*
%TD*%
D23*
%TO.P,MH301,1,1*%
%TO.N,unconnected-(MH301-Pad1)*%
X62118400Y-53157200D03*
%TD*%
%TO.P,MH302,1,1*%
%TO.N,unconnected-(MH302-Pad1)*%
X135778400Y-53157200D03*
%TD*%
%TO.P,MH303,1,1*%
%TO.N,unconnected-(MH303-Pad1)*%
X138318400Y-138887200D03*
%TD*%
%TO.P,MH304,1,1*%
%TO.N,unconnected-(MH304-Pad1)*%
X58318400Y-138887200D03*
%TD*%
D24*
%TO.P,P201,2,Pin_2*%
%TO.N,unconnected-(P201-Pin_2-Pad2)*%
X73122220Y-47404353D03*
%TO.P,P201,4,Pin_4*%
%TO.N,unconnected-(P201-Pin_4-Pad4)*%
X73922220Y-47404353D03*
%TO.P,P201,6,Pin_6*%
%TO.N,unconnected-(P201-Pin_6-Pad6)*%
X74722220Y-47404353D03*
%TO.P,P201,8,Pin_8*%
%TO.N,unconnected-(P201-Pin_8-Pad8)*%
X75522220Y-47404353D03*
%TO.P,P201,10,Pin_10*%
%TO.N,unconnected-(P201-Pin_10-Pad10)*%
X76322220Y-47404353D03*
%TO.P,P201,12,Pin_12*%
%TO.N,unconnected-(P201-Pin_12-Pad12)*%
X77122220Y-47404353D03*
%TO.P,P201,14,Pin_14*%
%TO.N,unconnected-(P201-Pin_14-Pad14)*%
X77922220Y-47404353D03*
%TO.P,P201,16,Pin_16*%
%TO.N,unconnected-(P201-Pin_16-Pad16)*%
X78722220Y-47404353D03*
%TO.P,P201,18,Pin_18*%
%TO.N,unconnected-(P201-Pin_18-Pad18)*%
X79522220Y-47404353D03*
%TO.P,P201,20,Pin_20*%
%TO.N,/SLI-Card/GND*%
X80322220Y-47404353D03*
%TO.P,P201,22,Pin_22*%
%TO.N,unconnected-(P201-Pin_22-Pad22)*%
X81122220Y-47404353D03*
%TO.P,P201,24,Pin_24*%
%TO.N,unconnected-(P201-Pin_24-Pad24)*%
X81922220Y-47404353D03*
%TO.P,P201,26,Pin_26*%
%TO.N,unconnected-(P201-Pin_26-Pad26)*%
X82722220Y-47404353D03*
%TO.P,P201,28,Pin_28*%
%TO.N,unconnected-(P201-Pin_28-Pad28)*%
X83522220Y-47404353D03*
%TO.P,P201,30,Pin_30*%
%TO.N,unconnected-(P201-Pin_30-Pad30)*%
X84322220Y-47404353D03*
%TO.P,P201,32,Pin_32*%
%TO.N,unconnected-(P201-Pin_32-Pad32)*%
X85122220Y-47404353D03*
%TO.P,P201,34,Pin_34*%
%TO.N,unconnected-(P201-Pin_34-Pad34)*%
X85922220Y-47404353D03*
%TO.P,P201,36,Pin_36*%
%TO.N,unconnected-(P201-Pin_36-Pad36)*%
X86722220Y-47404353D03*
%TO.P,P201,38,Pin_38*%
%TO.N,unconnected-(P201-Pin_38-Pad38)*%
X87522220Y-47404353D03*
%TO.P,P201,40,Pin_40*%
%TO.N,unconnected-(P201-Pin_40-Pad40)*%
X88322220Y-47404353D03*
%TO.P,P201,42,Pin_42*%
%TO.N,unconnected-(P201-Pin_42-Pad42)*%
X89122220Y-47404353D03*
%TO.P,P201,44,Pin_44*%
%TO.N,unconnected-(P201-Pin_44-Pad44)*%
X89922220Y-47404353D03*
%TO.P,P201,46,Pin_46*%
%TO.N,unconnected-(P201-Pin_46-Pad46)*%
X90722220Y-47404353D03*
%TO.P,P201,48,Pin_48*%
%TO.N,unconnected-(P201-Pin_48-Pad48)*%
X91522220Y-47404353D03*
%TO.P,P201,50,Pin_50*%
%TO.N,unconnected-(P201-Pin_50-Pad50)*%
X92322220Y-47404353D03*
%TO.P,P201,52,Pin_52*%
%TO.N,unconnected-(P201-Pin_52-Pad52)*%
X93122220Y-47404353D03*
%TO.P,P201,54,Pin_54*%
%TO.N,unconnected-(P201-Pin_54-Pad54)*%
X93922220Y-47404353D03*
%TO.P,P201,56,Pin_56*%
%TO.N,unconnected-(P201-Pin_56-Pad56)*%
X94722220Y-47404353D03*
%TO.P,P201,58,Pin_58*%
%TO.N,unconnected-(P201-Pin_58-Pad58)*%
X95522220Y-47404353D03*
%TO.P,P201,60,Pin_60*%
%TO.N,unconnected-(P201-Pin_60-Pad60)*%
X96322220Y-47404353D03*
%TO.P,P201,62,Pin_62*%
%TO.N,unconnected-(P201-Pin_62-Pad62)*%
X97122220Y-47404353D03*
%TO.P,P201,64,Pin_64*%
%TO.N,unconnected-(P201-Pin_64-Pad64)*%
X97922220Y-47404353D03*
%TO.P,P201,66,Pin_66*%
%TO.N,unconnected-(P201-Pin_66-Pad66)*%
X101922220Y-47404353D03*
%TO.P,P201,68,Pin_68*%
%TO.N,unconnected-(P201-Pin_68-Pad68)*%
X102722220Y-47404353D03*
%TO.P,P201,70,Pin_70*%
%TO.N,unconnected-(P201-Pin_70-Pad70)*%
X103522220Y-47404353D03*
%TO.P,P201,72,Pin_72*%
%TO.N,unconnected-(P201-Pin_72-Pad72)*%
X104322220Y-47404353D03*
%TO.P,P201,74,Pin_74*%
%TO.N,unconnected-(P201-Pin_74-Pad74)*%
X105122220Y-47404353D03*
%TO.P,P201,76,Pin_76*%
%TO.N,unconnected-(P201-Pin_76-Pad76)*%
X105922220Y-47404353D03*
%TO.P,P201,78,Pin_78*%
%TO.N,unconnected-(P201-Pin_78-Pad78)*%
X106722220Y-47404353D03*
%TO.P,P201,80,Pin_80*%
%TO.N,unconnected-(P201-Pin_80-Pad80)*%
X107522220Y-47404353D03*
%TO.P,P201,82,Pin_82*%
%TO.N,unconnected-(P201-Pin_82-Pad82)*%
X108322220Y-47404353D03*
%TO.P,P201,84,Pin_84*%
%TO.N,unconnected-(P201-Pin_84-Pad84)*%
X109122220Y-47404353D03*
%TO.P,P201,86,Pin_86*%
%TO.N,unconnected-(P201-Pin_86-Pad86)*%
X109922220Y-47404353D03*
%TO.P,P201,88,Pin_88*%
%TO.N,unconnected-(P201-Pin_88-Pad88)*%
X110722220Y-47404353D03*
%TO.P,P201,90,Pin_90*%
%TO.N,unconnected-(P201-Pin_90-Pad90)*%
X111522220Y-47404353D03*
%TO.P,P201,92,Pin_92*%
%TO.N,unconnected-(P201-Pin_92-Pad92)*%
X112322220Y-47404353D03*
%TO.P,P201,94,Pin_94*%
%TO.N,unconnected-(P201-Pin_94-Pad94)*%
X113122220Y-47404353D03*
%TO.P,P201,96,Pin_96*%
%TO.N,unconnected-(P201-Pin_96-Pad96)*%
X113922220Y-47404353D03*
%TO.P,P201,98,Pin_98*%
%TO.N,PACK+*%
X114722220Y-47404353D03*
%TO.P,P201,100,Pin_100*%
X115522220Y-47404353D03*
%TO.P,P201,102,Pin_102*%
%TO.N,unconnected-(P201-Pin_102-Pad102)*%
X116322220Y-47404353D03*
%TO.P,P201,104,Pin_104*%
%TO.N,unconnected-(P201-Pin_104-Pad104)*%
X117122220Y-47404353D03*
%TO.P,P201,106,Pin_106*%
%TO.N,PACK-*%
X117922220Y-47404353D03*
%TO.P,P201,108,Pin_108*%
X118722220Y-47404353D03*
%TO.P,P201,110,Pin_110*%
%TO.N,unconnected-(P201-Pin_110-Pad110)*%
X119522220Y-47404353D03*
%TO.P,P201,112,Pin_112*%
%TO.N,unconnected-(P201-Pin_112-Pad112)*%
X120322220Y-47404353D03*
%TO.P,P201,114,Pin_114*%
%TO.N,unconnected-(P201-Pin_114-Pad114)*%
X121122220Y-47404353D03*
%TO.P,P201,116,Pin_116*%
%TO.N,unconnected-(P201-Pin_116-Pad116)*%
X121922220Y-47404353D03*
%TO.P,P201,118,Pin_118*%
%TO.N,unconnected-(P201-Pin_118-Pad118)*%
X122722220Y-47404353D03*
%TO.P,P201,120,Pin_120*%
%TO.N,unconnected-(P201-Pin_120-Pad120)*%
X123522220Y-47404353D03*
%TD*%
D25*
%TO.P,Q303,1,B*%
%TO.N,Net-(Q303-B)*%
X60179000Y-45126600D03*
%TO.P,Q303,2,E*%
%TO.N,/SLI-Card/GND*%
X60979000Y-45126600D03*
D26*
%TO.P,Q303,3,C*%
%TO.N,Net-(D303-K)*%
X60579000Y-43976600D03*
%TD*%
D27*
%TO.P,R306,1*%
%TO.N,/SLI-Card/LED_PWR*%
X62661800Y-46357000D03*
%TO.P,R306,2*%
%TO.N,Net-(D303-A)*%
X62661800Y-45337000D03*
%TD*%
D28*
%TO.P,R305,1*%
%TO.N,Net-(Q303-B)*%
X60170600Y-46075600D03*
%TO.P,R305,2*%
%TO.N,PACK_LED*%
X61190600Y-46075600D03*
%TD*%
D15*
%TO.P,R108,1*%
%TO.N,PACK_LED*%
X56007000Y-58738000D03*
%TO.P,R108,2*%
%TO.N,PACK+*%
X56007000Y-60388000D03*
%TD*%
D19*
%TO.P,R106,1*%
%TO.N,DOUT_LED*%
X60833000Y-80264000D03*
%TO.P,R106,2*%
%TO.N,/DOUT*%
X62483000Y-80264000D03*
%TD*%
D29*
%TO.P,J107,1,Pin_1*%
%TO.N,PACK+*%
X70855000Y-64273000D03*
%TO.P,J107,2,Pin_2*%
X70855000Y-66273000D03*
%TO.P,J107,3,Pin_3*%
X70855000Y-68273000D03*
%TO.P,J107,4,Pin_4*%
%TO.N,PACK-*%
X70855000Y-70273000D03*
%TO.P,J107,5,Pin_5*%
X70855000Y-72273000D03*
%TO.P,J107,6,Pin_6*%
X70855000Y-74273000D03*
%TO.P,J107,7,Pin_7*%
%TO.N,B-*%
X70855000Y-76273000D03*
%TO.P,J107,8,Pin_8*%
%TO.N,BM*%
X70855000Y-78273000D03*
%TO.P,J107,9,Pin_9*%
%TO.N,/DOUT*%
X70855000Y-80273000D03*
%TO.P,J107,10,Pin_10*%
%TO.N,/V-*%
X70855000Y-82273000D03*
%TO.P,J107,11,Pin_11*%
%TO.N,PACK+*%
X66305000Y-64273000D03*
%TO.P,J107,12,Pin_12*%
X66305000Y-66273000D03*
%TO.P,J107,13,Pin_13*%
X66305000Y-68273000D03*
%TO.P,J107,14,Pin_14*%
%TO.N,PACK-*%
X66305000Y-70273000D03*
%TO.P,J107,15,Pin_15*%
X66305000Y-72273000D03*
%TO.P,J107,16,Pin_16*%
X66305000Y-74273000D03*
%TO.P,J107,17,Pin_17*%
%TO.N,B-*%
X66305000Y-76273000D03*
%TO.P,J107,18,Pin_18*%
%TO.N,BM*%
X66305000Y-78273000D03*
%TO.P,J107,19,Pin_19*%
%TO.N,/COUT*%
X66305000Y-80273000D03*
%TO.P,J107,20,Pin_20*%
%TO.N,/Q1D_Q2S*%
X66305000Y-82273000D03*
%TD*%
D30*
%TO.P,TH1,1*%
%TO.N,BAT_THERM*%
X89739000Y-93599000D03*
D31*
%TO.P,TH1,2*%
%TO.N,PACK-*%
X84659000Y-93599000D03*
%TD*%
D19*
%TO.P,R107,1*%
%TO.N,COUT_LED*%
X60833000Y-82169000D03*
%TO.P,R107,2*%
%TO.N,/COUT*%
X62483000Y-82169000D03*
%TD*%
D32*
%TO.N,B-*%
X90106500Y-65151000D03*
X90106500Y-64135000D03*
X90106500Y-66103500D03*
X91186000Y-65151000D03*
X91186000Y-66103500D03*
X91186000Y-64135000D03*
X124460000Y-58420000D03*
X125730000Y-59690000D03*
X130810000Y-62230000D03*
X124460000Y-55880000D03*
X124460000Y-63500000D03*
X127000000Y-60960000D03*
X125730000Y-62230000D03*
X72825000Y-76273000D03*
X132080000Y-60960000D03*
X132080000Y-63500000D03*
X128270000Y-62230000D03*
X127000000Y-63500000D03*
X129540000Y-63500000D03*
X89027000Y-66103500D03*
X68507000Y-76273000D03*
X125730000Y-64770000D03*
X124460000Y-53340000D03*
X63373000Y-76273000D03*
X128270000Y-64770000D03*
X89027000Y-64135000D03*
X130810000Y-64770000D03*
X73895000Y-76273000D03*
X124460000Y-60960000D03*
X64443000Y-76273000D03*
X132080000Y-58420000D03*
X89027000Y-65151000D03*
X130810000Y-59690000D03*
X128270000Y-59690000D03*
X129540000Y-60960000D03*
%TO.N,PACK-*%
X120015000Y-53340000D03*
X117475000Y-52070000D03*
X120000000Y-49800000D03*
X121285000Y-50165000D03*
X117475000Y-53340000D03*
X120015000Y-50800000D03*
X121285000Y-51435000D03*
X118722220Y-50187780D03*
X121285000Y-52705000D03*
X118745000Y-51435000D03*
X120015000Y-52070000D03*
X117475000Y-50800000D03*
X118745000Y-52705000D03*
%TO.N,BM*%
X63405000Y-78273000D03*
X115570000Y-139700000D03*
X114300000Y-135890000D03*
X119380000Y-133350000D03*
X118110000Y-137160000D03*
X124460000Y-133350000D03*
X72857000Y-78273000D03*
X113030000Y-137160000D03*
X123190000Y-139700000D03*
X115570000Y-134620000D03*
X119380000Y-138430000D03*
X114300000Y-133350000D03*
X123190000Y-137160000D03*
X124460000Y-138430000D03*
X64475000Y-78273000D03*
X95250000Y-79502002D03*
X121920000Y-138430000D03*
X124460000Y-135890000D03*
X119380000Y-135890000D03*
X116840000Y-138430000D03*
X120650000Y-139700000D03*
X68539000Y-78273000D03*
X113030000Y-139700000D03*
X116840000Y-135890000D03*
X120650000Y-137160000D03*
X121920000Y-135890000D03*
X115570000Y-137160000D03*
X120650000Y-134620000D03*
X118110000Y-139700000D03*
X118110000Y-134620000D03*
X113030000Y-134620000D03*
X73927000Y-78273000D03*
X114300000Y-138430000D03*
X123190000Y-134620000D03*
%TO.N,PACK+*%
X100330000Y-55880000D03*
X95250000Y-53340000D03*
X97790000Y-58420000D03*
X63192000Y-66294000D03*
X96520000Y-54610000D03*
X96520000Y-57150000D03*
X72898000Y-64262000D03*
X64262000Y-66294000D03*
X92710000Y-55880000D03*
X92710000Y-53340000D03*
X93980000Y-54610000D03*
X100330000Y-58420000D03*
X102870000Y-58420000D03*
X72898000Y-66294000D03*
X64262000Y-64262000D03*
X96520000Y-52070000D03*
X101600000Y-54610000D03*
X99060000Y-54610000D03*
X102870000Y-53340000D03*
X95250000Y-58420000D03*
X68580000Y-68326000D03*
X68580000Y-64262000D03*
X68580000Y-66294000D03*
X63192000Y-64262000D03*
X93980000Y-57150000D03*
X100330000Y-53340000D03*
X73968000Y-64262000D03*
X63192000Y-68326000D03*
X101600000Y-57150000D03*
X99060000Y-57150000D03*
X95250000Y-55880000D03*
X93980000Y-52070000D03*
X64262000Y-68326000D03*
X92710000Y-58420000D03*
X97790000Y-55880000D03*
X102870000Y-55880000D03*
X97790000Y-53340000D03*
%TO.N,/V-*%
X87122000Y-84455000D03*
X92770500Y-83378500D03*
%TO.N,/Q1D_Q2S*%
X68580000Y-82296000D03*
X74549000Y-81524200D03*
%TO.N,BAT_THERM*%
X77122220Y-51689000D03*
X87122000Y-66802000D03*
D33*
%TO.N,/SLI-Card/GND*%
X66446900Y-46355000D03*
X61280125Y-44745923D03*
X68961000Y-46314900D03*
X67310000Y-49022000D03*
X68961000Y-49022000D03*
%TO.N,/SLI-Card/LED_PWR*%
X61214000Y-48133000D03*
X63332900Y-46179200D03*
X63373000Y-48133000D03*
D32*
X78740000Y-49784000D03*
D33*
X68072000Y-48211200D03*
D32*
%TO.N,DOUT_LED*%
X61976000Y-74930000D03*
%TO.N,COUT_LED*%
X63373000Y-74930000D03*
%TD*%
D34*
%TO.N,/SLI-Card/GND*%
X67310000Y-50419000D02*
X67310000Y-49022000D01*
X69850000Y-52959000D02*
X67310000Y-50419000D01*
X73406000Y-52959000D02*
X69850000Y-52959000D01*
X80322220Y-49471780D02*
X79121000Y-50673000D01*
X75692000Y-50673000D02*
X73406000Y-52959000D01*
X80322220Y-47404353D02*
X80322220Y-49471780D01*
X79121000Y-50673000D02*
X75692000Y-50673000D01*
D35*
%TO.N,/VDD*%
X92710000Y-74892000D02*
X92710000Y-75844500D01*
D36*
X91122500Y-77406500D02*
X91884500Y-76644500D01*
X91122500Y-80578500D02*
X91122500Y-77406500D01*
D35*
X92710000Y-75844500D02*
X91910000Y-76644500D01*
%TO.N,B-*%
X90106500Y-80512500D02*
X90106500Y-78422500D01*
X90412100Y-81597500D02*
X90172500Y-81357900D01*
X90335000Y-76644500D02*
X90335000Y-68766000D01*
D37*
X64443000Y-76273000D02*
X63373000Y-76273000D01*
X66305000Y-76273000D02*
X68507000Y-76273000D01*
D35*
X93637000Y-81597500D02*
X90412100Y-81597500D01*
D37*
X72825000Y-76273000D02*
X73895000Y-76273000D01*
D35*
X90172500Y-81357900D02*
X90172500Y-80578500D01*
D37*
X68507000Y-76273000D02*
X70855000Y-76273000D01*
X66305000Y-76273000D02*
X64443000Y-76273000D01*
D35*
X90106500Y-78422500D02*
X90106500Y-76873000D01*
D37*
X70855000Y-76273000D02*
X72825000Y-76273000D01*
D38*
%TO.N,Net-(C101-Pad1)*%
X82105500Y-68554500D02*
X84323500Y-68554500D01*
D39*
%TO.N,PACK-*%
X118722220Y-47404353D02*
X118722220Y-50142220D01*
X117922220Y-47404353D02*
X117922220Y-50358220D01*
D37*
%TO.N,BM*%
X72857000Y-78273000D02*
X73927000Y-78273000D01*
X70855000Y-78273000D02*
X72857000Y-78273000D01*
X70855000Y-78273000D02*
X68539000Y-78273000D01*
D39*
X95250000Y-78460500D02*
X95250000Y-79426002D01*
X95250000Y-79426002D02*
X95212000Y-79464002D01*
D37*
X64475000Y-78273000D02*
X63405000Y-78273000D01*
D35*
X95212000Y-79464002D02*
X95250000Y-79502002D01*
D37*
X66305000Y-78273000D02*
X64475000Y-78273000D01*
X68539000Y-78273000D02*
X66305000Y-78273000D01*
D34*
%TO.N,PACK+*%
X56007000Y-61214000D02*
X57150000Y-62357000D01*
D39*
X56896000Y-63246000D02*
X62611000Y-63246000D01*
D34*
X57150000Y-62357000D02*
X62484000Y-62357000D01*
D39*
X55245000Y-70866000D02*
X55245000Y-64897000D01*
D38*
X92710000Y-73317000D02*
X92710000Y-58420000D01*
D39*
X55245000Y-64897000D02*
X56896000Y-63246000D01*
X115522220Y-47404353D02*
X115522220Y-50371220D01*
X114722220Y-47404353D02*
X114722220Y-50504780D01*
D34*
X56007000Y-60388000D02*
X56007000Y-61214000D01*
D35*
%TO.N,/V-*%
X81661000Y-84455000D02*
X87122000Y-84455000D01*
D39*
X92770500Y-83378500D02*
X93634000Y-83378500D01*
D35*
X93634000Y-83378500D02*
X95212000Y-81800500D01*
X70855000Y-82273000D02*
X79479000Y-82273000D01*
X79479000Y-82273000D02*
X81661000Y-84455000D01*
D39*
X92072500Y-83378500D02*
X92770500Y-83378500D01*
D35*
%TO.N,Net-(U101-VC)*%
X92072500Y-80578500D02*
X92072500Y-78585000D01*
X91910000Y-78422500D02*
X93637000Y-78422500D01*
D36*
%TO.N,Net-(D303-K)*%
X60579000Y-43976600D02*
X61858058Y-43976600D01*
%TO.N,Net-(D303-A)*%
X62661800Y-45313600D02*
X63722178Y-44253222D01*
D35*
%TO.N,/DOUT*%
X73397000Y-80273000D02*
X70855000Y-80273000D01*
X88582500Y-77406500D02*
X88582500Y-81597500D01*
X87185500Y-76009500D02*
X88582500Y-77406500D01*
X82740500Y-76009500D02*
X87185500Y-76009500D01*
X77660500Y-76009500D02*
X82740500Y-76009500D01*
X63499000Y-79248000D02*
X69830000Y-79248000D01*
X62483000Y-80264000D02*
X63499000Y-79248000D01*
X82740500Y-73534500D02*
X82740500Y-76009500D01*
X73397000Y-80273000D02*
X77660500Y-76009500D01*
X69830000Y-79248000D02*
X70855000Y-80273000D01*
X88582500Y-81597500D02*
X90172500Y-83187500D01*
%TO.N,/COUT*%
X64379000Y-80273000D02*
X62483000Y-82169000D01*
X66305000Y-80273000D02*
X64379000Y-80273000D01*
X66305000Y-80273000D02*
X68208000Y-80273000D01*
X73382789Y-81176211D02*
X78016580Y-76542420D01*
X78016580Y-76542420D02*
X86964758Y-76542420D01*
X88049580Y-84670420D02*
X90609980Y-84670420D01*
X69111211Y-81176211D02*
X73382789Y-81176211D01*
X88049580Y-77627242D02*
X88049580Y-84670420D01*
X86964758Y-76542420D02*
X88049580Y-77627242D01*
X86550500Y-86169500D02*
X86550500Y-87755500D01*
X86550500Y-86169500D02*
X88049580Y-84670420D01*
X90609980Y-84670420D02*
X91122500Y-84157900D01*
X68208000Y-80273000D02*
X69111211Y-81176211D01*
X91122500Y-83378500D02*
X91122500Y-84157900D01*
%TO.N,/Q1D_Q2S*%
X74558800Y-81534000D02*
X82423000Y-81534000D01*
X66305000Y-82273000D02*
X68557000Y-82273000D01*
X82423000Y-81534000D02*
X82740500Y-81851500D01*
X68557000Y-82273000D02*
X68580000Y-82296000D01*
X82740500Y-81851500D02*
X82740500Y-82805500D01*
X74549000Y-81524200D02*
X74558800Y-81534000D01*
D40*
%TO.N,BAT_THERM*%
X87122000Y-61976000D02*
X86546000Y-61400000D01*
X83625000Y-61400000D02*
X83058000Y-60833000D01*
X86546000Y-61400000D02*
X83625000Y-61400000D01*
X83058000Y-60833000D02*
X83058000Y-53340000D01*
X81407000Y-51689000D02*
X77122220Y-51689000D01*
X87122000Y-66802000D02*
X87122000Y-61976000D01*
X83058000Y-53340000D02*
X81407000Y-51689000D01*
D34*
%TO.N,/SLI-Card/GND*%
X67310000Y-47218100D02*
X67310000Y-49022000D01*
D40*
X61280125Y-44745923D02*
X61280125Y-44825475D01*
X61790800Y-46677800D02*
X61790800Y-45256598D01*
X61790800Y-45256598D02*
X61280125Y-44745923D01*
D34*
X66446900Y-46355000D02*
X67310000Y-47218100D01*
D36*
X68961000Y-46314900D02*
X68961000Y-49022000D01*
D40*
X65684900Y-47117000D02*
X62230000Y-47117000D01*
X66446900Y-46355000D02*
X65684900Y-47117000D01*
X62230000Y-47117000D02*
X61790800Y-46677800D01*
X61280125Y-44825475D02*
X60979000Y-45126600D01*
D34*
%TO.N,/SLI-Card/LED_PWR*%
X63155100Y-46357000D02*
X62661800Y-46357000D01*
X66675000Y-45593000D02*
X68072000Y-46990000D01*
X70124266Y-52344266D02*
X73131734Y-52344266D01*
X78740000Y-49784000D02*
X75692000Y-49784000D01*
X73131734Y-52344266D02*
X75692000Y-49784000D01*
X63919100Y-45593000D02*
X66675000Y-45593000D01*
X63332900Y-46179200D02*
X63919100Y-45593000D01*
X70124266Y-52344266D02*
X68072000Y-50292000D01*
D40*
X61214000Y-48133000D02*
X63373000Y-48133000D01*
D34*
X68072000Y-50292000D02*
X68072000Y-48211200D01*
X63332900Y-46179200D02*
X63155100Y-46357000D01*
X68072000Y-46990000D02*
X68072000Y-48211200D01*
D36*
%TO.N,Net-(Q303-B)*%
X60179000Y-45126600D02*
X60179000Y-46067200D01*
D34*
%TO.N,DOUT_LED*%
X60833000Y-80264000D02*
X60833000Y-76073000D01*
X60833000Y-76073000D02*
X61976000Y-74930000D01*
%TO.N,COUT_LED*%
X60833000Y-82169000D02*
X61743910Y-81258090D01*
X61743910Y-76559090D02*
X63373000Y-74930000D01*
X61743910Y-81258090D02*
X61743910Y-76559090D01*
%TO.N,PACK_LED*%
X60579000Y-48387000D02*
X60579000Y-47371000D01*
X60579000Y-47371000D02*
X61190600Y-46759400D01*
X56007000Y-58738000D02*
X56007000Y-52959000D01*
X61190600Y-46759400D02*
X61190600Y-46075600D01*
X56007000Y-52959000D02*
X60579000Y-48387000D01*
%TD*%
%TA.AperFunction,Conductor*%
%TO.N,B-*%
G36*
X91456187Y-63501078D02*
G01*
X91484201Y-63504765D01*
X91560964Y-63514871D01*
X91592731Y-63523383D01*
X91682675Y-63560639D01*
X91711160Y-63577085D01*
X91788393Y-63636349D01*
X91811650Y-63659606D01*
X91870914Y-63736839D01*
X91887361Y-63765326D01*
X91924615Y-63855265D01*
X91933128Y-63887037D01*
X91946922Y-63991812D01*
X91948000Y-64008258D01*
X91948000Y-70675242D01*
X91946922Y-70691689D01*
X91933128Y-70796463D01*
X91924615Y-70828234D01*
X91887361Y-70918173D01*
X91870914Y-70946660D01*
X91811650Y-71023893D01*
X91788393Y-71047150D01*
X91711160Y-71106414D01*
X91682673Y-71122861D01*
X91592734Y-71160115D01*
X91560963Y-71168628D01*
X91483024Y-71178888D01*
X91456187Y-71182422D01*
X91439742Y-71183500D01*
X88773258Y-71183500D01*
X88756812Y-71182422D01*
X88652037Y-71168628D01*
X88620265Y-71160115D01*
X88530326Y-71122861D01*
X88501839Y-71106414D01*
X88424606Y-71047150D01*
X88401349Y-71023893D01*
X88342085Y-70946660D01*
X88325638Y-70918173D01*
X88288384Y-70828234D01*
X88279871Y-70796461D01*
X88266078Y-70691687D01*
X88265000Y-70675242D01*
X88265000Y-64008258D01*
X88266078Y-63991813D01*
X88269134Y-63968592D01*
X88279872Y-63887033D01*
X88288382Y-63855270D01*
X88325640Y-63765321D01*
X88342082Y-63736843D01*
X88401351Y-63659603D01*
X88424603Y-63636351D01*
X88501843Y-63577082D01*
X88530321Y-63560640D01*
X88620270Y-63523382D01*
X88652033Y-63514872D01*
X88733592Y-63504134D01*
X88756813Y-63501078D01*
X88773258Y-63500000D01*
X91439742Y-63500000D01*
X91456187Y-63501078D01*
G37*
%TD.AperFunction*%
%TD*%
%TA.AperFunction,Conductor*%
%TO.N,B-*%
G36*
X124661823Y-51816790D02*
G01*
X124729877Y-51836790D01*
X124801335Y-51882713D01*
X125023640Y-51984235D01*
X125258130Y-52053085D01*
X125500032Y-52087863D01*
X125500036Y-52087862D01*
X125508953Y-52089145D01*
X125508549Y-52091949D01*
X125556300Y-52104744D01*
X125602419Y-52150863D01*
X125619300Y-52213863D01*
X125619300Y-55017100D01*
X130127299Y-55017100D01*
X130127299Y-52100082D01*
X130112563Y-52025996D01*
X130105504Y-52015431D01*
X130084419Y-51951596D01*
X130099159Y-51886006D01*
X130145529Y-51837330D01*
X130210327Y-51819427D01*
X132221661Y-51820383D01*
X132238124Y-51821471D01*
X132256934Y-51823959D01*
X132311495Y-51831177D01*
X132364334Y-51850900D01*
X132403275Y-51891699D01*
X132420516Y-51945399D01*
X132412602Y-52001242D01*
X132391325Y-52056672D01*
X132294844Y-52416746D01*
X132236528Y-52784939D01*
X132217018Y-53157199D01*
X132236528Y-53529460D01*
X132294844Y-53897653D01*
X132391325Y-54257728D01*
X132524916Y-54605742D01*
X132694154Y-54937891D01*
X132703057Y-54951600D01*
X132718237Y-54984580D01*
X132723384Y-55020518D01*
X132699995Y-65029308D01*
X132698881Y-65045733D01*
X132684875Y-65150354D01*
X132676307Y-65182072D01*
X132638929Y-65271833D01*
X132622454Y-65300255D01*
X132563138Y-65377309D01*
X132539875Y-65400508D01*
X132501268Y-65430055D01*
X132462658Y-65459605D01*
X132434189Y-65476000D01*
X132344319Y-65513126D01*
X132312578Y-65521604D01*
X132207921Y-65535315D01*
X132191494Y-65536383D01*
X123507227Y-65532241D01*
X123490786Y-65531156D01*
X123386046Y-65517320D01*
X123354288Y-65508797D01*
X123264385Y-65471521D01*
X123235912Y-65455070D01*
X123158717Y-65395801D01*
X123135477Y-65372550D01*
X123076240Y-65295316D01*
X123059808Y-65266842D01*
X123022576Y-65176923D01*
X123014068Y-65145158D01*
X123000285Y-65040413D01*
X122999208Y-65023972D01*
X122999337Y-59179099D01*
X122999406Y-56033100D01*
X125619301Y-56033100D01*
X125619301Y-58950118D01*
X125634036Y-59024205D01*
X125690176Y-59108224D01*
X125774193Y-59164363D01*
X125848281Y-59179100D01*
X127365300Y-59179100D01*
X127365300Y-56033100D01*
X128381300Y-56033100D01*
X128381300Y-59179099D01*
X129898318Y-59179099D01*
X129972405Y-59164363D01*
X130056424Y-59108223D01*
X130112563Y-59024206D01*
X130127300Y-58950119D01*
X130127300Y-56033100D01*
X128381300Y-56033100D01*
X127365300Y-56033100D01*
X125619301Y-56033100D01*
X122999406Y-56033100D01*
X122999488Y-52324474D01*
X123000565Y-52308050D01*
X123014372Y-52203226D01*
X123022891Y-52171451D01*
X123050533Y-52104744D01*
X123060169Y-52081488D01*
X123076620Y-52053005D01*
X123135923Y-51975752D01*
X123159187Y-51952500D01*
X123236462Y-51893240D01*
X123264959Y-51876800D01*
X123354943Y-51839565D01*
X123386718Y-51831065D01*
X123491549Y-51817310D01*
X123507970Y-51816241D01*
X124661823Y-51816790D01*
G37*
%TD.AperFunction*%
%TD*%
%TA.AperFunction,Conductor*%
%TO.N,PACK-*%
G36*
X121672785Y-49286618D02*
G01*
X121777702Y-49300123D01*
X121809515Y-49308552D01*
X121899632Y-49345598D01*
X121928180Y-49361983D01*
X122005627Y-49421108D01*
X122028957Y-49444330D01*
X122088439Y-49521492D01*
X122104959Y-49549964D01*
X122142426Y-49639902D01*
X122151007Y-49671682D01*
X122156451Y-49712464D01*
X122165003Y-49776529D01*
X122166110Y-49792959D01*
X122181391Y-58762103D01*
X122193461Y-65846678D01*
X122193461Y-65846683D01*
X122194314Y-66346909D01*
X122694539Y-66345821D01*
X122694547Y-66345822D01*
X122694547Y-66345821D01*
X122694548Y-66345822D01*
X122712842Y-66345782D01*
X128098911Y-66334077D01*
X133604000Y-66322114D01*
X133604010Y-66322114D01*
X133604020Y-66322113D01*
X133604188Y-66322113D01*
X133604188Y-66322114D01*
X133604360Y-66322114D01*
X133604360Y-66322153D01*
X133604525Y-66322112D01*
X136421220Y-66314014D01*
X136488104Y-66333005D01*
X136534732Y-66384582D01*
X136546905Y-66453038D01*
X136520915Y-66517528D01*
X136464676Y-66558414D01*
X136445484Y-66565399D01*
X136194777Y-66698702D01*
X135965062Y-66865601D01*
X135760808Y-67062847D01*
X135585993Y-67286600D01*
X135444020Y-67532502D01*
X135337654Y-67795770D01*
X135268962Y-68071277D01*
X135239281Y-68353674D01*
X135249190Y-68637438D01*
X135298498Y-68917076D01*
X135386242Y-69187122D01*
X135510713Y-69442326D01*
X135669496Y-69677733D01*
X135859487Y-69888738D01*
X135859491Y-69888742D01*
X136077005Y-70071258D01*
X136317804Y-70221726D01*
X136577201Y-70337217D01*
X136850146Y-70415483D01*
X137131328Y-70455000D01*
X137344203Y-70455000D01*
X137556553Y-70440151D01*
X137834293Y-70381116D01*
X138101114Y-70284001D01*
X138351822Y-70150697D01*
X138581539Y-69983798D01*
X138785791Y-69786553D01*
X138960605Y-69562802D01*
X139085231Y-69346944D01*
X139102579Y-69316897D01*
X139208945Y-69053629D01*
X139236659Y-68942476D01*
X139277638Y-68778119D01*
X139307318Y-68495729D01*
X139297409Y-68211958D01*
X139248102Y-67932327D01*
X139160358Y-67662279D01*
X139035885Y-67407071D01*
X138971759Y-67312000D01*
X138877103Y-67171666D01*
X138687112Y-66960661D01*
X138687110Y-66960659D01*
X138687109Y-66960658D01*
X138469595Y-66778142D01*
X138469594Y-66778141D01*
X138259338Y-66646759D01*
X138228796Y-66627674D01*
X138054956Y-66550275D01*
X138002784Y-66507140D01*
X137980465Y-66443226D01*
X137994445Y-66376987D01*
X138040688Y-66327545D01*
X138105843Y-66309171D01*
X142724775Y-66295892D01*
X142773540Y-66295752D01*
X142836693Y-66312511D01*
X142882961Y-66358646D01*
X142899902Y-66421751D01*
X142899902Y-85105482D01*
X142898350Y-85125195D01*
X142890615Y-85174027D01*
X142878434Y-85211516D01*
X142860546Y-85246624D01*
X142837374Y-85278517D01*
X142809516Y-85306375D01*
X142777624Y-85329547D01*
X142742519Y-85347434D01*
X142705029Y-85359615D01*
X142656222Y-85367346D01*
X142636509Y-85368898D01*
X142221815Y-85368898D01*
X142221763Y-85368901D01*
X142165413Y-85368901D01*
X141967894Y-85400185D01*
X141967890Y-85400186D01*
X141967891Y-85400186D01*
X141777703Y-85461980D01*
X141599516Y-85552771D01*
X141437727Y-85670316D01*
X141296319Y-85811723D01*
X141178774Y-85973508D01*
X141087982Y-86151696D01*
X141029144Y-86332783D01*
X141026186Y-86341888D01*
X140996946Y-86526501D01*
X140994902Y-86539409D01*
X140994902Y-105409997D01*
X140994901Y-105509986D01*
X141026184Y-105707509D01*
X141087980Y-105897698D01*
X141178772Y-106075886D01*
X141296319Y-106237676D01*
X141437723Y-106379080D01*
X141599513Y-106496627D01*
X141777701Y-106587419D01*
X141967890Y-106649215D01*
X142031512Y-106659291D01*
X142165413Y-106680499D01*
X142265403Y-106680498D01*
X142332349Y-106680498D01*
X142579455Y-106680498D01*
X142636484Y-106680498D01*
X142656193Y-106682048D01*
X142705026Y-106689783D01*
X142742515Y-106701963D01*
X142777628Y-106719855D01*
X142809516Y-106743024D01*
X142837375Y-106770883D01*
X142860547Y-106802775D01*
X142878434Y-106837880D01*
X142890615Y-106875370D01*
X142898350Y-106924202D01*
X142899902Y-106943915D01*
X142899902Y-127430596D01*
X142883065Y-127493519D01*
X142837055Y-127539627D01*
X142774171Y-127556595D01*
X100091416Y-127646548D01*
X98543634Y-127649809D01*
X53873162Y-127743951D01*
X53810049Y-127727159D01*
X53763821Y-127681028D01*
X53746896Y-127617953D01*
X53746897Y-123579074D01*
X57314081Y-123579074D01*
X57323990Y-123862838D01*
X57373298Y-124142476D01*
X57461042Y-124412522D01*
X57585513Y-124667726D01*
X57744296Y-124903133D01*
X57934287Y-125114138D01*
X57934291Y-125114142D01*
X58151805Y-125296658D01*
X58392604Y-125447126D01*
X58652001Y-125562617D01*
X58924946Y-125640883D01*
X59206128Y-125680400D01*
X59419003Y-125680400D01*
X59631353Y-125665551D01*
X59909093Y-125606516D01*
X60175914Y-125509401D01*
X60426622Y-125376097D01*
X60656339Y-125209198D01*
X60860591Y-125011953D01*
X61035405Y-124788202D01*
X61177378Y-124542298D01*
X61177379Y-124542297D01*
X61283745Y-124279029D01*
X61317792Y-124142476D01*
X61352438Y-124003519D01*
X61382118Y-123721129D01*
X61377158Y-123579074D01*
X77964281Y-123579074D01*
X77974190Y-123862838D01*
X78023498Y-124142476D01*
X78111242Y-124412522D01*
X78235713Y-124667726D01*
X78394496Y-124903133D01*
X78584487Y-125114138D01*
X78584491Y-125114142D01*
X78802005Y-125296658D01*
X79042804Y-125447126D01*
X79302201Y-125562617D01*
X79575146Y-125640883D01*
X79856328Y-125680400D01*
X80069203Y-125680400D01*
X80281553Y-125665551D01*
X80559293Y-125606516D01*
X80826114Y-125509401D01*
X81076822Y-125376097D01*
X81306539Y-125209198D01*
X81510791Y-125011953D01*
X81685605Y-124788202D01*
X81827578Y-124542298D01*
X81827579Y-124542297D01*
X81933945Y-124279029D01*
X81967992Y-124142476D01*
X82002638Y-124003519D01*
X82032318Y-123721129D01*
X82026471Y-123553674D01*
X98589081Y-123553674D01*
X98598990Y-123837438D01*
X98648298Y-124117076D01*
X98736042Y-124387122D01*
X98860513Y-124642326D01*
X99019296Y-124877733D01*
X99209287Y-125088738D01*
X99209291Y-125088742D01*
X99426805Y-125271258D01*
X99667604Y-125421726D01*
X99927001Y-125537217D01*
X100199946Y-125615483D01*
X100481128Y-125655000D01*
X100694003Y-125655000D01*
X100906353Y-125640151D01*
X101184093Y-125581116D01*
X101450914Y-125484001D01*
X101701622Y-125350697D01*
X101931339Y-125183798D01*
X102135591Y-124986553D01*
X102310405Y-124762802D01*
X102400413Y-124606902D01*
X102452379Y-124516897D01*
X102558745Y-124253629D01*
X102586459Y-124142476D01*
X102627438Y-123978119D01*
X102657118Y-123695729D01*
X102652158Y-123553674D01*
X114589081Y-123553674D01*
X114598990Y-123837438D01*
X114648298Y-124117076D01*
X114736042Y-124387122D01*
X114860513Y-124642326D01*
X115019296Y-124877733D01*
X115209287Y-125088738D01*
X115209291Y-125088742D01*
X115426805Y-125271258D01*
X115667604Y-125421726D01*
X115927001Y-125537217D01*
X116199946Y-125615483D01*
X116481128Y-125655000D01*
X116694003Y-125655000D01*
X116906353Y-125640151D01*
X117184093Y-125581116D01*
X117450914Y-125484001D01*
X117701622Y-125350697D01*
X117931339Y-125183798D01*
X118135591Y-124986553D01*
X118310405Y-124762802D01*
X118400413Y-124606902D01*
X118452379Y-124516897D01*
X118558745Y-124253629D01*
X118586459Y-124142476D01*
X118627438Y-123978119D01*
X118657118Y-123695729D01*
X118652158Y-123553674D01*
X119239281Y-123553674D01*
X119249190Y-123837438D01*
X119298498Y-124117076D01*
X119386242Y-124387122D01*
X119510713Y-124642326D01*
X119669496Y-124877733D01*
X119859487Y-125088738D01*
X119859491Y-125088742D01*
X120077005Y-125271258D01*
X120317804Y-125421726D01*
X120577201Y-125537217D01*
X120850146Y-125615483D01*
X121131328Y-125655000D01*
X121344203Y-125655000D01*
X121556553Y-125640151D01*
X121834293Y-125581116D01*
X122101114Y-125484001D01*
X122351822Y-125350697D01*
X122581539Y-125183798D01*
X122785791Y-124986553D01*
X122960605Y-124762802D01*
X123050613Y-124606902D01*
X123102579Y-124516897D01*
X123208945Y-124253629D01*
X123236659Y-124142476D01*
X123277638Y-123978119D01*
X123307318Y-123695729D01*
X123303245Y-123579074D01*
X135239281Y-123579074D01*
X135249190Y-123862838D01*
X135298498Y-124142476D01*
X135386242Y-124412522D01*
X135510713Y-124667726D01*
X135669496Y-124903133D01*
X135859487Y-125114138D01*
X135859491Y-125114142D01*
X136077005Y-125296658D01*
X136317804Y-125447126D01*
X136577201Y-125562617D01*
X136850146Y-125640883D01*
X137131328Y-125680400D01*
X137344203Y-125680400D01*
X137556553Y-125665551D01*
X137834293Y-125606516D01*
X138101114Y-125509401D01*
X138351822Y-125376097D01*
X138581539Y-125209198D01*
X138785791Y-125011953D01*
X138960605Y-124788202D01*
X139102578Y-124542298D01*
X139102579Y-124542297D01*
X139208945Y-124279029D01*
X139242992Y-124142476D01*
X139277638Y-124003519D01*
X139307318Y-123721129D01*
X139297409Y-123437358D01*
X139248102Y-123157727D01*
X139160358Y-122887679D01*
X139035885Y-122632471D01*
X138937494Y-122486600D01*
X138877103Y-122397066D01*
X138687112Y-122186061D01*
X138687110Y-122186059D01*
X138687109Y-122186058D01*
X138469595Y-122003542D01*
X138469594Y-122003541D01*
X138342464Y-121924102D01*
X138228796Y-121853074D01*
X137969399Y-121737583D01*
X137816306Y-121693684D01*
X137696453Y-121659316D01*
X137415272Y-121619800D01*
X137202397Y-121619800D01*
X136990047Y-121634649D01*
X136920612Y-121649407D01*
X136712304Y-121693684D01*
X136445486Y-121790798D01*
X136194777Y-121924102D01*
X135965062Y-122091001D01*
X135760808Y-122288247D01*
X135585993Y-122512000D01*
X135444020Y-122757902D01*
X135337654Y-123021170D01*
X135268962Y-123296677D01*
X135239281Y-123579074D01*
X123303245Y-123579074D01*
X123297409Y-123411958D01*
X123248102Y-123132327D01*
X123160358Y-122862279D01*
X123035885Y-122607071D01*
X122971759Y-122512000D01*
X122877103Y-122371666D01*
X122687112Y-122160661D01*
X122687110Y-122160659D01*
X122687109Y-122160658D01*
X122469595Y-121978142D01*
X122469594Y-121978141D01*
X122269444Y-121853074D01*
X122228796Y-121827674D01*
X121969399Y-121712183D01*
X121816306Y-121668284D01*
X121696453Y-121633916D01*
X121415272Y-121594400D01*
X121202397Y-121594400D01*
X120990047Y-121609249D01*
X120940408Y-121619800D01*
X120712304Y-121668284D01*
X120445486Y-121765398D01*
X120194777Y-121898702D01*
X119965062Y-122065601D01*
X119760808Y-122262847D01*
X119585993Y-122486600D01*
X119444020Y-122732502D01*
X119337654Y-122995770D01*
X119268962Y-123271277D01*
X119239281Y-123553674D01*
X118652158Y-123553674D01*
X118647209Y-123411958D01*
X118597902Y-123132327D01*
X118510158Y-122862279D01*
X118385685Y-122607071D01*
X118321559Y-122512000D01*
X118226903Y-122371666D01*
X118036912Y-122160661D01*
X118036910Y-122160659D01*
X118036909Y-122160658D01*
X117819395Y-121978142D01*
X117819394Y-121978141D01*
X117619244Y-121853074D01*
X117578596Y-121827674D01*
X117319199Y-121712183D01*
X117166106Y-121668284D01*
X117046253Y-121633916D01*
X116765072Y-121594400D01*
X116552197Y-121594400D01*
X116339847Y-121609249D01*
X116290208Y-121619800D01*
X116062104Y-121668284D01*
X115795286Y-121765398D01*
X115544577Y-121898702D01*
X115314862Y-122065601D01*
X115110608Y-122262847D01*
X114935793Y-122486600D01*
X114793820Y-122732502D01*
X114687454Y-122995770D01*
X114618762Y-123271277D01*
X114589081Y-123553674D01*
X102652158Y-123553674D01*
X102647209Y-123411958D01*
X102597902Y-123132327D01*
X102510158Y-122862279D01*
X102385685Y-122607071D01*
X102321559Y-122512000D01*
X102226903Y-122371666D01*
X102036912Y-122160661D01*
X102036910Y-122160659D01*
X102036909Y-122160658D01*
X101819395Y-121978142D01*
X101819394Y-121978141D01*
X101619244Y-121853074D01*
X101578596Y-121827674D01*
X101319199Y-121712183D01*
X101166106Y-121668284D01*
X101046253Y-121633916D01*
X100765072Y-121594400D01*
X100552197Y-121594400D01*
X100339847Y-121609249D01*
X100290208Y-121619800D01*
X100062104Y-121668284D01*
X99795286Y-121765398D01*
X99544577Y-121898702D01*
X99314862Y-122065601D01*
X99110608Y-122262847D01*
X98935793Y-122486600D01*
X98793820Y-122732502D01*
X98687454Y-122995770D01*
X98618762Y-123271277D01*
X98589081Y-123553674D01*
X82026471Y-123553674D01*
X82022409Y-123437358D01*
X81973102Y-123157727D01*
X81885358Y-122887679D01*
X81760885Y-122632471D01*
X81662494Y-122486600D01*
X81602103Y-122397066D01*
X81412112Y-122186061D01*
X81412110Y-122186059D01*
X81412109Y-122186058D01*
X81194595Y-122003542D01*
X81194594Y-122003541D01*
X81067464Y-121924102D01*
X80953796Y-121853074D01*
X80694399Y-121737583D01*
X80541306Y-121693684D01*
X80421453Y-121659316D01*
X80140272Y-121619800D01*
X79927397Y-121619800D01*
X79715047Y-121634649D01*
X79645612Y-121649407D01*
X79437304Y-121693684D01*
X79170486Y-121790798D01*
X78919777Y-121924102D01*
X78690062Y-122091001D01*
X78485808Y-122288247D01*
X78310993Y-122512000D01*
X78169020Y-122757902D01*
X78062654Y-123021170D01*
X77993962Y-123296677D01*
X77964281Y-123579074D01*
X61377158Y-123579074D01*
X61372209Y-123437358D01*
X61322902Y-123157727D01*
X61235158Y-122887679D01*
X61110685Y-122632471D01*
X61012294Y-122486600D01*
X60951903Y-122397066D01*
X60761912Y-122186061D01*
X60761910Y-122186059D01*
X60761909Y-122186058D01*
X60544395Y-122003542D01*
X60544394Y-122003541D01*
X60417264Y-121924102D01*
X60303596Y-121853074D01*
X60044199Y-121737583D01*
X59891106Y-121693684D01*
X59771253Y-121659316D01*
X59490072Y-121619800D01*
X59277197Y-121619800D01*
X59064847Y-121634649D01*
X58995412Y-121649407D01*
X58787104Y-121693684D01*
X58520286Y-121790798D01*
X58269577Y-121924102D01*
X58039862Y-122091001D01*
X57835608Y-122288247D01*
X57660793Y-122512000D01*
X57518820Y-122757902D01*
X57412454Y-123021170D01*
X57343762Y-123296677D01*
X57314081Y-123579074D01*
X53746897Y-123579074D01*
X53746901Y-106943902D01*
X53748453Y-106924202D01*
X53756188Y-106875372D01*
X53768369Y-106837882D01*
X53770344Y-106834006D01*
X53786258Y-106802772D01*
X53809426Y-106770886D01*
X53837288Y-106743024D01*
X53869174Y-106719857D01*
X53904285Y-106701967D01*
X53941771Y-106689787D01*
X53990634Y-106682048D01*
X54010342Y-106680498D01*
X54067346Y-106680498D01*
X54314458Y-106680498D01*
X54329208Y-106680498D01*
X54329228Y-106680502D01*
X54381403Y-106680502D01*
X54481391Y-106680502D01*
X54481394Y-106680502D01*
X54678913Y-106649218D01*
X54829938Y-106600145D01*
X54869105Y-106587420D01*
X55047293Y-106496628D01*
X55116570Y-106446295D01*
X55209079Y-106379083D01*
X55350487Y-106237674D01*
X55468033Y-106075886D01*
X55558822Y-105897701D01*
X55604674Y-105756582D01*
X55620619Y-105707509D01*
X55629554Y-105651091D01*
X55651903Y-105509987D01*
X55651902Y-105409997D01*
X55651902Y-105343051D01*
X55651902Y-93726000D01*
X83712892Y-93726000D01*
X83718803Y-93786012D01*
X83773355Y-93965848D01*
X83861941Y-94131582D01*
X83981155Y-94276844D01*
X84126417Y-94396058D01*
X84292151Y-94484644D01*
X84471987Y-94539196D01*
X84531999Y-94545107D01*
X84532000Y-94545107D01*
X84532000Y-93726000D01*
X84786000Y-93726000D01*
X84786000Y-94545107D01*
X84846012Y-94539196D01*
X85025848Y-94484644D01*
X85191582Y-94396058D01*
X85336844Y-94276844D01*
X85456058Y-94131582D01*
X85544644Y-93965848D01*
X85599196Y-93786012D01*
X85605107Y-93726000D01*
X84786000Y-93726000D01*
X84532000Y-93726000D01*
X83712892Y-93726000D01*
X55651902Y-93726000D01*
X55651902Y-93599000D01*
X88779881Y-93599000D01*
X88798310Y-93786115D01*
X88852889Y-93966037D01*
X88935403Y-94120409D01*
X88941523Y-94131857D01*
X88988128Y-94188647D01*
X89060800Y-94277199D01*
X89133471Y-94336837D01*
X89206143Y-94396477D01*
X89294776Y-94443852D01*
X89371962Y-94485110D01*
X89551884Y-94539689D01*
X89739000Y-94558118D01*
X89926115Y-94539689D01*
X89927740Y-94539196D01*
X90106037Y-94485110D01*
X90106909Y-94484644D01*
X90271857Y-94396477D01*
X90417199Y-94277199D01*
X90536477Y-94131857D01*
X90625109Y-93966039D01*
X90679689Y-93786115D01*
X90698118Y-93599000D01*
X90679689Y-93411885D01*
X90625167Y-93232151D01*
X90625110Y-93231962D01*
X90536623Y-93066417D01*
X90536477Y-93066143D01*
X90417490Y-92921155D01*
X90417199Y-92920800D01*
X90272366Y-92801941D01*
X90271857Y-92801523D01*
X90260409Y-92795403D01*
X90106037Y-92712889D01*
X89926115Y-92658310D01*
X89739000Y-92639881D01*
X89551884Y-92658310D01*
X89371962Y-92712889D01*
X89206144Y-92801522D01*
X89060800Y-92920800D01*
X88941522Y-93066144D01*
X88852889Y-93231962D01*
X88798310Y-93411884D01*
X88779881Y-93599000D01*
X55651902Y-93599000D01*
X55651902Y-93471999D01*
X83712892Y-93471999D01*
X83712893Y-93472000D01*
X84532000Y-93472000D01*
X84532000Y-92652893D01*
X84531999Y-92652892D01*
X84786000Y-92652892D01*
X84786000Y-93472000D01*
X85605107Y-93472000D01*
X85605107Y-93471999D01*
X85599196Y-93411987D01*
X85544644Y-93232151D01*
X85456058Y-93066417D01*
X85336844Y-92921155D01*
X85191582Y-92801941D01*
X85025848Y-92713355D01*
X84846012Y-92658803D01*
X84786000Y-92652892D01*
X84531999Y-92652892D01*
X84471987Y-92658803D01*
X84292151Y-92713355D01*
X84126417Y-92801941D01*
X83981155Y-92921155D01*
X83861941Y-93066417D01*
X83773355Y-93232151D01*
X83718803Y-93411987D01*
X83712892Y-93471999D01*
X55651902Y-93471999D01*
X55651902Y-87882500D01*
X82186501Y-87882500D01*
X82186501Y-88612293D01*
X82201484Y-88706898D01*
X82259584Y-88820927D01*
X82350072Y-88911415D01*
X82464100Y-88969515D01*
X82558706Y-88984500D01*
X82613500Y-88984500D01*
X82613500Y-87882500D01*
X82186501Y-87882500D01*
X55651902Y-87882500D01*
X55651902Y-87628500D01*
X82186500Y-87628500D01*
X82613500Y-87628500D01*
X82613500Y-86526501D01*
X82558707Y-86526501D01*
X82464101Y-86541484D01*
X82350072Y-86599584D01*
X82259584Y-86690072D01*
X82201484Y-86804100D01*
X82186500Y-86898706D01*
X82186500Y-87628500D01*
X55651902Y-87628500D01*
X55651902Y-86603030D01*
X55651902Y-86539406D01*
X55649858Y-86526500D01*
X82867500Y-86526500D01*
X82867500Y-88984499D01*
X82922293Y-88984499D01*
X83016898Y-88969515D01*
X83130927Y-88911415D01*
X83221415Y-88820927D01*
X83263233Y-88738856D01*
X83309665Y-88688626D01*
X83375500Y-88670059D01*
X83441335Y-88688626D01*
X83487767Y-88738856D01*
X83529584Y-88820927D01*
X83620072Y-88911415D01*
X83734100Y-88969515D01*
X83828706Y-88984500D01*
X83883500Y-88984500D01*
X83883500Y-86526501D01*
X83828707Y-86526501D01*
X83734101Y-86541484D01*
X83620072Y-86599584D01*
X83529582Y-86690074D01*
X83487765Y-86772144D01*
X83441333Y-86822373D01*
X83375498Y-86840940D01*
X83309663Y-86822372D01*
X83263232Y-86772142D01*
X83221416Y-86690073D01*
X83130927Y-86599584D01*
X83016899Y-86541484D01*
X82922294Y-86526500D01*
X84137500Y-86526500D01*
X84137500Y-88984499D01*
X84192293Y-88984499D01*
X84286898Y-88969515D01*
X84400927Y-88911415D01*
X84491415Y-88820927D01*
X84533233Y-88738856D01*
X84579665Y-88688626D01*
X84645500Y-88670059D01*
X84711335Y-88688626D01*
X84757767Y-88738856D01*
X84799584Y-88820927D01*
X84890072Y-88911415D01*
X85004100Y-88969515D01*
X85098706Y-88984500D01*
X85153500Y-88984500D01*
X85153500Y-86526501D01*
X85098707Y-86526501D01*
X85004101Y-86541484D01*
X84890072Y-86599584D01*
X84799582Y-86690074D01*
X84757765Y-86772144D01*
X84711333Y-86822373D01*
X84645498Y-86840940D01*
X84579663Y-86822372D01*
X84533232Y-86772142D01*
X84491416Y-86690073D01*
X84400927Y-86599584D01*
X84286899Y-86541484D01*
X84192294Y-86526500D01*
X84137500Y-86526500D01*
X82922294Y-86526500D01*
X82867500Y-86526500D01*
X55649858Y-86526500D01*
X55620618Y-86341888D01*
X55558820Y-86151695D01*
X55468031Y-85973511D01*
X55350485Y-85811723D01*
X55350484Y-85811722D01*
X55350482Y-85811719D01*
X55209080Y-85670317D01*
X55116565Y-85603101D01*
X55047289Y-85552769D01*
X54956431Y-85506475D01*
X54869102Y-85461978D01*
X54718075Y-85412907D01*
X54678912Y-85400182D01*
X54481394Y-85368898D01*
X54381403Y-85368898D01*
X54314458Y-85368898D01*
X54296818Y-85368898D01*
X54296804Y-85368900D01*
X54085000Y-85368900D01*
X54084986Y-85368898D01*
X54067346Y-85368898D01*
X54010318Y-85368898D01*
X53990608Y-85367347D01*
X53941789Y-85359615D01*
X53941775Y-85359612D01*
X53904280Y-85347429D01*
X53869173Y-85329540D01*
X53837284Y-85306370D01*
X53809429Y-85278515D01*
X53786259Y-85246626D01*
X53768370Y-85211519D01*
X53756187Y-85174024D01*
X53748453Y-85125190D01*
X53746902Y-85105482D01*
X53746902Y-83270358D01*
X54450246Y-83270358D01*
X54615604Y-83386143D01*
X54814468Y-83478876D01*
X55026412Y-83535665D01*
X55245000Y-83554789D01*
X55463587Y-83535665D01*
X55675531Y-83478876D01*
X55874395Y-83386143D01*
X56039752Y-83270358D01*
X56039752Y-83270356D01*
X55245001Y-82475605D01*
X55245000Y-82475605D01*
X54450246Y-83270357D01*
X54450246Y-83270358D01*
X53746902Y-83270358D01*
X53746902Y-82446571D01*
X53762878Y-82385165D01*
X53806755Y-82339330D01*
X53867406Y-82320691D01*
X53929451Y-82333973D01*
X53977155Y-82375809D01*
X53998423Y-82435590D01*
X54005334Y-82514587D01*
X54062123Y-82726531D01*
X54154856Y-82925395D01*
X54270640Y-83090752D01*
X54270641Y-83090752D01*
X55065394Y-82296001D01*
X55424605Y-82296001D01*
X56219356Y-83090752D01*
X56219358Y-83090752D01*
X56335143Y-82925395D01*
X56427876Y-82726531D01*
X56484665Y-82514587D01*
X56503789Y-82295999D01*
X56484665Y-82077412D01*
X56427876Y-81865468D01*
X56335143Y-81666604D01*
X56219358Y-81501246D01*
X56219357Y-81501246D01*
X55424605Y-82296000D01*
X55424605Y-82296001D01*
X55065394Y-82296001D01*
X55065395Y-82296000D01*
X54270640Y-81501246D01*
X54270639Y-81501246D01*
X54154857Y-81666600D01*
X54062123Y-81865468D01*
X54005334Y-82077412D01*
X53998423Y-82156410D01*
X53977155Y-82216191D01*
X53929451Y-82258027D01*
X53867406Y-82271309D01*
X53806755Y-82252670D01*
X53762878Y-82206835D01*
X53746902Y-82145429D01*
X53746902Y-81321640D01*
X54450246Y-81321640D01*
X55244999Y-82116394D01*
X56039752Y-81321641D01*
X56039752Y-81321640D01*
X55874395Y-81205856D01*
X55675531Y-81113123D01*
X55463587Y-81056334D01*
X55244999Y-81037210D01*
X55026412Y-81056334D01*
X54814468Y-81113123D01*
X54615600Y-81205857D01*
X54450246Y-81321639D01*
X54450246Y-81321640D01*
X53746902Y-81321640D01*
X53746902Y-78769313D01*
X53762878Y-78707907D01*
X53806755Y-78662072D01*
X53867406Y-78643433D01*
X53929451Y-78656715D01*
X53977156Y-78698552D01*
X53998422Y-78758330D01*
X54000577Y-78782954D01*
X54004839Y-78831678D01*
X54061652Y-79043701D01*
X54154420Y-79242645D01*
X54280328Y-79422460D01*
X54435539Y-79577671D01*
X54435542Y-79577673D01*
X54435543Y-79577674D01*
X54615354Y-79703579D01*
X54814297Y-79796347D01*
X54900502Y-79819446D01*
X55026321Y-79853160D01*
X55026322Y-79853160D01*
X55026326Y-79853161D01*
X55245000Y-79872292D01*
X55463674Y-79853161D01*
X55675703Y-79796347D01*
X55874646Y-79703579D01*
X56054457Y-79577674D01*
X56209674Y-79422457D01*
X56335579Y-79242646D01*
X56428347Y-79043703D01*
X56485161Y-78831674D01*
X56504292Y-78613000D01*
X56485161Y-78394326D01*
X56471910Y-78344875D01*
X56428347Y-78182298D01*
X56418436Y-78161044D01*
X56335579Y-77983354D01*
X56209674Y-77803543D01*
X56209673Y-77803542D01*
X56209671Y-77803539D01*
X56054460Y-77648328D01*
X55874645Y-77522420D01*
X55675701Y-77429652D01*
X55463678Y-77372839D01*
X55288734Y-77357534D01*
X55245000Y-77353708D01*
X55244999Y-77353708D01*
X55026321Y-77372839D01*
X54814298Y-77429652D01*
X54615354Y-77522420D01*
X54435539Y-77648328D01*
X54280328Y-77803539D01*
X54154420Y-77983354D01*
X54061652Y-78182298D01*
X54004839Y-78394321D01*
X54001593Y-78431428D01*
X53999384Y-78456687D01*
X53998423Y-78467668D01*
X53977156Y-78527448D01*
X53929451Y-78569285D01*
X53867406Y-78582567D01*
X53806755Y-78563928D01*
X53762878Y-78518093D01*
X53746902Y-78456687D01*
X53746902Y-74832313D01*
X53762878Y-74770907D01*
X53806755Y-74725072D01*
X53867406Y-74706433D01*
X53929451Y-74719715D01*
X53977156Y-74761552D01*
X53998422Y-74821330D01*
X54001949Y-74861650D01*
X54004839Y-74894678D01*
X54061652Y-75106701D01*
X54154420Y-75305645D01*
X54280328Y-75485460D01*
X54435539Y-75640671D01*
X54435542Y-75640673D01*
X54435543Y-75640674D01*
X54615354Y-75766579D01*
X54814297Y-75859347D01*
X54907781Y-75884396D01*
X55026321Y-75916160D01*
X55026322Y-75916160D01*
X55026326Y-75916161D01*
X55245000Y-75935292D01*
X55463674Y-75916161D01*
X55472818Y-75913711D01*
X55543359Y-75894809D01*
X55675703Y-75859347D01*
X55874646Y-75766579D01*
X56054457Y-75640674D01*
X56209674Y-75485457D01*
X56335579Y-75305646D01*
X56428347Y-75106703D01*
X56485161Y-74894674D01*
X56504292Y-74676000D01*
X56485161Y-74457326D01*
X56471003Y-74404490D01*
X56428347Y-74245298D01*
X56382044Y-74146000D01*
X64666000Y-74146000D01*
X66178000Y-74146000D01*
X66178000Y-73509001D01*
X64894982Y-73509001D01*
X64820894Y-73523736D01*
X64736875Y-73579876D01*
X64680736Y-73663893D01*
X64666000Y-73737981D01*
X64666000Y-74146000D01*
X56382044Y-74146000D01*
X56335579Y-74046354D01*
X56254891Y-73931120D01*
X56209674Y-73866543D01*
X56209673Y-73866542D01*
X56209671Y-73866539D01*
X56054460Y-73711328D01*
X55874645Y-73585420D01*
X55710760Y-73509000D01*
X66432000Y-73509000D01*
X66432000Y-74146000D01*
X67943999Y-74146000D01*
X69216000Y-74146000D01*
X70728000Y-74146000D01*
X70728000Y-73509001D01*
X69444982Y-73509001D01*
X69370894Y-73523736D01*
X69286875Y-73579876D01*
X69230736Y-73663893D01*
X69216000Y-73737981D01*
X69216000Y-74146000D01*
X67943999Y-74146000D01*
X67943999Y-73737982D01*
X67929263Y-73663894D01*
X67873123Y-73579875D01*
X67789106Y-73523736D01*
X67715019Y-73509000D01*
X70982000Y-73509000D01*
X70982000Y-74146000D01*
X72493999Y-74146000D01*
X72493999Y-73737982D01*
X72479263Y-73663894D01*
X72423123Y-73579875D01*
X72339106Y-73523736D01*
X72265019Y-73509000D01*
X70982000Y-73509000D01*
X67715019Y-73509000D01*
X66432000Y-73509000D01*
X55710760Y-73509000D01*
X55675701Y-73492652D01*
X55463678Y-73435839D01*
X55245000Y-73416708D01*
X55026321Y-73435839D01*
X54814298Y-73492652D01*
X54615354Y-73585420D01*
X54435539Y-73711328D01*
X54280328Y-73866539D01*
X54154420Y-74046354D01*
X54061652Y-74245298D01*
X54004839Y-74457321D01*
X54004839Y-74457326D01*
X53999384Y-74519687D01*
X53998423Y-74530668D01*
X53977156Y-74590448D01*
X53929451Y-74632285D01*
X53867406Y-74645567D01*
X53806755Y-74626928D01*
X53762878Y-74581093D01*
X53746902Y-74519687D01*
X53746902Y-72400000D01*
X64666001Y-72400000D01*
X64666001Y-72808018D01*
X64680736Y-72882105D01*
X64736876Y-72966124D01*
X64820893Y-73022263D01*
X64894981Y-73037000D01*
X66178000Y-73037000D01*
X66178000Y-72400000D01*
X66432000Y-72400000D01*
X66432000Y-73036999D01*
X67715018Y-73036999D01*
X67789105Y-73022263D01*
X67873124Y-72966123D01*
X67929263Y-72882106D01*
X67944000Y-72808019D01*
X67944000Y-72400000D01*
X69216001Y-72400000D01*
X69216001Y-72808018D01*
X69230736Y-72882105D01*
X69286876Y-72966124D01*
X69370893Y-73022263D01*
X69444981Y-73037000D01*
X70728000Y-73037000D01*
X70728000Y-72400000D01*
X70982000Y-72400000D01*
X70982000Y-73036999D01*
X72265018Y-73036999D01*
X72339105Y-73022263D01*
X72423124Y-72966123D01*
X72479263Y-72882106D01*
X72494000Y-72808019D01*
X72494000Y-72400000D01*
X70982000Y-72400000D01*
X70728000Y-72400000D01*
X69216001Y-72400000D01*
X67944000Y-72400000D01*
X66432000Y-72400000D01*
X66178000Y-72400000D01*
X64666001Y-72400000D01*
X53746902Y-72400000D01*
X53746902Y-72146000D01*
X64666000Y-72146000D01*
X66178000Y-72146000D01*
X66178000Y-71509001D01*
X64894982Y-71509001D01*
X64820894Y-71523736D01*
X64736875Y-71579876D01*
X64680736Y-71663893D01*
X64666000Y-71737981D01*
X64666000Y-72146000D01*
X53746902Y-72146000D01*
X53746902Y-71022313D01*
X53762878Y-70960907D01*
X53806755Y-70915072D01*
X53867406Y-70896433D01*
X53929451Y-70909715D01*
X53977156Y-70951552D01*
X53998422Y-71011330D01*
X54000668Y-71036999D01*
X54004839Y-71084678D01*
X54061652Y-71296701D01*
X54154420Y-71495645D01*
X54280328Y-71675460D01*
X54435539Y-71830671D01*
X54435542Y-71830673D01*
X54435543Y-71830674D01*
X54615354Y-71956579D01*
X54814297Y-72049347D01*
X54907781Y-72074396D01*
X55026321Y-72106160D01*
X55026322Y-72106160D01*
X55026326Y-72106161D01*
X55245000Y-72125292D01*
X55463674Y-72106161D01*
X55675703Y-72049347D01*
X55874646Y-71956579D01*
X56054457Y-71830674D01*
X56209674Y-71675457D01*
X56326228Y-71509000D01*
X66432000Y-71509000D01*
X66432000Y-72146000D01*
X67943999Y-72146000D01*
X69216000Y-72146000D01*
X70728000Y-72146000D01*
X70728000Y-71509001D01*
X69444982Y-71509001D01*
X69370894Y-71523736D01*
X69286875Y-71579876D01*
X69230736Y-71663893D01*
X69216000Y-71737981D01*
X69216000Y-72146000D01*
X67943999Y-72146000D01*
X67943999Y-71737982D01*
X67929263Y-71663894D01*
X67873123Y-71579875D01*
X67789106Y-71523736D01*
X67715019Y-71509000D01*
X70982000Y-71509000D01*
X70982000Y-72146000D01*
X72493999Y-72146000D01*
X72493999Y-71737982D01*
X72479263Y-71663894D01*
X72423123Y-71579875D01*
X72339106Y-71523736D01*
X72265019Y-71509000D01*
X70982000Y-71509000D01*
X67715019Y-71509000D01*
X66432000Y-71509000D01*
X56326228Y-71509000D01*
X56335579Y-71495646D01*
X56428347Y-71296703D01*
X56485161Y-71084674D01*
X56504292Y-70866000D01*
X56485161Y-70647326D01*
X56428347Y-70435297D01*
X56411888Y-70400000D01*
X64666001Y-70400000D01*
X64666001Y-70808018D01*
X64680736Y-70882105D01*
X64736876Y-70966124D01*
X64820893Y-71022263D01*
X64894981Y-71037000D01*
X66178000Y-71037000D01*
X66178000Y-70400000D01*
X66432000Y-70400000D01*
X66432000Y-71036999D01*
X67715018Y-71036999D01*
X67789105Y-71022263D01*
X67873124Y-70966123D01*
X67929263Y-70882106D01*
X67944000Y-70808019D01*
X67944000Y-70400000D01*
X69216001Y-70400000D01*
X69216001Y-70808018D01*
X69230736Y-70882105D01*
X69286876Y-70966124D01*
X69370893Y-71022263D01*
X69444981Y-71037000D01*
X70728000Y-71037000D01*
X70728000Y-70400000D01*
X70982000Y-70400000D01*
X70982000Y-71036999D01*
X72265018Y-71036999D01*
X72339105Y-71022263D01*
X72423124Y-70966123D01*
X72479263Y-70882106D01*
X72494000Y-70808019D01*
X72494000Y-70400000D01*
X70982000Y-70400000D01*
X70728000Y-70400000D01*
X69216001Y-70400000D01*
X67944000Y-70400000D01*
X66432000Y-70400000D01*
X66178000Y-70400000D01*
X64666001Y-70400000D01*
X56411888Y-70400000D01*
X56335579Y-70236354D01*
X56209674Y-70056543D01*
X56209673Y-70056542D01*
X56209671Y-70056539D01*
X56054460Y-69901328D01*
X55874645Y-69775420D01*
X55826251Y-69752854D01*
X55773233Y-69706359D01*
X55753500Y-69638659D01*
X55753500Y-65159818D01*
X55763091Y-65111600D01*
X55790405Y-65070723D01*
X57069722Y-63791405D01*
X57110599Y-63764091D01*
X57158817Y-63754500D01*
X61717500Y-63754500D01*
X61780500Y-63771381D01*
X61826619Y-63817500D01*
X61843500Y-63880500D01*
X61843500Y-68579756D01*
X61844055Y-68596701D01*
X61845134Y-68613171D01*
X61846797Y-68630052D01*
X61860589Y-68734819D01*
X61867214Y-68768132D01*
X61875722Y-68799885D01*
X61886637Y-68832043D01*
X61923891Y-68921981D01*
X61938900Y-68952415D01*
X61938904Y-68952423D01*
X61955351Y-68980910D01*
X61955354Y-68980915D01*
X61974208Y-69009132D01*
X62008353Y-69053629D01*
X62027843Y-69079029D01*
X62033480Y-69086374D01*
X62055857Y-69111890D01*
X62079108Y-69135141D01*
X62083431Y-69138932D01*
X62104631Y-69157524D01*
X62129752Y-69176800D01*
X62181866Y-69216790D01*
X62192971Y-69224210D01*
X62210089Y-69235648D01*
X62238576Y-69252095D01*
X62269020Y-69267108D01*
X62337133Y-69295321D01*
X62358956Y-69304361D01*
X62358959Y-69304362D01*
X62391104Y-69315273D01*
X62391114Y-69315275D01*
X62391115Y-69315276D01*
X62422871Y-69323785D01*
X62456163Y-69330408D01*
X62483069Y-69333950D01*
X62560940Y-69344202D01*
X62577839Y-69345866D01*
X62594285Y-69346944D01*
X62602771Y-69347222D01*
X62611244Y-69347500D01*
X64669285Y-69347500D01*
X64730851Y-69363566D01*
X64776718Y-69407665D01*
X64795188Y-69468554D01*
X64781552Y-69530703D01*
X64739286Y-69578265D01*
X64736876Y-69579875D01*
X64680736Y-69663893D01*
X64666000Y-69737981D01*
X64666000Y-70146000D01*
X67943999Y-70146000D01*
X67943999Y-69737982D01*
X67929263Y-69663894D01*
X67873123Y-69579874D01*
X67870714Y-69578265D01*
X67828448Y-69530703D01*
X67814812Y-69468554D01*
X67833282Y-69407665D01*
X67879149Y-69363566D01*
X67940715Y-69347500D01*
X69219285Y-69347500D01*
X69280851Y-69363566D01*
X69326718Y-69407665D01*
X69345188Y-69468554D01*
X69331552Y-69530703D01*
X69289286Y-69578265D01*
X69286876Y-69579875D01*
X69230736Y-69663893D01*
X69216000Y-69737981D01*
X69216000Y-70146000D01*
X72493999Y-70146000D01*
X72493999Y-69737982D01*
X72479263Y-69663894D01*
X72423123Y-69579874D01*
X72420714Y-69578265D01*
X72378448Y-69530703D01*
X72364812Y-69468554D01*
X72383282Y-69407665D01*
X72429149Y-69363566D01*
X72490715Y-69347500D01*
X73248797Y-69347500D01*
X73304962Y-69341349D01*
X73358212Y-69329544D01*
X73390305Y-69318649D01*
X73450155Y-69313456D01*
X73505607Y-69336566D01*
X73544056Y-69382727D01*
X73585514Y-69467728D01*
X73744296Y-69703133D01*
X73922751Y-69901326D01*
X73934291Y-69914142D01*
X74151805Y-70096658D01*
X74392604Y-70247126D01*
X74652001Y-70362617D01*
X74924946Y-70440883D01*
X75206128Y-70480400D01*
X75419003Y-70480400D01*
X75631353Y-70465551D01*
X75909093Y-70406516D01*
X76175914Y-70309401D01*
X76298915Y-70244000D01*
X81376500Y-70244000D01*
X81376500Y-70387820D01*
X81382633Y-70444865D01*
X81430768Y-70573922D01*
X81513312Y-70684187D01*
X81623577Y-70766731D01*
X81752634Y-70814866D01*
X81809680Y-70821000D01*
X81978500Y-70821000D01*
X81978500Y-70244000D01*
X81376500Y-70244000D01*
X76298915Y-70244000D01*
X76426622Y-70176097D01*
X76656339Y-70009198D01*
X76860591Y-69811953D01*
X77035405Y-69588202D01*
X77154036Y-69382727D01*
X77177379Y-69342297D01*
X77283745Y-69079029D01*
X77317792Y-68942476D01*
X77352438Y-68803519D01*
X77382118Y-68521129D01*
X77372209Y-68237358D01*
X77322902Y-67957727D01*
X77235158Y-67687679D01*
X77110685Y-67432471D01*
X77012294Y-67286600D01*
X76951903Y-67197066D01*
X76761912Y-66986061D01*
X76761910Y-66986059D01*
X76761909Y-66986058D01*
X76544395Y-66803542D01*
X76544394Y-66803541D01*
X76387796Y-66705688D01*
X76303596Y-66653074D01*
X76044199Y-66537583D01*
X75891106Y-66493684D01*
X75771253Y-66459316D01*
X75490072Y-66419800D01*
X75277197Y-66419800D01*
X75197288Y-66425387D01*
X75130645Y-66411627D01*
X75080876Y-66365217D01*
X75062500Y-66299695D01*
X75062500Y-62484244D01*
X75061944Y-62467299D01*
X75061944Y-62467285D01*
X75060866Y-62450839D01*
X75059202Y-62433940D01*
X75045408Y-62329165D01*
X75038786Y-62295876D01*
X75030273Y-62264104D01*
X75019362Y-62231959D01*
X74982108Y-62142020D01*
X74976048Y-62129732D01*
X74963196Y-62068009D01*
X74981856Y-62007784D01*
X75027358Y-61964140D01*
X75088303Y-61948004D01*
X76779000Y-61937999D01*
X83198374Y-61900009D01*
X83198465Y-61900027D01*
X83198465Y-61900010D01*
X83199818Y-61900003D01*
X83200143Y-61900001D01*
X83201374Y-61900000D01*
X83201543Y-61900000D01*
X86454287Y-61900000D01*
X86502505Y-61909591D01*
X86543381Y-61936904D01*
X86632477Y-62026000D01*
X86703596Y-62097119D01*
X86730909Y-62137996D01*
X86740500Y-62186214D01*
X86740500Y-66200319D01*
X86729399Y-66252032D01*
X86698053Y-66294630D01*
X86667031Y-66322114D01*
X86619247Y-66364446D01*
X86577994Y-66388820D01*
X86530625Y-66396030D01*
X86483988Y-66385034D01*
X86476691Y-66381750D01*
X86409351Y-66362245D01*
X86337154Y-66352000D01*
X86337153Y-66352000D01*
X83756758Y-66352000D01*
X83756744Y-66352000D01*
X83739798Y-66352555D01*
X83723328Y-66353634D01*
X83706447Y-66355297D01*
X83601662Y-66369091D01*
X83568376Y-66375712D01*
X83536612Y-66384222D01*
X83504470Y-66395132D01*
X83414505Y-66432397D01*
X83384075Y-66447403D01*
X83355592Y-66463848D01*
X83327363Y-66482710D01*
X83250128Y-66541976D01*
X83224605Y-66564359D01*
X83201359Y-66587605D01*
X83178976Y-66613128D01*
X83119710Y-66690363D01*
X83100848Y-66718592D01*
X83084403Y-66747075D01*
X83069397Y-66777505D01*
X83032132Y-66867470D01*
X83021222Y-66899612D01*
X83012712Y-66931376D01*
X83006091Y-66964662D01*
X82992297Y-67069447D01*
X82990634Y-67086328D01*
X82989555Y-67102798D01*
X82989000Y-67119744D01*
X82989000Y-67869200D01*
X82972119Y-67932200D01*
X82926000Y-67978319D01*
X82863000Y-67995200D01*
X82734296Y-67995200D01*
X82694505Y-67988752D01*
X82658787Y-67970068D01*
X82587663Y-67916825D01*
X82587662Y-67916824D01*
X82458473Y-67868640D01*
X82401364Y-67862500D01*
X81809636Y-67862500D01*
X81752527Y-67868639D01*
X81752527Y-67868640D01*
X81623336Y-67916825D01*
X81512955Y-67999455D01*
X81430325Y-68109836D01*
X81430324Y-68109837D01*
X81430325Y-68109837D01*
X81382140Y-68239027D01*
X81376000Y-68296136D01*
X81376000Y-68837864D01*
X81382140Y-68894973D01*
X81424719Y-69009132D01*
X81430325Y-69024163D01*
X81512955Y-69134544D01*
X81623336Y-69217175D01*
X81642199Y-69224210D01*
X81692204Y-69258401D01*
X81720473Y-69311976D01*
X81720474Y-69372553D01*
X81692205Y-69426129D01*
X81642202Y-69460321D01*
X81623578Y-69467267D01*
X81513312Y-69549812D01*
X81430768Y-69660077D01*
X81382633Y-69789134D01*
X81376500Y-69846180D01*
X81376500Y-69990000D01*
X82106500Y-69990000D01*
X82169500Y-70006881D01*
X82215619Y-70053000D01*
X82232500Y-70116000D01*
X82232500Y-70821000D01*
X82401320Y-70821000D01*
X82458365Y-70814866D01*
X82587422Y-70766731D01*
X82697685Y-70684188D01*
X82762132Y-70598100D01*
X82810658Y-70558996D01*
X82871989Y-70547931D01*
X82931121Y-70567612D01*
X82973588Y-70613225D01*
X82989000Y-70673610D01*
X82989000Y-72179000D01*
X82972119Y-72242000D01*
X82926000Y-72288119D01*
X82863000Y-72305000D01*
X82558666Y-72305000D01*
X82511305Y-72312500D01*
X82463944Y-72320002D01*
X82349774Y-72378175D01*
X82259175Y-72468774D01*
X82201002Y-72582944D01*
X82201001Y-72582945D01*
X82201002Y-72582945D01*
X82186000Y-72677666D01*
X82186000Y-74391334D01*
X82187373Y-74400000D01*
X82201002Y-74486055D01*
X82249426Y-74581093D01*
X82259174Y-74600223D01*
X82309397Y-74650446D01*
X82336709Y-74691320D01*
X82346300Y-74739539D01*
X82346300Y-75489300D01*
X82329419Y-75552300D01*
X82283300Y-75598419D01*
X82220300Y-75615300D01*
X77598064Y-75615300D01*
X77577619Y-75621942D01*
X77558403Y-75626555D01*
X77537166Y-75629919D01*
X77518009Y-75639679D01*
X77499754Y-75647241D01*
X77479306Y-75653885D01*
X77461906Y-75666527D01*
X77445055Y-75676853D01*
X77425906Y-75686610D01*
X77385976Y-75726538D01*
X77385973Y-75726543D01*
X74802995Y-78309521D01*
X74752836Y-78340259D01*
X74694189Y-78344875D01*
X74639839Y-78322362D01*
X74601633Y-78277629D01*
X74587900Y-78220426D01*
X74587900Y-78192752D01*
X74580085Y-78161047D01*
X74577343Y-78146091D01*
X74573408Y-78113675D01*
X74561831Y-78083149D01*
X74557304Y-78068621D01*
X74549491Y-78036921D01*
X74549491Y-78036920D01*
X74534310Y-78007996D01*
X74528069Y-77994127D01*
X74516496Y-77963609D01*
X74497946Y-77936735D01*
X74490078Y-77923720D01*
X74474905Y-77894809D01*
X74453250Y-77870365D01*
X74443870Y-77858392D01*
X74425324Y-77831523D01*
X74415127Y-77822489D01*
X74400879Y-77809866D01*
X74390130Y-77799117D01*
X74368477Y-77774676D01*
X74368476Y-77774675D01*
X74368475Y-77774674D01*
X74341607Y-77756128D01*
X74329633Y-77746747D01*
X74305192Y-77725095D01*
X74276278Y-77709920D01*
X74263256Y-77702048D01*
X74254319Y-77695879D01*
X74236391Y-77683504D01*
X74236389Y-77683503D01*
X74205866Y-77671927D01*
X74191991Y-77665683D01*
X74163080Y-77650509D01*
X74163077Y-77650508D01*
X74131372Y-77642693D01*
X74116850Y-77638168D01*
X74086324Y-77626591D01*
X74053917Y-77622656D01*
X74038957Y-77619914D01*
X74007251Y-77612100D01*
X74007248Y-77612100D01*
X73966975Y-77612100D01*
X72937248Y-77612100D01*
X72896975Y-77612100D01*
X72510471Y-77612100D01*
X72473895Y-77606674D01*
X72440469Y-77590865D01*
X72339301Y-77523266D01*
X72335048Y-77522420D01*
X72265066Y-77508500D01*
X69444931Y-77508500D01*
X69370699Y-77523265D01*
X69269531Y-77590865D01*
X69236105Y-77606674D01*
X69199529Y-77612100D01*
X68619248Y-77612100D01*
X68578975Y-77612100D01*
X67960471Y-77612100D01*
X67923895Y-77606674D01*
X67890469Y-77590865D01*
X67789301Y-77523266D01*
X67785048Y-77522420D01*
X67715066Y-77508500D01*
X64894931Y-77508500D01*
X64820699Y-77523265D01*
X64719531Y-77590865D01*
X64686105Y-77606674D01*
X64649529Y-77612100D01*
X63324750Y-77612100D01*
X63293044Y-77619914D01*
X63278084Y-77622656D01*
X63245673Y-77626592D01*
X63215145Y-77638169D01*
X63200624Y-77642694D01*
X63168920Y-77650508D01*
X63140007Y-77665683D01*
X63126137Y-77671925D01*
X63095607Y-77683503D01*
X63068737Y-77702051D01*
X63055720Y-77709920D01*
X63026811Y-77725092D01*
X63002368Y-77746747D01*
X62990397Y-77756124D01*
X62983857Y-77760639D01*
X62963519Y-77774678D01*
X62941867Y-77799117D01*
X62931117Y-77809867D01*
X62906678Y-77831519D01*
X62888127Y-77858395D01*
X62878747Y-77870368D01*
X62857092Y-77894811D01*
X62841920Y-77923720D01*
X62834051Y-77936737D01*
X62815503Y-77963607D01*
X62803925Y-77994137D01*
X62797683Y-78008007D01*
X62782508Y-78036920D01*
X62774694Y-78068624D01*
X62770169Y-78083145D01*
X62758592Y-78113673D01*
X62754656Y-78146084D01*
X62751914Y-78161044D01*
X62744100Y-78192750D01*
X62744100Y-78225406D01*
X62743181Y-78240594D01*
X62739246Y-78273000D01*
X62743181Y-78305406D01*
X62744100Y-78320594D01*
X62744100Y-78353251D01*
X62751914Y-78384957D01*
X62754656Y-78399917D01*
X62758591Y-78432324D01*
X62770168Y-78462850D01*
X62774693Y-78477372D01*
X62782509Y-78509080D01*
X62797683Y-78537991D01*
X62803927Y-78551866D01*
X62815503Y-78582389D01*
X62815504Y-78582391D01*
X62834048Y-78609256D01*
X62841920Y-78622278D01*
X62857095Y-78651192D01*
X62878747Y-78675633D01*
X62888128Y-78687607D01*
X62906674Y-78714475D01*
X62906675Y-78714476D01*
X62906676Y-78714477D01*
X62931119Y-78736132D01*
X62941866Y-78746879D01*
X62963523Y-78771324D01*
X62990395Y-78789873D01*
X63002365Y-78799250D01*
X63026809Y-78820905D01*
X63055720Y-78836078D01*
X63068736Y-78843946D01*
X63108094Y-78871114D01*
X63145318Y-78911262D01*
X63161999Y-78963407D01*
X63154989Y-79017705D01*
X63125611Y-79063905D01*
X62691919Y-79497596D01*
X62651042Y-79524909D01*
X62602824Y-79534500D01*
X62390608Y-79534500D01*
X62260299Y-79534500D01*
X62197300Y-79517620D01*
X62151181Y-79471501D01*
X62134300Y-79408501D01*
X62134300Y-76772986D01*
X62143891Y-76724768D01*
X62171204Y-76683891D01*
X62245839Y-76609256D01*
X62510713Y-76344381D01*
X62571502Y-76310698D01*
X62640906Y-76314370D01*
X62697805Y-76354280D01*
X62724887Y-76418287D01*
X62726591Y-76432324D01*
X62738168Y-76462850D01*
X62742693Y-76477372D01*
X62747595Y-76497258D01*
X62750509Y-76509080D01*
X62750983Y-76509983D01*
X62765683Y-76537991D01*
X62771927Y-76551866D01*
X62783503Y-76582389D01*
X62802048Y-76609256D01*
X62809920Y-76622278D01*
X62825095Y-76651192D01*
X62846747Y-76675633D01*
X62856128Y-76687607D01*
X62874674Y-76714475D01*
X62874675Y-76714476D01*
X62874676Y-76714477D01*
X62899119Y-76736132D01*
X62909866Y-76746879D01*
X62931523Y-76771324D01*
X62958393Y-76789871D01*
X62970365Y-76799250D01*
X62994809Y-76820905D01*
X63023720Y-76836078D01*
X63036735Y-76843946D01*
X63051436Y-76854093D01*
X63063609Y-76862496D01*
X63094131Y-76874071D01*
X63107996Y-76880310D01*
X63136920Y-76895491D01*
X63168623Y-76903304D01*
X63183149Y-76907831D01*
X63191370Y-76910948D01*
X63213675Y-76919408D01*
X63246091Y-76923343D01*
X63261046Y-76926084D01*
X63292752Y-76933900D01*
X63333025Y-76933900D01*
X63453248Y-76933900D01*
X64362752Y-76933900D01*
X64403025Y-76933900D01*
X64482975Y-76933900D01*
X64523248Y-76933900D01*
X64649529Y-76933900D01*
X64686105Y-76939326D01*
X64719531Y-76955135D01*
X64736516Y-76966484D01*
X64820699Y-77022734D01*
X64894933Y-77037500D01*
X67715066Y-77037499D01*
X67715068Y-77037499D01*
X67764555Y-77027655D01*
X67789301Y-77022734D01*
X67873484Y-76966484D01*
X67873483Y-76966484D01*
X67890469Y-76955135D01*
X67923895Y-76939326D01*
X67960471Y-76933900D01*
X68426752Y-76933900D01*
X68467025Y-76933900D01*
X68546975Y-76933900D01*
X68587248Y-76933900D01*
X69199529Y-76933900D01*
X69236105Y-76939326D01*
X69269531Y-76955135D01*
X69286516Y-76966484D01*
X69370699Y-77022734D01*
X69444933Y-77037500D01*
X72265066Y-77037499D01*
X72265068Y-77037499D01*
X72314555Y-77027655D01*
X72339301Y-77022734D01*
X72423484Y-76966484D01*
X72423483Y-76966484D01*
X72440469Y-76955135D01*
X72473895Y-76939326D01*
X72510471Y-76933900D01*
X73975246Y-76933900D01*
X73975248Y-76933900D01*
X74006957Y-76926083D01*
X74021916Y-76923343D01*
X74034839Y-76921773D01*
X74054325Y-76919408D01*
X74084855Y-76907828D01*
X74099370Y-76903305D01*
X74131080Y-76895491D01*
X74160008Y-76880307D01*
X74173858Y-76874074D01*
X74204391Y-76862496D01*
X74231264Y-76843946D01*
X74244277Y-76836078D01*
X74273191Y-76820905D01*
X74297634Y-76799249D01*
X74309606Y-76789871D01*
X74336477Y-76771324D01*
X74358128Y-76746885D01*
X74368887Y-76736126D01*
X74369031Y-76735997D01*
X74393324Y-76714477D01*
X74411872Y-76687604D01*
X74421251Y-76675633D01*
X74442905Y-76651191D01*
X74458078Y-76622277D01*
X74465951Y-76609256D01*
X74484495Y-76582392D01*
X74484494Y-76582392D01*
X74484496Y-76582391D01*
X74496074Y-76551858D01*
X74502307Y-76538008D01*
X74517491Y-76509080D01*
X74525305Y-76477370D01*
X74529831Y-76462850D01*
X74541408Y-76432325D01*
X74545343Y-76399916D01*
X74548083Y-76384957D01*
X74555900Y-76353248D01*
X74555900Y-76320594D01*
X74556819Y-76305406D01*
X74558504Y-76291527D01*
X74560754Y-76273000D01*
X74556818Y-76240592D01*
X74555900Y-76225406D01*
X74555900Y-76192752D01*
X74548085Y-76161047D01*
X74545343Y-76146091D01*
X74541408Y-76113675D01*
X74529831Y-76083149D01*
X74525304Y-76068621D01*
X74521197Y-76051956D01*
X74517491Y-76036920D01*
X74502310Y-76007996D01*
X74496069Y-75994127D01*
X74484496Y-75963609D01*
X74465946Y-75936735D01*
X74458078Y-75923720D01*
X74442905Y-75894809D01*
X74421250Y-75870365D01*
X74411870Y-75858392D01*
X74393324Y-75831523D01*
X74393323Y-75831522D01*
X74368879Y-75809866D01*
X74358132Y-75799119D01*
X74336477Y-75774676D01*
X74336476Y-75774675D01*
X74336475Y-75774674D01*
X74309607Y-75756128D01*
X74297633Y-75746747D01*
X74273192Y-75725095D01*
X74244278Y-75709920D01*
X74231256Y-75702048D01*
X74204391Y-75683504D01*
X74204389Y-75683503D01*
X74173866Y-75671927D01*
X74159991Y-75665683D01*
X74157695Y-75664478D01*
X74131080Y-75650509D01*
X74131077Y-75650508D01*
X74099372Y-75642693D01*
X74084850Y-75638168D01*
X74054324Y-75626591D01*
X74021917Y-75622656D01*
X74006957Y-75619914D01*
X73975251Y-75612100D01*
X73975248Y-75612100D01*
X73934975Y-75612100D01*
X72905248Y-75612100D01*
X72864975Y-75612100D01*
X72510471Y-75612100D01*
X72473895Y-75606674D01*
X72440469Y-75590865D01*
X72339301Y-75523266D01*
X72339296Y-75523265D01*
X72265066Y-75508500D01*
X69444931Y-75508500D01*
X69370699Y-75523265D01*
X69269531Y-75590865D01*
X69236105Y-75606674D01*
X69199529Y-75612100D01*
X68587248Y-75612100D01*
X68546975Y-75612100D01*
X67960471Y-75612100D01*
X67923895Y-75606674D01*
X67890469Y-75590865D01*
X67789301Y-75523266D01*
X67789296Y-75523265D01*
X67715066Y-75508500D01*
X64894931Y-75508500D01*
X64820699Y-75523265D01*
X64719531Y-75590865D01*
X64686105Y-75606674D01*
X64649529Y-75612100D01*
X63931951Y-75612100D01*
X63873396Y-75597667D01*
X63828255Y-75557676D01*
X63806870Y-75501287D01*
X63814139Y-75441419D01*
X63848397Y-75391788D01*
X63871324Y-75371477D01*
X63962496Y-75239391D01*
X64019408Y-75089325D01*
X64038754Y-74930000D01*
X64019408Y-74770675D01*
X63962496Y-74620609D01*
X63871324Y-74488523D01*
X63836104Y-74457321D01*
X63771402Y-74400000D01*
X64666001Y-74400000D01*
X64666001Y-74808018D01*
X64680736Y-74882105D01*
X64736876Y-74966124D01*
X64820893Y-75022263D01*
X64894981Y-75037000D01*
X66178000Y-75037000D01*
X66178000Y-74400000D01*
X66432000Y-74400000D01*
X66432000Y-75036999D01*
X67715018Y-75036999D01*
X67789105Y-75022263D01*
X67873124Y-74966123D01*
X67929263Y-74882106D01*
X67944000Y-74808019D01*
X67944000Y-74400000D01*
X69216001Y-74400000D01*
X69216001Y-74808018D01*
X69230736Y-74882105D01*
X69286876Y-74966124D01*
X69370893Y-75022263D01*
X69444981Y-75037000D01*
X70728000Y-75037000D01*
X70728000Y-74400000D01*
X70982000Y-74400000D01*
X70982000Y-75036999D01*
X72265018Y-75036999D01*
X72339105Y-75022263D01*
X72423124Y-74966123D01*
X72479263Y-74882106D01*
X72494000Y-74808019D01*
X72494000Y-74400000D01*
X70982000Y-74400000D01*
X70728000Y-74400000D01*
X69216001Y-74400000D01*
X67944000Y-74400000D01*
X66432000Y-74400000D01*
X66178000Y-74400000D01*
X64666001Y-74400000D01*
X63771402Y-74400000D01*
X63751192Y-74382095D01*
X63680135Y-74344802D01*
X63609080Y-74307509D01*
X63453248Y-74269100D01*
X63292752Y-74269100D01*
X63187201Y-74295116D01*
X63136920Y-74307509D01*
X62994807Y-74382095D01*
X62874675Y-74488523D01*
X62778196Y-74628298D01*
X62733055Y-74668290D01*
X62674500Y-74682722D01*
X62615945Y-74668290D01*
X62570804Y-74628298D01*
X62474324Y-74488523D01*
X62354192Y-74382095D01*
X62283135Y-74344802D01*
X62212080Y-74307509D01*
X62056248Y-74269100D01*
X61895752Y-74269100D01*
X61790201Y-74295116D01*
X61739920Y-74307509D01*
X61597807Y-74382095D01*
X61477675Y-74488523D01*
X61386503Y-74620609D01*
X61329591Y-74770675D01*
X61310246Y-74930000D01*
X61315157Y-74970451D01*
X61309184Y-75026739D01*
X61279171Y-75074732D01*
X60541141Y-75812762D01*
X60541143Y-75812761D01*
X60513230Y-75840674D01*
X60503607Y-75859560D01*
X60493281Y-75876411D01*
X60480822Y-75893560D01*
X60474274Y-75913711D01*
X60466714Y-75931965D01*
X60457089Y-75950857D01*
X60453772Y-75971795D01*
X60449159Y-75991008D01*
X60442610Y-76011167D01*
X60442610Y-79501028D01*
X60429090Y-79557811D01*
X60391431Y-79602407D01*
X60307990Y-79663988D01*
X60226629Y-79774228D01*
X60181379Y-79903545D01*
X60180704Y-79910743D01*
X60178897Y-79930023D01*
X60178500Y-79934253D01*
X60178500Y-80593747D01*
X60181379Y-80624452D01*
X60226630Y-80753771D01*
X60226631Y-80753773D01*
X60247227Y-80781679D01*
X60307989Y-80864010D01*
X60418228Y-80945370D01*
X60547545Y-80990620D01*
X60547546Y-80990620D01*
X60547549Y-80990621D01*
X60578251Y-80993500D01*
X61087748Y-80993499D01*
X61118451Y-80990621D01*
X61121678Y-80989491D01*
X61188565Y-80984982D01*
X61248300Y-81015417D01*
X61283968Y-81072183D01*
X61285473Y-81139208D01*
X61252387Y-81197517D01*
X61047307Y-81402596D01*
X61006430Y-81429909D01*
X60958212Y-81439500D01*
X60578252Y-81439500D01*
X60547547Y-81442379D01*
X60418228Y-81487630D01*
X60307989Y-81568989D01*
X60226629Y-81679228D01*
X60181379Y-81808545D01*
X60178500Y-81839253D01*
X60178500Y-82498747D01*
X60181379Y-82529452D01*
X60222162Y-82646001D01*
X60226631Y-82658773D01*
X60239929Y-82676791D01*
X60307989Y-82769010D01*
X60418228Y-82850370D01*
X60547545Y-82895620D01*
X60547546Y-82895620D01*
X60547549Y-82895621D01*
X60578251Y-82898500D01*
X61087748Y-82898499D01*
X61118451Y-82895621D01*
X61247773Y-82850369D01*
X61358010Y-82769010D01*
X61439369Y-82658773D01*
X61443839Y-82646000D01*
X61484620Y-82529454D01*
X61484620Y-82529453D01*
X61484621Y-82529451D01*
X61487500Y-82498749D01*
X61487499Y-82118783D01*
X61497090Y-82070566D01*
X61524401Y-82029692D01*
X61613407Y-81940686D01*
X61663564Y-81909950D01*
X61722211Y-81905334D01*
X61776561Y-81927847D01*
X61814767Y-81972580D01*
X61828500Y-82029783D01*
X61828500Y-82498747D01*
X61831379Y-82529452D01*
X61872162Y-82646001D01*
X61876631Y-82658773D01*
X61889929Y-82676791D01*
X61957989Y-82769010D01*
X62068228Y-82850370D01*
X62197545Y-82895620D01*
X62197546Y-82895620D01*
X62197549Y-82895621D01*
X62228251Y-82898500D01*
X62737748Y-82898499D01*
X62768451Y-82895621D01*
X62897773Y-82850369D01*
X63008010Y-82769010D01*
X63089369Y-82658773D01*
X63093839Y-82646000D01*
X63134620Y-82529454D01*
X63134620Y-82529453D01*
X63134621Y-82529451D01*
X63137500Y-82498749D01*
X63137499Y-82124171D01*
X63147090Y-82075954D01*
X63174401Y-82035080D01*
X64455002Y-80754480D01*
X64513480Y-80721353D01*
X64580671Y-80723003D01*
X64637455Y-80758961D01*
X64667674Y-80818996D01*
X64680265Y-80882300D01*
X64736515Y-80966484D01*
X64772639Y-80990621D01*
X64820699Y-81022734D01*
X64894933Y-81037500D01*
X67715066Y-81037499D01*
X67715068Y-81037499D01*
X67764556Y-81027655D01*
X67789301Y-81022734D01*
X67873484Y-80966484D01*
X67929734Y-80882301D01*
X67938510Y-80838177D01*
X67968727Y-80778145D01*
X68025511Y-80742187D01*
X68092703Y-80740537D01*
X68151183Y-80773666D01*
X68788321Y-81410804D01*
X68800137Y-81422620D01*
X68808279Y-81430762D01*
X68840756Y-81486756D01*
X68841146Y-81551487D01*
X68809345Y-81607869D01*
X68753748Y-81641021D01*
X68689029Y-81642193D01*
X68660248Y-81635100D01*
X68499752Y-81635100D01*
X68383725Y-81663698D01*
X68343920Y-81673509D01*
X68201807Y-81748095D01*
X68149074Y-81794813D01*
X68090567Y-81823986D01*
X68025318Y-81819914D01*
X67970892Y-81783695D01*
X67941942Y-81725081D01*
X67929734Y-81663699D01*
X67896996Y-81614703D01*
X67873484Y-81579515D01*
X67789301Y-81523266D01*
X67781086Y-81521632D01*
X67715066Y-81508500D01*
X64894931Y-81508500D01*
X64820699Y-81523265D01*
X64736515Y-81579515D01*
X64680266Y-81663698D01*
X64665500Y-81737933D01*
X64665500Y-82808068D01*
X64680265Y-82882300D01*
X64736515Y-82966484D01*
X64792764Y-83004068D01*
X64820699Y-83022734D01*
X64894933Y-83037500D01*
X67715066Y-83037499D01*
X67715068Y-83037499D01*
X67764556Y-83027655D01*
X67789301Y-83022734D01*
X67873484Y-82966484D01*
X67929734Y-82882301D01*
X67934164Y-82860025D01*
X67963116Y-82801412D01*
X68017542Y-82765193D01*
X68082791Y-82761123D01*
X68141297Y-82790296D01*
X68201807Y-82843904D01*
X68201809Y-82843905D01*
X68343920Y-82918491D01*
X68499752Y-82956900D01*
X68660246Y-82956900D01*
X68660248Y-82956900D01*
X68816080Y-82918491D01*
X68958191Y-82843905D01*
X68958192Y-82843903D01*
X68958194Y-82843903D01*
X69018702Y-82790297D01*
X69077207Y-82761123D01*
X69142456Y-82765193D01*
X69196883Y-82801411D01*
X69225835Y-82860027D01*
X69230265Y-82882300D01*
X69286515Y-82966484D01*
X69342764Y-83004068D01*
X69370699Y-83022734D01*
X69444933Y-83037500D01*
X72265066Y-83037499D01*
X72265068Y-83037499D01*
X72314556Y-83027655D01*
X72339301Y-83022734D01*
X72423484Y-82966484D01*
X72479734Y-82882301D01*
X72494500Y-82808067D01*
X72494500Y-82793200D01*
X72511381Y-82730200D01*
X72557500Y-82684081D01*
X72620500Y-82667200D01*
X79263527Y-82667200D01*
X79311745Y-82676791D01*
X79352622Y-82704105D01*
X81338110Y-84689593D01*
X81426407Y-84777890D01*
X81445559Y-84787649D01*
X81462415Y-84797978D01*
X81479807Y-84810614D01*
X81500246Y-84817255D01*
X81518513Y-84824821D01*
X81537665Y-84834579D01*
X81537667Y-84834580D01*
X81558902Y-84837943D01*
X81578126Y-84842559D01*
X81598565Y-84849200D01*
X81629974Y-84849200D01*
X81723435Y-84849200D01*
X86524913Y-84849200D01*
X86583466Y-84863632D01*
X86610846Y-84887887D01*
X86612225Y-84886332D01*
X86623675Y-84896476D01*
X86623676Y-84896477D01*
X86743809Y-85002905D01*
X86864873Y-85066444D01*
X86908919Y-85104875D01*
X86930881Y-85159051D01*
X86926031Y-85217308D01*
X86895412Y-85267105D01*
X86315907Y-85846610D01*
X86271758Y-85890758D01*
X86227609Y-85934907D01*
X86217847Y-85954065D01*
X86207523Y-85970912D01*
X86194887Y-85988305D01*
X86188243Y-86008752D01*
X86180681Y-86027008D01*
X86170920Y-86046167D01*
X86167555Y-86067406D01*
X86162942Y-86086618D01*
X86156300Y-86107064D01*
X86156300Y-86550461D01*
X86146709Y-86598680D01*
X86119397Y-86639553D01*
X86094283Y-86664667D01*
X86069172Y-86689778D01*
X86027485Y-86771594D01*
X85981053Y-86821823D01*
X85915218Y-86840390D01*
X85849384Y-86821822D01*
X85802952Y-86771592D01*
X85761416Y-86690073D01*
X85670927Y-86599584D01*
X85556899Y-86541484D01*
X85462294Y-86526500D01*
X85407500Y-86526500D01*
X85407500Y-88984499D01*
X85462293Y-88984499D01*
X85556898Y-88969515D01*
X85670927Y-88911415D01*
X85761416Y-88820926D01*
X85802952Y-88739408D01*
X85849384Y-88689178D01*
X85915218Y-88670610D01*
X85981053Y-88689177D01*
X86027485Y-88739406D01*
X86069174Y-88821224D01*
X86159774Y-88911824D01*
X86159776Y-88911825D01*
X86159777Y-88911826D01*
X86273945Y-88969998D01*
X86368666Y-88985000D01*
X86732333Y-88985000D01*
X86732334Y-88985000D01*
X86827055Y-88969998D01*
X86941223Y-88911826D01*
X87031826Y-88821223D01*
X87089998Y-88707055D01*
X87105000Y-88612334D01*
X87105000Y-86898666D01*
X87089998Y-86803945D01*
X87031826Y-86689777D01*
X86981602Y-86639553D01*
X86954291Y-86598680D01*
X86944700Y-86550461D01*
X86944700Y-86384973D01*
X86954291Y-86336755D01*
X86981605Y-86295878D01*
X88175958Y-85101525D01*
X88216835Y-85074211D01*
X88265053Y-85064620D01*
X90672415Y-85064620D01*
X90692856Y-85057977D01*
X90712078Y-85053363D01*
X90733313Y-85050000D01*
X90752462Y-85040242D01*
X90770731Y-85032675D01*
X90791174Y-85026033D01*
X90808569Y-85013394D01*
X90825413Y-85003072D01*
X90844573Y-84993310D01*
X90932870Y-84905013D01*
X91423180Y-84414703D01*
X91445390Y-84392493D01*
X91455152Y-84373333D01*
X91465474Y-84356489D01*
X91478113Y-84339094D01*
X91484755Y-84318649D01*
X91492324Y-84300379D01*
X91502080Y-84281233D01*
X91505443Y-84259998D01*
X91510054Y-84240785D01*
X91516700Y-84220335D01*
X91516700Y-84220332D01*
X91522762Y-84201676D01*
X91554675Y-84150359D01*
X91606810Y-84119802D01*
X91667178Y-84117035D01*
X91673196Y-84118232D01*
X91673199Y-84118234D01*
X91747433Y-84133000D01*
X92397566Y-84132999D01*
X92397568Y-84132999D01*
X92463917Y-84119802D01*
X92471801Y-84118234D01*
X92555984Y-84061984D01*
X92555985Y-84061982D01*
X92570652Y-84052182D01*
X92618879Y-84032842D01*
X92670810Y-84034608D01*
X92690251Y-84039400D01*
X92690252Y-84039400D01*
X92850746Y-84039400D01*
X92850748Y-84039400D01*
X93006580Y-84000991D01*
X93006582Y-84000989D01*
X93021435Y-83997329D01*
X93022323Y-84000932D01*
X93064706Y-83992179D01*
X93129940Y-84016434D01*
X93168734Y-84045065D01*
X93184728Y-84056870D01*
X93314045Y-84102120D01*
X93314046Y-84102120D01*
X93314049Y-84102121D01*
X93344751Y-84105000D01*
X93854248Y-84104999D01*
X93884951Y-84102121D01*
X94014273Y-84056869D01*
X94124510Y-83975510D01*
X94205869Y-83865273D01*
X94205953Y-83865035D01*
X94251120Y-83735954D01*
X94251120Y-83735953D01*
X94251121Y-83735951D01*
X94254000Y-83705249D01*
X94253999Y-83502500D01*
X94595500Y-83502500D01*
X94595500Y-83705184D01*
X94598376Y-83735858D01*
X94643577Y-83865035D01*
X94724847Y-83975152D01*
X94834964Y-84056422D01*
X94964141Y-84101623D01*
X94994816Y-84104500D01*
X95122500Y-84104500D01*
X95122500Y-83502500D01*
X95376500Y-83502500D01*
X95376500Y-84104500D01*
X95504184Y-84104500D01*
X95534858Y-84101623D01*
X95664035Y-84056422D01*
X95774152Y-83975152D01*
X95855422Y-83865035D01*
X95900623Y-83735858D01*
X95903500Y-83705184D01*
X95903500Y-83502500D01*
X95376500Y-83502500D01*
X95122500Y-83502500D01*
X94595500Y-83502500D01*
X94253999Y-83502500D01*
X94253999Y-83368171D01*
X94263590Y-83319954D01*
X94290899Y-83279082D01*
X94380407Y-83189574D01*
X94430564Y-83158839D01*
X94489211Y-83154223D01*
X94543561Y-83176736D01*
X94581767Y-83221469D01*
X94585968Y-83238969D01*
X94595499Y-83248500D01*
X95122500Y-83248500D01*
X95122500Y-82646500D01*
X95376500Y-82646500D01*
X95376500Y-83248500D01*
X95903500Y-83248500D01*
X95903500Y-83045816D01*
X95900623Y-83015141D01*
X95855422Y-82885964D01*
X95774152Y-82775847D01*
X95664035Y-82694577D01*
X95534858Y-82649376D01*
X95504184Y-82646500D01*
X95376500Y-82646500D01*
X95122500Y-82646500D01*
X95122500Y-82646499D01*
X95112087Y-82636086D01*
X95079475Y-82579602D01*
X95079475Y-82514379D01*
X95112085Y-82457897D01*
X95206078Y-82363904D01*
X95246956Y-82336591D01*
X95295174Y-82327000D01*
X95470363Y-82327000D01*
X95470364Y-82327000D01*
X95527473Y-82320860D01*
X95656663Y-82272675D01*
X95767044Y-82190044D01*
X95849675Y-82079663D01*
X95897860Y-81950473D01*
X95904000Y-81893364D01*
X95904000Y-81301636D01*
X95897860Y-81244527D01*
X95849675Y-81115337D01*
X95825260Y-81082723D01*
X95767044Y-81004955D01*
X95656663Y-80922325D01*
X95601389Y-80901709D01*
X95527473Y-80874140D01*
X95470364Y-80868000D01*
X94928636Y-80868000D01*
X94871526Y-80874140D01*
X94871527Y-80874140D01*
X94742336Y-80922325D01*
X94631955Y-81004955D01*
X94549323Y-81115338D01*
X94542555Y-81133486D01*
X94508364Y-81183490D01*
X94454788Y-81211758D01*
X94394212Y-81211758D01*
X94340636Y-81183490D01*
X94306445Y-81133486D01*
X94299676Y-81115338D01*
X94217044Y-81004955D01*
X94106663Y-80922325D01*
X94051389Y-80901709D01*
X93977473Y-80874140D01*
X93920364Y-80868000D01*
X93378636Y-80868000D01*
X93321526Y-80874140D01*
X93321527Y-80874140D01*
X93192336Y-80922325D01*
X93081955Y-81004955D01*
X92999325Y-81115335D01*
X92997089Y-81121333D01*
X92970223Y-81164250D01*
X92928633Y-81193127D01*
X92879033Y-81203300D01*
X92753000Y-81203300D01*
X92690000Y-81186419D01*
X92643881Y-81140300D01*
X92627000Y-81077300D01*
X92626999Y-80053431D01*
X92612234Y-79979199D01*
X92555983Y-79895014D01*
X92522697Y-79872773D01*
X92481578Y-79827404D01*
X92466700Y-79768009D01*
X92466700Y-79502002D01*
X94584246Y-79502002D01*
X94603591Y-79661326D01*
X94660503Y-79811392D01*
X94751675Y-79943478D01*
X94871807Y-80049906D01*
X94871809Y-80049907D01*
X95013920Y-80124493D01*
X95169752Y-80162902D01*
X95330246Y-80162902D01*
X95330248Y-80162902D01*
X95486080Y-80124493D01*
X95628191Y-80049907D01*
X95748324Y-79943479D01*
X95839496Y-79811393D01*
X95896408Y-79661327D01*
X95915754Y-79502002D01*
X95896408Y-79342677D01*
X95839496Y-79192611D01*
X95798516Y-79133241D01*
X95778499Y-79085564D01*
X95779318Y-79033862D01*
X95800832Y-78986845D01*
X95855869Y-78912273D01*
X95861742Y-78895491D01*
X95901120Y-78782954D01*
X95901120Y-78782953D01*
X95901121Y-78782951D01*
X95904000Y-78752249D01*
X95903999Y-78092752D01*
X95901121Y-78062049D01*
X95855869Y-77932727D01*
X95815189Y-77877608D01*
X95774510Y-77822489D01*
X95664271Y-77741129D01*
X95534954Y-77695879D01*
X95519600Y-77694439D01*
X95504249Y-77693000D01*
X95504246Y-77693000D01*
X94994752Y-77693000D01*
X94964047Y-77695879D01*
X94834728Y-77741130D01*
X94724489Y-77822489D01*
X94643129Y-77932728D01*
X94597879Y-78062045D01*
X94595000Y-78092753D01*
X94595000Y-78752247D01*
X94597879Y-78782952D01*
X94643129Y-78912271D01*
X94698683Y-78987543D01*
X94720198Y-79034562D01*
X94721017Y-79086264D01*
X94701001Y-79133940D01*
X94660503Y-79192611D01*
X94603591Y-79342677D01*
X94584246Y-79502002D01*
X92466700Y-79502002D01*
X92466700Y-79054769D01*
X92473148Y-79014978D01*
X92491832Y-78979260D01*
X92533004Y-78924261D01*
X92547675Y-78904663D01*
X92549911Y-78898665D01*
X92576777Y-78855750D01*
X92618367Y-78826873D01*
X92667967Y-78816700D01*
X92870286Y-78816700D01*
X92920672Y-78827213D01*
X92962650Y-78856997D01*
X92989215Y-78901083D01*
X92993130Y-78912272D01*
X93074489Y-79022510D01*
X93184728Y-79103870D01*
X93314045Y-79149120D01*
X93314046Y-79149120D01*
X93314049Y-79149121D01*
X93344751Y-79152000D01*
X93854248Y-79151999D01*
X93884951Y-79149121D01*
X94014273Y-79103869D01*
X94124510Y-79022510D01*
X94205869Y-78912273D01*
X94211742Y-78895491D01*
X94251120Y-78782954D01*
X94251120Y-78782953D01*
X94251121Y-78782951D01*
X94254000Y-78752249D01*
X94253999Y-78092752D01*
X94251121Y-78062049D01*
X94205869Y-77932727D01*
X94165189Y-77877608D01*
X94124510Y-77822489D01*
X94014271Y-77741129D01*
X93884954Y-77695879D01*
X93869600Y-77694439D01*
X93854249Y-77693000D01*
X93854246Y-77693000D01*
X93344752Y-77693000D01*
X93314047Y-77695879D01*
X93184728Y-77741130D01*
X93074489Y-77822489D01*
X92993130Y-77932727D01*
X92989215Y-77943917D01*
X92962650Y-77988003D01*
X92920672Y-78017787D01*
X92870286Y-78028300D01*
X92667967Y-78028300D01*
X92618367Y-78018127D01*
X92576777Y-77989250D01*
X92549911Y-77946333D01*
X92547674Y-77940335D01*
X92465044Y-77829955D01*
X92354663Y-77747325D01*
X92338051Y-77741129D01*
X92225473Y-77699140D01*
X92168364Y-77693000D01*
X91643791Y-77693000D01*
X91586588Y-77679267D01*
X91541855Y-77641061D01*
X91519342Y-77586711D01*
X91523958Y-77528064D01*
X91554696Y-77477905D01*
X91621696Y-77410905D01*
X91662573Y-77383591D01*
X91710791Y-77374000D01*
X92168363Y-77374000D01*
X92168364Y-77374000D01*
X92225473Y-77367860D01*
X92354663Y-77319675D01*
X92465044Y-77237044D01*
X92547675Y-77126663D01*
X92595860Y-76997473D01*
X92602000Y-76940364D01*
X92602000Y-76562173D01*
X92611591Y-76513955D01*
X92638902Y-76473080D01*
X93010680Y-76101303D01*
X93010679Y-76101303D01*
X93032890Y-76079093D01*
X93032891Y-76079090D01*
X93038855Y-76073127D01*
X93041924Y-76061362D01*
X93042640Y-76059955D01*
X93052973Y-76043091D01*
X93065613Y-76025694D01*
X93072255Y-76005249D01*
X93079824Y-75986979D01*
X93082574Y-75981582D01*
X93089580Y-75967833D01*
X93092943Y-75946598D01*
X93097559Y-75927372D01*
X93098370Y-75924878D01*
X93104200Y-75906935D01*
X93104200Y-75782064D01*
X93104200Y-75658714D01*
X93114713Y-75608328D01*
X93144497Y-75566350D01*
X93188583Y-75539785D01*
X93194437Y-75537736D01*
X93199773Y-75535869D01*
X93310010Y-75454510D01*
X93356302Y-75391787D01*
X93386273Y-75351178D01*
X93430870Y-75313520D01*
X93487652Y-75300000D01*
X94600000Y-75300000D01*
X94600000Y-72900000D01*
X93500000Y-72900000D01*
X93481009Y-72900000D01*
X93424227Y-72886480D01*
X93379631Y-72848823D01*
X93310010Y-72754490D01*
X93310008Y-72754488D01*
X93298732Y-72739210D01*
X93300160Y-72738155D01*
X93282819Y-72717617D01*
X93269300Y-72660837D01*
X93269300Y-68379074D01*
X93964281Y-68379074D01*
X93974190Y-68662838D01*
X94023498Y-68942476D01*
X94111242Y-69212522D01*
X94235713Y-69467726D01*
X94394496Y-69703133D01*
X94572951Y-69901326D01*
X94584491Y-69914142D01*
X94802005Y-70096658D01*
X95042804Y-70247126D01*
X95302201Y-70362617D01*
X95575146Y-70440883D01*
X95856328Y-70480400D01*
X96069203Y-70480400D01*
X96281553Y-70465551D01*
X96559293Y-70406516D01*
X96826114Y-70309401D01*
X97076822Y-70176097D01*
X97306539Y-70009198D01*
X97510791Y-69811953D01*
X97685605Y-69588202D01*
X97804236Y-69382727D01*
X97827579Y-69342297D01*
X97933945Y-69079029D01*
X97967992Y-68942476D01*
X98002638Y-68803519D01*
X98032318Y-68521129D01*
X98026471Y-68353674D01*
X98589081Y-68353674D01*
X98598990Y-68637438D01*
X98648298Y-68917076D01*
X98736042Y-69187122D01*
X98860513Y-69442326D01*
X99019296Y-69677733D01*
X99209287Y-69888738D01*
X99209291Y-69888742D01*
X99426805Y-70071258D01*
X99667604Y-70221726D01*
X99927001Y-70337217D01*
X100199946Y-70415483D01*
X100481128Y-70455000D01*
X100694003Y-70455000D01*
X100906353Y-70440151D01*
X101184093Y-70381116D01*
X101450914Y-70284001D01*
X101701622Y-70150697D01*
X101931339Y-69983798D01*
X102135591Y-69786553D01*
X102310405Y-69562802D01*
X102435031Y-69346944D01*
X102452379Y-69316897D01*
X102558745Y-69053629D01*
X102586459Y-68942476D01*
X102627438Y-68778119D01*
X102657118Y-68495729D01*
X102652158Y-68353674D01*
X114589081Y-68353674D01*
X114598990Y-68637438D01*
X114648298Y-68917076D01*
X114736042Y-69187122D01*
X114860513Y-69442326D01*
X115019296Y-69677733D01*
X115209287Y-69888738D01*
X115209291Y-69888742D01*
X115426805Y-70071258D01*
X115667604Y-70221726D01*
X115927001Y-70337217D01*
X116199946Y-70415483D01*
X116481128Y-70455000D01*
X116694003Y-70455000D01*
X116906353Y-70440151D01*
X117184093Y-70381116D01*
X117450914Y-70284001D01*
X117701622Y-70150697D01*
X117931339Y-69983798D01*
X118135591Y-69786553D01*
X118310405Y-69562802D01*
X118435031Y-69346944D01*
X118452379Y-69316897D01*
X118558745Y-69053629D01*
X118586459Y-68942476D01*
X118627438Y-68778119D01*
X118657118Y-68495729D01*
X118653045Y-68379074D01*
X119239281Y-68379074D01*
X119249190Y-68662838D01*
X119298498Y-68942476D01*
X119386242Y-69212522D01*
X119510713Y-69467726D01*
X119669496Y-69703133D01*
X119847951Y-69901326D01*
X119859491Y-69914142D01*
X120077005Y-70096658D01*
X120317804Y-70247126D01*
X120577201Y-70362617D01*
X120850146Y-70440883D01*
X121131328Y-70480400D01*
X121344203Y-70480400D01*
X121556553Y-70465551D01*
X121834293Y-70406516D01*
X122101114Y-70309401D01*
X122351822Y-70176097D01*
X122581539Y-70009198D01*
X122785791Y-69811953D01*
X122960605Y-69588202D01*
X123079236Y-69382727D01*
X123102579Y-69342297D01*
X123208945Y-69079029D01*
X123242992Y-68942476D01*
X123277638Y-68803519D01*
X123307318Y-68521129D01*
X123297409Y-68237358D01*
X123248102Y-67957727D01*
X123160358Y-67687679D01*
X123035885Y-67432471D01*
X122937494Y-67286600D01*
X122877103Y-67197066D01*
X122687112Y-66986061D01*
X122687110Y-66986059D01*
X122687109Y-66986058D01*
X122469595Y-66803542D01*
X122469594Y-66803541D01*
X122312996Y-66705688D01*
X122228796Y-66653074D01*
X121969399Y-66537583D01*
X121816306Y-66493684D01*
X121696453Y-66459316D01*
X121415272Y-66419800D01*
X121202397Y-66419800D01*
X120990047Y-66434649D01*
X120949695Y-66443226D01*
X120712304Y-66493684D01*
X120445486Y-66590798D01*
X120194777Y-66724102D01*
X119965062Y-66891001D01*
X119760808Y-67088247D01*
X119585993Y-67312000D01*
X119444020Y-67557902D01*
X119337654Y-67821170D01*
X119268962Y-68096677D01*
X119239281Y-68379074D01*
X118653045Y-68379074D01*
X118647209Y-68211958D01*
X118597902Y-67932327D01*
X118510158Y-67662279D01*
X118385685Y-67407071D01*
X118321559Y-67312000D01*
X118226903Y-67171666D01*
X118036912Y-66960661D01*
X118036910Y-66960659D01*
X118036909Y-66960658D01*
X117819395Y-66778142D01*
X117819394Y-66778141D01*
X117609138Y-66646759D01*
X117578596Y-66627674D01*
X117319199Y-66512183D01*
X117166106Y-66468284D01*
X117046253Y-66433916D01*
X116765072Y-66394400D01*
X116552197Y-66394400D01*
X116339847Y-66409249D01*
X116328415Y-66411679D01*
X116062104Y-66468284D01*
X115795286Y-66565398D01*
X115544577Y-66698702D01*
X115314862Y-66865601D01*
X115110608Y-67062847D01*
X114935793Y-67286600D01*
X114793820Y-67532502D01*
X114687454Y-67795770D01*
X114618762Y-68071277D01*
X114589081Y-68353674D01*
X102652158Y-68353674D01*
X102647209Y-68211958D01*
X102597902Y-67932327D01*
X102510158Y-67662279D01*
X102385685Y-67407071D01*
X102321559Y-67312000D01*
X102226903Y-67171666D01*
X102036912Y-66960661D01*
X102036910Y-66960659D01*
X102036909Y-66960658D01*
X101819395Y-66778142D01*
X101819394Y-66778141D01*
X101609138Y-66646759D01*
X101578596Y-66627674D01*
X101319199Y-66512183D01*
X101166106Y-66468284D01*
X101046253Y-66433916D01*
X100765072Y-66394400D01*
X100552197Y-66394400D01*
X100339847Y-66409249D01*
X100328415Y-66411679D01*
X100062104Y-66468284D01*
X99795286Y-66565398D01*
X99544577Y-66698702D01*
X99314862Y-66865601D01*
X99110608Y-67062847D01*
X98935793Y-67286600D01*
X98793820Y-67532502D01*
X98687454Y-67795770D01*
X98618762Y-68071277D01*
X98589081Y-68353674D01*
X98026471Y-68353674D01*
X98022409Y-68237358D01*
X97973102Y-67957727D01*
X97885358Y-67687679D01*
X97760885Y-67432471D01*
X97662494Y-67286600D01*
X97602103Y-67197066D01*
X97412112Y-66986061D01*
X97412110Y-66986059D01*
X97412109Y-66986058D01*
X97194595Y-66803542D01*
X97194594Y-66803541D01*
X97037996Y-66705688D01*
X96953796Y-66653074D01*
X96694399Y-66537583D01*
X96541306Y-66493684D01*
X96421453Y-66459316D01*
X96140272Y-66419800D01*
X95927397Y-66419800D01*
X95715047Y-66434649D01*
X95674695Y-66443226D01*
X95437304Y-66493684D01*
X95170486Y-66590798D01*
X94919777Y-66724102D01*
X94690062Y-66891001D01*
X94485808Y-67088247D01*
X94310993Y-67312000D01*
X94169020Y-67557902D01*
X94062654Y-67821170D01*
X93993962Y-68096677D01*
X93964281Y-68379074D01*
X93269300Y-68379074D01*
X93269300Y-62026000D01*
X93286181Y-61963000D01*
X93332300Y-61916881D01*
X93395300Y-61900000D01*
X116327519Y-61900000D01*
X116827000Y-61900000D01*
X116827654Y-61265154D01*
X116839076Y-61212868D01*
X116871174Y-61170036D01*
X116918156Y-61144393D01*
X117030168Y-61111503D01*
X117165972Y-61041491D01*
X117215242Y-61016091D01*
X117378915Y-60887376D01*
X117515272Y-60730013D01*
X117619383Y-60549687D01*
X117687485Y-60352917D01*
X117717118Y-60146815D01*
X117707211Y-59938828D01*
X117658121Y-59736476D01*
X117571622Y-59547071D01*
X117571622Y-59547070D01*
X117450842Y-59377458D01*
X117416139Y-59344369D01*
X117300144Y-59233768D01*
X117230209Y-59188823D01*
X117124973Y-59121192D01*
X116920501Y-59039335D01*
X116920727Y-59038770D01*
X116879729Y-59020429D01*
X116843139Y-58976064D01*
X116830074Y-58920067D01*
X116839477Y-49806224D01*
X116840567Y-49789828D01*
X116854400Y-49685325D01*
X116862902Y-49653639D01*
X116873784Y-49627368D01*
X116900066Y-49563921D01*
X116916455Y-49535513D01*
X116975526Y-49458428D01*
X116998692Y-49435216D01*
X117075663Y-49375993D01*
X117104039Y-49359548D01*
X117193684Y-49322208D01*
X117225347Y-49313644D01*
X117329833Y-49299605D01*
X117346226Y-49298485D01*
X118298827Y-49295635D01*
X121656344Y-49285589D01*
X121672785Y-49286618D01*
G37*
%TD.AperFunction*%
%TD*%
%TA.AperFunction,Conductor*%
%TO.N,PACK+*%
G36*
X115494187Y-49277078D02*
G01*
X115522201Y-49280765D01*
X115598964Y-49290871D01*
X115630731Y-49299383D01*
X115720675Y-49336639D01*
X115749160Y-49353085D01*
X115826393Y-49412349D01*
X115849650Y-49435606D01*
X115908914Y-49512839D01*
X115925361Y-49541326D01*
X115962615Y-49631265D01*
X115971128Y-49663037D01*
X115984922Y-49767812D01*
X115986000Y-49784258D01*
X115986000Y-59147459D01*
X115973336Y-59202514D01*
X115937890Y-59246498D01*
X115867285Y-59302024D01*
X115867284Y-59302025D01*
X115730927Y-59459387D01*
X115626816Y-59639713D01*
X115558714Y-59836483D01*
X115529081Y-60042584D01*
X115538988Y-60250571D01*
X115588078Y-60452922D01*
X115674577Y-60642329D01*
X115734610Y-60726633D01*
X115756166Y-60778456D01*
X115753078Y-60834498D01*
X115725960Y-60883639D01*
X115680192Y-60916129D01*
X115630735Y-60936615D01*
X115598963Y-60945128D01*
X115521024Y-60955388D01*
X115494187Y-60958922D01*
X115477742Y-60960000D01*
X84458422Y-60960000D01*
X84441912Y-60958913D01*
X84410395Y-60954747D01*
X84336733Y-60945010D01*
X84304845Y-60936430D01*
X84214612Y-60898889D01*
X84186048Y-60882319D01*
X84108662Y-60822618D01*
X84085388Y-60799199D01*
X84026171Y-60721440D01*
X84009783Y-60692779D01*
X83972804Y-60602306D01*
X83964424Y-60570364D01*
X83951179Y-60465095D01*
X83950196Y-60448601D01*
X83979514Y-55757700D01*
X104969101Y-55757700D01*
X104969101Y-58924718D01*
X104983836Y-58998805D01*
X105039976Y-59082824D01*
X105123993Y-59138963D01*
X105198081Y-59153700D01*
X108115100Y-59153700D01*
X108115100Y-55757700D01*
X109131100Y-55757700D01*
X109131100Y-59153699D01*
X112048118Y-59153699D01*
X112122205Y-59138963D01*
X112206224Y-59082823D01*
X112262363Y-58998806D01*
X112277100Y-58924719D01*
X112277100Y-55757700D01*
X109131100Y-55757700D01*
X108115100Y-55757700D01*
X104969101Y-55757700D01*
X83979514Y-55757700D01*
X83985864Y-54741700D01*
X104969100Y-54741700D01*
X108115100Y-54741700D01*
X108115100Y-51345701D01*
X105198082Y-51345701D01*
X105123994Y-51360436D01*
X105039975Y-51416576D01*
X104983836Y-51500593D01*
X104969100Y-51574681D01*
X104969100Y-54741700D01*
X83985864Y-54741700D01*
X84007343Y-51305087D01*
X84008514Y-51288734D01*
X84022852Y-51184439D01*
X84031493Y-51152849D01*
X84069026Y-51063424D01*
X84085519Y-51035131D01*
X84144836Y-50958408D01*
X84168067Y-50935322D01*
X84245159Y-50876486D01*
X84273557Y-50860169D01*
X84363207Y-50823200D01*
X84394850Y-50814756D01*
X84472094Y-50804627D01*
X84499234Y-50801069D01*
X84515615Y-50800000D01*
X98170738Y-50800000D01*
X98223082Y-50811387D01*
X98265964Y-50843490D01*
X98291635Y-50890506D01*
X98317304Y-50977939D01*
X98418822Y-51200252D01*
X98550943Y-51405846D01*
X98550947Y-51405851D01*
X98550948Y-51405852D01*
X98710988Y-51590558D01*
X98895686Y-51750606D01*
X99101282Y-51882740D01*
X99323590Y-51984269D01*
X99558084Y-52053125D01*
X99654846Y-52067038D01*
X99799988Y-52087909D01*
X99799991Y-52087909D01*
X100044386Y-52087910D01*
X100286294Y-52053130D01*
X100520789Y-51984277D01*
X100743098Y-51882751D01*
X100948696Y-51750620D01*
X101133396Y-51590574D01*
X101293439Y-51405871D01*
X101332107Y-51345700D01*
X109131100Y-51345700D01*
X109131100Y-54741700D01*
X112277099Y-54741700D01*
X112277099Y-51574682D01*
X112262363Y-51500594D01*
X112206223Y-51416575D01*
X112122206Y-51360436D01*
X112048119Y-51345700D01*
X109131100Y-51345700D01*
X101332107Y-51345700D01*
X101425566Y-51200271D01*
X101527087Y-50977960D01*
X101595937Y-50743463D01*
X101630713Y-50501555D01*
X101630710Y-50379357D01*
X101630710Y-50379335D01*
X101630710Y-49402000D01*
X101647591Y-49339000D01*
X101693710Y-49292881D01*
X101756710Y-49276000D01*
X115477742Y-49276000D01*
X115494187Y-49277078D01*
G37*
%TD.AperFunction*%
%TD*%
%TA.AperFunction,Conductor*%
%TO.N,Net-(C101-Pad1)*%
G36*
X86404496Y-66631006D02*
G01*
X86450988Y-66683485D01*
X86462234Y-66752688D01*
X86456246Y-66802000D01*
X86475591Y-66961324D01*
X86532503Y-67111390D01*
X86623675Y-67243476D01*
X86743807Y-67349904D01*
X86743809Y-67349905D01*
X86885920Y-67424491D01*
X87041752Y-67462900D01*
X87202247Y-67462900D01*
X87202248Y-67462900D01*
X87283346Y-67442911D01*
X87339945Y-67442056D01*
X87391207Y-67466065D01*
X87426785Y-67510091D01*
X87439500Y-67565250D01*
X87439500Y-75503088D01*
X87427926Y-75555839D01*
X87395330Y-75598900D01*
X87347700Y-75624358D01*
X87293788Y-75627536D01*
X87287601Y-75626556D01*
X87268380Y-75621942D01*
X87247936Y-75615300D01*
X87247935Y-75615300D01*
X87216526Y-75615300D01*
X83374500Y-75615300D01*
X83311500Y-75598419D01*
X83265381Y-75552300D01*
X83248500Y-75489300D01*
X83248500Y-74578123D01*
X83262233Y-74520920D01*
X83279998Y-74486055D01*
X83295000Y-74391334D01*
X83295000Y-72677666D01*
X83279998Y-72582945D01*
X83262232Y-72548079D01*
X83248500Y-72490877D01*
X83248500Y-67119758D01*
X83249578Y-67103313D01*
X83252634Y-67080092D01*
X83263372Y-66998533D01*
X83271882Y-66966770D01*
X83309140Y-66876821D01*
X83325582Y-66848343D01*
X83384851Y-66771103D01*
X83408103Y-66747851D01*
X83485343Y-66688582D01*
X83513821Y-66672140D01*
X83603770Y-66634882D01*
X83635533Y-66626372D01*
X83717092Y-66615634D01*
X83740313Y-66612578D01*
X83756758Y-66611500D01*
X86337153Y-66611500D01*
X86404496Y-66631006D01*
G37*
%TD.AperFunction*%
%TD*%
%TA.AperFunction,Conductor*%
%TO.N,/Q1D_Q2S*%
G36*
X86797503Y-76946211D02*
G01*
X86838380Y-76973525D01*
X87402595Y-77537740D01*
X87429909Y-77578617D01*
X87439500Y-77626835D01*
X87439500Y-83691750D01*
X87426785Y-83746909D01*
X87391207Y-83790935D01*
X87339945Y-83814944D01*
X87283347Y-83814089D01*
X87272958Y-83811528D01*
X87202248Y-83794100D01*
X87041752Y-83794100D01*
X86885919Y-83832509D01*
X86885920Y-83832509D01*
X86743807Y-83907095D01*
X86612225Y-84023668D01*
X86610846Y-84022112D01*
X86583466Y-84046368D01*
X86524913Y-84060800D01*
X82021856Y-84060800D01*
X81973638Y-84051209D01*
X81932761Y-84023896D01*
X81905448Y-83983019D01*
X81874885Y-83909235D01*
X81866371Y-83877461D01*
X81852578Y-83772687D01*
X81851500Y-83756242D01*
X81851500Y-77406758D01*
X81852578Y-77390313D01*
X81855634Y-77367092D01*
X81866372Y-77285533D01*
X81874882Y-77253770D01*
X81912140Y-77163821D01*
X81928582Y-77135343D01*
X81987851Y-77058103D01*
X82011103Y-77034851D01*
X82088343Y-76975582D01*
X82116822Y-76959140D01*
X82148039Y-76946209D01*
X82196254Y-76936620D01*
X86749285Y-76936620D01*
X86797503Y-76946211D01*
G37*
%TD.AperFunction*%
%TD*%
%TA.AperFunction,Conductor*%
%TO.N,BM*%
G36*
X132937687Y-129320578D02*
G01*
X132965701Y-129324265D01*
X133042464Y-129334371D01*
X133074231Y-129342883D01*
X133164175Y-129380139D01*
X133192660Y-129396585D01*
X133269893Y-129455849D01*
X133293150Y-129479106D01*
X133352414Y-129556339D01*
X133368861Y-129584826D01*
X133406115Y-129674765D01*
X133414628Y-129706537D01*
X133428422Y-129811312D01*
X133429500Y-129827758D01*
X133429500Y-143332698D01*
X133412619Y-143395698D01*
X133366500Y-143441817D01*
X133303500Y-143458698D01*
X110827280Y-143458698D01*
X110813172Y-143457906D01*
X110681812Y-143443105D01*
X110654305Y-143436826D01*
X110536264Y-143395522D01*
X110510843Y-143383280D01*
X110404940Y-143316737D01*
X110382881Y-143299145D01*
X110294454Y-143210718D01*
X110276862Y-143188659D01*
X110210319Y-143082756D01*
X110198079Y-143057340D01*
X110156771Y-142939289D01*
X110150495Y-142911791D01*
X110135694Y-142780427D01*
X110134902Y-142766320D01*
X110134902Y-142183186D01*
X110134901Y-142183180D01*
X110134901Y-142118243D01*
X110100247Y-141877224D01*
X110100247Y-141877223D01*
X110031645Y-141643585D01*
X109930490Y-141422089D01*
X109798843Y-141217242D01*
X109713984Y-141119309D01*
X109639384Y-141033215D01*
X109514408Y-140924923D01*
X109479505Y-140875413D01*
X109471741Y-140815336D01*
X109492911Y-140758579D01*
X109538120Y-140718260D01*
X109596920Y-140703699D01*
X112048118Y-140703699D01*
X112122205Y-140688963D01*
X112206224Y-140632823D01*
X112262363Y-140548806D01*
X112277100Y-140474719D01*
X112277100Y-137333100D01*
X125619301Y-137333100D01*
X125619301Y-140500118D01*
X125634036Y-140574205D01*
X125690176Y-140658224D01*
X125774193Y-140714363D01*
X125848281Y-140729100D01*
X128765300Y-140729100D01*
X128765300Y-137333100D01*
X129781300Y-137333100D01*
X129781300Y-140729099D01*
X132698318Y-140729099D01*
X132772405Y-140714363D01*
X132856424Y-140658223D01*
X132912563Y-140574206D01*
X132927300Y-140500119D01*
X132927300Y-137333100D01*
X129781300Y-137333100D01*
X128765300Y-137333100D01*
X125619301Y-137333100D01*
X112277100Y-137333100D01*
X112277100Y-137307700D01*
X104969101Y-137307700D01*
X104969101Y-140411698D01*
X104952220Y-140474698D01*
X104906101Y-140520817D01*
X104843101Y-140537698D01*
X103948500Y-140537698D01*
X103885500Y-140520817D01*
X103839381Y-140474698D01*
X103822500Y-140411698D01*
X103822500Y-136317100D01*
X125619300Y-136317100D01*
X128765300Y-136317100D01*
X128765300Y-132921101D01*
X125848282Y-132921101D01*
X125774194Y-132935836D01*
X125690175Y-132991976D01*
X125634036Y-133075993D01*
X125619300Y-133150081D01*
X125619300Y-136317100D01*
X103822500Y-136317100D01*
X103822500Y-136291700D01*
X104969100Y-136291700D01*
X108115100Y-136291700D01*
X108115100Y-132895701D01*
X105198082Y-132895701D01*
X105123994Y-132910436D01*
X105039975Y-132966576D01*
X104983836Y-133050593D01*
X104969100Y-133124681D01*
X104969100Y-136291700D01*
X103822500Y-136291700D01*
X103822500Y-132895700D01*
X109131100Y-132895700D01*
X109131100Y-136291700D01*
X112277099Y-136291700D01*
X112277099Y-133124682D01*
X112262363Y-133050594D01*
X112206223Y-132966575D01*
X112122206Y-132910436D01*
X112048119Y-132895700D01*
X109131100Y-132895700D01*
X103822500Y-132895700D01*
X103822500Y-131902584D01*
X115529081Y-131902584D01*
X115538988Y-132110571D01*
X115588078Y-132312922D01*
X115674577Y-132502329D01*
X115755103Y-132615412D01*
X115795358Y-132671942D01*
X115946056Y-132815632D01*
X116040132Y-132876091D01*
X116121226Y-132928207D01*
X116314526Y-133005592D01*
X116314528Y-133005592D01*
X116314530Y-133005593D01*
X116518989Y-133045000D01*
X116675032Y-133045000D01*
X116675037Y-133045000D01*
X116785994Y-133034404D01*
X116830379Y-133030166D01*
X116963571Y-132991057D01*
X117030168Y-132971503D01*
X117148621Y-132910436D01*
X117215242Y-132876091D01*
X117378915Y-132747376D01*
X117515272Y-132590013D01*
X117619383Y-132409687D01*
X117687485Y-132212917D01*
X117717118Y-132006815D01*
X117713363Y-131927984D01*
X120179281Y-131927984D01*
X120189188Y-132135971D01*
X120238278Y-132338322D01*
X120324777Y-132527729D01*
X120445557Y-132697341D01*
X120445558Y-132697342D01*
X120596256Y-132841032D01*
X120681323Y-132895701D01*
X120771426Y-132953607D01*
X120964726Y-133030992D01*
X120964728Y-133030992D01*
X120964730Y-133030993D01*
X121169189Y-133070400D01*
X121325232Y-133070400D01*
X121325237Y-133070400D01*
X121436194Y-133059804D01*
X121480579Y-133055566D01*
X121650772Y-133005593D01*
X121680368Y-132996903D01*
X121798821Y-132935836D01*
X121827405Y-132921100D01*
X129781300Y-132921100D01*
X129781300Y-136317100D01*
X132927299Y-136317100D01*
X132927299Y-133150082D01*
X132912563Y-133075994D01*
X132856423Y-132991975D01*
X132772406Y-132935836D01*
X132698319Y-132921100D01*
X129781300Y-132921100D01*
X121827405Y-132921100D01*
X121865442Y-132901491D01*
X122029115Y-132772776D01*
X122165472Y-132615413D01*
X122269583Y-132435087D01*
X122337685Y-132238317D01*
X122367318Y-132032215D01*
X122357411Y-131824228D01*
X122308321Y-131621876D01*
X122265071Y-131527173D01*
X122221822Y-131432470D01*
X122101042Y-131262858D01*
X122074403Y-131237458D01*
X121950344Y-131119168D01*
X121816742Y-131033307D01*
X121775173Y-131006592D01*
X121581873Y-130929207D01*
X121377411Y-130889800D01*
X121221368Y-130889800D01*
X121221363Y-130889800D01*
X121066022Y-130904633D01*
X120866231Y-130963296D01*
X120681160Y-131058707D01*
X120517485Y-131187424D01*
X120381127Y-131344787D01*
X120277016Y-131525113D01*
X120208914Y-131721883D01*
X120179281Y-131927984D01*
X117713363Y-131927984D01*
X117707211Y-131798828D01*
X117658121Y-131596476D01*
X117614871Y-131501773D01*
X117571622Y-131407070D01*
X117450842Y-131237458D01*
X117300144Y-131093768D01*
X117206065Y-131033307D01*
X117124973Y-130981192D01*
X116931673Y-130903807D01*
X116727211Y-130864400D01*
X116571168Y-130864400D01*
X116571163Y-130864400D01*
X116415822Y-130879233D01*
X116216031Y-130937896D01*
X116030960Y-131033307D01*
X115867285Y-131162024D01*
X115730927Y-131319387D01*
X115626816Y-131499713D01*
X115558714Y-131696483D01*
X115529081Y-131902584D01*
X103822500Y-131902584D01*
X103822500Y-129827758D01*
X103823578Y-129811313D01*
X103826634Y-129788092D01*
X103837372Y-129706533D01*
X103845882Y-129674770D01*
X103883140Y-129584821D01*
X103899582Y-129556343D01*
X103958851Y-129479103D01*
X103982103Y-129455851D01*
X104059343Y-129396582D01*
X104087821Y-129380140D01*
X104177770Y-129342882D01*
X104209533Y-129334372D01*
X104291092Y-129323634D01*
X104314313Y-129320578D01*
X104330758Y-129319500D01*
X132921242Y-129319500D01*
X132937687Y-129320578D01*
G37*
%TD.AperFunction*%
%TD*%
%TA.AperFunction,Conductor*%
%TO.N,PACK+*%
G36*
X74311187Y-61977078D02*
G01*
X74339201Y-61980765D01*
X74415964Y-61990871D01*
X74447731Y-61999383D01*
X74537675Y-62036639D01*
X74566160Y-62053085D01*
X74643393Y-62112349D01*
X74666650Y-62135606D01*
X74725914Y-62212839D01*
X74742361Y-62241326D01*
X74779615Y-62331265D01*
X74788128Y-62363037D01*
X74801922Y-62467812D01*
X74803000Y-62484258D01*
X74803000Y-66399673D01*
X74792695Y-66449579D01*
X74763466Y-66491322D01*
X74720095Y-66518074D01*
X74520286Y-66590798D01*
X74269577Y-66724102D01*
X74039862Y-66891001D01*
X73835608Y-67088247D01*
X73660793Y-67312000D01*
X73518820Y-67557902D01*
X73412454Y-67821170D01*
X73343762Y-68096677D01*
X73314081Y-68379074D01*
X73323990Y-68662838D01*
X73372883Y-68940120D01*
X73370504Y-68994611D01*
X73345319Y-69042991D01*
X73302047Y-69076195D01*
X73248797Y-69088000D01*
X62611258Y-69088000D01*
X62594812Y-69086922D01*
X62490037Y-69073128D01*
X62458265Y-69064615D01*
X62368326Y-69027361D01*
X62339839Y-69010914D01*
X62262606Y-68951650D01*
X62239349Y-68928393D01*
X62180085Y-68851160D01*
X62163638Y-68822673D01*
X62126384Y-68732734D01*
X62117871Y-68700961D01*
X62112852Y-68662838D01*
X62104078Y-68596187D01*
X62103000Y-68579742D01*
X62103000Y-62484258D01*
X62104078Y-62467813D01*
X62107134Y-62444592D01*
X62117872Y-62363033D01*
X62126382Y-62331270D01*
X62163640Y-62241321D01*
X62180082Y-62212843D01*
X62239351Y-62135603D01*
X62262603Y-62112351D01*
X62339843Y-62053082D01*
X62368321Y-62036640D01*
X62458270Y-61999382D01*
X62490033Y-61990872D01*
X62571592Y-61980134D01*
X62594813Y-61977078D01*
X62611258Y-61976000D01*
X74294742Y-61976000D01*
X74311187Y-61977078D01*
G37*
%TD.AperFunction*%
%TD*%
M02*
