%TF.GenerationSoftware,KiCad,Pcbnew,7.0.1*%
%TF.CreationDate,2023-06-20T19:29:40-04:00*%
%TF.ProjectId,batteryboard,62617474-6572-4796-926f-6172642e6b69,rev?*%
%TF.SameCoordinates,Original*%
%TF.FileFunction,Soldermask,Bot*%
%TF.FilePolarity,Negative*%
%FSLAX46Y46*%
G04 Gerber Fmt 4.6, Leading zero omitted, Abs format (unit mm)*
G04 Created by KiCad (PCBNEW 7.0.1) date 2023-06-20 19:29:40*
%MOMM*%
%LPD*%
G01*
G04 APERTURE LIST*
G04 Aperture macros list*
%AMRoundRect*
0 Rectangle with rounded corners*
0 $1 Rounding radius*
0 $2 $3 $4 $5 $6 $7 $8 $9 X,Y pos of 4 corners*
0 Add a 4 corners polygon primitive as box body*
4,1,4,$2,$3,$4,$5,$6,$7,$8,$9,$2,$3,0*
0 Add four circle primitives for the rounded corners*
1,1,$1+$1,$2,$3*
1,1,$1+$1,$4,$5*
1,1,$1+$1,$6,$7*
1,1,$1+$1,$8,$9*
0 Add four rect primitives between the rounded corners*
20,1,$1+$1,$2,$3,$4,$5,0*
20,1,$1+$1,$4,$5,$6,$7,0*
20,1,$1+$1,$6,$7,$8,$9,0*
20,1,$1+$1,$8,$9,$2,$3,0*%
%AMFreePoly0*
4,1,25,0.115149,2.428891,0.133461,2.421305,0.222677,2.361692,0.236692,2.347677,0.296305,2.258461,0.303891,2.240149,0.324824,2.134911,0.325800,2.125000,0.325800,-1.400000,0.310921,-1.435921,0.275000,-1.450800,-0.275000,-1.450800,-0.310921,-1.435921,-0.325800,-1.400000,-0.325800,2.125000,-0.324824,2.134911,-0.303891,2.240149,-0.296305,2.258461,-0.236692,2.347677,-0.222677,2.361692,
-0.133461,2.421305,-0.115149,2.428891,-0.009911,2.449824,0.009911,2.449824,0.115149,2.428891,0.115149,2.428891,$1*%
G04 Aperture macros list end*
%ADD10C,0.100000*%
%ADD11C,3.551600*%
%ADD12C,1.671600*%
%ADD13C,2.101600*%
%ADD14C,5.181600*%
%ADD15FreePoly0,0.000000*%
%ADD16C,1.501600*%
%ADD17O,1.501600X1.501600*%
%ADD18RoundRect,0.050800X3.400000X-3.650000X3.400000X3.650000X-3.400000X3.650000X-3.400000X-3.650000X0*%
%ADD19RoundRect,0.050800X-2.000000X3.400000X-2.000000X-3.400000X2.000000X-3.400000X2.000000X3.400000X0*%
%ADD20RoundRect,0.050800X-3.400000X3.650000X-3.400000X-3.650000X3.400000X-3.650000X3.400000X3.650000X0*%
%ADD21RoundRect,0.050800X2.250000X-3.350000X2.250000X3.350000X-2.250000X3.350000X-2.250000X-3.350000X0*%
%ADD22RoundRect,0.050800X0.185000X-0.500000X0.185000X0.500000X-0.185000X0.500000X-0.185000X-0.500000X0*%
%ADD23RoundRect,0.050800X-0.185000X0.500000X-0.185000X-0.500000X0.185000X-0.500000X0.185000X0.500000X0*%
%ADD24RoundRect,0.050800X-0.225000X-0.200000X0.225000X-0.200000X0.225000X0.200000X-0.225000X0.200000X0*%
%ADD25RoundRect,0.050800X-0.225000X-0.250000X0.225000X-0.250000X0.225000X0.250000X-0.225000X0.250000X0*%
%ADD26RoundRect,0.185800X0.185000X-0.135000X0.185000X0.135000X-0.185000X0.135000X-0.185000X-0.135000X0*%
%ADD27RoundRect,0.185800X-0.135000X-0.185000X0.135000X-0.185000X0.135000X0.185000X-0.135000X0.185000X0*%
G04 APERTURE END LIST*
%TO.C,P201*%
D10*
X124722220Y-49004353D02*
X71922220Y-49004353D01*
X71922220Y-44804353D01*
X124722220Y-44804353D01*
X124722220Y-49004353D01*
G36*
X124722220Y-49004353D02*
G01*
X71922220Y-49004353D01*
X71922220Y-44804353D01*
X124722220Y-44804353D01*
X124722220Y-49004353D01*
G37*
%TD*%
D11*
%TO.C,J103*%
X121273300Y-68450100D03*
X137273300Y-123650100D03*
D12*
X121273300Y-131980100D03*
%TD*%
D11*
%TO.C,J106*%
X116623100Y-123624700D03*
X100623100Y-68424700D03*
D12*
X116623100Y-60094700D03*
%TD*%
D13*
%TO.C,TP101*%
X55245000Y-74676000D03*
%TD*%
%TO.C,TP102*%
X55245000Y-78613000D03*
%TD*%
%TO.C,TP103*%
X55245000Y-82296000D03*
%TD*%
%TO.C,TP104*%
X55245000Y-70866000D03*
%TD*%
D14*
%TO.C,MH301*%
X62118400Y-53157200D03*
%TD*%
%TO.C,MH302*%
X135778400Y-53157200D03*
%TD*%
%TO.C,MH303*%
X138318400Y-138887200D03*
%TD*%
%TO.C,MH304*%
X58318400Y-138887200D03*
%TD*%
D15*
%TO.C,P201*%
X73122220Y-47404353D03*
X73922220Y-47404353D03*
X74722220Y-47404353D03*
X75522220Y-47404353D03*
X76322220Y-47404353D03*
X77122220Y-47404353D03*
X77922220Y-47404353D03*
X78722220Y-47404353D03*
X79522220Y-47404353D03*
X80322220Y-47404353D03*
X81122220Y-47404353D03*
X81922220Y-47404353D03*
X82722220Y-47404353D03*
X83522220Y-47404353D03*
X84322220Y-47404353D03*
X85122220Y-47404353D03*
X85922220Y-47404353D03*
X86722220Y-47404353D03*
X87522220Y-47404353D03*
X88322220Y-47404353D03*
X89122220Y-47404353D03*
X89922220Y-47404353D03*
X90722220Y-47404353D03*
X91522220Y-47404353D03*
X92322220Y-47404353D03*
X93122220Y-47404353D03*
X93922220Y-47404353D03*
X94722220Y-47404353D03*
X95522220Y-47404353D03*
X96322220Y-47404353D03*
X97122220Y-47404353D03*
X97922220Y-47404353D03*
X101922220Y-47404353D03*
X102722220Y-47404353D03*
X103522220Y-47404353D03*
X104322220Y-47404353D03*
X105122220Y-47404353D03*
X105922220Y-47404353D03*
X106722220Y-47404353D03*
X107522220Y-47404353D03*
X108322220Y-47404353D03*
X109122220Y-47404353D03*
X109922220Y-47404353D03*
X110722220Y-47404353D03*
X111522220Y-47404353D03*
X112322220Y-47404353D03*
X113122220Y-47404353D03*
X113922220Y-47404353D03*
X114722220Y-47404353D03*
X115522220Y-47404353D03*
X116322220Y-47404353D03*
X117122220Y-47404353D03*
X117922220Y-47404353D03*
X118722220Y-47404353D03*
X119522220Y-47404353D03*
X120322220Y-47404353D03*
X121122220Y-47404353D03*
X121922220Y-47404353D03*
X122722220Y-47404353D03*
X123522220Y-47404353D03*
%TD*%
D16*
%TO.C,TH1*%
X89739000Y-93599000D03*
D17*
X84659000Y-93599000D03*
%TD*%
D11*
%TO.C,J104*%
X79998300Y-123650100D03*
X95998300Y-68450100D03*
D12*
X79998300Y-60120100D03*
D18*
X87998300Y-136825100D03*
X87998300Y-55275100D03*
%TD*%
D11*
%TO.C,J101*%
X137273300Y-68424700D03*
X121273300Y-123624700D03*
D12*
X137273300Y-131954700D03*
D19*
X127873300Y-55499700D03*
D20*
X129273300Y-136799700D03*
%TD*%
D11*
%TO.C,J102*%
X116623100Y-68424700D03*
X100623100Y-123624700D03*
D12*
X116623100Y-131954700D03*
D20*
X108623100Y-55249700D03*
X108623100Y-136799700D03*
%TD*%
D11*
%TO.C,J105*%
X59348100Y-123650100D03*
X75348100Y-68450100D03*
D12*
X59348100Y-60120100D03*
D18*
X67348100Y-136825100D03*
D21*
X68273100Y-55575100D03*
%TD*%
D22*
%TO.C,D301*%
X62322181Y-43972480D03*
D23*
X60462181Y-43972480D03*
%TD*%
D22*
%TO.C,D302*%
X66122173Y-43972480D03*
D23*
X64262173Y-43972480D03*
%TD*%
D22*
%TO.C,D304*%
X69337991Y-43972480D03*
D23*
X67477991Y-43972480D03*
%TD*%
D24*
%TO.C,Q302*%
X65211000Y-45967600D03*
X65211000Y-45167600D03*
D25*
X66361000Y-45567600D03*
%TD*%
D24*
%TO.C,Q304*%
X68081200Y-45967600D03*
X68081200Y-45167600D03*
D25*
X69231200Y-45567600D03*
%TD*%
D26*
%TO.C,R302*%
X60198000Y-46179200D03*
X60198000Y-45159200D03*
%TD*%
%TO.C,R304*%
X64033400Y-46179200D03*
X64033400Y-45159200D03*
%TD*%
%TO.C,R308*%
X67030600Y-48135000D03*
X67030600Y-47115000D03*
%TD*%
D27*
%TO.C,R301*%
X61161200Y-47117000D03*
X62181200Y-47117000D03*
%TD*%
%TO.C,R303*%
X64971200Y-47117000D03*
X65991200Y-47117000D03*
%TD*%
%TO.C,R307*%
X68070000Y-47117000D03*
X69090000Y-47117000D03*
%TD*%
D24*
%TO.C,Q301*%
X61401000Y-45967600D03*
X61401000Y-45167600D03*
D25*
X62551000Y-45567600D03*
%TD*%
M02*
