%TF.GenerationSoftware,KiCad,Pcbnew,(5.1.10)-1*%
%TF.CreationDate,2021-11-16T14:43:47-05:00*%
%TF.ProjectId,batteryboard,62617474-6572-4796-926f-6172642e6b69,rev?*%
%TF.SameCoordinates,Original*%
%TF.FileFunction,Paste,Top*%
%TF.FilePolarity,Positive*%
%FSLAX46Y46*%
G04 Gerber Fmt 4.6, Leading zero omitted, Abs format (unit mm)*
G04 Created by KiCad (PCBNEW (5.1.10)-1) date 2021-11-16 14:43:47*
%MOMM*%
%LPD*%
G01*
G04 APERTURE LIST*
%ADD10R,6.800000X7.300000*%
%ADD11R,4.500000X6.800000*%
%ADD12R,0.500000X0.450000*%
%ADD13R,0.400000X0.450000*%
%ADD14R,0.370000X1.000000*%
%ADD15R,0.600000X1.000000*%
G04 APERTURE END LIST*
D10*
X108623100Y-136799700D03*
X108623100Y-55249700D03*
X129273300Y-136825100D03*
D11*
X128348300Y-55525100D03*
G36*
G01*
X60920600Y-45879600D02*
X60920600Y-45509600D01*
G75*
G02*
X61055600Y-45374600I135000J0D01*
G01*
X61325600Y-45374600D01*
G75*
G02*
X61460600Y-45509600I0J-135000D01*
G01*
X61460600Y-45879600D01*
G75*
G02*
X61325600Y-46014600I-135000J0D01*
G01*
X61055600Y-46014600D01*
G75*
G02*
X60920600Y-45879600I0J135000D01*
G01*
G37*
G36*
G01*
X59900600Y-45879600D02*
X59900600Y-45509600D01*
G75*
G02*
X60035600Y-45374600I135000J0D01*
G01*
X60305600Y-45374600D01*
G75*
G02*
X60440600Y-45509600I0J-135000D01*
G01*
X60440600Y-45879600D01*
G75*
G02*
X60305600Y-46014600I-135000J0D01*
G01*
X60035600Y-46014600D01*
G75*
G02*
X59900600Y-45879600I0J135000D01*
G01*
G37*
G36*
G01*
X62846800Y-45226000D02*
X62476800Y-45226000D01*
G75*
G02*
X62341800Y-45091000I0J135000D01*
G01*
X62341800Y-44821000D01*
G75*
G02*
X62476800Y-44686000I135000J0D01*
G01*
X62846800Y-44686000D01*
G75*
G02*
X62981800Y-44821000I0J-135000D01*
G01*
X62981800Y-45091000D01*
G75*
G02*
X62846800Y-45226000I-135000J0D01*
G01*
G37*
G36*
G01*
X62846800Y-46246000D02*
X62476800Y-46246000D01*
G75*
G02*
X62341800Y-46111000I0J135000D01*
G01*
X62341800Y-45841000D01*
G75*
G02*
X62476800Y-45706000I135000J0D01*
G01*
X62846800Y-45706000D01*
G75*
G02*
X62981800Y-45841000I0J-135000D01*
G01*
X62981800Y-46111000D01*
G75*
G02*
X62846800Y-46246000I-135000J0D01*
G01*
G37*
D12*
X60579000Y-43595600D03*
D13*
X60979000Y-44745600D03*
X60179000Y-44745600D03*
D14*
X63722178Y-43591480D03*
X61862178Y-43591480D03*
G36*
G01*
X54186000Y-138630000D02*
X54526000Y-138630000D01*
G75*
G02*
X54666000Y-138770000I0J-140000D01*
G01*
X54666000Y-139050000D01*
G75*
G02*
X54526000Y-139190000I-140000J0D01*
G01*
X54186000Y-139190000D01*
G75*
G02*
X54046000Y-139050000I0J140000D01*
G01*
X54046000Y-138770000D01*
G75*
G02*
X54186000Y-138630000I140000J0D01*
G01*
G37*
G36*
G01*
X54186000Y-137670000D02*
X54526000Y-137670000D01*
G75*
G02*
X54666000Y-137810000I0J-140000D01*
G01*
X54666000Y-138090000D01*
G75*
G02*
X54526000Y-138230000I-140000J0D01*
G01*
X54186000Y-138230000D01*
G75*
G02*
X54046000Y-138090000I0J140000D01*
G01*
X54046000Y-137810000D01*
G75*
G02*
X54186000Y-137670000I140000J0D01*
G01*
G37*
G36*
G01*
X141943000Y-138566500D02*
X142283000Y-138566500D01*
G75*
G02*
X142423000Y-138706500I0J-140000D01*
G01*
X142423000Y-138986500D01*
G75*
G02*
X142283000Y-139126500I-140000J0D01*
G01*
X141943000Y-139126500D01*
G75*
G02*
X141803000Y-138986500I0J140000D01*
G01*
X141803000Y-138706500D01*
G75*
G02*
X141943000Y-138566500I140000J0D01*
G01*
G37*
G36*
G01*
X141943000Y-137606500D02*
X142283000Y-137606500D01*
G75*
G02*
X142423000Y-137746500I0J-140000D01*
G01*
X142423000Y-138026500D01*
G75*
G02*
X142283000Y-138166500I-140000J0D01*
G01*
X141943000Y-138166500D01*
G75*
G02*
X141803000Y-138026500I0J140000D01*
G01*
X141803000Y-137746500D01*
G75*
G02*
X141943000Y-137606500I140000J0D01*
G01*
G37*
G36*
G01*
X140441500Y-53457500D02*
X140101500Y-53457500D01*
G75*
G02*
X139961500Y-53317500I0J140000D01*
G01*
X139961500Y-53037500D01*
G75*
G02*
X140101500Y-52897500I140000J0D01*
G01*
X140441500Y-52897500D01*
G75*
G02*
X140581500Y-53037500I0J-140000D01*
G01*
X140581500Y-53317500D01*
G75*
G02*
X140441500Y-53457500I-140000J0D01*
G01*
G37*
G36*
G01*
X140441500Y-54417500D02*
X140101500Y-54417500D01*
G75*
G02*
X139961500Y-54277500I0J140000D01*
G01*
X139961500Y-53997500D01*
G75*
G02*
X140101500Y-53857500I140000J0D01*
G01*
X140441500Y-53857500D01*
G75*
G02*
X140581500Y-53997500I0J-140000D01*
G01*
X140581500Y-54277500D01*
G75*
G02*
X140441500Y-54417500I-140000J0D01*
G01*
G37*
G36*
G01*
X58018500Y-53457500D02*
X57678500Y-53457500D01*
G75*
G02*
X57538500Y-53317500I0J140000D01*
G01*
X57538500Y-53037500D01*
G75*
G02*
X57678500Y-52897500I140000J0D01*
G01*
X58018500Y-52897500D01*
G75*
G02*
X58158500Y-53037500I0J-140000D01*
G01*
X58158500Y-53317500D01*
G75*
G02*
X58018500Y-53457500I-140000J0D01*
G01*
G37*
G36*
G01*
X58018500Y-54417500D02*
X57678500Y-54417500D01*
G75*
G02*
X57538500Y-54277500I0J140000D01*
G01*
X57538500Y-53997500D01*
G75*
G02*
X57678500Y-53857500I140000J0D01*
G01*
X58018500Y-53857500D01*
G75*
G02*
X58158500Y-53997500I0J-140000D01*
G01*
X58158500Y-54277500D01*
G75*
G02*
X58018500Y-54417500I-140000J0D01*
G01*
G37*
G36*
G01*
X81855500Y-69667000D02*
X82355500Y-69667000D01*
G75*
G02*
X82580500Y-69892000I0J-225000D01*
G01*
X82580500Y-70342000D01*
G75*
G02*
X82355500Y-70567000I-225000J0D01*
G01*
X81855500Y-70567000D01*
G75*
G02*
X81630500Y-70342000I0J225000D01*
G01*
X81630500Y-69892000D01*
G75*
G02*
X81855500Y-69667000I225000J0D01*
G01*
G37*
G36*
G01*
X81855500Y-68117000D02*
X82355500Y-68117000D01*
G75*
G02*
X82580500Y-68342000I0J-225000D01*
G01*
X82580500Y-68792000D01*
G75*
G02*
X82355500Y-69017000I-225000J0D01*
G01*
X81855500Y-69017000D01*
G75*
G02*
X81630500Y-68792000I0J225000D01*
G01*
X81630500Y-68342000D01*
G75*
G02*
X81855500Y-68117000I225000J0D01*
G01*
G37*
G36*
G01*
X94849500Y-83650500D02*
X94849500Y-83100500D01*
G75*
G02*
X95049500Y-82900500I200000J0D01*
G01*
X95449500Y-82900500D01*
G75*
G02*
X95649500Y-83100500I0J-200000D01*
G01*
X95649500Y-83650500D01*
G75*
G02*
X95449500Y-83850500I-200000J0D01*
G01*
X95049500Y-83850500D01*
G75*
G02*
X94849500Y-83650500I0J200000D01*
G01*
G37*
G36*
G01*
X93199500Y-83650500D02*
X93199500Y-83100500D01*
G75*
G02*
X93399500Y-82900500I200000J0D01*
G01*
X93799500Y-82900500D01*
G75*
G02*
X93999500Y-83100500I0J-200000D01*
G01*
X93999500Y-83650500D01*
G75*
G02*
X93799500Y-83850500I-200000J0D01*
G01*
X93399500Y-83850500D01*
G75*
G02*
X93199500Y-83650500I0J200000D01*
G01*
G37*
G36*
G01*
X93999500Y-78147500D02*
X93999500Y-78697500D01*
G75*
G02*
X93799500Y-78897500I-200000J0D01*
G01*
X93399500Y-78897500D01*
G75*
G02*
X93199500Y-78697500I0J200000D01*
G01*
X93199500Y-78147500D01*
G75*
G02*
X93399500Y-77947500I200000J0D01*
G01*
X93799500Y-77947500D01*
G75*
G02*
X93999500Y-78147500I0J-200000D01*
G01*
G37*
G36*
G01*
X95649500Y-78147500D02*
X95649500Y-78697500D01*
G75*
G02*
X95449500Y-78897500I-200000J0D01*
G01*
X95049500Y-78897500D01*
G75*
G02*
X94849500Y-78697500I0J200000D01*
G01*
X94849500Y-78147500D01*
G75*
G02*
X95049500Y-77947500I200000J0D01*
G01*
X95449500Y-77947500D01*
G75*
G02*
X95649500Y-78147500I0J-200000D01*
G01*
G37*
G36*
G01*
X92435000Y-74529500D02*
X92985000Y-74529500D01*
G75*
G02*
X93185000Y-74729500I0J-200000D01*
G01*
X93185000Y-75129500D01*
G75*
G02*
X92985000Y-75329500I-200000J0D01*
G01*
X92435000Y-75329500D01*
G75*
G02*
X92235000Y-75129500I0J200000D01*
G01*
X92235000Y-74729500D01*
G75*
G02*
X92435000Y-74529500I200000J0D01*
G01*
G37*
G36*
G01*
X92435000Y-72879500D02*
X92985000Y-72879500D01*
G75*
G02*
X93185000Y-73079500I0J-200000D01*
G01*
X93185000Y-73479500D01*
G75*
G02*
X92985000Y-73679500I-200000J0D01*
G01*
X92435000Y-73679500D01*
G75*
G02*
X92235000Y-73479500I0J200000D01*
G01*
X92235000Y-73079500D01*
G75*
G02*
X92435000Y-72879500I200000J0D01*
G01*
G37*
G36*
G01*
X84899000Y-67154999D02*
X84899000Y-70005001D01*
G75*
G02*
X84649001Y-70255000I-249999J0D01*
G01*
X83923999Y-70255000D01*
G75*
G02*
X83674000Y-70005001I0J249999D01*
G01*
X83674000Y-67154999D01*
G75*
G02*
X83923999Y-66905000I249999J0D01*
G01*
X84649001Y-66905000D01*
G75*
G02*
X84899000Y-67154999I0J-249999D01*
G01*
G37*
G36*
G01*
X90824000Y-67154999D02*
X90824000Y-70005001D01*
G75*
G02*
X90574001Y-70255000I-249999J0D01*
G01*
X89848999Y-70255000D01*
G75*
G02*
X89599000Y-70005001I0J249999D01*
G01*
X89599000Y-67154999D01*
G75*
G02*
X89848999Y-66905000I249999J0D01*
G01*
X90574001Y-66905000D01*
G75*
G02*
X90824000Y-67154999I0J-249999D01*
G01*
G37*
G36*
G01*
X82890500Y-83780500D02*
X82590500Y-83780500D01*
G75*
G02*
X82440500Y-83630500I0J150000D01*
G01*
X82440500Y-81980500D01*
G75*
G02*
X82590500Y-81830500I150000J0D01*
G01*
X82890500Y-81830500D01*
G75*
G02*
X83040500Y-81980500I0J-150000D01*
G01*
X83040500Y-83630500D01*
G75*
G02*
X82890500Y-83780500I-150000J0D01*
G01*
G37*
G36*
G01*
X84160500Y-83780500D02*
X83860500Y-83780500D01*
G75*
G02*
X83710500Y-83630500I0J150000D01*
G01*
X83710500Y-81980500D01*
G75*
G02*
X83860500Y-81830500I150000J0D01*
G01*
X84160500Y-81830500D01*
G75*
G02*
X84310500Y-81980500I0J-150000D01*
G01*
X84310500Y-83630500D01*
G75*
G02*
X84160500Y-83780500I-150000J0D01*
G01*
G37*
G36*
G01*
X85430500Y-83780500D02*
X85130500Y-83780500D01*
G75*
G02*
X84980500Y-83630500I0J150000D01*
G01*
X84980500Y-81980500D01*
G75*
G02*
X85130500Y-81830500I150000J0D01*
G01*
X85430500Y-81830500D01*
G75*
G02*
X85580500Y-81980500I0J-150000D01*
G01*
X85580500Y-83630500D01*
G75*
G02*
X85430500Y-83780500I-150000J0D01*
G01*
G37*
G36*
G01*
X86700500Y-83780500D02*
X86400500Y-83780500D01*
G75*
G02*
X86250500Y-83630500I0J150000D01*
G01*
X86250500Y-81980500D01*
G75*
G02*
X86400500Y-81830500I150000J0D01*
G01*
X86700500Y-81830500D01*
G75*
G02*
X86850500Y-81980500I0J-150000D01*
G01*
X86850500Y-83630500D01*
G75*
G02*
X86700500Y-83780500I-150000J0D01*
G01*
G37*
G36*
G01*
X86700500Y-88730500D02*
X86400500Y-88730500D01*
G75*
G02*
X86250500Y-88580500I0J150000D01*
G01*
X86250500Y-86930500D01*
G75*
G02*
X86400500Y-86780500I150000J0D01*
G01*
X86700500Y-86780500D01*
G75*
G02*
X86850500Y-86930500I0J-150000D01*
G01*
X86850500Y-88580500D01*
G75*
G02*
X86700500Y-88730500I-150000J0D01*
G01*
G37*
G36*
G01*
X85430500Y-88730500D02*
X85130500Y-88730500D01*
G75*
G02*
X84980500Y-88580500I0J150000D01*
G01*
X84980500Y-86930500D01*
G75*
G02*
X85130500Y-86780500I150000J0D01*
G01*
X85430500Y-86780500D01*
G75*
G02*
X85580500Y-86930500I0J-150000D01*
G01*
X85580500Y-88580500D01*
G75*
G02*
X85430500Y-88730500I-150000J0D01*
G01*
G37*
G36*
G01*
X84160500Y-88730500D02*
X83860500Y-88730500D01*
G75*
G02*
X83710500Y-88580500I0J150000D01*
G01*
X83710500Y-86930500D01*
G75*
G02*
X83860500Y-86780500I150000J0D01*
G01*
X84160500Y-86780500D01*
G75*
G02*
X84310500Y-86930500I0J-150000D01*
G01*
X84310500Y-88580500D01*
G75*
G02*
X84160500Y-88730500I-150000J0D01*
G01*
G37*
G36*
G01*
X82890500Y-88730500D02*
X82590500Y-88730500D01*
G75*
G02*
X82440500Y-88580500I0J150000D01*
G01*
X82440500Y-86930500D01*
G75*
G02*
X82590500Y-86780500I150000J0D01*
G01*
X82890500Y-86780500D01*
G75*
G02*
X83040500Y-86930500I0J-150000D01*
G01*
X83040500Y-88580500D01*
G75*
G02*
X82890500Y-88730500I-150000J0D01*
G01*
G37*
G36*
G01*
X86400500Y-77509500D02*
X86700500Y-77509500D01*
G75*
G02*
X86850500Y-77659500I0J-150000D01*
G01*
X86850500Y-79309500D01*
G75*
G02*
X86700500Y-79459500I-150000J0D01*
G01*
X86400500Y-79459500D01*
G75*
G02*
X86250500Y-79309500I0J150000D01*
G01*
X86250500Y-77659500D01*
G75*
G02*
X86400500Y-77509500I150000J0D01*
G01*
G37*
G36*
G01*
X85130500Y-77509500D02*
X85430500Y-77509500D01*
G75*
G02*
X85580500Y-77659500I0J-150000D01*
G01*
X85580500Y-79309500D01*
G75*
G02*
X85430500Y-79459500I-150000J0D01*
G01*
X85130500Y-79459500D01*
G75*
G02*
X84980500Y-79309500I0J150000D01*
G01*
X84980500Y-77659500D01*
G75*
G02*
X85130500Y-77509500I150000J0D01*
G01*
G37*
G36*
G01*
X83860500Y-77509500D02*
X84160500Y-77509500D01*
G75*
G02*
X84310500Y-77659500I0J-150000D01*
G01*
X84310500Y-79309500D01*
G75*
G02*
X84160500Y-79459500I-150000J0D01*
G01*
X83860500Y-79459500D01*
G75*
G02*
X83710500Y-79309500I0J150000D01*
G01*
X83710500Y-77659500D01*
G75*
G02*
X83860500Y-77509500I150000J0D01*
G01*
G37*
G36*
G01*
X82590500Y-77509500D02*
X82890500Y-77509500D01*
G75*
G02*
X83040500Y-77659500I0J-150000D01*
G01*
X83040500Y-79309500D01*
G75*
G02*
X82890500Y-79459500I-150000J0D01*
G01*
X82590500Y-79459500D01*
G75*
G02*
X82440500Y-79309500I0J150000D01*
G01*
X82440500Y-77659500D01*
G75*
G02*
X82590500Y-77509500I150000J0D01*
G01*
G37*
G36*
G01*
X82590500Y-72559500D02*
X82890500Y-72559500D01*
G75*
G02*
X83040500Y-72709500I0J-150000D01*
G01*
X83040500Y-74359500D01*
G75*
G02*
X82890500Y-74509500I-150000J0D01*
G01*
X82590500Y-74509500D01*
G75*
G02*
X82440500Y-74359500I0J150000D01*
G01*
X82440500Y-72709500D01*
G75*
G02*
X82590500Y-72559500I150000J0D01*
G01*
G37*
G36*
G01*
X83860500Y-72559500D02*
X84160500Y-72559500D01*
G75*
G02*
X84310500Y-72709500I0J-150000D01*
G01*
X84310500Y-74359500D01*
G75*
G02*
X84160500Y-74509500I-150000J0D01*
G01*
X83860500Y-74509500D01*
G75*
G02*
X83710500Y-74359500I0J150000D01*
G01*
X83710500Y-72709500D01*
G75*
G02*
X83860500Y-72559500I150000J0D01*
G01*
G37*
G36*
G01*
X85130500Y-72559500D02*
X85430500Y-72559500D01*
G75*
G02*
X85580500Y-72709500I0J-150000D01*
G01*
X85580500Y-74359500D01*
G75*
G02*
X85430500Y-74509500I-150000J0D01*
G01*
X85130500Y-74509500D01*
G75*
G02*
X84980500Y-74359500I0J150000D01*
G01*
X84980500Y-72709500D01*
G75*
G02*
X85130500Y-72559500I150000J0D01*
G01*
G37*
G36*
G01*
X86400500Y-72559500D02*
X86700500Y-72559500D01*
G75*
G02*
X86850500Y-72709500I0J-150000D01*
G01*
X86850500Y-74359500D01*
G75*
G02*
X86700500Y-74509500I-150000J0D01*
G01*
X86400500Y-74509500D01*
G75*
G02*
X86250500Y-74359500I0J150000D01*
G01*
X86250500Y-72709500D01*
G75*
G02*
X86400500Y-72559500I150000J0D01*
G01*
G37*
G36*
G01*
X94749500Y-81847500D02*
X94749500Y-81347500D01*
G75*
G02*
X94974500Y-81122500I225000J0D01*
G01*
X95424500Y-81122500D01*
G75*
G02*
X95649500Y-81347500I0J-225000D01*
G01*
X95649500Y-81847500D01*
G75*
G02*
X95424500Y-82072500I-225000J0D01*
G01*
X94974500Y-82072500D01*
G75*
G02*
X94749500Y-81847500I0J225000D01*
G01*
G37*
G36*
G01*
X93199500Y-81847500D02*
X93199500Y-81347500D01*
G75*
G02*
X93424500Y-81122500I225000J0D01*
G01*
X93874500Y-81122500D01*
G75*
G02*
X94099500Y-81347500I0J-225000D01*
G01*
X94099500Y-81847500D01*
G75*
G02*
X93874500Y-82072500I-225000J0D01*
G01*
X93424500Y-82072500D01*
G75*
G02*
X93199500Y-81847500I0J225000D01*
G01*
G37*
G36*
G01*
X91447500Y-78672500D02*
X91447500Y-78172500D01*
G75*
G02*
X91672500Y-77947500I225000J0D01*
G01*
X92122500Y-77947500D01*
G75*
G02*
X92347500Y-78172500I0J-225000D01*
G01*
X92347500Y-78672500D01*
G75*
G02*
X92122500Y-78897500I-225000J0D01*
G01*
X91672500Y-78897500D01*
G75*
G02*
X91447500Y-78672500I0J225000D01*
G01*
G37*
G36*
G01*
X89897500Y-78672500D02*
X89897500Y-78172500D01*
G75*
G02*
X90122500Y-77947500I225000J0D01*
G01*
X90572500Y-77947500D01*
G75*
G02*
X90797500Y-78172500I0J-225000D01*
G01*
X90797500Y-78672500D01*
G75*
G02*
X90572500Y-78897500I-225000J0D01*
G01*
X90122500Y-78897500D01*
G75*
G02*
X89897500Y-78672500I0J225000D01*
G01*
G37*
G36*
G01*
X91447500Y-76894500D02*
X91447500Y-76394500D01*
G75*
G02*
X91672500Y-76169500I225000J0D01*
G01*
X92122500Y-76169500D01*
G75*
G02*
X92347500Y-76394500I0J-225000D01*
G01*
X92347500Y-76894500D01*
G75*
G02*
X92122500Y-77119500I-225000J0D01*
G01*
X91672500Y-77119500D01*
G75*
G02*
X91447500Y-76894500I0J225000D01*
G01*
G37*
G36*
G01*
X89897500Y-76894500D02*
X89897500Y-76394500D01*
G75*
G02*
X90122500Y-76169500I225000J0D01*
G01*
X90572500Y-76169500D01*
G75*
G02*
X90797500Y-76394500I0J-225000D01*
G01*
X90797500Y-76894500D01*
G75*
G02*
X90572500Y-77119500I-225000J0D01*
G01*
X90122500Y-77119500D01*
G75*
G02*
X89897500Y-76894500I0J225000D01*
G01*
G37*
D15*
X90172500Y-80578500D03*
X91122500Y-80578500D03*
X92072500Y-80578500D03*
X92072500Y-83378500D03*
X91122500Y-83378500D03*
X90172500Y-83378500D03*
M02*
