%TF.GenerationSoftware,KiCad,Pcbnew,(5.1.10)-1*%
%TF.CreationDate,2021-11-16T14:43:47-05:00*%
%TF.ProjectId,batteryboard,62617474-6572-4796-926f-6172642e6b69,rev?*%
%TF.SameCoordinates,Original*%
%TF.FileFunction,Soldermask,Top*%
%TF.FilePolarity,Negative*%
%FSLAX46Y46*%
G04 Gerber Fmt 4.6, Leading zero omitted, Abs format (unit mm)*
G04 Created by KiCad (PCBNEW (5.1.10)-1) date 2021-11-16 14:43:47*
%MOMM*%
%LPD*%
G01*
G04 APERTURE LIST*
%ADD10C,0.175000*%
%ADD11C,0.100000*%
%ADD12C,3.551600*%
%ADD13C,1.671600*%
%ADD14C,5.181600*%
%ADD15C,2.101600*%
G04 APERTURE END LIST*
D10*
X67120333Y-75338166D02*
X67820333Y-75338166D01*
X67487000Y-75338166D02*
X67487000Y-75738166D01*
X67120333Y-75738166D02*
X67820333Y-75738166D01*
X67120333Y-76071500D02*
X67820333Y-76071500D01*
X67120333Y-76738166D02*
X67120333Y-76404833D01*
X67820333Y-76404833D01*
X67120333Y-77304833D02*
X67120333Y-76971500D01*
X67820333Y-76971500D01*
X67120333Y-77538166D02*
X67820333Y-77538166D01*
X67153666Y-77838166D02*
X67120333Y-77938166D01*
X67120333Y-78104833D01*
X67153666Y-78171500D01*
X67187000Y-78204833D01*
X67253666Y-78238166D01*
X67320333Y-78238166D01*
X67387000Y-78204833D01*
X67420333Y-78171500D01*
X67453666Y-78104833D01*
X67487000Y-77971500D01*
X67520333Y-77904833D01*
X67553666Y-77871500D01*
X67620333Y-77838166D01*
X67687000Y-77838166D01*
X67753666Y-77871500D01*
X67787000Y-77904833D01*
X67820333Y-77971500D01*
X67820333Y-78138166D01*
X67787000Y-78238166D01*
D11*
G36*
X124722220Y-49004353D02*
G01*
X71922220Y-49004353D01*
X71922220Y-44804353D01*
X124722220Y-44804353D01*
X124722220Y-49004353D01*
G37*
X124722220Y-49004353D02*
X71922220Y-49004353D01*
X71922220Y-44804353D01*
X124722220Y-44804353D01*
X124722220Y-49004353D01*
D12*
X116623100Y-68424700D03*
X100623100Y-123624700D03*
D13*
X116623100Y-131954700D03*
G36*
G01*
X112023100Y-140500500D02*
X105223100Y-140500500D01*
G75*
G02*
X105172300Y-140449700I0J50800D01*
G01*
X105172300Y-133149700D01*
G75*
G02*
X105223100Y-133098900I50800J0D01*
G01*
X112023100Y-133098900D01*
G75*
G02*
X112073900Y-133149700I0J-50800D01*
G01*
X112073900Y-140449700D01*
G75*
G02*
X112023100Y-140500500I-50800J0D01*
G01*
G37*
G36*
G01*
X112023100Y-58950500D02*
X105223100Y-58950500D01*
G75*
G02*
X105172300Y-58899700I0J50800D01*
G01*
X105172300Y-51599700D01*
G75*
G02*
X105223100Y-51548900I50800J0D01*
G01*
X112023100Y-51548900D01*
G75*
G02*
X112073900Y-51599700I0J-50800D01*
G01*
X112073900Y-58899700D01*
G75*
G02*
X112023100Y-58950500I-50800J0D01*
G01*
G37*
D12*
X116623100Y-123624700D03*
X100623100Y-68424700D03*
D13*
X116623100Y-60094700D03*
X137273300Y-131954700D03*
D12*
X121273300Y-123624700D03*
X137273300Y-68424700D03*
D13*
X121273300Y-131980100D03*
D12*
X137273300Y-123650100D03*
X121273300Y-68450100D03*
G36*
G01*
X125873300Y-133124300D02*
X132673300Y-133124300D01*
G75*
G02*
X132724100Y-133175100I0J-50800D01*
G01*
X132724100Y-140475100D01*
G75*
G02*
X132673300Y-140525900I-50800J0D01*
G01*
X125873300Y-140525900D01*
G75*
G02*
X125822500Y-140475100I0J50800D01*
G01*
X125822500Y-133175100D01*
G75*
G02*
X125873300Y-133124300I50800J0D01*
G01*
G37*
G36*
G01*
X126098300Y-52074300D02*
X130598300Y-52074300D01*
G75*
G02*
X130649100Y-52125100I0J-50800D01*
G01*
X130649100Y-58925100D01*
G75*
G02*
X130598300Y-58975900I-50800J0D01*
G01*
X126098300Y-58975900D01*
G75*
G02*
X126047500Y-58925100I0J50800D01*
G01*
X126047500Y-52125100D01*
G75*
G02*
X126098300Y-52074300I50800J0D01*
G01*
G37*
D13*
X59348100Y-60120100D03*
D12*
X75348100Y-68450100D03*
X59348100Y-123650100D03*
X79998300Y-123650100D03*
X95998300Y-68450100D03*
D13*
X79998300Y-60120100D03*
G36*
G01*
X60869800Y-45905000D02*
X60869800Y-45484200D01*
G75*
G02*
X61030200Y-45323800I160400J0D01*
G01*
X61351000Y-45323800D01*
G75*
G02*
X61511400Y-45484200I0J-160400D01*
G01*
X61511400Y-45905000D01*
G75*
G02*
X61351000Y-46065400I-160400J0D01*
G01*
X61030200Y-46065400D01*
G75*
G02*
X60869800Y-45905000I0J160400D01*
G01*
G37*
G36*
G01*
X59849800Y-45905000D02*
X59849800Y-45484200D01*
G75*
G02*
X60010200Y-45323800I160400J0D01*
G01*
X60331000Y-45323800D01*
G75*
G02*
X60491400Y-45484200I0J-160400D01*
G01*
X60491400Y-45905000D01*
G75*
G02*
X60331000Y-46065400I-160400J0D01*
G01*
X60010200Y-46065400D01*
G75*
G02*
X59849800Y-45905000I0J160400D01*
G01*
G37*
G36*
G01*
X62872200Y-45276800D02*
X62451400Y-45276800D01*
G75*
G02*
X62291000Y-45116400I0J160400D01*
G01*
X62291000Y-44795600D01*
G75*
G02*
X62451400Y-44635200I160400J0D01*
G01*
X62872200Y-44635200D01*
G75*
G02*
X63032600Y-44795600I0J-160400D01*
G01*
X63032600Y-45116400D01*
G75*
G02*
X62872200Y-45276800I-160400J0D01*
G01*
G37*
G36*
G01*
X62872200Y-46296800D02*
X62451400Y-46296800D01*
G75*
G02*
X62291000Y-46136400I0J160400D01*
G01*
X62291000Y-45815600D01*
G75*
G02*
X62451400Y-45655200I160400J0D01*
G01*
X62872200Y-45655200D01*
G75*
G02*
X63032600Y-45815600I0J-160400D01*
G01*
X63032600Y-46136400D01*
G75*
G02*
X62872200Y-46296800I-160400J0D01*
G01*
G37*
G36*
G01*
X60829000Y-43871400D02*
X60329000Y-43871400D01*
G75*
G02*
X60278200Y-43820600I0J50800D01*
G01*
X60278200Y-43370600D01*
G75*
G02*
X60329000Y-43319800I50800J0D01*
G01*
X60829000Y-43319800D01*
G75*
G02*
X60879800Y-43370600I0J-50800D01*
G01*
X60879800Y-43820600D01*
G75*
G02*
X60829000Y-43871400I-50800J0D01*
G01*
G37*
G36*
G01*
X61179000Y-45021400D02*
X60779000Y-45021400D01*
G75*
G02*
X60728200Y-44970600I0J50800D01*
G01*
X60728200Y-44520600D01*
G75*
G02*
X60779000Y-44469800I50800J0D01*
G01*
X61179000Y-44469800D01*
G75*
G02*
X61229800Y-44520600I0J-50800D01*
G01*
X61229800Y-44970600D01*
G75*
G02*
X61179000Y-45021400I-50800J0D01*
G01*
G37*
G36*
G01*
X60379000Y-45021400D02*
X59979000Y-45021400D01*
G75*
G02*
X59928200Y-44970600I0J50800D01*
G01*
X59928200Y-44520600D01*
G75*
G02*
X59979000Y-44469800I50800J0D01*
G01*
X60379000Y-44469800D01*
G75*
G02*
X60429800Y-44520600I0J-50800D01*
G01*
X60429800Y-44970600D01*
G75*
G02*
X60379000Y-45021400I-50800J0D01*
G01*
G37*
D11*
G36*
X123526974Y-44953639D02*
G01*
X123553799Y-44955138D01*
X123558738Y-44955657D01*
X123585289Y-44959768D01*
X123590148Y-44960766D01*
X123616172Y-44967447D01*
X123620916Y-44968915D01*
X123646163Y-44978105D01*
X123650737Y-44980028D01*
X123674967Y-44991637D01*
X123679333Y-44993998D01*
X123702314Y-45007916D01*
X123706428Y-45010690D01*
X123727942Y-45026784D01*
X123731767Y-45029949D01*
X123751607Y-45048066D01*
X123755103Y-45051587D01*
X123773081Y-45071553D01*
X123776219Y-45075400D01*
X123792162Y-45097025D01*
X123794908Y-45101157D01*
X123808666Y-45124235D01*
X123810997Y-45128620D01*
X123822436Y-45152931D01*
X123824326Y-45157517D01*
X123833339Y-45182827D01*
X123834774Y-45187579D01*
X123841274Y-45213649D01*
X123842238Y-45218518D01*
X123846163Y-45245097D01*
X123846647Y-45250037D01*
X123847959Y-45276872D01*
X123848020Y-45279353D01*
X123848020Y-48804353D01*
X123847044Y-48814264D01*
X123844153Y-48823793D01*
X123839459Y-48832576D01*
X123833141Y-48840274D01*
X123825443Y-48846592D01*
X123816660Y-48851286D01*
X123807131Y-48854177D01*
X123797220Y-48855153D01*
X123247220Y-48855153D01*
X123237309Y-48854177D01*
X123227780Y-48851286D01*
X123218997Y-48846592D01*
X123211299Y-48840274D01*
X123204981Y-48832576D01*
X123200287Y-48823793D01*
X123197396Y-48814264D01*
X123196420Y-48804353D01*
X123196420Y-45279353D01*
X123196421Y-45278996D01*
X123196448Y-45275156D01*
X123196547Y-45272323D01*
X123198234Y-45245509D01*
X123198787Y-45240578D01*
X123203082Y-45214056D01*
X123204115Y-45209199D01*
X123210979Y-45183223D01*
X123212479Y-45178494D01*
X123221844Y-45153312D01*
X123223799Y-45148749D01*
X123235577Y-45124601D01*
X123237968Y-45120253D01*
X123252046Y-45097369D01*
X123254850Y-45093274D01*
X123271094Y-45071873D01*
X123274285Y-45068070D01*
X123292540Y-45048357D01*
X123296085Y-45044885D01*
X123316176Y-45027047D01*
X123320045Y-45023937D01*
X123341781Y-45008145D01*
X123345934Y-45005427D01*
X123369108Y-44991831D01*
X123373505Y-44989532D01*
X123397894Y-44978262D01*
X123402498Y-44976402D01*
X123427871Y-44967567D01*
X123432630Y-44966167D01*
X123458744Y-44959849D01*
X123463620Y-44958918D01*
X123490226Y-44955179D01*
X123495169Y-44954730D01*
X123522013Y-44953605D01*
X123526974Y-44953639D01*
G37*
G36*
X122726974Y-44953639D02*
G01*
X122753799Y-44955138D01*
X122758738Y-44955657D01*
X122785289Y-44959768D01*
X122790148Y-44960766D01*
X122816172Y-44967447D01*
X122820916Y-44968915D01*
X122846163Y-44978105D01*
X122850737Y-44980028D01*
X122874967Y-44991637D01*
X122879333Y-44993998D01*
X122902314Y-45007916D01*
X122906428Y-45010690D01*
X122927942Y-45026784D01*
X122931767Y-45029949D01*
X122951607Y-45048066D01*
X122955103Y-45051587D01*
X122973081Y-45071553D01*
X122976219Y-45075400D01*
X122992162Y-45097025D01*
X122994908Y-45101157D01*
X123008666Y-45124235D01*
X123010997Y-45128620D01*
X123022436Y-45152931D01*
X123024326Y-45157517D01*
X123033339Y-45182827D01*
X123034774Y-45187579D01*
X123041274Y-45213649D01*
X123042238Y-45218518D01*
X123046163Y-45245097D01*
X123046647Y-45250037D01*
X123047959Y-45276872D01*
X123048020Y-45279353D01*
X123048020Y-48804353D01*
X123047044Y-48814264D01*
X123044153Y-48823793D01*
X123039459Y-48832576D01*
X123033141Y-48840274D01*
X123025443Y-48846592D01*
X123016660Y-48851286D01*
X123007131Y-48854177D01*
X122997220Y-48855153D01*
X122447220Y-48855153D01*
X122437309Y-48854177D01*
X122427780Y-48851286D01*
X122418997Y-48846592D01*
X122411299Y-48840274D01*
X122404981Y-48832576D01*
X122400287Y-48823793D01*
X122397396Y-48814264D01*
X122396420Y-48804353D01*
X122396420Y-45279353D01*
X122396421Y-45278996D01*
X122396448Y-45275156D01*
X122396547Y-45272323D01*
X122398234Y-45245509D01*
X122398787Y-45240578D01*
X122403082Y-45214056D01*
X122404115Y-45209199D01*
X122410979Y-45183223D01*
X122412479Y-45178494D01*
X122421844Y-45153312D01*
X122423799Y-45148749D01*
X122435577Y-45124601D01*
X122437968Y-45120253D01*
X122452046Y-45097369D01*
X122454850Y-45093274D01*
X122471094Y-45071873D01*
X122474285Y-45068070D01*
X122492540Y-45048357D01*
X122496085Y-45044885D01*
X122516176Y-45027047D01*
X122520045Y-45023937D01*
X122541781Y-45008145D01*
X122545934Y-45005427D01*
X122569108Y-44991831D01*
X122573505Y-44989532D01*
X122597894Y-44978262D01*
X122602498Y-44976402D01*
X122627871Y-44967567D01*
X122632630Y-44966167D01*
X122658744Y-44959849D01*
X122663620Y-44958918D01*
X122690226Y-44955179D01*
X122695169Y-44954730D01*
X122722013Y-44953605D01*
X122726974Y-44953639D01*
G37*
G36*
X121926974Y-44953639D02*
G01*
X121953799Y-44955138D01*
X121958738Y-44955657D01*
X121985289Y-44959768D01*
X121990148Y-44960766D01*
X122016172Y-44967447D01*
X122020916Y-44968915D01*
X122046163Y-44978105D01*
X122050737Y-44980028D01*
X122074967Y-44991637D01*
X122079333Y-44993998D01*
X122102314Y-45007916D01*
X122106428Y-45010690D01*
X122127942Y-45026784D01*
X122131767Y-45029949D01*
X122151607Y-45048066D01*
X122155103Y-45051587D01*
X122173081Y-45071553D01*
X122176219Y-45075400D01*
X122192162Y-45097025D01*
X122194908Y-45101157D01*
X122208666Y-45124235D01*
X122210997Y-45128620D01*
X122222436Y-45152931D01*
X122224326Y-45157517D01*
X122233339Y-45182827D01*
X122234774Y-45187579D01*
X122241274Y-45213649D01*
X122242238Y-45218518D01*
X122246163Y-45245097D01*
X122246647Y-45250037D01*
X122247959Y-45276872D01*
X122248020Y-45279353D01*
X122248020Y-48804353D01*
X122247044Y-48814264D01*
X122244153Y-48823793D01*
X122239459Y-48832576D01*
X122233141Y-48840274D01*
X122225443Y-48846592D01*
X122216660Y-48851286D01*
X122207131Y-48854177D01*
X122197220Y-48855153D01*
X121647220Y-48855153D01*
X121637309Y-48854177D01*
X121627780Y-48851286D01*
X121618997Y-48846592D01*
X121611299Y-48840274D01*
X121604981Y-48832576D01*
X121600287Y-48823793D01*
X121597396Y-48814264D01*
X121596420Y-48804353D01*
X121596420Y-45279353D01*
X121596421Y-45278996D01*
X121596448Y-45275156D01*
X121596547Y-45272323D01*
X121598234Y-45245509D01*
X121598787Y-45240578D01*
X121603082Y-45214056D01*
X121604115Y-45209199D01*
X121610979Y-45183223D01*
X121612479Y-45178494D01*
X121621844Y-45153312D01*
X121623799Y-45148749D01*
X121635577Y-45124601D01*
X121637968Y-45120253D01*
X121652046Y-45097369D01*
X121654850Y-45093274D01*
X121671094Y-45071873D01*
X121674285Y-45068070D01*
X121692540Y-45048357D01*
X121696085Y-45044885D01*
X121716176Y-45027047D01*
X121720045Y-45023937D01*
X121741781Y-45008145D01*
X121745934Y-45005427D01*
X121769108Y-44991831D01*
X121773505Y-44989532D01*
X121797894Y-44978262D01*
X121802498Y-44976402D01*
X121827871Y-44967567D01*
X121832630Y-44966167D01*
X121858744Y-44959849D01*
X121863620Y-44958918D01*
X121890226Y-44955179D01*
X121895169Y-44954730D01*
X121922013Y-44953605D01*
X121926974Y-44953639D01*
G37*
G36*
X121126974Y-44953639D02*
G01*
X121153799Y-44955138D01*
X121158738Y-44955657D01*
X121185289Y-44959768D01*
X121190148Y-44960766D01*
X121216172Y-44967447D01*
X121220916Y-44968915D01*
X121246163Y-44978105D01*
X121250737Y-44980028D01*
X121274967Y-44991637D01*
X121279333Y-44993998D01*
X121302314Y-45007916D01*
X121306428Y-45010690D01*
X121327942Y-45026784D01*
X121331767Y-45029949D01*
X121351607Y-45048066D01*
X121355103Y-45051587D01*
X121373081Y-45071553D01*
X121376219Y-45075400D01*
X121392162Y-45097025D01*
X121394908Y-45101157D01*
X121408666Y-45124235D01*
X121410997Y-45128620D01*
X121422436Y-45152931D01*
X121424326Y-45157517D01*
X121433339Y-45182827D01*
X121434774Y-45187579D01*
X121441274Y-45213649D01*
X121442238Y-45218518D01*
X121446163Y-45245097D01*
X121446647Y-45250037D01*
X121447959Y-45276872D01*
X121448020Y-45279353D01*
X121448020Y-48804353D01*
X121447044Y-48814264D01*
X121444153Y-48823793D01*
X121439459Y-48832576D01*
X121433141Y-48840274D01*
X121425443Y-48846592D01*
X121416660Y-48851286D01*
X121407131Y-48854177D01*
X121397220Y-48855153D01*
X120847220Y-48855153D01*
X120837309Y-48854177D01*
X120827780Y-48851286D01*
X120818997Y-48846592D01*
X120811299Y-48840274D01*
X120804981Y-48832576D01*
X120800287Y-48823793D01*
X120797396Y-48814264D01*
X120796420Y-48804353D01*
X120796420Y-45279353D01*
X120796421Y-45278996D01*
X120796448Y-45275156D01*
X120796547Y-45272323D01*
X120798234Y-45245509D01*
X120798787Y-45240578D01*
X120803082Y-45214056D01*
X120804115Y-45209199D01*
X120810979Y-45183223D01*
X120812479Y-45178494D01*
X120821844Y-45153312D01*
X120823799Y-45148749D01*
X120835577Y-45124601D01*
X120837968Y-45120253D01*
X120852046Y-45097369D01*
X120854850Y-45093274D01*
X120871094Y-45071873D01*
X120874285Y-45068070D01*
X120892540Y-45048357D01*
X120896085Y-45044885D01*
X120916176Y-45027047D01*
X120920045Y-45023937D01*
X120941781Y-45008145D01*
X120945934Y-45005427D01*
X120969108Y-44991831D01*
X120973505Y-44989532D01*
X120997894Y-44978262D01*
X121002498Y-44976402D01*
X121027871Y-44967567D01*
X121032630Y-44966167D01*
X121058744Y-44959849D01*
X121063620Y-44958918D01*
X121090226Y-44955179D01*
X121095169Y-44954730D01*
X121122013Y-44953605D01*
X121126974Y-44953639D01*
G37*
G36*
X120326974Y-44953639D02*
G01*
X120353799Y-44955138D01*
X120358738Y-44955657D01*
X120385289Y-44959768D01*
X120390148Y-44960766D01*
X120416172Y-44967447D01*
X120420916Y-44968915D01*
X120446163Y-44978105D01*
X120450737Y-44980028D01*
X120474967Y-44991637D01*
X120479333Y-44993998D01*
X120502314Y-45007916D01*
X120506428Y-45010690D01*
X120527942Y-45026784D01*
X120531767Y-45029949D01*
X120551607Y-45048066D01*
X120555103Y-45051587D01*
X120573081Y-45071553D01*
X120576219Y-45075400D01*
X120592162Y-45097025D01*
X120594908Y-45101157D01*
X120608666Y-45124235D01*
X120610997Y-45128620D01*
X120622436Y-45152931D01*
X120624326Y-45157517D01*
X120633339Y-45182827D01*
X120634774Y-45187579D01*
X120641274Y-45213649D01*
X120642238Y-45218518D01*
X120646163Y-45245097D01*
X120646647Y-45250037D01*
X120647959Y-45276872D01*
X120648020Y-45279353D01*
X120648020Y-48804353D01*
X120647044Y-48814264D01*
X120644153Y-48823793D01*
X120639459Y-48832576D01*
X120633141Y-48840274D01*
X120625443Y-48846592D01*
X120616660Y-48851286D01*
X120607131Y-48854177D01*
X120597220Y-48855153D01*
X120047220Y-48855153D01*
X120037309Y-48854177D01*
X120027780Y-48851286D01*
X120018997Y-48846592D01*
X120011299Y-48840274D01*
X120004981Y-48832576D01*
X120000287Y-48823793D01*
X119997396Y-48814264D01*
X119996420Y-48804353D01*
X119996420Y-45279353D01*
X119996421Y-45278996D01*
X119996448Y-45275156D01*
X119996547Y-45272323D01*
X119998234Y-45245509D01*
X119998787Y-45240578D01*
X120003082Y-45214056D01*
X120004115Y-45209199D01*
X120010979Y-45183223D01*
X120012479Y-45178494D01*
X120021844Y-45153312D01*
X120023799Y-45148749D01*
X120035577Y-45124601D01*
X120037968Y-45120253D01*
X120052046Y-45097369D01*
X120054850Y-45093274D01*
X120071094Y-45071873D01*
X120074285Y-45068070D01*
X120092540Y-45048357D01*
X120096085Y-45044885D01*
X120116176Y-45027047D01*
X120120045Y-45023937D01*
X120141781Y-45008145D01*
X120145934Y-45005427D01*
X120169108Y-44991831D01*
X120173505Y-44989532D01*
X120197894Y-44978262D01*
X120202498Y-44976402D01*
X120227871Y-44967567D01*
X120232630Y-44966167D01*
X120258744Y-44959849D01*
X120263620Y-44958918D01*
X120290226Y-44955179D01*
X120295169Y-44954730D01*
X120322013Y-44953605D01*
X120326974Y-44953639D01*
G37*
G36*
X119526974Y-44953639D02*
G01*
X119553799Y-44955138D01*
X119558738Y-44955657D01*
X119585289Y-44959768D01*
X119590148Y-44960766D01*
X119616172Y-44967447D01*
X119620916Y-44968915D01*
X119646163Y-44978105D01*
X119650737Y-44980028D01*
X119674967Y-44991637D01*
X119679333Y-44993998D01*
X119702314Y-45007916D01*
X119706428Y-45010690D01*
X119727942Y-45026784D01*
X119731767Y-45029949D01*
X119751607Y-45048066D01*
X119755103Y-45051587D01*
X119773081Y-45071553D01*
X119776219Y-45075400D01*
X119792162Y-45097025D01*
X119794908Y-45101157D01*
X119808666Y-45124235D01*
X119810997Y-45128620D01*
X119822436Y-45152931D01*
X119824326Y-45157517D01*
X119833339Y-45182827D01*
X119834774Y-45187579D01*
X119841274Y-45213649D01*
X119842238Y-45218518D01*
X119846163Y-45245097D01*
X119846647Y-45250037D01*
X119847959Y-45276872D01*
X119848020Y-45279353D01*
X119848020Y-48804353D01*
X119847044Y-48814264D01*
X119844153Y-48823793D01*
X119839459Y-48832576D01*
X119833141Y-48840274D01*
X119825443Y-48846592D01*
X119816660Y-48851286D01*
X119807131Y-48854177D01*
X119797220Y-48855153D01*
X119247220Y-48855153D01*
X119237309Y-48854177D01*
X119227780Y-48851286D01*
X119218997Y-48846592D01*
X119211299Y-48840274D01*
X119204981Y-48832576D01*
X119200287Y-48823793D01*
X119197396Y-48814264D01*
X119196420Y-48804353D01*
X119196420Y-45279353D01*
X119196421Y-45278996D01*
X119196448Y-45275156D01*
X119196547Y-45272323D01*
X119198234Y-45245509D01*
X119198787Y-45240578D01*
X119203082Y-45214056D01*
X119204115Y-45209199D01*
X119210979Y-45183223D01*
X119212479Y-45178494D01*
X119221844Y-45153312D01*
X119223799Y-45148749D01*
X119235577Y-45124601D01*
X119237968Y-45120253D01*
X119252046Y-45097369D01*
X119254850Y-45093274D01*
X119271094Y-45071873D01*
X119274285Y-45068070D01*
X119292540Y-45048357D01*
X119296085Y-45044885D01*
X119316176Y-45027047D01*
X119320045Y-45023937D01*
X119341781Y-45008145D01*
X119345934Y-45005427D01*
X119369108Y-44991831D01*
X119373505Y-44989532D01*
X119397894Y-44978262D01*
X119402498Y-44976402D01*
X119427871Y-44967567D01*
X119432630Y-44966167D01*
X119458744Y-44959849D01*
X119463620Y-44958918D01*
X119490226Y-44955179D01*
X119495169Y-44954730D01*
X119522013Y-44953605D01*
X119526974Y-44953639D01*
G37*
G36*
X118726974Y-44953639D02*
G01*
X118753799Y-44955138D01*
X118758738Y-44955657D01*
X118785289Y-44959768D01*
X118790148Y-44960766D01*
X118816172Y-44967447D01*
X118820916Y-44968915D01*
X118846163Y-44978105D01*
X118850737Y-44980028D01*
X118874967Y-44991637D01*
X118879333Y-44993998D01*
X118902314Y-45007916D01*
X118906428Y-45010690D01*
X118927942Y-45026784D01*
X118931767Y-45029949D01*
X118951607Y-45048066D01*
X118955103Y-45051587D01*
X118973081Y-45071553D01*
X118976219Y-45075400D01*
X118992162Y-45097025D01*
X118994908Y-45101157D01*
X119008666Y-45124235D01*
X119010997Y-45128620D01*
X119022436Y-45152931D01*
X119024326Y-45157517D01*
X119033339Y-45182827D01*
X119034774Y-45187579D01*
X119041274Y-45213649D01*
X119042238Y-45218518D01*
X119046163Y-45245097D01*
X119046647Y-45250037D01*
X119047959Y-45276872D01*
X119048020Y-45279353D01*
X119048020Y-48804353D01*
X119047044Y-48814264D01*
X119044153Y-48823793D01*
X119039459Y-48832576D01*
X119033141Y-48840274D01*
X119025443Y-48846592D01*
X119016660Y-48851286D01*
X119007131Y-48854177D01*
X118997220Y-48855153D01*
X118447220Y-48855153D01*
X118437309Y-48854177D01*
X118427780Y-48851286D01*
X118418997Y-48846592D01*
X118411299Y-48840274D01*
X118404981Y-48832576D01*
X118400287Y-48823793D01*
X118397396Y-48814264D01*
X118396420Y-48804353D01*
X118396420Y-45279353D01*
X118396421Y-45278996D01*
X118396448Y-45275156D01*
X118396547Y-45272323D01*
X118398234Y-45245509D01*
X118398787Y-45240578D01*
X118403082Y-45214056D01*
X118404115Y-45209199D01*
X118410979Y-45183223D01*
X118412479Y-45178494D01*
X118421844Y-45153312D01*
X118423799Y-45148749D01*
X118435577Y-45124601D01*
X118437968Y-45120253D01*
X118452046Y-45097369D01*
X118454850Y-45093274D01*
X118471094Y-45071873D01*
X118474285Y-45068070D01*
X118492540Y-45048357D01*
X118496085Y-45044885D01*
X118516176Y-45027047D01*
X118520045Y-45023937D01*
X118541781Y-45008145D01*
X118545934Y-45005427D01*
X118569108Y-44991831D01*
X118573505Y-44989532D01*
X118597894Y-44978262D01*
X118602498Y-44976402D01*
X118627871Y-44967567D01*
X118632630Y-44966167D01*
X118658744Y-44959849D01*
X118663620Y-44958918D01*
X118690226Y-44955179D01*
X118695169Y-44954730D01*
X118722013Y-44953605D01*
X118726974Y-44953639D01*
G37*
G36*
X117926974Y-44953639D02*
G01*
X117953799Y-44955138D01*
X117958738Y-44955657D01*
X117985289Y-44959768D01*
X117990148Y-44960766D01*
X118016172Y-44967447D01*
X118020916Y-44968915D01*
X118046163Y-44978105D01*
X118050737Y-44980028D01*
X118074967Y-44991637D01*
X118079333Y-44993998D01*
X118102314Y-45007916D01*
X118106428Y-45010690D01*
X118127942Y-45026784D01*
X118131767Y-45029949D01*
X118151607Y-45048066D01*
X118155103Y-45051587D01*
X118173081Y-45071553D01*
X118176219Y-45075400D01*
X118192162Y-45097025D01*
X118194908Y-45101157D01*
X118208666Y-45124235D01*
X118210997Y-45128620D01*
X118222436Y-45152931D01*
X118224326Y-45157517D01*
X118233339Y-45182827D01*
X118234774Y-45187579D01*
X118241274Y-45213649D01*
X118242238Y-45218518D01*
X118246163Y-45245097D01*
X118246647Y-45250037D01*
X118247959Y-45276872D01*
X118248020Y-45279353D01*
X118248020Y-48804353D01*
X118247044Y-48814264D01*
X118244153Y-48823793D01*
X118239459Y-48832576D01*
X118233141Y-48840274D01*
X118225443Y-48846592D01*
X118216660Y-48851286D01*
X118207131Y-48854177D01*
X118197220Y-48855153D01*
X117647220Y-48855153D01*
X117637309Y-48854177D01*
X117627780Y-48851286D01*
X117618997Y-48846592D01*
X117611299Y-48840274D01*
X117604981Y-48832576D01*
X117600287Y-48823793D01*
X117597396Y-48814264D01*
X117596420Y-48804353D01*
X117596420Y-45279353D01*
X117596421Y-45278996D01*
X117596448Y-45275156D01*
X117596547Y-45272323D01*
X117598234Y-45245509D01*
X117598787Y-45240578D01*
X117603082Y-45214056D01*
X117604115Y-45209199D01*
X117610979Y-45183223D01*
X117612479Y-45178494D01*
X117621844Y-45153312D01*
X117623799Y-45148749D01*
X117635577Y-45124601D01*
X117637968Y-45120253D01*
X117652046Y-45097369D01*
X117654850Y-45093274D01*
X117671094Y-45071873D01*
X117674285Y-45068070D01*
X117692540Y-45048357D01*
X117696085Y-45044885D01*
X117716176Y-45027047D01*
X117720045Y-45023937D01*
X117741781Y-45008145D01*
X117745934Y-45005427D01*
X117769108Y-44991831D01*
X117773505Y-44989532D01*
X117797894Y-44978262D01*
X117802498Y-44976402D01*
X117827871Y-44967567D01*
X117832630Y-44966167D01*
X117858744Y-44959849D01*
X117863620Y-44958918D01*
X117890226Y-44955179D01*
X117895169Y-44954730D01*
X117922013Y-44953605D01*
X117926974Y-44953639D01*
G37*
G36*
X117126974Y-44953639D02*
G01*
X117153799Y-44955138D01*
X117158738Y-44955657D01*
X117185289Y-44959768D01*
X117190148Y-44960766D01*
X117216172Y-44967447D01*
X117220916Y-44968915D01*
X117246163Y-44978105D01*
X117250737Y-44980028D01*
X117274967Y-44991637D01*
X117279333Y-44993998D01*
X117302314Y-45007916D01*
X117306428Y-45010690D01*
X117327942Y-45026784D01*
X117331767Y-45029949D01*
X117351607Y-45048066D01*
X117355103Y-45051587D01*
X117373081Y-45071553D01*
X117376219Y-45075400D01*
X117392162Y-45097025D01*
X117394908Y-45101157D01*
X117408666Y-45124235D01*
X117410997Y-45128620D01*
X117422436Y-45152931D01*
X117424326Y-45157517D01*
X117433339Y-45182827D01*
X117434774Y-45187579D01*
X117441274Y-45213649D01*
X117442238Y-45218518D01*
X117446163Y-45245097D01*
X117446647Y-45250037D01*
X117447959Y-45276872D01*
X117448020Y-45279353D01*
X117448020Y-48804353D01*
X117447044Y-48814264D01*
X117444153Y-48823793D01*
X117439459Y-48832576D01*
X117433141Y-48840274D01*
X117425443Y-48846592D01*
X117416660Y-48851286D01*
X117407131Y-48854177D01*
X117397220Y-48855153D01*
X116847220Y-48855153D01*
X116837309Y-48854177D01*
X116827780Y-48851286D01*
X116818997Y-48846592D01*
X116811299Y-48840274D01*
X116804981Y-48832576D01*
X116800287Y-48823793D01*
X116797396Y-48814264D01*
X116796420Y-48804353D01*
X116796420Y-45279353D01*
X116796421Y-45278996D01*
X116796448Y-45275156D01*
X116796547Y-45272323D01*
X116798234Y-45245509D01*
X116798787Y-45240578D01*
X116803082Y-45214056D01*
X116804115Y-45209199D01*
X116810979Y-45183223D01*
X116812479Y-45178494D01*
X116821844Y-45153312D01*
X116823799Y-45148749D01*
X116835577Y-45124601D01*
X116837968Y-45120253D01*
X116852046Y-45097369D01*
X116854850Y-45093274D01*
X116871094Y-45071873D01*
X116874285Y-45068070D01*
X116892540Y-45048357D01*
X116896085Y-45044885D01*
X116916176Y-45027047D01*
X116920045Y-45023937D01*
X116941781Y-45008145D01*
X116945934Y-45005427D01*
X116969108Y-44991831D01*
X116973505Y-44989532D01*
X116997894Y-44978262D01*
X117002498Y-44976402D01*
X117027871Y-44967567D01*
X117032630Y-44966167D01*
X117058744Y-44959849D01*
X117063620Y-44958918D01*
X117090226Y-44955179D01*
X117095169Y-44954730D01*
X117122013Y-44953605D01*
X117126974Y-44953639D01*
G37*
G36*
X116326974Y-44953639D02*
G01*
X116353799Y-44955138D01*
X116358738Y-44955657D01*
X116385289Y-44959768D01*
X116390148Y-44960766D01*
X116416172Y-44967447D01*
X116420916Y-44968915D01*
X116446163Y-44978105D01*
X116450737Y-44980028D01*
X116474967Y-44991637D01*
X116479333Y-44993998D01*
X116502314Y-45007916D01*
X116506428Y-45010690D01*
X116527942Y-45026784D01*
X116531767Y-45029949D01*
X116551607Y-45048066D01*
X116555103Y-45051587D01*
X116573081Y-45071553D01*
X116576219Y-45075400D01*
X116592162Y-45097025D01*
X116594908Y-45101157D01*
X116608666Y-45124235D01*
X116610997Y-45128620D01*
X116622436Y-45152931D01*
X116624326Y-45157517D01*
X116633339Y-45182827D01*
X116634774Y-45187579D01*
X116641274Y-45213649D01*
X116642238Y-45218518D01*
X116646163Y-45245097D01*
X116646647Y-45250037D01*
X116647959Y-45276872D01*
X116648020Y-45279353D01*
X116648020Y-48804353D01*
X116647044Y-48814264D01*
X116644153Y-48823793D01*
X116639459Y-48832576D01*
X116633141Y-48840274D01*
X116625443Y-48846592D01*
X116616660Y-48851286D01*
X116607131Y-48854177D01*
X116597220Y-48855153D01*
X116047220Y-48855153D01*
X116037309Y-48854177D01*
X116027780Y-48851286D01*
X116018997Y-48846592D01*
X116011299Y-48840274D01*
X116004981Y-48832576D01*
X116000287Y-48823793D01*
X115997396Y-48814264D01*
X115996420Y-48804353D01*
X115996420Y-45279353D01*
X115996421Y-45278996D01*
X115996448Y-45275156D01*
X115996547Y-45272323D01*
X115998234Y-45245509D01*
X115998787Y-45240578D01*
X116003082Y-45214056D01*
X116004115Y-45209199D01*
X116010979Y-45183223D01*
X116012479Y-45178494D01*
X116021844Y-45153312D01*
X116023799Y-45148749D01*
X116035577Y-45124601D01*
X116037968Y-45120253D01*
X116052046Y-45097369D01*
X116054850Y-45093274D01*
X116071094Y-45071873D01*
X116074285Y-45068070D01*
X116092540Y-45048357D01*
X116096085Y-45044885D01*
X116116176Y-45027047D01*
X116120045Y-45023937D01*
X116141781Y-45008145D01*
X116145934Y-45005427D01*
X116169108Y-44991831D01*
X116173505Y-44989532D01*
X116197894Y-44978262D01*
X116202498Y-44976402D01*
X116227871Y-44967567D01*
X116232630Y-44966167D01*
X116258744Y-44959849D01*
X116263620Y-44958918D01*
X116290226Y-44955179D01*
X116295169Y-44954730D01*
X116322013Y-44953605D01*
X116326974Y-44953639D01*
G37*
G36*
X115526974Y-44953639D02*
G01*
X115553799Y-44955138D01*
X115558738Y-44955657D01*
X115585289Y-44959768D01*
X115590148Y-44960766D01*
X115616172Y-44967447D01*
X115620916Y-44968915D01*
X115646163Y-44978105D01*
X115650737Y-44980028D01*
X115674967Y-44991637D01*
X115679333Y-44993998D01*
X115702314Y-45007916D01*
X115706428Y-45010690D01*
X115727942Y-45026784D01*
X115731767Y-45029949D01*
X115751607Y-45048066D01*
X115755103Y-45051587D01*
X115773081Y-45071553D01*
X115776219Y-45075400D01*
X115792162Y-45097025D01*
X115794908Y-45101157D01*
X115808666Y-45124235D01*
X115810997Y-45128620D01*
X115822436Y-45152931D01*
X115824326Y-45157517D01*
X115833339Y-45182827D01*
X115834774Y-45187579D01*
X115841274Y-45213649D01*
X115842238Y-45218518D01*
X115846163Y-45245097D01*
X115846647Y-45250037D01*
X115847959Y-45276872D01*
X115848020Y-45279353D01*
X115848020Y-48804353D01*
X115847044Y-48814264D01*
X115844153Y-48823793D01*
X115839459Y-48832576D01*
X115833141Y-48840274D01*
X115825443Y-48846592D01*
X115816660Y-48851286D01*
X115807131Y-48854177D01*
X115797220Y-48855153D01*
X115247220Y-48855153D01*
X115237309Y-48854177D01*
X115227780Y-48851286D01*
X115218997Y-48846592D01*
X115211299Y-48840274D01*
X115204981Y-48832576D01*
X115200287Y-48823793D01*
X115197396Y-48814264D01*
X115196420Y-48804353D01*
X115196420Y-45279353D01*
X115196421Y-45278996D01*
X115196448Y-45275156D01*
X115196547Y-45272323D01*
X115198234Y-45245509D01*
X115198787Y-45240578D01*
X115203082Y-45214056D01*
X115204115Y-45209199D01*
X115210979Y-45183223D01*
X115212479Y-45178494D01*
X115221844Y-45153312D01*
X115223799Y-45148749D01*
X115235577Y-45124601D01*
X115237968Y-45120253D01*
X115252046Y-45097369D01*
X115254850Y-45093274D01*
X115271094Y-45071873D01*
X115274285Y-45068070D01*
X115292540Y-45048357D01*
X115296085Y-45044885D01*
X115316176Y-45027047D01*
X115320045Y-45023937D01*
X115341781Y-45008145D01*
X115345934Y-45005427D01*
X115369108Y-44991831D01*
X115373505Y-44989532D01*
X115397894Y-44978262D01*
X115402498Y-44976402D01*
X115427871Y-44967567D01*
X115432630Y-44966167D01*
X115458744Y-44959849D01*
X115463620Y-44958918D01*
X115490226Y-44955179D01*
X115495169Y-44954730D01*
X115522013Y-44953605D01*
X115526974Y-44953639D01*
G37*
G36*
X114726974Y-44953639D02*
G01*
X114753799Y-44955138D01*
X114758738Y-44955657D01*
X114785289Y-44959768D01*
X114790148Y-44960766D01*
X114816172Y-44967447D01*
X114820916Y-44968915D01*
X114846163Y-44978105D01*
X114850737Y-44980028D01*
X114874967Y-44991637D01*
X114879333Y-44993998D01*
X114902314Y-45007916D01*
X114906428Y-45010690D01*
X114927942Y-45026784D01*
X114931767Y-45029949D01*
X114951607Y-45048066D01*
X114955103Y-45051587D01*
X114973081Y-45071553D01*
X114976219Y-45075400D01*
X114992162Y-45097025D01*
X114994908Y-45101157D01*
X115008666Y-45124235D01*
X115010997Y-45128620D01*
X115022436Y-45152931D01*
X115024326Y-45157517D01*
X115033339Y-45182827D01*
X115034774Y-45187579D01*
X115041274Y-45213649D01*
X115042238Y-45218518D01*
X115046163Y-45245097D01*
X115046647Y-45250037D01*
X115047959Y-45276872D01*
X115048020Y-45279353D01*
X115048020Y-48804353D01*
X115047044Y-48814264D01*
X115044153Y-48823793D01*
X115039459Y-48832576D01*
X115033141Y-48840274D01*
X115025443Y-48846592D01*
X115016660Y-48851286D01*
X115007131Y-48854177D01*
X114997220Y-48855153D01*
X114447220Y-48855153D01*
X114437309Y-48854177D01*
X114427780Y-48851286D01*
X114418997Y-48846592D01*
X114411299Y-48840274D01*
X114404981Y-48832576D01*
X114400287Y-48823793D01*
X114397396Y-48814264D01*
X114396420Y-48804353D01*
X114396420Y-45279353D01*
X114396421Y-45278996D01*
X114396448Y-45275156D01*
X114396547Y-45272323D01*
X114398234Y-45245509D01*
X114398787Y-45240578D01*
X114403082Y-45214056D01*
X114404115Y-45209199D01*
X114410979Y-45183223D01*
X114412479Y-45178494D01*
X114421844Y-45153312D01*
X114423799Y-45148749D01*
X114435577Y-45124601D01*
X114437968Y-45120253D01*
X114452046Y-45097369D01*
X114454850Y-45093274D01*
X114471094Y-45071873D01*
X114474285Y-45068070D01*
X114492540Y-45048357D01*
X114496085Y-45044885D01*
X114516176Y-45027047D01*
X114520045Y-45023937D01*
X114541781Y-45008145D01*
X114545934Y-45005427D01*
X114569108Y-44991831D01*
X114573505Y-44989532D01*
X114597894Y-44978262D01*
X114602498Y-44976402D01*
X114627871Y-44967567D01*
X114632630Y-44966167D01*
X114658744Y-44959849D01*
X114663620Y-44958918D01*
X114690226Y-44955179D01*
X114695169Y-44954730D01*
X114722013Y-44953605D01*
X114726974Y-44953639D01*
G37*
G36*
X113926974Y-44953639D02*
G01*
X113953799Y-44955138D01*
X113958738Y-44955657D01*
X113985289Y-44959768D01*
X113990148Y-44960766D01*
X114016172Y-44967447D01*
X114020916Y-44968915D01*
X114046163Y-44978105D01*
X114050737Y-44980028D01*
X114074967Y-44991637D01*
X114079333Y-44993998D01*
X114102314Y-45007916D01*
X114106428Y-45010690D01*
X114127942Y-45026784D01*
X114131767Y-45029949D01*
X114151607Y-45048066D01*
X114155103Y-45051587D01*
X114173081Y-45071553D01*
X114176219Y-45075400D01*
X114192162Y-45097025D01*
X114194908Y-45101157D01*
X114208666Y-45124235D01*
X114210997Y-45128620D01*
X114222436Y-45152931D01*
X114224326Y-45157517D01*
X114233339Y-45182827D01*
X114234774Y-45187579D01*
X114241274Y-45213649D01*
X114242238Y-45218518D01*
X114246163Y-45245097D01*
X114246647Y-45250037D01*
X114247959Y-45276872D01*
X114248020Y-45279353D01*
X114248020Y-48804353D01*
X114247044Y-48814264D01*
X114244153Y-48823793D01*
X114239459Y-48832576D01*
X114233141Y-48840274D01*
X114225443Y-48846592D01*
X114216660Y-48851286D01*
X114207131Y-48854177D01*
X114197220Y-48855153D01*
X113647220Y-48855153D01*
X113637309Y-48854177D01*
X113627780Y-48851286D01*
X113618997Y-48846592D01*
X113611299Y-48840274D01*
X113604981Y-48832576D01*
X113600287Y-48823793D01*
X113597396Y-48814264D01*
X113596420Y-48804353D01*
X113596420Y-45279353D01*
X113596421Y-45278996D01*
X113596448Y-45275156D01*
X113596547Y-45272323D01*
X113598234Y-45245509D01*
X113598787Y-45240578D01*
X113603082Y-45214056D01*
X113604115Y-45209199D01*
X113610979Y-45183223D01*
X113612479Y-45178494D01*
X113621844Y-45153312D01*
X113623799Y-45148749D01*
X113635577Y-45124601D01*
X113637968Y-45120253D01*
X113652046Y-45097369D01*
X113654850Y-45093274D01*
X113671094Y-45071873D01*
X113674285Y-45068070D01*
X113692540Y-45048357D01*
X113696085Y-45044885D01*
X113716176Y-45027047D01*
X113720045Y-45023937D01*
X113741781Y-45008145D01*
X113745934Y-45005427D01*
X113769108Y-44991831D01*
X113773505Y-44989532D01*
X113797894Y-44978262D01*
X113802498Y-44976402D01*
X113827871Y-44967567D01*
X113832630Y-44966167D01*
X113858744Y-44959849D01*
X113863620Y-44958918D01*
X113890226Y-44955179D01*
X113895169Y-44954730D01*
X113922013Y-44953605D01*
X113926974Y-44953639D01*
G37*
G36*
X113126974Y-44953639D02*
G01*
X113153799Y-44955138D01*
X113158738Y-44955657D01*
X113185289Y-44959768D01*
X113190148Y-44960766D01*
X113216172Y-44967447D01*
X113220916Y-44968915D01*
X113246163Y-44978105D01*
X113250737Y-44980028D01*
X113274967Y-44991637D01*
X113279333Y-44993998D01*
X113302314Y-45007916D01*
X113306428Y-45010690D01*
X113327942Y-45026784D01*
X113331767Y-45029949D01*
X113351607Y-45048066D01*
X113355103Y-45051587D01*
X113373081Y-45071553D01*
X113376219Y-45075400D01*
X113392162Y-45097025D01*
X113394908Y-45101157D01*
X113408666Y-45124235D01*
X113410997Y-45128620D01*
X113422436Y-45152931D01*
X113424326Y-45157517D01*
X113433339Y-45182827D01*
X113434774Y-45187579D01*
X113441274Y-45213649D01*
X113442238Y-45218518D01*
X113446163Y-45245097D01*
X113446647Y-45250037D01*
X113447959Y-45276872D01*
X113448020Y-45279353D01*
X113448020Y-48804353D01*
X113447044Y-48814264D01*
X113444153Y-48823793D01*
X113439459Y-48832576D01*
X113433141Y-48840274D01*
X113425443Y-48846592D01*
X113416660Y-48851286D01*
X113407131Y-48854177D01*
X113397220Y-48855153D01*
X112847220Y-48855153D01*
X112837309Y-48854177D01*
X112827780Y-48851286D01*
X112818997Y-48846592D01*
X112811299Y-48840274D01*
X112804981Y-48832576D01*
X112800287Y-48823793D01*
X112797396Y-48814264D01*
X112796420Y-48804353D01*
X112796420Y-45279353D01*
X112796421Y-45278996D01*
X112796448Y-45275156D01*
X112796547Y-45272323D01*
X112798234Y-45245509D01*
X112798787Y-45240578D01*
X112803082Y-45214056D01*
X112804115Y-45209199D01*
X112810979Y-45183223D01*
X112812479Y-45178494D01*
X112821844Y-45153312D01*
X112823799Y-45148749D01*
X112835577Y-45124601D01*
X112837968Y-45120253D01*
X112852046Y-45097369D01*
X112854850Y-45093274D01*
X112871094Y-45071873D01*
X112874285Y-45068070D01*
X112892540Y-45048357D01*
X112896085Y-45044885D01*
X112916176Y-45027047D01*
X112920045Y-45023937D01*
X112941781Y-45008145D01*
X112945934Y-45005427D01*
X112969108Y-44991831D01*
X112973505Y-44989532D01*
X112997894Y-44978262D01*
X113002498Y-44976402D01*
X113027871Y-44967567D01*
X113032630Y-44966167D01*
X113058744Y-44959849D01*
X113063620Y-44958918D01*
X113090226Y-44955179D01*
X113095169Y-44954730D01*
X113122013Y-44953605D01*
X113126974Y-44953639D01*
G37*
G36*
X112326974Y-44953639D02*
G01*
X112353799Y-44955138D01*
X112358738Y-44955657D01*
X112385289Y-44959768D01*
X112390148Y-44960766D01*
X112416172Y-44967447D01*
X112420916Y-44968915D01*
X112446163Y-44978105D01*
X112450737Y-44980028D01*
X112474967Y-44991637D01*
X112479333Y-44993998D01*
X112502314Y-45007916D01*
X112506428Y-45010690D01*
X112527942Y-45026784D01*
X112531767Y-45029949D01*
X112551607Y-45048066D01*
X112555103Y-45051587D01*
X112573081Y-45071553D01*
X112576219Y-45075400D01*
X112592162Y-45097025D01*
X112594908Y-45101157D01*
X112608666Y-45124235D01*
X112610997Y-45128620D01*
X112622436Y-45152931D01*
X112624326Y-45157517D01*
X112633339Y-45182827D01*
X112634774Y-45187579D01*
X112641274Y-45213649D01*
X112642238Y-45218518D01*
X112646163Y-45245097D01*
X112646647Y-45250037D01*
X112647959Y-45276872D01*
X112648020Y-45279353D01*
X112648020Y-48804353D01*
X112647044Y-48814264D01*
X112644153Y-48823793D01*
X112639459Y-48832576D01*
X112633141Y-48840274D01*
X112625443Y-48846592D01*
X112616660Y-48851286D01*
X112607131Y-48854177D01*
X112597220Y-48855153D01*
X112047220Y-48855153D01*
X112037309Y-48854177D01*
X112027780Y-48851286D01*
X112018997Y-48846592D01*
X112011299Y-48840274D01*
X112004981Y-48832576D01*
X112000287Y-48823793D01*
X111997396Y-48814264D01*
X111996420Y-48804353D01*
X111996420Y-45279353D01*
X111996421Y-45278996D01*
X111996448Y-45275156D01*
X111996547Y-45272323D01*
X111998234Y-45245509D01*
X111998787Y-45240578D01*
X112003082Y-45214056D01*
X112004115Y-45209199D01*
X112010979Y-45183223D01*
X112012479Y-45178494D01*
X112021844Y-45153312D01*
X112023799Y-45148749D01*
X112035577Y-45124601D01*
X112037968Y-45120253D01*
X112052046Y-45097369D01*
X112054850Y-45093274D01*
X112071094Y-45071873D01*
X112074285Y-45068070D01*
X112092540Y-45048357D01*
X112096085Y-45044885D01*
X112116176Y-45027047D01*
X112120045Y-45023937D01*
X112141781Y-45008145D01*
X112145934Y-45005427D01*
X112169108Y-44991831D01*
X112173505Y-44989532D01*
X112197894Y-44978262D01*
X112202498Y-44976402D01*
X112227871Y-44967567D01*
X112232630Y-44966167D01*
X112258744Y-44959849D01*
X112263620Y-44958918D01*
X112290226Y-44955179D01*
X112295169Y-44954730D01*
X112322013Y-44953605D01*
X112326974Y-44953639D01*
G37*
G36*
X111526974Y-44953639D02*
G01*
X111553799Y-44955138D01*
X111558738Y-44955657D01*
X111585289Y-44959768D01*
X111590148Y-44960766D01*
X111616172Y-44967447D01*
X111620916Y-44968915D01*
X111646163Y-44978105D01*
X111650737Y-44980028D01*
X111674967Y-44991637D01*
X111679333Y-44993998D01*
X111702314Y-45007916D01*
X111706428Y-45010690D01*
X111727942Y-45026784D01*
X111731767Y-45029949D01*
X111751607Y-45048066D01*
X111755103Y-45051587D01*
X111773081Y-45071553D01*
X111776219Y-45075400D01*
X111792162Y-45097025D01*
X111794908Y-45101157D01*
X111808666Y-45124235D01*
X111810997Y-45128620D01*
X111822436Y-45152931D01*
X111824326Y-45157517D01*
X111833339Y-45182827D01*
X111834774Y-45187579D01*
X111841274Y-45213649D01*
X111842238Y-45218518D01*
X111846163Y-45245097D01*
X111846647Y-45250037D01*
X111847959Y-45276872D01*
X111848020Y-45279353D01*
X111848020Y-48804353D01*
X111847044Y-48814264D01*
X111844153Y-48823793D01*
X111839459Y-48832576D01*
X111833141Y-48840274D01*
X111825443Y-48846592D01*
X111816660Y-48851286D01*
X111807131Y-48854177D01*
X111797220Y-48855153D01*
X111247220Y-48855153D01*
X111237309Y-48854177D01*
X111227780Y-48851286D01*
X111218997Y-48846592D01*
X111211299Y-48840274D01*
X111204981Y-48832576D01*
X111200287Y-48823793D01*
X111197396Y-48814264D01*
X111196420Y-48804353D01*
X111196420Y-45279353D01*
X111196421Y-45278996D01*
X111196448Y-45275156D01*
X111196547Y-45272323D01*
X111198234Y-45245509D01*
X111198787Y-45240578D01*
X111203082Y-45214056D01*
X111204115Y-45209199D01*
X111210979Y-45183223D01*
X111212479Y-45178494D01*
X111221844Y-45153312D01*
X111223799Y-45148749D01*
X111235577Y-45124601D01*
X111237968Y-45120253D01*
X111252046Y-45097369D01*
X111254850Y-45093274D01*
X111271094Y-45071873D01*
X111274285Y-45068070D01*
X111292540Y-45048357D01*
X111296085Y-45044885D01*
X111316176Y-45027047D01*
X111320045Y-45023937D01*
X111341781Y-45008145D01*
X111345934Y-45005427D01*
X111369108Y-44991831D01*
X111373505Y-44989532D01*
X111397894Y-44978262D01*
X111402498Y-44976402D01*
X111427871Y-44967567D01*
X111432630Y-44966167D01*
X111458744Y-44959849D01*
X111463620Y-44958918D01*
X111490226Y-44955179D01*
X111495169Y-44954730D01*
X111522013Y-44953605D01*
X111526974Y-44953639D01*
G37*
G36*
X110726974Y-44953639D02*
G01*
X110753799Y-44955138D01*
X110758738Y-44955657D01*
X110785289Y-44959768D01*
X110790148Y-44960766D01*
X110816172Y-44967447D01*
X110820916Y-44968915D01*
X110846163Y-44978105D01*
X110850737Y-44980028D01*
X110874967Y-44991637D01*
X110879333Y-44993998D01*
X110902314Y-45007916D01*
X110906428Y-45010690D01*
X110927942Y-45026784D01*
X110931767Y-45029949D01*
X110951607Y-45048066D01*
X110955103Y-45051587D01*
X110973081Y-45071553D01*
X110976219Y-45075400D01*
X110992162Y-45097025D01*
X110994908Y-45101157D01*
X111008666Y-45124235D01*
X111010997Y-45128620D01*
X111022436Y-45152931D01*
X111024326Y-45157517D01*
X111033339Y-45182827D01*
X111034774Y-45187579D01*
X111041274Y-45213649D01*
X111042238Y-45218518D01*
X111046163Y-45245097D01*
X111046647Y-45250037D01*
X111047959Y-45276872D01*
X111048020Y-45279353D01*
X111048020Y-48804353D01*
X111047044Y-48814264D01*
X111044153Y-48823793D01*
X111039459Y-48832576D01*
X111033141Y-48840274D01*
X111025443Y-48846592D01*
X111016660Y-48851286D01*
X111007131Y-48854177D01*
X110997220Y-48855153D01*
X110447220Y-48855153D01*
X110437309Y-48854177D01*
X110427780Y-48851286D01*
X110418997Y-48846592D01*
X110411299Y-48840274D01*
X110404981Y-48832576D01*
X110400287Y-48823793D01*
X110397396Y-48814264D01*
X110396420Y-48804353D01*
X110396420Y-45279353D01*
X110396421Y-45278996D01*
X110396448Y-45275156D01*
X110396547Y-45272323D01*
X110398234Y-45245509D01*
X110398787Y-45240578D01*
X110403082Y-45214056D01*
X110404115Y-45209199D01*
X110410979Y-45183223D01*
X110412479Y-45178494D01*
X110421844Y-45153312D01*
X110423799Y-45148749D01*
X110435577Y-45124601D01*
X110437968Y-45120253D01*
X110452046Y-45097369D01*
X110454850Y-45093274D01*
X110471094Y-45071873D01*
X110474285Y-45068070D01*
X110492540Y-45048357D01*
X110496085Y-45044885D01*
X110516176Y-45027047D01*
X110520045Y-45023937D01*
X110541781Y-45008145D01*
X110545934Y-45005427D01*
X110569108Y-44991831D01*
X110573505Y-44989532D01*
X110597894Y-44978262D01*
X110602498Y-44976402D01*
X110627871Y-44967567D01*
X110632630Y-44966167D01*
X110658744Y-44959849D01*
X110663620Y-44958918D01*
X110690226Y-44955179D01*
X110695169Y-44954730D01*
X110722013Y-44953605D01*
X110726974Y-44953639D01*
G37*
G36*
X109926974Y-44953639D02*
G01*
X109953799Y-44955138D01*
X109958738Y-44955657D01*
X109985289Y-44959768D01*
X109990148Y-44960766D01*
X110016172Y-44967447D01*
X110020916Y-44968915D01*
X110046163Y-44978105D01*
X110050737Y-44980028D01*
X110074967Y-44991637D01*
X110079333Y-44993998D01*
X110102314Y-45007916D01*
X110106428Y-45010690D01*
X110127942Y-45026784D01*
X110131767Y-45029949D01*
X110151607Y-45048066D01*
X110155103Y-45051587D01*
X110173081Y-45071553D01*
X110176219Y-45075400D01*
X110192162Y-45097025D01*
X110194908Y-45101157D01*
X110208666Y-45124235D01*
X110210997Y-45128620D01*
X110222436Y-45152931D01*
X110224326Y-45157517D01*
X110233339Y-45182827D01*
X110234774Y-45187579D01*
X110241274Y-45213649D01*
X110242238Y-45218518D01*
X110246163Y-45245097D01*
X110246647Y-45250037D01*
X110247959Y-45276872D01*
X110248020Y-45279353D01*
X110248020Y-48804353D01*
X110247044Y-48814264D01*
X110244153Y-48823793D01*
X110239459Y-48832576D01*
X110233141Y-48840274D01*
X110225443Y-48846592D01*
X110216660Y-48851286D01*
X110207131Y-48854177D01*
X110197220Y-48855153D01*
X109647220Y-48855153D01*
X109637309Y-48854177D01*
X109627780Y-48851286D01*
X109618997Y-48846592D01*
X109611299Y-48840274D01*
X109604981Y-48832576D01*
X109600287Y-48823793D01*
X109597396Y-48814264D01*
X109596420Y-48804353D01*
X109596420Y-45279353D01*
X109596421Y-45278996D01*
X109596448Y-45275156D01*
X109596547Y-45272323D01*
X109598234Y-45245509D01*
X109598787Y-45240578D01*
X109603082Y-45214056D01*
X109604115Y-45209199D01*
X109610979Y-45183223D01*
X109612479Y-45178494D01*
X109621844Y-45153312D01*
X109623799Y-45148749D01*
X109635577Y-45124601D01*
X109637968Y-45120253D01*
X109652046Y-45097369D01*
X109654850Y-45093274D01*
X109671094Y-45071873D01*
X109674285Y-45068070D01*
X109692540Y-45048357D01*
X109696085Y-45044885D01*
X109716176Y-45027047D01*
X109720045Y-45023937D01*
X109741781Y-45008145D01*
X109745934Y-45005427D01*
X109769108Y-44991831D01*
X109773505Y-44989532D01*
X109797894Y-44978262D01*
X109802498Y-44976402D01*
X109827871Y-44967567D01*
X109832630Y-44966167D01*
X109858744Y-44959849D01*
X109863620Y-44958918D01*
X109890226Y-44955179D01*
X109895169Y-44954730D01*
X109922013Y-44953605D01*
X109926974Y-44953639D01*
G37*
G36*
X109126974Y-44953639D02*
G01*
X109153799Y-44955138D01*
X109158738Y-44955657D01*
X109185289Y-44959768D01*
X109190148Y-44960766D01*
X109216172Y-44967447D01*
X109220916Y-44968915D01*
X109246163Y-44978105D01*
X109250737Y-44980028D01*
X109274967Y-44991637D01*
X109279333Y-44993998D01*
X109302314Y-45007916D01*
X109306428Y-45010690D01*
X109327942Y-45026784D01*
X109331767Y-45029949D01*
X109351607Y-45048066D01*
X109355103Y-45051587D01*
X109373081Y-45071553D01*
X109376219Y-45075400D01*
X109392162Y-45097025D01*
X109394908Y-45101157D01*
X109408666Y-45124235D01*
X109410997Y-45128620D01*
X109422436Y-45152931D01*
X109424326Y-45157517D01*
X109433339Y-45182827D01*
X109434774Y-45187579D01*
X109441274Y-45213649D01*
X109442238Y-45218518D01*
X109446163Y-45245097D01*
X109446647Y-45250037D01*
X109447959Y-45276872D01*
X109448020Y-45279353D01*
X109448020Y-48804353D01*
X109447044Y-48814264D01*
X109444153Y-48823793D01*
X109439459Y-48832576D01*
X109433141Y-48840274D01*
X109425443Y-48846592D01*
X109416660Y-48851286D01*
X109407131Y-48854177D01*
X109397220Y-48855153D01*
X108847220Y-48855153D01*
X108837309Y-48854177D01*
X108827780Y-48851286D01*
X108818997Y-48846592D01*
X108811299Y-48840274D01*
X108804981Y-48832576D01*
X108800287Y-48823793D01*
X108797396Y-48814264D01*
X108796420Y-48804353D01*
X108796420Y-45279353D01*
X108796421Y-45278996D01*
X108796448Y-45275156D01*
X108796547Y-45272323D01*
X108798234Y-45245509D01*
X108798787Y-45240578D01*
X108803082Y-45214056D01*
X108804115Y-45209199D01*
X108810979Y-45183223D01*
X108812479Y-45178494D01*
X108821844Y-45153312D01*
X108823799Y-45148749D01*
X108835577Y-45124601D01*
X108837968Y-45120253D01*
X108852046Y-45097369D01*
X108854850Y-45093274D01*
X108871094Y-45071873D01*
X108874285Y-45068070D01*
X108892540Y-45048357D01*
X108896085Y-45044885D01*
X108916176Y-45027047D01*
X108920045Y-45023937D01*
X108941781Y-45008145D01*
X108945934Y-45005427D01*
X108969108Y-44991831D01*
X108973505Y-44989532D01*
X108997894Y-44978262D01*
X109002498Y-44976402D01*
X109027871Y-44967567D01*
X109032630Y-44966167D01*
X109058744Y-44959849D01*
X109063620Y-44958918D01*
X109090226Y-44955179D01*
X109095169Y-44954730D01*
X109122013Y-44953605D01*
X109126974Y-44953639D01*
G37*
G36*
X108326974Y-44953639D02*
G01*
X108353799Y-44955138D01*
X108358738Y-44955657D01*
X108385289Y-44959768D01*
X108390148Y-44960766D01*
X108416172Y-44967447D01*
X108420916Y-44968915D01*
X108446163Y-44978105D01*
X108450737Y-44980028D01*
X108474967Y-44991637D01*
X108479333Y-44993998D01*
X108502314Y-45007916D01*
X108506428Y-45010690D01*
X108527942Y-45026784D01*
X108531767Y-45029949D01*
X108551607Y-45048066D01*
X108555103Y-45051587D01*
X108573081Y-45071553D01*
X108576219Y-45075400D01*
X108592162Y-45097025D01*
X108594908Y-45101157D01*
X108608666Y-45124235D01*
X108610997Y-45128620D01*
X108622436Y-45152931D01*
X108624326Y-45157517D01*
X108633339Y-45182827D01*
X108634774Y-45187579D01*
X108641274Y-45213649D01*
X108642238Y-45218518D01*
X108646163Y-45245097D01*
X108646647Y-45250037D01*
X108647959Y-45276872D01*
X108648020Y-45279353D01*
X108648020Y-48804353D01*
X108647044Y-48814264D01*
X108644153Y-48823793D01*
X108639459Y-48832576D01*
X108633141Y-48840274D01*
X108625443Y-48846592D01*
X108616660Y-48851286D01*
X108607131Y-48854177D01*
X108597220Y-48855153D01*
X108047220Y-48855153D01*
X108037309Y-48854177D01*
X108027780Y-48851286D01*
X108018997Y-48846592D01*
X108011299Y-48840274D01*
X108004981Y-48832576D01*
X108000287Y-48823793D01*
X107997396Y-48814264D01*
X107996420Y-48804353D01*
X107996420Y-45279353D01*
X107996421Y-45278996D01*
X107996448Y-45275156D01*
X107996547Y-45272323D01*
X107998234Y-45245509D01*
X107998787Y-45240578D01*
X108003082Y-45214056D01*
X108004115Y-45209199D01*
X108010979Y-45183223D01*
X108012479Y-45178494D01*
X108021844Y-45153312D01*
X108023799Y-45148749D01*
X108035577Y-45124601D01*
X108037968Y-45120253D01*
X108052046Y-45097369D01*
X108054850Y-45093274D01*
X108071094Y-45071873D01*
X108074285Y-45068070D01*
X108092540Y-45048357D01*
X108096085Y-45044885D01*
X108116176Y-45027047D01*
X108120045Y-45023937D01*
X108141781Y-45008145D01*
X108145934Y-45005427D01*
X108169108Y-44991831D01*
X108173505Y-44989532D01*
X108197894Y-44978262D01*
X108202498Y-44976402D01*
X108227871Y-44967567D01*
X108232630Y-44966167D01*
X108258744Y-44959849D01*
X108263620Y-44958918D01*
X108290226Y-44955179D01*
X108295169Y-44954730D01*
X108322013Y-44953605D01*
X108326974Y-44953639D01*
G37*
G36*
X107526974Y-44953639D02*
G01*
X107553799Y-44955138D01*
X107558738Y-44955657D01*
X107585289Y-44959768D01*
X107590148Y-44960766D01*
X107616172Y-44967447D01*
X107620916Y-44968915D01*
X107646163Y-44978105D01*
X107650737Y-44980028D01*
X107674967Y-44991637D01*
X107679333Y-44993998D01*
X107702314Y-45007916D01*
X107706428Y-45010690D01*
X107727942Y-45026784D01*
X107731767Y-45029949D01*
X107751607Y-45048066D01*
X107755103Y-45051587D01*
X107773081Y-45071553D01*
X107776219Y-45075400D01*
X107792162Y-45097025D01*
X107794908Y-45101157D01*
X107808666Y-45124235D01*
X107810997Y-45128620D01*
X107822436Y-45152931D01*
X107824326Y-45157517D01*
X107833339Y-45182827D01*
X107834774Y-45187579D01*
X107841274Y-45213649D01*
X107842238Y-45218518D01*
X107846163Y-45245097D01*
X107846647Y-45250037D01*
X107847959Y-45276872D01*
X107848020Y-45279353D01*
X107848020Y-48804353D01*
X107847044Y-48814264D01*
X107844153Y-48823793D01*
X107839459Y-48832576D01*
X107833141Y-48840274D01*
X107825443Y-48846592D01*
X107816660Y-48851286D01*
X107807131Y-48854177D01*
X107797220Y-48855153D01*
X107247220Y-48855153D01*
X107237309Y-48854177D01*
X107227780Y-48851286D01*
X107218997Y-48846592D01*
X107211299Y-48840274D01*
X107204981Y-48832576D01*
X107200287Y-48823793D01*
X107197396Y-48814264D01*
X107196420Y-48804353D01*
X107196420Y-45279353D01*
X107196421Y-45278996D01*
X107196448Y-45275156D01*
X107196547Y-45272323D01*
X107198234Y-45245509D01*
X107198787Y-45240578D01*
X107203082Y-45214056D01*
X107204115Y-45209199D01*
X107210979Y-45183223D01*
X107212479Y-45178494D01*
X107221844Y-45153312D01*
X107223799Y-45148749D01*
X107235577Y-45124601D01*
X107237968Y-45120253D01*
X107252046Y-45097369D01*
X107254850Y-45093274D01*
X107271094Y-45071873D01*
X107274285Y-45068070D01*
X107292540Y-45048357D01*
X107296085Y-45044885D01*
X107316176Y-45027047D01*
X107320045Y-45023937D01*
X107341781Y-45008145D01*
X107345934Y-45005427D01*
X107369108Y-44991831D01*
X107373505Y-44989532D01*
X107397894Y-44978262D01*
X107402498Y-44976402D01*
X107427871Y-44967567D01*
X107432630Y-44966167D01*
X107458744Y-44959849D01*
X107463620Y-44958918D01*
X107490226Y-44955179D01*
X107495169Y-44954730D01*
X107522013Y-44953605D01*
X107526974Y-44953639D01*
G37*
G36*
X106726974Y-44953639D02*
G01*
X106753799Y-44955138D01*
X106758738Y-44955657D01*
X106785289Y-44959768D01*
X106790148Y-44960766D01*
X106816172Y-44967447D01*
X106820916Y-44968915D01*
X106846163Y-44978105D01*
X106850737Y-44980028D01*
X106874967Y-44991637D01*
X106879333Y-44993998D01*
X106902314Y-45007916D01*
X106906428Y-45010690D01*
X106927942Y-45026784D01*
X106931767Y-45029949D01*
X106951607Y-45048066D01*
X106955103Y-45051587D01*
X106973081Y-45071553D01*
X106976219Y-45075400D01*
X106992162Y-45097025D01*
X106994908Y-45101157D01*
X107008666Y-45124235D01*
X107010997Y-45128620D01*
X107022436Y-45152931D01*
X107024326Y-45157517D01*
X107033339Y-45182827D01*
X107034774Y-45187579D01*
X107041274Y-45213649D01*
X107042238Y-45218518D01*
X107046163Y-45245097D01*
X107046647Y-45250037D01*
X107047959Y-45276872D01*
X107048020Y-45279353D01*
X107048020Y-48804353D01*
X107047044Y-48814264D01*
X107044153Y-48823793D01*
X107039459Y-48832576D01*
X107033141Y-48840274D01*
X107025443Y-48846592D01*
X107016660Y-48851286D01*
X107007131Y-48854177D01*
X106997220Y-48855153D01*
X106447220Y-48855153D01*
X106437309Y-48854177D01*
X106427780Y-48851286D01*
X106418997Y-48846592D01*
X106411299Y-48840274D01*
X106404981Y-48832576D01*
X106400287Y-48823793D01*
X106397396Y-48814264D01*
X106396420Y-48804353D01*
X106396420Y-45279353D01*
X106396421Y-45278996D01*
X106396448Y-45275156D01*
X106396547Y-45272323D01*
X106398234Y-45245509D01*
X106398787Y-45240578D01*
X106403082Y-45214056D01*
X106404115Y-45209199D01*
X106410979Y-45183223D01*
X106412479Y-45178494D01*
X106421844Y-45153312D01*
X106423799Y-45148749D01*
X106435577Y-45124601D01*
X106437968Y-45120253D01*
X106452046Y-45097369D01*
X106454850Y-45093274D01*
X106471094Y-45071873D01*
X106474285Y-45068070D01*
X106492540Y-45048357D01*
X106496085Y-45044885D01*
X106516176Y-45027047D01*
X106520045Y-45023937D01*
X106541781Y-45008145D01*
X106545934Y-45005427D01*
X106569108Y-44991831D01*
X106573505Y-44989532D01*
X106597894Y-44978262D01*
X106602498Y-44976402D01*
X106627871Y-44967567D01*
X106632630Y-44966167D01*
X106658744Y-44959849D01*
X106663620Y-44958918D01*
X106690226Y-44955179D01*
X106695169Y-44954730D01*
X106722013Y-44953605D01*
X106726974Y-44953639D01*
G37*
G36*
X105926974Y-44953639D02*
G01*
X105953799Y-44955138D01*
X105958738Y-44955657D01*
X105985289Y-44959768D01*
X105990148Y-44960766D01*
X106016172Y-44967447D01*
X106020916Y-44968915D01*
X106046163Y-44978105D01*
X106050737Y-44980028D01*
X106074967Y-44991637D01*
X106079333Y-44993998D01*
X106102314Y-45007916D01*
X106106428Y-45010690D01*
X106127942Y-45026784D01*
X106131767Y-45029949D01*
X106151607Y-45048066D01*
X106155103Y-45051587D01*
X106173081Y-45071553D01*
X106176219Y-45075400D01*
X106192162Y-45097025D01*
X106194908Y-45101157D01*
X106208666Y-45124235D01*
X106210997Y-45128620D01*
X106222436Y-45152931D01*
X106224326Y-45157517D01*
X106233339Y-45182827D01*
X106234774Y-45187579D01*
X106241274Y-45213649D01*
X106242238Y-45218518D01*
X106246163Y-45245097D01*
X106246647Y-45250037D01*
X106247959Y-45276872D01*
X106248020Y-45279353D01*
X106248020Y-48804353D01*
X106247044Y-48814264D01*
X106244153Y-48823793D01*
X106239459Y-48832576D01*
X106233141Y-48840274D01*
X106225443Y-48846592D01*
X106216660Y-48851286D01*
X106207131Y-48854177D01*
X106197220Y-48855153D01*
X105647220Y-48855153D01*
X105637309Y-48854177D01*
X105627780Y-48851286D01*
X105618997Y-48846592D01*
X105611299Y-48840274D01*
X105604981Y-48832576D01*
X105600287Y-48823793D01*
X105597396Y-48814264D01*
X105596420Y-48804353D01*
X105596420Y-45279353D01*
X105596421Y-45278996D01*
X105596448Y-45275156D01*
X105596547Y-45272323D01*
X105598234Y-45245509D01*
X105598787Y-45240578D01*
X105603082Y-45214056D01*
X105604115Y-45209199D01*
X105610979Y-45183223D01*
X105612479Y-45178494D01*
X105621844Y-45153312D01*
X105623799Y-45148749D01*
X105635577Y-45124601D01*
X105637968Y-45120253D01*
X105652046Y-45097369D01*
X105654850Y-45093274D01*
X105671094Y-45071873D01*
X105674285Y-45068070D01*
X105692540Y-45048357D01*
X105696085Y-45044885D01*
X105716176Y-45027047D01*
X105720045Y-45023937D01*
X105741781Y-45008145D01*
X105745934Y-45005427D01*
X105769108Y-44991831D01*
X105773505Y-44989532D01*
X105797894Y-44978262D01*
X105802498Y-44976402D01*
X105827871Y-44967567D01*
X105832630Y-44966167D01*
X105858744Y-44959849D01*
X105863620Y-44958918D01*
X105890226Y-44955179D01*
X105895169Y-44954730D01*
X105922013Y-44953605D01*
X105926974Y-44953639D01*
G37*
G36*
X105126974Y-44953639D02*
G01*
X105153799Y-44955138D01*
X105158738Y-44955657D01*
X105185289Y-44959768D01*
X105190148Y-44960766D01*
X105216172Y-44967447D01*
X105220916Y-44968915D01*
X105246163Y-44978105D01*
X105250737Y-44980028D01*
X105274967Y-44991637D01*
X105279333Y-44993998D01*
X105302314Y-45007916D01*
X105306428Y-45010690D01*
X105327942Y-45026784D01*
X105331767Y-45029949D01*
X105351607Y-45048066D01*
X105355103Y-45051587D01*
X105373081Y-45071553D01*
X105376219Y-45075400D01*
X105392162Y-45097025D01*
X105394908Y-45101157D01*
X105408666Y-45124235D01*
X105410997Y-45128620D01*
X105422436Y-45152931D01*
X105424326Y-45157517D01*
X105433339Y-45182827D01*
X105434774Y-45187579D01*
X105441274Y-45213649D01*
X105442238Y-45218518D01*
X105446163Y-45245097D01*
X105446647Y-45250037D01*
X105447959Y-45276872D01*
X105448020Y-45279353D01*
X105448020Y-48804353D01*
X105447044Y-48814264D01*
X105444153Y-48823793D01*
X105439459Y-48832576D01*
X105433141Y-48840274D01*
X105425443Y-48846592D01*
X105416660Y-48851286D01*
X105407131Y-48854177D01*
X105397220Y-48855153D01*
X104847220Y-48855153D01*
X104837309Y-48854177D01*
X104827780Y-48851286D01*
X104818997Y-48846592D01*
X104811299Y-48840274D01*
X104804981Y-48832576D01*
X104800287Y-48823793D01*
X104797396Y-48814264D01*
X104796420Y-48804353D01*
X104796420Y-45279353D01*
X104796421Y-45278996D01*
X104796448Y-45275156D01*
X104796547Y-45272323D01*
X104798234Y-45245509D01*
X104798787Y-45240578D01*
X104803082Y-45214056D01*
X104804115Y-45209199D01*
X104810979Y-45183223D01*
X104812479Y-45178494D01*
X104821844Y-45153312D01*
X104823799Y-45148749D01*
X104835577Y-45124601D01*
X104837968Y-45120253D01*
X104852046Y-45097369D01*
X104854850Y-45093274D01*
X104871094Y-45071873D01*
X104874285Y-45068070D01*
X104892540Y-45048357D01*
X104896085Y-45044885D01*
X104916176Y-45027047D01*
X104920045Y-45023937D01*
X104941781Y-45008145D01*
X104945934Y-45005427D01*
X104969108Y-44991831D01*
X104973505Y-44989532D01*
X104997894Y-44978262D01*
X105002498Y-44976402D01*
X105027871Y-44967567D01*
X105032630Y-44966167D01*
X105058744Y-44959849D01*
X105063620Y-44958918D01*
X105090226Y-44955179D01*
X105095169Y-44954730D01*
X105122013Y-44953605D01*
X105126974Y-44953639D01*
G37*
G36*
X104326974Y-44953639D02*
G01*
X104353799Y-44955138D01*
X104358738Y-44955657D01*
X104385289Y-44959768D01*
X104390148Y-44960766D01*
X104416172Y-44967447D01*
X104420916Y-44968915D01*
X104446163Y-44978105D01*
X104450737Y-44980028D01*
X104474967Y-44991637D01*
X104479333Y-44993998D01*
X104502314Y-45007916D01*
X104506428Y-45010690D01*
X104527942Y-45026784D01*
X104531767Y-45029949D01*
X104551607Y-45048066D01*
X104555103Y-45051587D01*
X104573081Y-45071553D01*
X104576219Y-45075400D01*
X104592162Y-45097025D01*
X104594908Y-45101157D01*
X104608666Y-45124235D01*
X104610997Y-45128620D01*
X104622436Y-45152931D01*
X104624326Y-45157517D01*
X104633339Y-45182827D01*
X104634774Y-45187579D01*
X104641274Y-45213649D01*
X104642238Y-45218518D01*
X104646163Y-45245097D01*
X104646647Y-45250037D01*
X104647959Y-45276872D01*
X104648020Y-45279353D01*
X104648020Y-48804353D01*
X104647044Y-48814264D01*
X104644153Y-48823793D01*
X104639459Y-48832576D01*
X104633141Y-48840274D01*
X104625443Y-48846592D01*
X104616660Y-48851286D01*
X104607131Y-48854177D01*
X104597220Y-48855153D01*
X104047220Y-48855153D01*
X104037309Y-48854177D01*
X104027780Y-48851286D01*
X104018997Y-48846592D01*
X104011299Y-48840274D01*
X104004981Y-48832576D01*
X104000287Y-48823793D01*
X103997396Y-48814264D01*
X103996420Y-48804353D01*
X103996420Y-45279353D01*
X103996421Y-45278996D01*
X103996448Y-45275156D01*
X103996547Y-45272323D01*
X103998234Y-45245509D01*
X103998787Y-45240578D01*
X104003082Y-45214056D01*
X104004115Y-45209199D01*
X104010979Y-45183223D01*
X104012479Y-45178494D01*
X104021844Y-45153312D01*
X104023799Y-45148749D01*
X104035577Y-45124601D01*
X104037968Y-45120253D01*
X104052046Y-45097369D01*
X104054850Y-45093274D01*
X104071094Y-45071873D01*
X104074285Y-45068070D01*
X104092540Y-45048357D01*
X104096085Y-45044885D01*
X104116176Y-45027047D01*
X104120045Y-45023937D01*
X104141781Y-45008145D01*
X104145934Y-45005427D01*
X104169108Y-44991831D01*
X104173505Y-44989532D01*
X104197894Y-44978262D01*
X104202498Y-44976402D01*
X104227871Y-44967567D01*
X104232630Y-44966167D01*
X104258744Y-44959849D01*
X104263620Y-44958918D01*
X104290226Y-44955179D01*
X104295169Y-44954730D01*
X104322013Y-44953605D01*
X104326974Y-44953639D01*
G37*
G36*
X103526974Y-44953639D02*
G01*
X103553799Y-44955138D01*
X103558738Y-44955657D01*
X103585289Y-44959768D01*
X103590148Y-44960766D01*
X103616172Y-44967447D01*
X103620916Y-44968915D01*
X103646163Y-44978105D01*
X103650737Y-44980028D01*
X103674967Y-44991637D01*
X103679333Y-44993998D01*
X103702314Y-45007916D01*
X103706428Y-45010690D01*
X103727942Y-45026784D01*
X103731767Y-45029949D01*
X103751607Y-45048066D01*
X103755103Y-45051587D01*
X103773081Y-45071553D01*
X103776219Y-45075400D01*
X103792162Y-45097025D01*
X103794908Y-45101157D01*
X103808666Y-45124235D01*
X103810997Y-45128620D01*
X103822436Y-45152931D01*
X103824326Y-45157517D01*
X103833339Y-45182827D01*
X103834774Y-45187579D01*
X103841274Y-45213649D01*
X103842238Y-45218518D01*
X103846163Y-45245097D01*
X103846647Y-45250037D01*
X103847959Y-45276872D01*
X103848020Y-45279353D01*
X103848020Y-48804353D01*
X103847044Y-48814264D01*
X103844153Y-48823793D01*
X103839459Y-48832576D01*
X103833141Y-48840274D01*
X103825443Y-48846592D01*
X103816660Y-48851286D01*
X103807131Y-48854177D01*
X103797220Y-48855153D01*
X103247220Y-48855153D01*
X103237309Y-48854177D01*
X103227780Y-48851286D01*
X103218997Y-48846592D01*
X103211299Y-48840274D01*
X103204981Y-48832576D01*
X103200287Y-48823793D01*
X103197396Y-48814264D01*
X103196420Y-48804353D01*
X103196420Y-45279353D01*
X103196421Y-45278996D01*
X103196448Y-45275156D01*
X103196547Y-45272323D01*
X103198234Y-45245509D01*
X103198787Y-45240578D01*
X103203082Y-45214056D01*
X103204115Y-45209199D01*
X103210979Y-45183223D01*
X103212479Y-45178494D01*
X103221844Y-45153312D01*
X103223799Y-45148749D01*
X103235577Y-45124601D01*
X103237968Y-45120253D01*
X103252046Y-45097369D01*
X103254850Y-45093274D01*
X103271094Y-45071873D01*
X103274285Y-45068070D01*
X103292540Y-45048357D01*
X103296085Y-45044885D01*
X103316176Y-45027047D01*
X103320045Y-45023937D01*
X103341781Y-45008145D01*
X103345934Y-45005427D01*
X103369108Y-44991831D01*
X103373505Y-44989532D01*
X103397894Y-44978262D01*
X103402498Y-44976402D01*
X103427871Y-44967567D01*
X103432630Y-44966167D01*
X103458744Y-44959849D01*
X103463620Y-44958918D01*
X103490226Y-44955179D01*
X103495169Y-44954730D01*
X103522013Y-44953605D01*
X103526974Y-44953639D01*
G37*
G36*
X102726974Y-44953639D02*
G01*
X102753799Y-44955138D01*
X102758738Y-44955657D01*
X102785289Y-44959768D01*
X102790148Y-44960766D01*
X102816172Y-44967447D01*
X102820916Y-44968915D01*
X102846163Y-44978105D01*
X102850737Y-44980028D01*
X102874967Y-44991637D01*
X102879333Y-44993998D01*
X102902314Y-45007916D01*
X102906428Y-45010690D01*
X102927942Y-45026784D01*
X102931767Y-45029949D01*
X102951607Y-45048066D01*
X102955103Y-45051587D01*
X102973081Y-45071553D01*
X102976219Y-45075400D01*
X102992162Y-45097025D01*
X102994908Y-45101157D01*
X103008666Y-45124235D01*
X103010997Y-45128620D01*
X103022436Y-45152931D01*
X103024326Y-45157517D01*
X103033339Y-45182827D01*
X103034774Y-45187579D01*
X103041274Y-45213649D01*
X103042238Y-45218518D01*
X103046163Y-45245097D01*
X103046647Y-45250037D01*
X103047959Y-45276872D01*
X103048020Y-45279353D01*
X103048020Y-48804353D01*
X103047044Y-48814264D01*
X103044153Y-48823793D01*
X103039459Y-48832576D01*
X103033141Y-48840274D01*
X103025443Y-48846592D01*
X103016660Y-48851286D01*
X103007131Y-48854177D01*
X102997220Y-48855153D01*
X102447220Y-48855153D01*
X102437309Y-48854177D01*
X102427780Y-48851286D01*
X102418997Y-48846592D01*
X102411299Y-48840274D01*
X102404981Y-48832576D01*
X102400287Y-48823793D01*
X102397396Y-48814264D01*
X102396420Y-48804353D01*
X102396420Y-45279353D01*
X102396421Y-45278996D01*
X102396448Y-45275156D01*
X102396547Y-45272323D01*
X102398234Y-45245509D01*
X102398787Y-45240578D01*
X102403082Y-45214056D01*
X102404115Y-45209199D01*
X102410979Y-45183223D01*
X102412479Y-45178494D01*
X102421844Y-45153312D01*
X102423799Y-45148749D01*
X102435577Y-45124601D01*
X102437968Y-45120253D01*
X102452046Y-45097369D01*
X102454850Y-45093274D01*
X102471094Y-45071873D01*
X102474285Y-45068070D01*
X102492540Y-45048357D01*
X102496085Y-45044885D01*
X102516176Y-45027047D01*
X102520045Y-45023937D01*
X102541781Y-45008145D01*
X102545934Y-45005427D01*
X102569108Y-44991831D01*
X102573505Y-44989532D01*
X102597894Y-44978262D01*
X102602498Y-44976402D01*
X102627871Y-44967567D01*
X102632630Y-44966167D01*
X102658744Y-44959849D01*
X102663620Y-44958918D01*
X102690226Y-44955179D01*
X102695169Y-44954730D01*
X102722013Y-44953605D01*
X102726974Y-44953639D01*
G37*
G36*
X97926974Y-44953639D02*
G01*
X97953799Y-44955138D01*
X97958738Y-44955657D01*
X97985289Y-44959768D01*
X97990148Y-44960766D01*
X98016172Y-44967447D01*
X98020916Y-44968915D01*
X98046163Y-44978105D01*
X98050737Y-44980028D01*
X98074967Y-44991637D01*
X98079333Y-44993998D01*
X98102314Y-45007916D01*
X98106428Y-45010690D01*
X98127942Y-45026784D01*
X98131767Y-45029949D01*
X98151607Y-45048066D01*
X98155103Y-45051587D01*
X98173081Y-45071553D01*
X98176219Y-45075400D01*
X98192162Y-45097025D01*
X98194908Y-45101157D01*
X98208666Y-45124235D01*
X98210997Y-45128620D01*
X98222436Y-45152931D01*
X98224326Y-45157517D01*
X98233339Y-45182827D01*
X98234774Y-45187579D01*
X98241274Y-45213649D01*
X98242238Y-45218518D01*
X98246163Y-45245097D01*
X98246647Y-45250037D01*
X98247959Y-45276872D01*
X98248020Y-45279353D01*
X98248020Y-48804353D01*
X98247044Y-48814264D01*
X98244153Y-48823793D01*
X98239459Y-48832576D01*
X98233141Y-48840274D01*
X98225443Y-48846592D01*
X98216660Y-48851286D01*
X98207131Y-48854177D01*
X98197220Y-48855153D01*
X97647220Y-48855153D01*
X97637309Y-48854177D01*
X97627780Y-48851286D01*
X97618997Y-48846592D01*
X97611299Y-48840274D01*
X97604981Y-48832576D01*
X97600287Y-48823793D01*
X97597396Y-48814264D01*
X97596420Y-48804353D01*
X97596420Y-45279353D01*
X97596421Y-45278996D01*
X97596448Y-45275156D01*
X97596547Y-45272323D01*
X97598234Y-45245509D01*
X97598787Y-45240578D01*
X97603082Y-45214056D01*
X97604115Y-45209199D01*
X97610979Y-45183223D01*
X97612479Y-45178494D01*
X97621844Y-45153312D01*
X97623799Y-45148749D01*
X97635577Y-45124601D01*
X97637968Y-45120253D01*
X97652046Y-45097369D01*
X97654850Y-45093274D01*
X97671094Y-45071873D01*
X97674285Y-45068070D01*
X97692540Y-45048357D01*
X97696085Y-45044885D01*
X97716176Y-45027047D01*
X97720045Y-45023937D01*
X97741781Y-45008145D01*
X97745934Y-45005427D01*
X97769108Y-44991831D01*
X97773505Y-44989532D01*
X97797894Y-44978262D01*
X97802498Y-44976402D01*
X97827871Y-44967567D01*
X97832630Y-44966167D01*
X97858744Y-44959849D01*
X97863620Y-44958918D01*
X97890226Y-44955179D01*
X97895169Y-44954730D01*
X97922013Y-44953605D01*
X97926974Y-44953639D01*
G37*
G36*
X97126974Y-44953639D02*
G01*
X97153799Y-44955138D01*
X97158738Y-44955657D01*
X97185289Y-44959768D01*
X97190148Y-44960766D01*
X97216172Y-44967447D01*
X97220916Y-44968915D01*
X97246163Y-44978105D01*
X97250737Y-44980028D01*
X97274967Y-44991637D01*
X97279333Y-44993998D01*
X97302314Y-45007916D01*
X97306428Y-45010690D01*
X97327942Y-45026784D01*
X97331767Y-45029949D01*
X97351607Y-45048066D01*
X97355103Y-45051587D01*
X97373081Y-45071553D01*
X97376219Y-45075400D01*
X97392162Y-45097025D01*
X97394908Y-45101157D01*
X97408666Y-45124235D01*
X97410997Y-45128620D01*
X97422436Y-45152931D01*
X97424326Y-45157517D01*
X97433339Y-45182827D01*
X97434774Y-45187579D01*
X97441274Y-45213649D01*
X97442238Y-45218518D01*
X97446163Y-45245097D01*
X97446647Y-45250037D01*
X97447959Y-45276872D01*
X97448020Y-45279353D01*
X97448020Y-48804353D01*
X97447044Y-48814264D01*
X97444153Y-48823793D01*
X97439459Y-48832576D01*
X97433141Y-48840274D01*
X97425443Y-48846592D01*
X97416660Y-48851286D01*
X97407131Y-48854177D01*
X97397220Y-48855153D01*
X96847220Y-48855153D01*
X96837309Y-48854177D01*
X96827780Y-48851286D01*
X96818997Y-48846592D01*
X96811299Y-48840274D01*
X96804981Y-48832576D01*
X96800287Y-48823793D01*
X96797396Y-48814264D01*
X96796420Y-48804353D01*
X96796420Y-45279353D01*
X96796421Y-45278996D01*
X96796448Y-45275156D01*
X96796547Y-45272323D01*
X96798234Y-45245509D01*
X96798787Y-45240578D01*
X96803082Y-45214056D01*
X96804115Y-45209199D01*
X96810979Y-45183223D01*
X96812479Y-45178494D01*
X96821844Y-45153312D01*
X96823799Y-45148749D01*
X96835577Y-45124601D01*
X96837968Y-45120253D01*
X96852046Y-45097369D01*
X96854850Y-45093274D01*
X96871094Y-45071873D01*
X96874285Y-45068070D01*
X96892540Y-45048357D01*
X96896085Y-45044885D01*
X96916176Y-45027047D01*
X96920045Y-45023937D01*
X96941781Y-45008145D01*
X96945934Y-45005427D01*
X96969108Y-44991831D01*
X96973505Y-44989532D01*
X96997894Y-44978262D01*
X97002498Y-44976402D01*
X97027871Y-44967567D01*
X97032630Y-44966167D01*
X97058744Y-44959849D01*
X97063620Y-44958918D01*
X97090226Y-44955179D01*
X97095169Y-44954730D01*
X97122013Y-44953605D01*
X97126974Y-44953639D01*
G37*
G36*
X96326974Y-44953639D02*
G01*
X96353799Y-44955138D01*
X96358738Y-44955657D01*
X96385289Y-44959768D01*
X96390148Y-44960766D01*
X96416172Y-44967447D01*
X96420916Y-44968915D01*
X96446163Y-44978105D01*
X96450737Y-44980028D01*
X96474967Y-44991637D01*
X96479333Y-44993998D01*
X96502314Y-45007916D01*
X96506428Y-45010690D01*
X96527942Y-45026784D01*
X96531767Y-45029949D01*
X96551607Y-45048066D01*
X96555103Y-45051587D01*
X96573081Y-45071553D01*
X96576219Y-45075400D01*
X96592162Y-45097025D01*
X96594908Y-45101157D01*
X96608666Y-45124235D01*
X96610997Y-45128620D01*
X96622436Y-45152931D01*
X96624326Y-45157517D01*
X96633339Y-45182827D01*
X96634774Y-45187579D01*
X96641274Y-45213649D01*
X96642238Y-45218518D01*
X96646163Y-45245097D01*
X96646647Y-45250037D01*
X96647959Y-45276872D01*
X96648020Y-45279353D01*
X96648020Y-48804353D01*
X96647044Y-48814264D01*
X96644153Y-48823793D01*
X96639459Y-48832576D01*
X96633141Y-48840274D01*
X96625443Y-48846592D01*
X96616660Y-48851286D01*
X96607131Y-48854177D01*
X96597220Y-48855153D01*
X96047220Y-48855153D01*
X96037309Y-48854177D01*
X96027780Y-48851286D01*
X96018997Y-48846592D01*
X96011299Y-48840274D01*
X96004981Y-48832576D01*
X96000287Y-48823793D01*
X95997396Y-48814264D01*
X95996420Y-48804353D01*
X95996420Y-45279353D01*
X95996421Y-45278996D01*
X95996448Y-45275156D01*
X95996547Y-45272323D01*
X95998234Y-45245509D01*
X95998787Y-45240578D01*
X96003082Y-45214056D01*
X96004115Y-45209199D01*
X96010979Y-45183223D01*
X96012479Y-45178494D01*
X96021844Y-45153312D01*
X96023799Y-45148749D01*
X96035577Y-45124601D01*
X96037968Y-45120253D01*
X96052046Y-45097369D01*
X96054850Y-45093274D01*
X96071094Y-45071873D01*
X96074285Y-45068070D01*
X96092540Y-45048357D01*
X96096085Y-45044885D01*
X96116176Y-45027047D01*
X96120045Y-45023937D01*
X96141781Y-45008145D01*
X96145934Y-45005427D01*
X96169108Y-44991831D01*
X96173505Y-44989532D01*
X96197894Y-44978262D01*
X96202498Y-44976402D01*
X96227871Y-44967567D01*
X96232630Y-44966167D01*
X96258744Y-44959849D01*
X96263620Y-44958918D01*
X96290226Y-44955179D01*
X96295169Y-44954730D01*
X96322013Y-44953605D01*
X96326974Y-44953639D01*
G37*
G36*
X95526974Y-44953639D02*
G01*
X95553799Y-44955138D01*
X95558738Y-44955657D01*
X95585289Y-44959768D01*
X95590148Y-44960766D01*
X95616172Y-44967447D01*
X95620916Y-44968915D01*
X95646163Y-44978105D01*
X95650737Y-44980028D01*
X95674967Y-44991637D01*
X95679333Y-44993998D01*
X95702314Y-45007916D01*
X95706428Y-45010690D01*
X95727942Y-45026784D01*
X95731767Y-45029949D01*
X95751607Y-45048066D01*
X95755103Y-45051587D01*
X95773081Y-45071553D01*
X95776219Y-45075400D01*
X95792162Y-45097025D01*
X95794908Y-45101157D01*
X95808666Y-45124235D01*
X95810997Y-45128620D01*
X95822436Y-45152931D01*
X95824326Y-45157517D01*
X95833339Y-45182827D01*
X95834774Y-45187579D01*
X95841274Y-45213649D01*
X95842238Y-45218518D01*
X95846163Y-45245097D01*
X95846647Y-45250037D01*
X95847959Y-45276872D01*
X95848020Y-45279353D01*
X95848020Y-48804353D01*
X95847044Y-48814264D01*
X95844153Y-48823793D01*
X95839459Y-48832576D01*
X95833141Y-48840274D01*
X95825443Y-48846592D01*
X95816660Y-48851286D01*
X95807131Y-48854177D01*
X95797220Y-48855153D01*
X95247220Y-48855153D01*
X95237309Y-48854177D01*
X95227780Y-48851286D01*
X95218997Y-48846592D01*
X95211299Y-48840274D01*
X95204981Y-48832576D01*
X95200287Y-48823793D01*
X95197396Y-48814264D01*
X95196420Y-48804353D01*
X95196420Y-45279353D01*
X95196421Y-45278996D01*
X95196448Y-45275156D01*
X95196547Y-45272323D01*
X95198234Y-45245509D01*
X95198787Y-45240578D01*
X95203082Y-45214056D01*
X95204115Y-45209199D01*
X95210979Y-45183223D01*
X95212479Y-45178494D01*
X95221844Y-45153312D01*
X95223799Y-45148749D01*
X95235577Y-45124601D01*
X95237968Y-45120253D01*
X95252046Y-45097369D01*
X95254850Y-45093274D01*
X95271094Y-45071873D01*
X95274285Y-45068070D01*
X95292540Y-45048357D01*
X95296085Y-45044885D01*
X95316176Y-45027047D01*
X95320045Y-45023937D01*
X95341781Y-45008145D01*
X95345934Y-45005427D01*
X95369108Y-44991831D01*
X95373505Y-44989532D01*
X95397894Y-44978262D01*
X95402498Y-44976402D01*
X95427871Y-44967567D01*
X95432630Y-44966167D01*
X95458744Y-44959849D01*
X95463620Y-44958918D01*
X95490226Y-44955179D01*
X95495169Y-44954730D01*
X95522013Y-44953605D01*
X95526974Y-44953639D01*
G37*
G36*
X94726974Y-44953639D02*
G01*
X94753799Y-44955138D01*
X94758738Y-44955657D01*
X94785289Y-44959768D01*
X94790148Y-44960766D01*
X94816172Y-44967447D01*
X94820916Y-44968915D01*
X94846163Y-44978105D01*
X94850737Y-44980028D01*
X94874967Y-44991637D01*
X94879333Y-44993998D01*
X94902314Y-45007916D01*
X94906428Y-45010690D01*
X94927942Y-45026784D01*
X94931767Y-45029949D01*
X94951607Y-45048066D01*
X94955103Y-45051587D01*
X94973081Y-45071553D01*
X94976219Y-45075400D01*
X94992162Y-45097025D01*
X94994908Y-45101157D01*
X95008666Y-45124235D01*
X95010997Y-45128620D01*
X95022436Y-45152931D01*
X95024326Y-45157517D01*
X95033339Y-45182827D01*
X95034774Y-45187579D01*
X95041274Y-45213649D01*
X95042238Y-45218518D01*
X95046163Y-45245097D01*
X95046647Y-45250037D01*
X95047959Y-45276872D01*
X95048020Y-45279353D01*
X95048020Y-48804353D01*
X95047044Y-48814264D01*
X95044153Y-48823793D01*
X95039459Y-48832576D01*
X95033141Y-48840274D01*
X95025443Y-48846592D01*
X95016660Y-48851286D01*
X95007131Y-48854177D01*
X94997220Y-48855153D01*
X94447220Y-48855153D01*
X94437309Y-48854177D01*
X94427780Y-48851286D01*
X94418997Y-48846592D01*
X94411299Y-48840274D01*
X94404981Y-48832576D01*
X94400287Y-48823793D01*
X94397396Y-48814264D01*
X94396420Y-48804353D01*
X94396420Y-45279353D01*
X94396421Y-45278996D01*
X94396448Y-45275156D01*
X94396547Y-45272323D01*
X94398234Y-45245509D01*
X94398787Y-45240578D01*
X94403082Y-45214056D01*
X94404115Y-45209199D01*
X94410979Y-45183223D01*
X94412479Y-45178494D01*
X94421844Y-45153312D01*
X94423799Y-45148749D01*
X94435577Y-45124601D01*
X94437968Y-45120253D01*
X94452046Y-45097369D01*
X94454850Y-45093274D01*
X94471094Y-45071873D01*
X94474285Y-45068070D01*
X94492540Y-45048357D01*
X94496085Y-45044885D01*
X94516176Y-45027047D01*
X94520045Y-45023937D01*
X94541781Y-45008145D01*
X94545934Y-45005427D01*
X94569108Y-44991831D01*
X94573505Y-44989532D01*
X94597894Y-44978262D01*
X94602498Y-44976402D01*
X94627871Y-44967567D01*
X94632630Y-44966167D01*
X94658744Y-44959849D01*
X94663620Y-44958918D01*
X94690226Y-44955179D01*
X94695169Y-44954730D01*
X94722013Y-44953605D01*
X94726974Y-44953639D01*
G37*
G36*
X93926974Y-44953639D02*
G01*
X93953799Y-44955138D01*
X93958738Y-44955657D01*
X93985289Y-44959768D01*
X93990148Y-44960766D01*
X94016172Y-44967447D01*
X94020916Y-44968915D01*
X94046163Y-44978105D01*
X94050737Y-44980028D01*
X94074967Y-44991637D01*
X94079333Y-44993998D01*
X94102314Y-45007916D01*
X94106428Y-45010690D01*
X94127942Y-45026784D01*
X94131767Y-45029949D01*
X94151607Y-45048066D01*
X94155103Y-45051587D01*
X94173081Y-45071553D01*
X94176219Y-45075400D01*
X94192162Y-45097025D01*
X94194908Y-45101157D01*
X94208666Y-45124235D01*
X94210997Y-45128620D01*
X94222436Y-45152931D01*
X94224326Y-45157517D01*
X94233339Y-45182827D01*
X94234774Y-45187579D01*
X94241274Y-45213649D01*
X94242238Y-45218518D01*
X94246163Y-45245097D01*
X94246647Y-45250037D01*
X94247959Y-45276872D01*
X94248020Y-45279353D01*
X94248020Y-48804353D01*
X94247044Y-48814264D01*
X94244153Y-48823793D01*
X94239459Y-48832576D01*
X94233141Y-48840274D01*
X94225443Y-48846592D01*
X94216660Y-48851286D01*
X94207131Y-48854177D01*
X94197220Y-48855153D01*
X93647220Y-48855153D01*
X93637309Y-48854177D01*
X93627780Y-48851286D01*
X93618997Y-48846592D01*
X93611299Y-48840274D01*
X93604981Y-48832576D01*
X93600287Y-48823793D01*
X93597396Y-48814264D01*
X93596420Y-48804353D01*
X93596420Y-45279353D01*
X93596421Y-45278996D01*
X93596448Y-45275156D01*
X93596547Y-45272323D01*
X93598234Y-45245509D01*
X93598787Y-45240578D01*
X93603082Y-45214056D01*
X93604115Y-45209199D01*
X93610979Y-45183223D01*
X93612479Y-45178494D01*
X93621844Y-45153312D01*
X93623799Y-45148749D01*
X93635577Y-45124601D01*
X93637968Y-45120253D01*
X93652046Y-45097369D01*
X93654850Y-45093274D01*
X93671094Y-45071873D01*
X93674285Y-45068070D01*
X93692540Y-45048357D01*
X93696085Y-45044885D01*
X93716176Y-45027047D01*
X93720045Y-45023937D01*
X93741781Y-45008145D01*
X93745934Y-45005427D01*
X93769108Y-44991831D01*
X93773505Y-44989532D01*
X93797894Y-44978262D01*
X93802498Y-44976402D01*
X93827871Y-44967567D01*
X93832630Y-44966167D01*
X93858744Y-44959849D01*
X93863620Y-44958918D01*
X93890226Y-44955179D01*
X93895169Y-44954730D01*
X93922013Y-44953605D01*
X93926974Y-44953639D01*
G37*
G36*
X93126974Y-44953639D02*
G01*
X93153799Y-44955138D01*
X93158738Y-44955657D01*
X93185289Y-44959768D01*
X93190148Y-44960766D01*
X93216172Y-44967447D01*
X93220916Y-44968915D01*
X93246163Y-44978105D01*
X93250737Y-44980028D01*
X93274967Y-44991637D01*
X93279333Y-44993998D01*
X93302314Y-45007916D01*
X93306428Y-45010690D01*
X93327942Y-45026784D01*
X93331767Y-45029949D01*
X93351607Y-45048066D01*
X93355103Y-45051587D01*
X93373081Y-45071553D01*
X93376219Y-45075400D01*
X93392162Y-45097025D01*
X93394908Y-45101157D01*
X93408666Y-45124235D01*
X93410997Y-45128620D01*
X93422436Y-45152931D01*
X93424326Y-45157517D01*
X93433339Y-45182827D01*
X93434774Y-45187579D01*
X93441274Y-45213649D01*
X93442238Y-45218518D01*
X93446163Y-45245097D01*
X93446647Y-45250037D01*
X93447959Y-45276872D01*
X93448020Y-45279353D01*
X93448020Y-48804353D01*
X93447044Y-48814264D01*
X93444153Y-48823793D01*
X93439459Y-48832576D01*
X93433141Y-48840274D01*
X93425443Y-48846592D01*
X93416660Y-48851286D01*
X93407131Y-48854177D01*
X93397220Y-48855153D01*
X92847220Y-48855153D01*
X92837309Y-48854177D01*
X92827780Y-48851286D01*
X92818997Y-48846592D01*
X92811299Y-48840274D01*
X92804981Y-48832576D01*
X92800287Y-48823793D01*
X92797396Y-48814264D01*
X92796420Y-48804353D01*
X92796420Y-45279353D01*
X92796421Y-45278996D01*
X92796448Y-45275156D01*
X92796547Y-45272323D01*
X92798234Y-45245509D01*
X92798787Y-45240578D01*
X92803082Y-45214056D01*
X92804115Y-45209199D01*
X92810979Y-45183223D01*
X92812479Y-45178494D01*
X92821844Y-45153312D01*
X92823799Y-45148749D01*
X92835577Y-45124601D01*
X92837968Y-45120253D01*
X92852046Y-45097369D01*
X92854850Y-45093274D01*
X92871094Y-45071873D01*
X92874285Y-45068070D01*
X92892540Y-45048357D01*
X92896085Y-45044885D01*
X92916176Y-45027047D01*
X92920045Y-45023937D01*
X92941781Y-45008145D01*
X92945934Y-45005427D01*
X92969108Y-44991831D01*
X92973505Y-44989532D01*
X92997894Y-44978262D01*
X93002498Y-44976402D01*
X93027871Y-44967567D01*
X93032630Y-44966167D01*
X93058744Y-44959849D01*
X93063620Y-44958918D01*
X93090226Y-44955179D01*
X93095169Y-44954730D01*
X93122013Y-44953605D01*
X93126974Y-44953639D01*
G37*
G36*
X92326974Y-44953639D02*
G01*
X92353799Y-44955138D01*
X92358738Y-44955657D01*
X92385289Y-44959768D01*
X92390148Y-44960766D01*
X92416172Y-44967447D01*
X92420916Y-44968915D01*
X92446163Y-44978105D01*
X92450737Y-44980028D01*
X92474967Y-44991637D01*
X92479333Y-44993998D01*
X92502314Y-45007916D01*
X92506428Y-45010690D01*
X92527942Y-45026784D01*
X92531767Y-45029949D01*
X92551607Y-45048066D01*
X92555103Y-45051587D01*
X92573081Y-45071553D01*
X92576219Y-45075400D01*
X92592162Y-45097025D01*
X92594908Y-45101157D01*
X92608666Y-45124235D01*
X92610997Y-45128620D01*
X92622436Y-45152931D01*
X92624326Y-45157517D01*
X92633339Y-45182827D01*
X92634774Y-45187579D01*
X92641274Y-45213649D01*
X92642238Y-45218518D01*
X92646163Y-45245097D01*
X92646647Y-45250037D01*
X92647959Y-45276872D01*
X92648020Y-45279353D01*
X92648020Y-48804353D01*
X92647044Y-48814264D01*
X92644153Y-48823793D01*
X92639459Y-48832576D01*
X92633141Y-48840274D01*
X92625443Y-48846592D01*
X92616660Y-48851286D01*
X92607131Y-48854177D01*
X92597220Y-48855153D01*
X92047220Y-48855153D01*
X92037309Y-48854177D01*
X92027780Y-48851286D01*
X92018997Y-48846592D01*
X92011299Y-48840274D01*
X92004981Y-48832576D01*
X92000287Y-48823793D01*
X91997396Y-48814264D01*
X91996420Y-48804353D01*
X91996420Y-45279353D01*
X91996421Y-45278996D01*
X91996448Y-45275156D01*
X91996547Y-45272323D01*
X91998234Y-45245509D01*
X91998787Y-45240578D01*
X92003082Y-45214056D01*
X92004115Y-45209199D01*
X92010979Y-45183223D01*
X92012479Y-45178494D01*
X92021844Y-45153312D01*
X92023799Y-45148749D01*
X92035577Y-45124601D01*
X92037968Y-45120253D01*
X92052046Y-45097369D01*
X92054850Y-45093274D01*
X92071094Y-45071873D01*
X92074285Y-45068070D01*
X92092540Y-45048357D01*
X92096085Y-45044885D01*
X92116176Y-45027047D01*
X92120045Y-45023937D01*
X92141781Y-45008145D01*
X92145934Y-45005427D01*
X92169108Y-44991831D01*
X92173505Y-44989532D01*
X92197894Y-44978262D01*
X92202498Y-44976402D01*
X92227871Y-44967567D01*
X92232630Y-44966167D01*
X92258744Y-44959849D01*
X92263620Y-44958918D01*
X92290226Y-44955179D01*
X92295169Y-44954730D01*
X92322013Y-44953605D01*
X92326974Y-44953639D01*
G37*
G36*
X91526974Y-44953639D02*
G01*
X91553799Y-44955138D01*
X91558738Y-44955657D01*
X91585289Y-44959768D01*
X91590148Y-44960766D01*
X91616172Y-44967447D01*
X91620916Y-44968915D01*
X91646163Y-44978105D01*
X91650737Y-44980028D01*
X91674967Y-44991637D01*
X91679333Y-44993998D01*
X91702314Y-45007916D01*
X91706428Y-45010690D01*
X91727942Y-45026784D01*
X91731767Y-45029949D01*
X91751607Y-45048066D01*
X91755103Y-45051587D01*
X91773081Y-45071553D01*
X91776219Y-45075400D01*
X91792162Y-45097025D01*
X91794908Y-45101157D01*
X91808666Y-45124235D01*
X91810997Y-45128620D01*
X91822436Y-45152931D01*
X91824326Y-45157517D01*
X91833339Y-45182827D01*
X91834774Y-45187579D01*
X91841274Y-45213649D01*
X91842238Y-45218518D01*
X91846163Y-45245097D01*
X91846647Y-45250037D01*
X91847959Y-45276872D01*
X91848020Y-45279353D01*
X91848020Y-48804353D01*
X91847044Y-48814264D01*
X91844153Y-48823793D01*
X91839459Y-48832576D01*
X91833141Y-48840274D01*
X91825443Y-48846592D01*
X91816660Y-48851286D01*
X91807131Y-48854177D01*
X91797220Y-48855153D01*
X91247220Y-48855153D01*
X91237309Y-48854177D01*
X91227780Y-48851286D01*
X91218997Y-48846592D01*
X91211299Y-48840274D01*
X91204981Y-48832576D01*
X91200287Y-48823793D01*
X91197396Y-48814264D01*
X91196420Y-48804353D01*
X91196420Y-45279353D01*
X91196421Y-45278996D01*
X91196448Y-45275156D01*
X91196547Y-45272323D01*
X91198234Y-45245509D01*
X91198787Y-45240578D01*
X91203082Y-45214056D01*
X91204115Y-45209199D01*
X91210979Y-45183223D01*
X91212479Y-45178494D01*
X91221844Y-45153312D01*
X91223799Y-45148749D01*
X91235577Y-45124601D01*
X91237968Y-45120253D01*
X91252046Y-45097369D01*
X91254850Y-45093274D01*
X91271094Y-45071873D01*
X91274285Y-45068070D01*
X91292540Y-45048357D01*
X91296085Y-45044885D01*
X91316176Y-45027047D01*
X91320045Y-45023937D01*
X91341781Y-45008145D01*
X91345934Y-45005427D01*
X91369108Y-44991831D01*
X91373505Y-44989532D01*
X91397894Y-44978262D01*
X91402498Y-44976402D01*
X91427871Y-44967567D01*
X91432630Y-44966167D01*
X91458744Y-44959849D01*
X91463620Y-44958918D01*
X91490226Y-44955179D01*
X91495169Y-44954730D01*
X91522013Y-44953605D01*
X91526974Y-44953639D01*
G37*
G36*
X90726974Y-44953639D02*
G01*
X90753799Y-44955138D01*
X90758738Y-44955657D01*
X90785289Y-44959768D01*
X90790148Y-44960766D01*
X90816172Y-44967447D01*
X90820916Y-44968915D01*
X90846163Y-44978105D01*
X90850737Y-44980028D01*
X90874967Y-44991637D01*
X90879333Y-44993998D01*
X90902314Y-45007916D01*
X90906428Y-45010690D01*
X90927942Y-45026784D01*
X90931767Y-45029949D01*
X90951607Y-45048066D01*
X90955103Y-45051587D01*
X90973081Y-45071553D01*
X90976219Y-45075400D01*
X90992162Y-45097025D01*
X90994908Y-45101157D01*
X91008666Y-45124235D01*
X91010997Y-45128620D01*
X91022436Y-45152931D01*
X91024326Y-45157517D01*
X91033339Y-45182827D01*
X91034774Y-45187579D01*
X91041274Y-45213649D01*
X91042238Y-45218518D01*
X91046163Y-45245097D01*
X91046647Y-45250037D01*
X91047959Y-45276872D01*
X91048020Y-45279353D01*
X91048020Y-48804353D01*
X91047044Y-48814264D01*
X91044153Y-48823793D01*
X91039459Y-48832576D01*
X91033141Y-48840274D01*
X91025443Y-48846592D01*
X91016660Y-48851286D01*
X91007131Y-48854177D01*
X90997220Y-48855153D01*
X90447220Y-48855153D01*
X90437309Y-48854177D01*
X90427780Y-48851286D01*
X90418997Y-48846592D01*
X90411299Y-48840274D01*
X90404981Y-48832576D01*
X90400287Y-48823793D01*
X90397396Y-48814264D01*
X90396420Y-48804353D01*
X90396420Y-45279353D01*
X90396421Y-45278996D01*
X90396448Y-45275156D01*
X90396547Y-45272323D01*
X90398234Y-45245509D01*
X90398787Y-45240578D01*
X90403082Y-45214056D01*
X90404115Y-45209199D01*
X90410979Y-45183223D01*
X90412479Y-45178494D01*
X90421844Y-45153312D01*
X90423799Y-45148749D01*
X90435577Y-45124601D01*
X90437968Y-45120253D01*
X90452046Y-45097369D01*
X90454850Y-45093274D01*
X90471094Y-45071873D01*
X90474285Y-45068070D01*
X90492540Y-45048357D01*
X90496085Y-45044885D01*
X90516176Y-45027047D01*
X90520045Y-45023937D01*
X90541781Y-45008145D01*
X90545934Y-45005427D01*
X90569108Y-44991831D01*
X90573505Y-44989532D01*
X90597894Y-44978262D01*
X90602498Y-44976402D01*
X90627871Y-44967567D01*
X90632630Y-44966167D01*
X90658744Y-44959849D01*
X90663620Y-44958918D01*
X90690226Y-44955179D01*
X90695169Y-44954730D01*
X90722013Y-44953605D01*
X90726974Y-44953639D01*
G37*
G36*
X89926974Y-44953639D02*
G01*
X89953799Y-44955138D01*
X89958738Y-44955657D01*
X89985289Y-44959768D01*
X89990148Y-44960766D01*
X90016172Y-44967447D01*
X90020916Y-44968915D01*
X90046163Y-44978105D01*
X90050737Y-44980028D01*
X90074967Y-44991637D01*
X90079333Y-44993998D01*
X90102314Y-45007916D01*
X90106428Y-45010690D01*
X90127942Y-45026784D01*
X90131767Y-45029949D01*
X90151607Y-45048066D01*
X90155103Y-45051587D01*
X90173081Y-45071553D01*
X90176219Y-45075400D01*
X90192162Y-45097025D01*
X90194908Y-45101157D01*
X90208666Y-45124235D01*
X90210997Y-45128620D01*
X90222436Y-45152931D01*
X90224326Y-45157517D01*
X90233339Y-45182827D01*
X90234774Y-45187579D01*
X90241274Y-45213649D01*
X90242238Y-45218518D01*
X90246163Y-45245097D01*
X90246647Y-45250037D01*
X90247959Y-45276872D01*
X90248020Y-45279353D01*
X90248020Y-48804353D01*
X90247044Y-48814264D01*
X90244153Y-48823793D01*
X90239459Y-48832576D01*
X90233141Y-48840274D01*
X90225443Y-48846592D01*
X90216660Y-48851286D01*
X90207131Y-48854177D01*
X90197220Y-48855153D01*
X89647220Y-48855153D01*
X89637309Y-48854177D01*
X89627780Y-48851286D01*
X89618997Y-48846592D01*
X89611299Y-48840274D01*
X89604981Y-48832576D01*
X89600287Y-48823793D01*
X89597396Y-48814264D01*
X89596420Y-48804353D01*
X89596420Y-45279353D01*
X89596421Y-45278996D01*
X89596448Y-45275156D01*
X89596547Y-45272323D01*
X89598234Y-45245509D01*
X89598787Y-45240578D01*
X89603082Y-45214056D01*
X89604115Y-45209199D01*
X89610979Y-45183223D01*
X89612479Y-45178494D01*
X89621844Y-45153312D01*
X89623799Y-45148749D01*
X89635577Y-45124601D01*
X89637968Y-45120253D01*
X89652046Y-45097369D01*
X89654850Y-45093274D01*
X89671094Y-45071873D01*
X89674285Y-45068070D01*
X89692540Y-45048357D01*
X89696085Y-45044885D01*
X89716176Y-45027047D01*
X89720045Y-45023937D01*
X89741781Y-45008145D01*
X89745934Y-45005427D01*
X89769108Y-44991831D01*
X89773505Y-44989532D01*
X89797894Y-44978262D01*
X89802498Y-44976402D01*
X89827871Y-44967567D01*
X89832630Y-44966167D01*
X89858744Y-44959849D01*
X89863620Y-44958918D01*
X89890226Y-44955179D01*
X89895169Y-44954730D01*
X89922013Y-44953605D01*
X89926974Y-44953639D01*
G37*
G36*
X89126974Y-44953639D02*
G01*
X89153799Y-44955138D01*
X89158738Y-44955657D01*
X89185289Y-44959768D01*
X89190148Y-44960766D01*
X89216172Y-44967447D01*
X89220916Y-44968915D01*
X89246163Y-44978105D01*
X89250737Y-44980028D01*
X89274967Y-44991637D01*
X89279333Y-44993998D01*
X89302314Y-45007916D01*
X89306428Y-45010690D01*
X89327942Y-45026784D01*
X89331767Y-45029949D01*
X89351607Y-45048066D01*
X89355103Y-45051587D01*
X89373081Y-45071553D01*
X89376219Y-45075400D01*
X89392162Y-45097025D01*
X89394908Y-45101157D01*
X89408666Y-45124235D01*
X89410997Y-45128620D01*
X89422436Y-45152931D01*
X89424326Y-45157517D01*
X89433339Y-45182827D01*
X89434774Y-45187579D01*
X89441274Y-45213649D01*
X89442238Y-45218518D01*
X89446163Y-45245097D01*
X89446647Y-45250037D01*
X89447959Y-45276872D01*
X89448020Y-45279353D01*
X89448020Y-48804353D01*
X89447044Y-48814264D01*
X89444153Y-48823793D01*
X89439459Y-48832576D01*
X89433141Y-48840274D01*
X89425443Y-48846592D01*
X89416660Y-48851286D01*
X89407131Y-48854177D01*
X89397220Y-48855153D01*
X88847220Y-48855153D01*
X88837309Y-48854177D01*
X88827780Y-48851286D01*
X88818997Y-48846592D01*
X88811299Y-48840274D01*
X88804981Y-48832576D01*
X88800287Y-48823793D01*
X88797396Y-48814264D01*
X88796420Y-48804353D01*
X88796420Y-45279353D01*
X88796421Y-45278996D01*
X88796448Y-45275156D01*
X88796547Y-45272323D01*
X88798234Y-45245509D01*
X88798787Y-45240578D01*
X88803082Y-45214056D01*
X88804115Y-45209199D01*
X88810979Y-45183223D01*
X88812479Y-45178494D01*
X88821844Y-45153312D01*
X88823799Y-45148749D01*
X88835577Y-45124601D01*
X88837968Y-45120253D01*
X88852046Y-45097369D01*
X88854850Y-45093274D01*
X88871094Y-45071873D01*
X88874285Y-45068070D01*
X88892540Y-45048357D01*
X88896085Y-45044885D01*
X88916176Y-45027047D01*
X88920045Y-45023937D01*
X88941781Y-45008145D01*
X88945934Y-45005427D01*
X88969108Y-44991831D01*
X88973505Y-44989532D01*
X88997894Y-44978262D01*
X89002498Y-44976402D01*
X89027871Y-44967567D01*
X89032630Y-44966167D01*
X89058744Y-44959849D01*
X89063620Y-44958918D01*
X89090226Y-44955179D01*
X89095169Y-44954730D01*
X89122013Y-44953605D01*
X89126974Y-44953639D01*
G37*
G36*
X88326974Y-44953639D02*
G01*
X88353799Y-44955138D01*
X88358738Y-44955657D01*
X88385289Y-44959768D01*
X88390148Y-44960766D01*
X88416172Y-44967447D01*
X88420916Y-44968915D01*
X88446163Y-44978105D01*
X88450737Y-44980028D01*
X88474967Y-44991637D01*
X88479333Y-44993998D01*
X88502314Y-45007916D01*
X88506428Y-45010690D01*
X88527942Y-45026784D01*
X88531767Y-45029949D01*
X88551607Y-45048066D01*
X88555103Y-45051587D01*
X88573081Y-45071553D01*
X88576219Y-45075400D01*
X88592162Y-45097025D01*
X88594908Y-45101157D01*
X88608666Y-45124235D01*
X88610997Y-45128620D01*
X88622436Y-45152931D01*
X88624326Y-45157517D01*
X88633339Y-45182827D01*
X88634774Y-45187579D01*
X88641274Y-45213649D01*
X88642238Y-45218518D01*
X88646163Y-45245097D01*
X88646647Y-45250037D01*
X88647959Y-45276872D01*
X88648020Y-45279353D01*
X88648020Y-48804353D01*
X88647044Y-48814264D01*
X88644153Y-48823793D01*
X88639459Y-48832576D01*
X88633141Y-48840274D01*
X88625443Y-48846592D01*
X88616660Y-48851286D01*
X88607131Y-48854177D01*
X88597220Y-48855153D01*
X88047220Y-48855153D01*
X88037309Y-48854177D01*
X88027780Y-48851286D01*
X88018997Y-48846592D01*
X88011299Y-48840274D01*
X88004981Y-48832576D01*
X88000287Y-48823793D01*
X87997396Y-48814264D01*
X87996420Y-48804353D01*
X87996420Y-45279353D01*
X87996421Y-45278996D01*
X87996448Y-45275156D01*
X87996547Y-45272323D01*
X87998234Y-45245509D01*
X87998787Y-45240578D01*
X88003082Y-45214056D01*
X88004115Y-45209199D01*
X88010979Y-45183223D01*
X88012479Y-45178494D01*
X88021844Y-45153312D01*
X88023799Y-45148749D01*
X88035577Y-45124601D01*
X88037968Y-45120253D01*
X88052046Y-45097369D01*
X88054850Y-45093274D01*
X88071094Y-45071873D01*
X88074285Y-45068070D01*
X88092540Y-45048357D01*
X88096085Y-45044885D01*
X88116176Y-45027047D01*
X88120045Y-45023937D01*
X88141781Y-45008145D01*
X88145934Y-45005427D01*
X88169108Y-44991831D01*
X88173505Y-44989532D01*
X88197894Y-44978262D01*
X88202498Y-44976402D01*
X88227871Y-44967567D01*
X88232630Y-44966167D01*
X88258744Y-44959849D01*
X88263620Y-44958918D01*
X88290226Y-44955179D01*
X88295169Y-44954730D01*
X88322013Y-44953605D01*
X88326974Y-44953639D01*
G37*
G36*
X87526974Y-44953639D02*
G01*
X87553799Y-44955138D01*
X87558738Y-44955657D01*
X87585289Y-44959768D01*
X87590148Y-44960766D01*
X87616172Y-44967447D01*
X87620916Y-44968915D01*
X87646163Y-44978105D01*
X87650737Y-44980028D01*
X87674967Y-44991637D01*
X87679333Y-44993998D01*
X87702314Y-45007916D01*
X87706428Y-45010690D01*
X87727942Y-45026784D01*
X87731767Y-45029949D01*
X87751607Y-45048066D01*
X87755103Y-45051587D01*
X87773081Y-45071553D01*
X87776219Y-45075400D01*
X87792162Y-45097025D01*
X87794908Y-45101157D01*
X87808666Y-45124235D01*
X87810997Y-45128620D01*
X87822436Y-45152931D01*
X87824326Y-45157517D01*
X87833339Y-45182827D01*
X87834774Y-45187579D01*
X87841274Y-45213649D01*
X87842238Y-45218518D01*
X87846163Y-45245097D01*
X87846647Y-45250037D01*
X87847959Y-45276872D01*
X87848020Y-45279353D01*
X87848020Y-48804353D01*
X87847044Y-48814264D01*
X87844153Y-48823793D01*
X87839459Y-48832576D01*
X87833141Y-48840274D01*
X87825443Y-48846592D01*
X87816660Y-48851286D01*
X87807131Y-48854177D01*
X87797220Y-48855153D01*
X87247220Y-48855153D01*
X87237309Y-48854177D01*
X87227780Y-48851286D01*
X87218997Y-48846592D01*
X87211299Y-48840274D01*
X87204981Y-48832576D01*
X87200287Y-48823793D01*
X87197396Y-48814264D01*
X87196420Y-48804353D01*
X87196420Y-45279353D01*
X87196421Y-45278996D01*
X87196448Y-45275156D01*
X87196547Y-45272323D01*
X87198234Y-45245509D01*
X87198787Y-45240578D01*
X87203082Y-45214056D01*
X87204115Y-45209199D01*
X87210979Y-45183223D01*
X87212479Y-45178494D01*
X87221844Y-45153312D01*
X87223799Y-45148749D01*
X87235577Y-45124601D01*
X87237968Y-45120253D01*
X87252046Y-45097369D01*
X87254850Y-45093274D01*
X87271094Y-45071873D01*
X87274285Y-45068070D01*
X87292540Y-45048357D01*
X87296085Y-45044885D01*
X87316176Y-45027047D01*
X87320045Y-45023937D01*
X87341781Y-45008145D01*
X87345934Y-45005427D01*
X87369108Y-44991831D01*
X87373505Y-44989532D01*
X87397894Y-44978262D01*
X87402498Y-44976402D01*
X87427871Y-44967567D01*
X87432630Y-44966167D01*
X87458744Y-44959849D01*
X87463620Y-44958918D01*
X87490226Y-44955179D01*
X87495169Y-44954730D01*
X87522013Y-44953605D01*
X87526974Y-44953639D01*
G37*
G36*
X86726974Y-44953639D02*
G01*
X86753799Y-44955138D01*
X86758738Y-44955657D01*
X86785289Y-44959768D01*
X86790148Y-44960766D01*
X86816172Y-44967447D01*
X86820916Y-44968915D01*
X86846163Y-44978105D01*
X86850737Y-44980028D01*
X86874967Y-44991637D01*
X86879333Y-44993998D01*
X86902314Y-45007916D01*
X86906428Y-45010690D01*
X86927942Y-45026784D01*
X86931767Y-45029949D01*
X86951607Y-45048066D01*
X86955103Y-45051587D01*
X86973081Y-45071553D01*
X86976219Y-45075400D01*
X86992162Y-45097025D01*
X86994908Y-45101157D01*
X87008666Y-45124235D01*
X87010997Y-45128620D01*
X87022436Y-45152931D01*
X87024326Y-45157517D01*
X87033339Y-45182827D01*
X87034774Y-45187579D01*
X87041274Y-45213649D01*
X87042238Y-45218518D01*
X87046163Y-45245097D01*
X87046647Y-45250037D01*
X87047959Y-45276872D01*
X87048020Y-45279353D01*
X87048020Y-48804353D01*
X87047044Y-48814264D01*
X87044153Y-48823793D01*
X87039459Y-48832576D01*
X87033141Y-48840274D01*
X87025443Y-48846592D01*
X87016660Y-48851286D01*
X87007131Y-48854177D01*
X86997220Y-48855153D01*
X86447220Y-48855153D01*
X86437309Y-48854177D01*
X86427780Y-48851286D01*
X86418997Y-48846592D01*
X86411299Y-48840274D01*
X86404981Y-48832576D01*
X86400287Y-48823793D01*
X86397396Y-48814264D01*
X86396420Y-48804353D01*
X86396420Y-45279353D01*
X86396421Y-45278996D01*
X86396448Y-45275156D01*
X86396547Y-45272323D01*
X86398234Y-45245509D01*
X86398787Y-45240578D01*
X86403082Y-45214056D01*
X86404115Y-45209199D01*
X86410979Y-45183223D01*
X86412479Y-45178494D01*
X86421844Y-45153312D01*
X86423799Y-45148749D01*
X86435577Y-45124601D01*
X86437968Y-45120253D01*
X86452046Y-45097369D01*
X86454850Y-45093274D01*
X86471094Y-45071873D01*
X86474285Y-45068070D01*
X86492540Y-45048357D01*
X86496085Y-45044885D01*
X86516176Y-45027047D01*
X86520045Y-45023937D01*
X86541781Y-45008145D01*
X86545934Y-45005427D01*
X86569108Y-44991831D01*
X86573505Y-44989532D01*
X86597894Y-44978262D01*
X86602498Y-44976402D01*
X86627871Y-44967567D01*
X86632630Y-44966167D01*
X86658744Y-44959849D01*
X86663620Y-44958918D01*
X86690226Y-44955179D01*
X86695169Y-44954730D01*
X86722013Y-44953605D01*
X86726974Y-44953639D01*
G37*
G36*
X85926974Y-44953639D02*
G01*
X85953799Y-44955138D01*
X85958738Y-44955657D01*
X85985289Y-44959768D01*
X85990148Y-44960766D01*
X86016172Y-44967447D01*
X86020916Y-44968915D01*
X86046163Y-44978105D01*
X86050737Y-44980028D01*
X86074967Y-44991637D01*
X86079333Y-44993998D01*
X86102314Y-45007916D01*
X86106428Y-45010690D01*
X86127942Y-45026784D01*
X86131767Y-45029949D01*
X86151607Y-45048066D01*
X86155103Y-45051587D01*
X86173081Y-45071553D01*
X86176219Y-45075400D01*
X86192162Y-45097025D01*
X86194908Y-45101157D01*
X86208666Y-45124235D01*
X86210997Y-45128620D01*
X86222436Y-45152931D01*
X86224326Y-45157517D01*
X86233339Y-45182827D01*
X86234774Y-45187579D01*
X86241274Y-45213649D01*
X86242238Y-45218518D01*
X86246163Y-45245097D01*
X86246647Y-45250037D01*
X86247959Y-45276872D01*
X86248020Y-45279353D01*
X86248020Y-48804353D01*
X86247044Y-48814264D01*
X86244153Y-48823793D01*
X86239459Y-48832576D01*
X86233141Y-48840274D01*
X86225443Y-48846592D01*
X86216660Y-48851286D01*
X86207131Y-48854177D01*
X86197220Y-48855153D01*
X85647220Y-48855153D01*
X85637309Y-48854177D01*
X85627780Y-48851286D01*
X85618997Y-48846592D01*
X85611299Y-48840274D01*
X85604981Y-48832576D01*
X85600287Y-48823793D01*
X85597396Y-48814264D01*
X85596420Y-48804353D01*
X85596420Y-45279353D01*
X85596421Y-45278996D01*
X85596448Y-45275156D01*
X85596547Y-45272323D01*
X85598234Y-45245509D01*
X85598787Y-45240578D01*
X85603082Y-45214056D01*
X85604115Y-45209199D01*
X85610979Y-45183223D01*
X85612479Y-45178494D01*
X85621844Y-45153312D01*
X85623799Y-45148749D01*
X85635577Y-45124601D01*
X85637968Y-45120253D01*
X85652046Y-45097369D01*
X85654850Y-45093274D01*
X85671094Y-45071873D01*
X85674285Y-45068070D01*
X85692540Y-45048357D01*
X85696085Y-45044885D01*
X85716176Y-45027047D01*
X85720045Y-45023937D01*
X85741781Y-45008145D01*
X85745934Y-45005427D01*
X85769108Y-44991831D01*
X85773505Y-44989532D01*
X85797894Y-44978262D01*
X85802498Y-44976402D01*
X85827871Y-44967567D01*
X85832630Y-44966167D01*
X85858744Y-44959849D01*
X85863620Y-44958918D01*
X85890226Y-44955179D01*
X85895169Y-44954730D01*
X85922013Y-44953605D01*
X85926974Y-44953639D01*
G37*
G36*
X85126974Y-44953639D02*
G01*
X85153799Y-44955138D01*
X85158738Y-44955657D01*
X85185289Y-44959768D01*
X85190148Y-44960766D01*
X85216172Y-44967447D01*
X85220916Y-44968915D01*
X85246163Y-44978105D01*
X85250737Y-44980028D01*
X85274967Y-44991637D01*
X85279333Y-44993998D01*
X85302314Y-45007916D01*
X85306428Y-45010690D01*
X85327942Y-45026784D01*
X85331767Y-45029949D01*
X85351607Y-45048066D01*
X85355103Y-45051587D01*
X85373081Y-45071553D01*
X85376219Y-45075400D01*
X85392162Y-45097025D01*
X85394908Y-45101157D01*
X85408666Y-45124235D01*
X85410997Y-45128620D01*
X85422436Y-45152931D01*
X85424326Y-45157517D01*
X85433339Y-45182827D01*
X85434774Y-45187579D01*
X85441274Y-45213649D01*
X85442238Y-45218518D01*
X85446163Y-45245097D01*
X85446647Y-45250037D01*
X85447959Y-45276872D01*
X85448020Y-45279353D01*
X85448020Y-48804353D01*
X85447044Y-48814264D01*
X85444153Y-48823793D01*
X85439459Y-48832576D01*
X85433141Y-48840274D01*
X85425443Y-48846592D01*
X85416660Y-48851286D01*
X85407131Y-48854177D01*
X85397220Y-48855153D01*
X84847220Y-48855153D01*
X84837309Y-48854177D01*
X84827780Y-48851286D01*
X84818997Y-48846592D01*
X84811299Y-48840274D01*
X84804981Y-48832576D01*
X84800287Y-48823793D01*
X84797396Y-48814264D01*
X84796420Y-48804353D01*
X84796420Y-45279353D01*
X84796421Y-45278996D01*
X84796448Y-45275156D01*
X84796547Y-45272323D01*
X84798234Y-45245509D01*
X84798787Y-45240578D01*
X84803082Y-45214056D01*
X84804115Y-45209199D01*
X84810979Y-45183223D01*
X84812479Y-45178494D01*
X84821844Y-45153312D01*
X84823799Y-45148749D01*
X84835577Y-45124601D01*
X84837968Y-45120253D01*
X84852046Y-45097369D01*
X84854850Y-45093274D01*
X84871094Y-45071873D01*
X84874285Y-45068070D01*
X84892540Y-45048357D01*
X84896085Y-45044885D01*
X84916176Y-45027047D01*
X84920045Y-45023937D01*
X84941781Y-45008145D01*
X84945934Y-45005427D01*
X84969108Y-44991831D01*
X84973505Y-44989532D01*
X84997894Y-44978262D01*
X85002498Y-44976402D01*
X85027871Y-44967567D01*
X85032630Y-44966167D01*
X85058744Y-44959849D01*
X85063620Y-44958918D01*
X85090226Y-44955179D01*
X85095169Y-44954730D01*
X85122013Y-44953605D01*
X85126974Y-44953639D01*
G37*
G36*
X84326974Y-44953639D02*
G01*
X84353799Y-44955138D01*
X84358738Y-44955657D01*
X84385289Y-44959768D01*
X84390148Y-44960766D01*
X84416172Y-44967447D01*
X84420916Y-44968915D01*
X84446163Y-44978105D01*
X84450737Y-44980028D01*
X84474967Y-44991637D01*
X84479333Y-44993998D01*
X84502314Y-45007916D01*
X84506428Y-45010690D01*
X84527942Y-45026784D01*
X84531767Y-45029949D01*
X84551607Y-45048066D01*
X84555103Y-45051587D01*
X84573081Y-45071553D01*
X84576219Y-45075400D01*
X84592162Y-45097025D01*
X84594908Y-45101157D01*
X84608666Y-45124235D01*
X84610997Y-45128620D01*
X84622436Y-45152931D01*
X84624326Y-45157517D01*
X84633339Y-45182827D01*
X84634774Y-45187579D01*
X84641274Y-45213649D01*
X84642238Y-45218518D01*
X84646163Y-45245097D01*
X84646647Y-45250037D01*
X84647959Y-45276872D01*
X84648020Y-45279353D01*
X84648020Y-48804353D01*
X84647044Y-48814264D01*
X84644153Y-48823793D01*
X84639459Y-48832576D01*
X84633141Y-48840274D01*
X84625443Y-48846592D01*
X84616660Y-48851286D01*
X84607131Y-48854177D01*
X84597220Y-48855153D01*
X84047220Y-48855153D01*
X84037309Y-48854177D01*
X84027780Y-48851286D01*
X84018997Y-48846592D01*
X84011299Y-48840274D01*
X84004981Y-48832576D01*
X84000287Y-48823793D01*
X83997396Y-48814264D01*
X83996420Y-48804353D01*
X83996420Y-45279353D01*
X83996421Y-45278996D01*
X83996448Y-45275156D01*
X83996547Y-45272323D01*
X83998234Y-45245509D01*
X83998787Y-45240578D01*
X84003082Y-45214056D01*
X84004115Y-45209199D01*
X84010979Y-45183223D01*
X84012479Y-45178494D01*
X84021844Y-45153312D01*
X84023799Y-45148749D01*
X84035577Y-45124601D01*
X84037968Y-45120253D01*
X84052046Y-45097369D01*
X84054850Y-45093274D01*
X84071094Y-45071873D01*
X84074285Y-45068070D01*
X84092540Y-45048357D01*
X84096085Y-45044885D01*
X84116176Y-45027047D01*
X84120045Y-45023937D01*
X84141781Y-45008145D01*
X84145934Y-45005427D01*
X84169108Y-44991831D01*
X84173505Y-44989532D01*
X84197894Y-44978262D01*
X84202498Y-44976402D01*
X84227871Y-44967567D01*
X84232630Y-44966167D01*
X84258744Y-44959849D01*
X84263620Y-44958918D01*
X84290226Y-44955179D01*
X84295169Y-44954730D01*
X84322013Y-44953605D01*
X84326974Y-44953639D01*
G37*
G36*
X83526974Y-44953639D02*
G01*
X83553799Y-44955138D01*
X83558738Y-44955657D01*
X83585289Y-44959768D01*
X83590148Y-44960766D01*
X83616172Y-44967447D01*
X83620916Y-44968915D01*
X83646163Y-44978105D01*
X83650737Y-44980028D01*
X83674967Y-44991637D01*
X83679333Y-44993998D01*
X83702314Y-45007916D01*
X83706428Y-45010690D01*
X83727942Y-45026784D01*
X83731767Y-45029949D01*
X83751607Y-45048066D01*
X83755103Y-45051587D01*
X83773081Y-45071553D01*
X83776219Y-45075400D01*
X83792162Y-45097025D01*
X83794908Y-45101157D01*
X83808666Y-45124235D01*
X83810997Y-45128620D01*
X83822436Y-45152931D01*
X83824326Y-45157517D01*
X83833339Y-45182827D01*
X83834774Y-45187579D01*
X83841274Y-45213649D01*
X83842238Y-45218518D01*
X83846163Y-45245097D01*
X83846647Y-45250037D01*
X83847959Y-45276872D01*
X83848020Y-45279353D01*
X83848020Y-48804353D01*
X83847044Y-48814264D01*
X83844153Y-48823793D01*
X83839459Y-48832576D01*
X83833141Y-48840274D01*
X83825443Y-48846592D01*
X83816660Y-48851286D01*
X83807131Y-48854177D01*
X83797220Y-48855153D01*
X83247220Y-48855153D01*
X83237309Y-48854177D01*
X83227780Y-48851286D01*
X83218997Y-48846592D01*
X83211299Y-48840274D01*
X83204981Y-48832576D01*
X83200287Y-48823793D01*
X83197396Y-48814264D01*
X83196420Y-48804353D01*
X83196420Y-45279353D01*
X83196421Y-45278996D01*
X83196448Y-45275156D01*
X83196547Y-45272323D01*
X83198234Y-45245509D01*
X83198787Y-45240578D01*
X83203082Y-45214056D01*
X83204115Y-45209199D01*
X83210979Y-45183223D01*
X83212479Y-45178494D01*
X83221844Y-45153312D01*
X83223799Y-45148749D01*
X83235577Y-45124601D01*
X83237968Y-45120253D01*
X83252046Y-45097369D01*
X83254850Y-45093274D01*
X83271094Y-45071873D01*
X83274285Y-45068070D01*
X83292540Y-45048357D01*
X83296085Y-45044885D01*
X83316176Y-45027047D01*
X83320045Y-45023937D01*
X83341781Y-45008145D01*
X83345934Y-45005427D01*
X83369108Y-44991831D01*
X83373505Y-44989532D01*
X83397894Y-44978262D01*
X83402498Y-44976402D01*
X83427871Y-44967567D01*
X83432630Y-44966167D01*
X83458744Y-44959849D01*
X83463620Y-44958918D01*
X83490226Y-44955179D01*
X83495169Y-44954730D01*
X83522013Y-44953605D01*
X83526974Y-44953639D01*
G37*
G36*
X82726974Y-44953639D02*
G01*
X82753799Y-44955138D01*
X82758738Y-44955657D01*
X82785289Y-44959768D01*
X82790148Y-44960766D01*
X82816172Y-44967447D01*
X82820916Y-44968915D01*
X82846163Y-44978105D01*
X82850737Y-44980028D01*
X82874967Y-44991637D01*
X82879333Y-44993998D01*
X82902314Y-45007916D01*
X82906428Y-45010690D01*
X82927942Y-45026784D01*
X82931767Y-45029949D01*
X82951607Y-45048066D01*
X82955103Y-45051587D01*
X82973081Y-45071553D01*
X82976219Y-45075400D01*
X82992162Y-45097025D01*
X82994908Y-45101157D01*
X83008666Y-45124235D01*
X83010997Y-45128620D01*
X83022436Y-45152931D01*
X83024326Y-45157517D01*
X83033339Y-45182827D01*
X83034774Y-45187579D01*
X83041274Y-45213649D01*
X83042238Y-45218518D01*
X83046163Y-45245097D01*
X83046647Y-45250037D01*
X83047959Y-45276872D01*
X83048020Y-45279353D01*
X83048020Y-48804353D01*
X83047044Y-48814264D01*
X83044153Y-48823793D01*
X83039459Y-48832576D01*
X83033141Y-48840274D01*
X83025443Y-48846592D01*
X83016660Y-48851286D01*
X83007131Y-48854177D01*
X82997220Y-48855153D01*
X82447220Y-48855153D01*
X82437309Y-48854177D01*
X82427780Y-48851286D01*
X82418997Y-48846592D01*
X82411299Y-48840274D01*
X82404981Y-48832576D01*
X82400287Y-48823793D01*
X82397396Y-48814264D01*
X82396420Y-48804353D01*
X82396420Y-45279353D01*
X82396421Y-45278996D01*
X82396448Y-45275156D01*
X82396547Y-45272323D01*
X82398234Y-45245509D01*
X82398787Y-45240578D01*
X82403082Y-45214056D01*
X82404115Y-45209199D01*
X82410979Y-45183223D01*
X82412479Y-45178494D01*
X82421844Y-45153312D01*
X82423799Y-45148749D01*
X82435577Y-45124601D01*
X82437968Y-45120253D01*
X82452046Y-45097369D01*
X82454850Y-45093274D01*
X82471094Y-45071873D01*
X82474285Y-45068070D01*
X82492540Y-45048357D01*
X82496085Y-45044885D01*
X82516176Y-45027047D01*
X82520045Y-45023937D01*
X82541781Y-45008145D01*
X82545934Y-45005427D01*
X82569108Y-44991831D01*
X82573505Y-44989532D01*
X82597894Y-44978262D01*
X82602498Y-44976402D01*
X82627871Y-44967567D01*
X82632630Y-44966167D01*
X82658744Y-44959849D01*
X82663620Y-44958918D01*
X82690226Y-44955179D01*
X82695169Y-44954730D01*
X82722013Y-44953605D01*
X82726974Y-44953639D01*
G37*
G36*
X81926974Y-44953639D02*
G01*
X81953799Y-44955138D01*
X81958738Y-44955657D01*
X81985289Y-44959768D01*
X81990148Y-44960766D01*
X82016172Y-44967447D01*
X82020916Y-44968915D01*
X82046163Y-44978105D01*
X82050737Y-44980028D01*
X82074967Y-44991637D01*
X82079333Y-44993998D01*
X82102314Y-45007916D01*
X82106428Y-45010690D01*
X82127942Y-45026784D01*
X82131767Y-45029949D01*
X82151607Y-45048066D01*
X82155103Y-45051587D01*
X82173081Y-45071553D01*
X82176219Y-45075400D01*
X82192162Y-45097025D01*
X82194908Y-45101157D01*
X82208666Y-45124235D01*
X82210997Y-45128620D01*
X82222436Y-45152931D01*
X82224326Y-45157517D01*
X82233339Y-45182827D01*
X82234774Y-45187579D01*
X82241274Y-45213649D01*
X82242238Y-45218518D01*
X82246163Y-45245097D01*
X82246647Y-45250037D01*
X82247959Y-45276872D01*
X82248020Y-45279353D01*
X82248020Y-48804353D01*
X82247044Y-48814264D01*
X82244153Y-48823793D01*
X82239459Y-48832576D01*
X82233141Y-48840274D01*
X82225443Y-48846592D01*
X82216660Y-48851286D01*
X82207131Y-48854177D01*
X82197220Y-48855153D01*
X81647220Y-48855153D01*
X81637309Y-48854177D01*
X81627780Y-48851286D01*
X81618997Y-48846592D01*
X81611299Y-48840274D01*
X81604981Y-48832576D01*
X81600287Y-48823793D01*
X81597396Y-48814264D01*
X81596420Y-48804353D01*
X81596420Y-45279353D01*
X81596421Y-45278996D01*
X81596448Y-45275156D01*
X81596547Y-45272323D01*
X81598234Y-45245509D01*
X81598787Y-45240578D01*
X81603082Y-45214056D01*
X81604115Y-45209199D01*
X81610979Y-45183223D01*
X81612479Y-45178494D01*
X81621844Y-45153312D01*
X81623799Y-45148749D01*
X81635577Y-45124601D01*
X81637968Y-45120253D01*
X81652046Y-45097369D01*
X81654850Y-45093274D01*
X81671094Y-45071873D01*
X81674285Y-45068070D01*
X81692540Y-45048357D01*
X81696085Y-45044885D01*
X81716176Y-45027047D01*
X81720045Y-45023937D01*
X81741781Y-45008145D01*
X81745934Y-45005427D01*
X81769108Y-44991831D01*
X81773505Y-44989532D01*
X81797894Y-44978262D01*
X81802498Y-44976402D01*
X81827871Y-44967567D01*
X81832630Y-44966167D01*
X81858744Y-44959849D01*
X81863620Y-44958918D01*
X81890226Y-44955179D01*
X81895169Y-44954730D01*
X81922013Y-44953605D01*
X81926974Y-44953639D01*
G37*
G36*
X81126974Y-44953639D02*
G01*
X81153799Y-44955138D01*
X81158738Y-44955657D01*
X81185289Y-44959768D01*
X81190148Y-44960766D01*
X81216172Y-44967447D01*
X81220916Y-44968915D01*
X81246163Y-44978105D01*
X81250737Y-44980028D01*
X81274967Y-44991637D01*
X81279333Y-44993998D01*
X81302314Y-45007916D01*
X81306428Y-45010690D01*
X81327942Y-45026784D01*
X81331767Y-45029949D01*
X81351607Y-45048066D01*
X81355103Y-45051587D01*
X81373081Y-45071553D01*
X81376219Y-45075400D01*
X81392162Y-45097025D01*
X81394908Y-45101157D01*
X81408666Y-45124235D01*
X81410997Y-45128620D01*
X81422436Y-45152931D01*
X81424326Y-45157517D01*
X81433339Y-45182827D01*
X81434774Y-45187579D01*
X81441274Y-45213649D01*
X81442238Y-45218518D01*
X81446163Y-45245097D01*
X81446647Y-45250037D01*
X81447959Y-45276872D01*
X81448020Y-45279353D01*
X81448020Y-48804353D01*
X81447044Y-48814264D01*
X81444153Y-48823793D01*
X81439459Y-48832576D01*
X81433141Y-48840274D01*
X81425443Y-48846592D01*
X81416660Y-48851286D01*
X81407131Y-48854177D01*
X81397220Y-48855153D01*
X80847220Y-48855153D01*
X80837309Y-48854177D01*
X80827780Y-48851286D01*
X80818997Y-48846592D01*
X80811299Y-48840274D01*
X80804981Y-48832576D01*
X80800287Y-48823793D01*
X80797396Y-48814264D01*
X80796420Y-48804353D01*
X80796420Y-45279353D01*
X80796421Y-45278996D01*
X80796448Y-45275156D01*
X80796547Y-45272323D01*
X80798234Y-45245509D01*
X80798787Y-45240578D01*
X80803082Y-45214056D01*
X80804115Y-45209199D01*
X80810979Y-45183223D01*
X80812479Y-45178494D01*
X80821844Y-45153312D01*
X80823799Y-45148749D01*
X80835577Y-45124601D01*
X80837968Y-45120253D01*
X80852046Y-45097369D01*
X80854850Y-45093274D01*
X80871094Y-45071873D01*
X80874285Y-45068070D01*
X80892540Y-45048357D01*
X80896085Y-45044885D01*
X80916176Y-45027047D01*
X80920045Y-45023937D01*
X80941781Y-45008145D01*
X80945934Y-45005427D01*
X80969108Y-44991831D01*
X80973505Y-44989532D01*
X80997894Y-44978262D01*
X81002498Y-44976402D01*
X81027871Y-44967567D01*
X81032630Y-44966167D01*
X81058744Y-44959849D01*
X81063620Y-44958918D01*
X81090226Y-44955179D01*
X81095169Y-44954730D01*
X81122013Y-44953605D01*
X81126974Y-44953639D01*
G37*
G36*
X80326974Y-44953639D02*
G01*
X80353799Y-44955138D01*
X80358738Y-44955657D01*
X80385289Y-44959768D01*
X80390148Y-44960766D01*
X80416172Y-44967447D01*
X80420916Y-44968915D01*
X80446163Y-44978105D01*
X80450737Y-44980028D01*
X80474967Y-44991637D01*
X80479333Y-44993998D01*
X80502314Y-45007916D01*
X80506428Y-45010690D01*
X80527942Y-45026784D01*
X80531767Y-45029949D01*
X80551607Y-45048066D01*
X80555103Y-45051587D01*
X80573081Y-45071553D01*
X80576219Y-45075400D01*
X80592162Y-45097025D01*
X80594908Y-45101157D01*
X80608666Y-45124235D01*
X80610997Y-45128620D01*
X80622436Y-45152931D01*
X80624326Y-45157517D01*
X80633339Y-45182827D01*
X80634774Y-45187579D01*
X80641274Y-45213649D01*
X80642238Y-45218518D01*
X80646163Y-45245097D01*
X80646647Y-45250037D01*
X80647959Y-45276872D01*
X80648020Y-45279353D01*
X80648020Y-48804353D01*
X80647044Y-48814264D01*
X80644153Y-48823793D01*
X80639459Y-48832576D01*
X80633141Y-48840274D01*
X80625443Y-48846592D01*
X80616660Y-48851286D01*
X80607131Y-48854177D01*
X80597220Y-48855153D01*
X80047220Y-48855153D01*
X80037309Y-48854177D01*
X80027780Y-48851286D01*
X80018997Y-48846592D01*
X80011299Y-48840274D01*
X80004981Y-48832576D01*
X80000287Y-48823793D01*
X79997396Y-48814264D01*
X79996420Y-48804353D01*
X79996420Y-45279353D01*
X79996421Y-45278996D01*
X79996448Y-45275156D01*
X79996547Y-45272323D01*
X79998234Y-45245509D01*
X79998787Y-45240578D01*
X80003082Y-45214056D01*
X80004115Y-45209199D01*
X80010979Y-45183223D01*
X80012479Y-45178494D01*
X80021844Y-45153312D01*
X80023799Y-45148749D01*
X80035577Y-45124601D01*
X80037968Y-45120253D01*
X80052046Y-45097369D01*
X80054850Y-45093274D01*
X80071094Y-45071873D01*
X80074285Y-45068070D01*
X80092540Y-45048357D01*
X80096085Y-45044885D01*
X80116176Y-45027047D01*
X80120045Y-45023937D01*
X80141781Y-45008145D01*
X80145934Y-45005427D01*
X80169108Y-44991831D01*
X80173505Y-44989532D01*
X80197894Y-44978262D01*
X80202498Y-44976402D01*
X80227871Y-44967567D01*
X80232630Y-44966167D01*
X80258744Y-44959849D01*
X80263620Y-44958918D01*
X80290226Y-44955179D01*
X80295169Y-44954730D01*
X80322013Y-44953605D01*
X80326974Y-44953639D01*
G37*
G36*
X79526974Y-44953639D02*
G01*
X79553799Y-44955138D01*
X79558738Y-44955657D01*
X79585289Y-44959768D01*
X79590148Y-44960766D01*
X79616172Y-44967447D01*
X79620916Y-44968915D01*
X79646163Y-44978105D01*
X79650737Y-44980028D01*
X79674967Y-44991637D01*
X79679333Y-44993998D01*
X79702314Y-45007916D01*
X79706428Y-45010690D01*
X79727942Y-45026784D01*
X79731767Y-45029949D01*
X79751607Y-45048066D01*
X79755103Y-45051587D01*
X79773081Y-45071553D01*
X79776219Y-45075400D01*
X79792162Y-45097025D01*
X79794908Y-45101157D01*
X79808666Y-45124235D01*
X79810997Y-45128620D01*
X79822436Y-45152931D01*
X79824326Y-45157517D01*
X79833339Y-45182827D01*
X79834774Y-45187579D01*
X79841274Y-45213649D01*
X79842238Y-45218518D01*
X79846163Y-45245097D01*
X79846647Y-45250037D01*
X79847959Y-45276872D01*
X79848020Y-45279353D01*
X79848020Y-48804353D01*
X79847044Y-48814264D01*
X79844153Y-48823793D01*
X79839459Y-48832576D01*
X79833141Y-48840274D01*
X79825443Y-48846592D01*
X79816660Y-48851286D01*
X79807131Y-48854177D01*
X79797220Y-48855153D01*
X79247220Y-48855153D01*
X79237309Y-48854177D01*
X79227780Y-48851286D01*
X79218997Y-48846592D01*
X79211299Y-48840274D01*
X79204981Y-48832576D01*
X79200287Y-48823793D01*
X79197396Y-48814264D01*
X79196420Y-48804353D01*
X79196420Y-45279353D01*
X79196421Y-45278996D01*
X79196448Y-45275156D01*
X79196547Y-45272323D01*
X79198234Y-45245509D01*
X79198787Y-45240578D01*
X79203082Y-45214056D01*
X79204115Y-45209199D01*
X79210979Y-45183223D01*
X79212479Y-45178494D01*
X79221844Y-45153312D01*
X79223799Y-45148749D01*
X79235577Y-45124601D01*
X79237968Y-45120253D01*
X79252046Y-45097369D01*
X79254850Y-45093274D01*
X79271094Y-45071873D01*
X79274285Y-45068070D01*
X79292540Y-45048357D01*
X79296085Y-45044885D01*
X79316176Y-45027047D01*
X79320045Y-45023937D01*
X79341781Y-45008145D01*
X79345934Y-45005427D01*
X79369108Y-44991831D01*
X79373505Y-44989532D01*
X79397894Y-44978262D01*
X79402498Y-44976402D01*
X79427871Y-44967567D01*
X79432630Y-44966167D01*
X79458744Y-44959849D01*
X79463620Y-44958918D01*
X79490226Y-44955179D01*
X79495169Y-44954730D01*
X79522013Y-44953605D01*
X79526974Y-44953639D01*
G37*
G36*
X78726974Y-44953639D02*
G01*
X78753799Y-44955138D01*
X78758738Y-44955657D01*
X78785289Y-44959768D01*
X78790148Y-44960766D01*
X78816172Y-44967447D01*
X78820916Y-44968915D01*
X78846163Y-44978105D01*
X78850737Y-44980028D01*
X78874967Y-44991637D01*
X78879333Y-44993998D01*
X78902314Y-45007916D01*
X78906428Y-45010690D01*
X78927942Y-45026784D01*
X78931767Y-45029949D01*
X78951607Y-45048066D01*
X78955103Y-45051587D01*
X78973081Y-45071553D01*
X78976219Y-45075400D01*
X78992162Y-45097025D01*
X78994908Y-45101157D01*
X79008666Y-45124235D01*
X79010997Y-45128620D01*
X79022436Y-45152931D01*
X79024326Y-45157517D01*
X79033339Y-45182827D01*
X79034774Y-45187579D01*
X79041274Y-45213649D01*
X79042238Y-45218518D01*
X79046163Y-45245097D01*
X79046647Y-45250037D01*
X79047959Y-45276872D01*
X79048020Y-45279353D01*
X79048020Y-48804353D01*
X79047044Y-48814264D01*
X79044153Y-48823793D01*
X79039459Y-48832576D01*
X79033141Y-48840274D01*
X79025443Y-48846592D01*
X79016660Y-48851286D01*
X79007131Y-48854177D01*
X78997220Y-48855153D01*
X78447220Y-48855153D01*
X78437309Y-48854177D01*
X78427780Y-48851286D01*
X78418997Y-48846592D01*
X78411299Y-48840274D01*
X78404981Y-48832576D01*
X78400287Y-48823793D01*
X78397396Y-48814264D01*
X78396420Y-48804353D01*
X78396420Y-45279353D01*
X78396421Y-45278996D01*
X78396448Y-45275156D01*
X78396547Y-45272323D01*
X78398234Y-45245509D01*
X78398787Y-45240578D01*
X78403082Y-45214056D01*
X78404115Y-45209199D01*
X78410979Y-45183223D01*
X78412479Y-45178494D01*
X78421844Y-45153312D01*
X78423799Y-45148749D01*
X78435577Y-45124601D01*
X78437968Y-45120253D01*
X78452046Y-45097369D01*
X78454850Y-45093274D01*
X78471094Y-45071873D01*
X78474285Y-45068070D01*
X78492540Y-45048357D01*
X78496085Y-45044885D01*
X78516176Y-45027047D01*
X78520045Y-45023937D01*
X78541781Y-45008145D01*
X78545934Y-45005427D01*
X78569108Y-44991831D01*
X78573505Y-44989532D01*
X78597894Y-44978262D01*
X78602498Y-44976402D01*
X78627871Y-44967567D01*
X78632630Y-44966167D01*
X78658744Y-44959849D01*
X78663620Y-44958918D01*
X78690226Y-44955179D01*
X78695169Y-44954730D01*
X78722013Y-44953605D01*
X78726974Y-44953639D01*
G37*
G36*
X77926974Y-44953639D02*
G01*
X77953799Y-44955138D01*
X77958738Y-44955657D01*
X77985289Y-44959768D01*
X77990148Y-44960766D01*
X78016172Y-44967447D01*
X78020916Y-44968915D01*
X78046163Y-44978105D01*
X78050737Y-44980028D01*
X78074967Y-44991637D01*
X78079333Y-44993998D01*
X78102314Y-45007916D01*
X78106428Y-45010690D01*
X78127942Y-45026784D01*
X78131767Y-45029949D01*
X78151607Y-45048066D01*
X78155103Y-45051587D01*
X78173081Y-45071553D01*
X78176219Y-45075400D01*
X78192162Y-45097025D01*
X78194908Y-45101157D01*
X78208666Y-45124235D01*
X78210997Y-45128620D01*
X78222436Y-45152931D01*
X78224326Y-45157517D01*
X78233339Y-45182827D01*
X78234774Y-45187579D01*
X78241274Y-45213649D01*
X78242238Y-45218518D01*
X78246163Y-45245097D01*
X78246647Y-45250037D01*
X78247959Y-45276872D01*
X78248020Y-45279353D01*
X78248020Y-48804353D01*
X78247044Y-48814264D01*
X78244153Y-48823793D01*
X78239459Y-48832576D01*
X78233141Y-48840274D01*
X78225443Y-48846592D01*
X78216660Y-48851286D01*
X78207131Y-48854177D01*
X78197220Y-48855153D01*
X77647220Y-48855153D01*
X77637309Y-48854177D01*
X77627780Y-48851286D01*
X77618997Y-48846592D01*
X77611299Y-48840274D01*
X77604981Y-48832576D01*
X77600287Y-48823793D01*
X77597396Y-48814264D01*
X77596420Y-48804353D01*
X77596420Y-45279353D01*
X77596421Y-45278996D01*
X77596448Y-45275156D01*
X77596547Y-45272323D01*
X77598234Y-45245509D01*
X77598787Y-45240578D01*
X77603082Y-45214056D01*
X77604115Y-45209199D01*
X77610979Y-45183223D01*
X77612479Y-45178494D01*
X77621844Y-45153312D01*
X77623799Y-45148749D01*
X77635577Y-45124601D01*
X77637968Y-45120253D01*
X77652046Y-45097369D01*
X77654850Y-45093274D01*
X77671094Y-45071873D01*
X77674285Y-45068070D01*
X77692540Y-45048357D01*
X77696085Y-45044885D01*
X77716176Y-45027047D01*
X77720045Y-45023937D01*
X77741781Y-45008145D01*
X77745934Y-45005427D01*
X77769108Y-44991831D01*
X77773505Y-44989532D01*
X77797894Y-44978262D01*
X77802498Y-44976402D01*
X77827871Y-44967567D01*
X77832630Y-44966167D01*
X77858744Y-44959849D01*
X77863620Y-44958918D01*
X77890226Y-44955179D01*
X77895169Y-44954730D01*
X77922013Y-44953605D01*
X77926974Y-44953639D01*
G37*
G36*
X77126974Y-44953639D02*
G01*
X77153799Y-44955138D01*
X77158738Y-44955657D01*
X77185289Y-44959768D01*
X77190148Y-44960766D01*
X77216172Y-44967447D01*
X77220916Y-44968915D01*
X77246163Y-44978105D01*
X77250737Y-44980028D01*
X77274967Y-44991637D01*
X77279333Y-44993998D01*
X77302314Y-45007916D01*
X77306428Y-45010690D01*
X77327942Y-45026784D01*
X77331767Y-45029949D01*
X77351607Y-45048066D01*
X77355103Y-45051587D01*
X77373081Y-45071553D01*
X77376219Y-45075400D01*
X77392162Y-45097025D01*
X77394908Y-45101157D01*
X77408666Y-45124235D01*
X77410997Y-45128620D01*
X77422436Y-45152931D01*
X77424326Y-45157517D01*
X77433339Y-45182827D01*
X77434774Y-45187579D01*
X77441274Y-45213649D01*
X77442238Y-45218518D01*
X77446163Y-45245097D01*
X77446647Y-45250037D01*
X77447959Y-45276872D01*
X77448020Y-45279353D01*
X77448020Y-48804353D01*
X77447044Y-48814264D01*
X77444153Y-48823793D01*
X77439459Y-48832576D01*
X77433141Y-48840274D01*
X77425443Y-48846592D01*
X77416660Y-48851286D01*
X77407131Y-48854177D01*
X77397220Y-48855153D01*
X76847220Y-48855153D01*
X76837309Y-48854177D01*
X76827780Y-48851286D01*
X76818997Y-48846592D01*
X76811299Y-48840274D01*
X76804981Y-48832576D01*
X76800287Y-48823793D01*
X76797396Y-48814264D01*
X76796420Y-48804353D01*
X76796420Y-45279353D01*
X76796421Y-45278996D01*
X76796448Y-45275156D01*
X76796547Y-45272323D01*
X76798234Y-45245509D01*
X76798787Y-45240578D01*
X76803082Y-45214056D01*
X76804115Y-45209199D01*
X76810979Y-45183223D01*
X76812479Y-45178494D01*
X76821844Y-45153312D01*
X76823799Y-45148749D01*
X76835577Y-45124601D01*
X76837968Y-45120253D01*
X76852046Y-45097369D01*
X76854850Y-45093274D01*
X76871094Y-45071873D01*
X76874285Y-45068070D01*
X76892540Y-45048357D01*
X76896085Y-45044885D01*
X76916176Y-45027047D01*
X76920045Y-45023937D01*
X76941781Y-45008145D01*
X76945934Y-45005427D01*
X76969108Y-44991831D01*
X76973505Y-44989532D01*
X76997894Y-44978262D01*
X77002498Y-44976402D01*
X77027871Y-44967567D01*
X77032630Y-44966167D01*
X77058744Y-44959849D01*
X77063620Y-44958918D01*
X77090226Y-44955179D01*
X77095169Y-44954730D01*
X77122013Y-44953605D01*
X77126974Y-44953639D01*
G37*
G36*
X76326974Y-44953639D02*
G01*
X76353799Y-44955138D01*
X76358738Y-44955657D01*
X76385289Y-44959768D01*
X76390148Y-44960766D01*
X76416172Y-44967447D01*
X76420916Y-44968915D01*
X76446163Y-44978105D01*
X76450737Y-44980028D01*
X76474967Y-44991637D01*
X76479333Y-44993998D01*
X76502314Y-45007916D01*
X76506428Y-45010690D01*
X76527942Y-45026784D01*
X76531767Y-45029949D01*
X76551607Y-45048066D01*
X76555103Y-45051587D01*
X76573081Y-45071553D01*
X76576219Y-45075400D01*
X76592162Y-45097025D01*
X76594908Y-45101157D01*
X76608666Y-45124235D01*
X76610997Y-45128620D01*
X76622436Y-45152931D01*
X76624326Y-45157517D01*
X76633339Y-45182827D01*
X76634774Y-45187579D01*
X76641274Y-45213649D01*
X76642238Y-45218518D01*
X76646163Y-45245097D01*
X76646647Y-45250037D01*
X76647959Y-45276872D01*
X76648020Y-45279353D01*
X76648020Y-48804353D01*
X76647044Y-48814264D01*
X76644153Y-48823793D01*
X76639459Y-48832576D01*
X76633141Y-48840274D01*
X76625443Y-48846592D01*
X76616660Y-48851286D01*
X76607131Y-48854177D01*
X76597220Y-48855153D01*
X76047220Y-48855153D01*
X76037309Y-48854177D01*
X76027780Y-48851286D01*
X76018997Y-48846592D01*
X76011299Y-48840274D01*
X76004981Y-48832576D01*
X76000287Y-48823793D01*
X75997396Y-48814264D01*
X75996420Y-48804353D01*
X75996420Y-45279353D01*
X75996421Y-45278996D01*
X75996448Y-45275156D01*
X75996547Y-45272323D01*
X75998234Y-45245509D01*
X75998787Y-45240578D01*
X76003082Y-45214056D01*
X76004115Y-45209199D01*
X76010979Y-45183223D01*
X76012479Y-45178494D01*
X76021844Y-45153312D01*
X76023799Y-45148749D01*
X76035577Y-45124601D01*
X76037968Y-45120253D01*
X76052046Y-45097369D01*
X76054850Y-45093274D01*
X76071094Y-45071873D01*
X76074285Y-45068070D01*
X76092540Y-45048357D01*
X76096085Y-45044885D01*
X76116176Y-45027047D01*
X76120045Y-45023937D01*
X76141781Y-45008145D01*
X76145934Y-45005427D01*
X76169108Y-44991831D01*
X76173505Y-44989532D01*
X76197894Y-44978262D01*
X76202498Y-44976402D01*
X76227871Y-44967567D01*
X76232630Y-44966167D01*
X76258744Y-44959849D01*
X76263620Y-44958918D01*
X76290226Y-44955179D01*
X76295169Y-44954730D01*
X76322013Y-44953605D01*
X76326974Y-44953639D01*
G37*
G36*
X75526974Y-44953639D02*
G01*
X75553799Y-44955138D01*
X75558738Y-44955657D01*
X75585289Y-44959768D01*
X75590148Y-44960766D01*
X75616172Y-44967447D01*
X75620916Y-44968915D01*
X75646163Y-44978105D01*
X75650737Y-44980028D01*
X75674967Y-44991637D01*
X75679333Y-44993998D01*
X75702314Y-45007916D01*
X75706428Y-45010690D01*
X75727942Y-45026784D01*
X75731767Y-45029949D01*
X75751607Y-45048066D01*
X75755103Y-45051587D01*
X75773081Y-45071553D01*
X75776219Y-45075400D01*
X75792162Y-45097025D01*
X75794908Y-45101157D01*
X75808666Y-45124235D01*
X75810997Y-45128620D01*
X75822436Y-45152931D01*
X75824326Y-45157517D01*
X75833339Y-45182827D01*
X75834774Y-45187579D01*
X75841274Y-45213649D01*
X75842238Y-45218518D01*
X75846163Y-45245097D01*
X75846647Y-45250037D01*
X75847959Y-45276872D01*
X75848020Y-45279353D01*
X75848020Y-48804353D01*
X75847044Y-48814264D01*
X75844153Y-48823793D01*
X75839459Y-48832576D01*
X75833141Y-48840274D01*
X75825443Y-48846592D01*
X75816660Y-48851286D01*
X75807131Y-48854177D01*
X75797220Y-48855153D01*
X75247220Y-48855153D01*
X75237309Y-48854177D01*
X75227780Y-48851286D01*
X75218997Y-48846592D01*
X75211299Y-48840274D01*
X75204981Y-48832576D01*
X75200287Y-48823793D01*
X75197396Y-48814264D01*
X75196420Y-48804353D01*
X75196420Y-45279353D01*
X75196421Y-45278996D01*
X75196448Y-45275156D01*
X75196547Y-45272323D01*
X75198234Y-45245509D01*
X75198787Y-45240578D01*
X75203082Y-45214056D01*
X75204115Y-45209199D01*
X75210979Y-45183223D01*
X75212479Y-45178494D01*
X75221844Y-45153312D01*
X75223799Y-45148749D01*
X75235577Y-45124601D01*
X75237968Y-45120253D01*
X75252046Y-45097369D01*
X75254850Y-45093274D01*
X75271094Y-45071873D01*
X75274285Y-45068070D01*
X75292540Y-45048357D01*
X75296085Y-45044885D01*
X75316176Y-45027047D01*
X75320045Y-45023937D01*
X75341781Y-45008145D01*
X75345934Y-45005427D01*
X75369108Y-44991831D01*
X75373505Y-44989532D01*
X75397894Y-44978262D01*
X75402498Y-44976402D01*
X75427871Y-44967567D01*
X75432630Y-44966167D01*
X75458744Y-44959849D01*
X75463620Y-44958918D01*
X75490226Y-44955179D01*
X75495169Y-44954730D01*
X75522013Y-44953605D01*
X75526974Y-44953639D01*
G37*
G36*
X74726974Y-44953639D02*
G01*
X74753799Y-44955138D01*
X74758738Y-44955657D01*
X74785289Y-44959768D01*
X74790148Y-44960766D01*
X74816172Y-44967447D01*
X74820916Y-44968915D01*
X74846163Y-44978105D01*
X74850737Y-44980028D01*
X74874967Y-44991637D01*
X74879333Y-44993998D01*
X74902314Y-45007916D01*
X74906428Y-45010690D01*
X74927942Y-45026784D01*
X74931767Y-45029949D01*
X74951607Y-45048066D01*
X74955103Y-45051587D01*
X74973081Y-45071553D01*
X74976219Y-45075400D01*
X74992162Y-45097025D01*
X74994908Y-45101157D01*
X75008666Y-45124235D01*
X75010997Y-45128620D01*
X75022436Y-45152931D01*
X75024326Y-45157517D01*
X75033339Y-45182827D01*
X75034774Y-45187579D01*
X75041274Y-45213649D01*
X75042238Y-45218518D01*
X75046163Y-45245097D01*
X75046647Y-45250037D01*
X75047959Y-45276872D01*
X75048020Y-45279353D01*
X75048020Y-48804353D01*
X75047044Y-48814264D01*
X75044153Y-48823793D01*
X75039459Y-48832576D01*
X75033141Y-48840274D01*
X75025443Y-48846592D01*
X75016660Y-48851286D01*
X75007131Y-48854177D01*
X74997220Y-48855153D01*
X74447220Y-48855153D01*
X74437309Y-48854177D01*
X74427780Y-48851286D01*
X74418997Y-48846592D01*
X74411299Y-48840274D01*
X74404981Y-48832576D01*
X74400287Y-48823793D01*
X74397396Y-48814264D01*
X74396420Y-48804353D01*
X74396420Y-45279353D01*
X74396421Y-45278996D01*
X74396448Y-45275156D01*
X74396547Y-45272323D01*
X74398234Y-45245509D01*
X74398787Y-45240578D01*
X74403082Y-45214056D01*
X74404115Y-45209199D01*
X74410979Y-45183223D01*
X74412479Y-45178494D01*
X74421844Y-45153312D01*
X74423799Y-45148749D01*
X74435577Y-45124601D01*
X74437968Y-45120253D01*
X74452046Y-45097369D01*
X74454850Y-45093274D01*
X74471094Y-45071873D01*
X74474285Y-45068070D01*
X74492540Y-45048357D01*
X74496085Y-45044885D01*
X74516176Y-45027047D01*
X74520045Y-45023937D01*
X74541781Y-45008145D01*
X74545934Y-45005427D01*
X74569108Y-44991831D01*
X74573505Y-44989532D01*
X74597894Y-44978262D01*
X74602498Y-44976402D01*
X74627871Y-44967567D01*
X74632630Y-44966167D01*
X74658744Y-44959849D01*
X74663620Y-44958918D01*
X74690226Y-44955179D01*
X74695169Y-44954730D01*
X74722013Y-44953605D01*
X74726974Y-44953639D01*
G37*
G36*
X73926974Y-44953639D02*
G01*
X73953799Y-44955138D01*
X73958738Y-44955657D01*
X73985289Y-44959768D01*
X73990148Y-44960766D01*
X74016172Y-44967447D01*
X74020916Y-44968915D01*
X74046163Y-44978105D01*
X74050737Y-44980028D01*
X74074967Y-44991637D01*
X74079333Y-44993998D01*
X74102314Y-45007916D01*
X74106428Y-45010690D01*
X74127942Y-45026784D01*
X74131767Y-45029949D01*
X74151607Y-45048066D01*
X74155103Y-45051587D01*
X74173081Y-45071553D01*
X74176219Y-45075400D01*
X74192162Y-45097025D01*
X74194908Y-45101157D01*
X74208666Y-45124235D01*
X74210997Y-45128620D01*
X74222436Y-45152931D01*
X74224326Y-45157517D01*
X74233339Y-45182827D01*
X74234774Y-45187579D01*
X74241274Y-45213649D01*
X74242238Y-45218518D01*
X74246163Y-45245097D01*
X74246647Y-45250037D01*
X74247959Y-45276872D01*
X74248020Y-45279353D01*
X74248020Y-48804353D01*
X74247044Y-48814264D01*
X74244153Y-48823793D01*
X74239459Y-48832576D01*
X74233141Y-48840274D01*
X74225443Y-48846592D01*
X74216660Y-48851286D01*
X74207131Y-48854177D01*
X74197220Y-48855153D01*
X73647220Y-48855153D01*
X73637309Y-48854177D01*
X73627780Y-48851286D01*
X73618997Y-48846592D01*
X73611299Y-48840274D01*
X73604981Y-48832576D01*
X73600287Y-48823793D01*
X73597396Y-48814264D01*
X73596420Y-48804353D01*
X73596420Y-45279353D01*
X73596421Y-45278996D01*
X73596448Y-45275156D01*
X73596547Y-45272323D01*
X73598234Y-45245509D01*
X73598787Y-45240578D01*
X73603082Y-45214056D01*
X73604115Y-45209199D01*
X73610979Y-45183223D01*
X73612479Y-45178494D01*
X73621844Y-45153312D01*
X73623799Y-45148749D01*
X73635577Y-45124601D01*
X73637968Y-45120253D01*
X73652046Y-45097369D01*
X73654850Y-45093274D01*
X73671094Y-45071873D01*
X73674285Y-45068070D01*
X73692540Y-45048357D01*
X73696085Y-45044885D01*
X73716176Y-45027047D01*
X73720045Y-45023937D01*
X73741781Y-45008145D01*
X73745934Y-45005427D01*
X73769108Y-44991831D01*
X73773505Y-44989532D01*
X73797894Y-44978262D01*
X73802498Y-44976402D01*
X73827871Y-44967567D01*
X73832630Y-44966167D01*
X73858744Y-44959849D01*
X73863620Y-44958918D01*
X73890226Y-44955179D01*
X73895169Y-44954730D01*
X73922013Y-44953605D01*
X73926974Y-44953639D01*
G37*
G36*
X101926974Y-44953639D02*
G01*
X101953799Y-44955138D01*
X101958738Y-44955657D01*
X101985289Y-44959768D01*
X101990148Y-44960766D01*
X102016172Y-44967447D01*
X102020916Y-44968915D01*
X102046163Y-44978105D01*
X102050737Y-44980028D01*
X102074967Y-44991637D01*
X102079333Y-44993998D01*
X102102314Y-45007916D01*
X102106428Y-45010690D01*
X102127942Y-45026784D01*
X102131767Y-45029949D01*
X102151607Y-45048066D01*
X102155103Y-45051587D01*
X102173081Y-45071553D01*
X102176219Y-45075400D01*
X102192162Y-45097025D01*
X102194908Y-45101157D01*
X102208666Y-45124235D01*
X102210997Y-45128620D01*
X102222436Y-45152931D01*
X102224326Y-45157517D01*
X102233339Y-45182827D01*
X102234774Y-45187579D01*
X102241274Y-45213649D01*
X102242238Y-45218518D01*
X102246163Y-45245097D01*
X102246647Y-45250037D01*
X102247959Y-45276872D01*
X102248020Y-45279353D01*
X102248020Y-48804353D01*
X102247044Y-48814264D01*
X102244153Y-48823793D01*
X102239459Y-48832576D01*
X102233141Y-48840274D01*
X102225443Y-48846592D01*
X102216660Y-48851286D01*
X102207131Y-48854177D01*
X102197220Y-48855153D01*
X101647220Y-48855153D01*
X101637309Y-48854177D01*
X101627780Y-48851286D01*
X101618997Y-48846592D01*
X101611299Y-48840274D01*
X101604981Y-48832576D01*
X101600287Y-48823793D01*
X101597396Y-48814264D01*
X101596420Y-48804353D01*
X101596420Y-45279353D01*
X101596421Y-45278996D01*
X101596448Y-45275156D01*
X101596547Y-45272323D01*
X101598234Y-45245509D01*
X101598787Y-45240578D01*
X101603082Y-45214056D01*
X101604115Y-45209199D01*
X101610979Y-45183223D01*
X101612479Y-45178494D01*
X101621844Y-45153312D01*
X101623799Y-45148749D01*
X101635577Y-45124601D01*
X101637968Y-45120253D01*
X101652046Y-45097369D01*
X101654850Y-45093274D01*
X101671094Y-45071873D01*
X101674285Y-45068070D01*
X101692540Y-45048357D01*
X101696085Y-45044885D01*
X101716176Y-45027047D01*
X101720045Y-45023937D01*
X101741781Y-45008145D01*
X101745934Y-45005427D01*
X101769108Y-44991831D01*
X101773505Y-44989532D01*
X101797894Y-44978262D01*
X101802498Y-44976402D01*
X101827871Y-44967567D01*
X101832630Y-44966167D01*
X101858744Y-44959849D01*
X101863620Y-44958918D01*
X101890226Y-44955179D01*
X101895169Y-44954730D01*
X101922013Y-44953605D01*
X101926974Y-44953639D01*
G37*
G36*
X73126974Y-44953639D02*
G01*
X73153799Y-44955138D01*
X73158738Y-44955657D01*
X73185289Y-44959768D01*
X73190148Y-44960766D01*
X73216172Y-44967447D01*
X73220916Y-44968915D01*
X73246163Y-44978105D01*
X73250737Y-44980028D01*
X73274967Y-44991637D01*
X73279333Y-44993998D01*
X73302314Y-45007916D01*
X73306428Y-45010690D01*
X73327942Y-45026784D01*
X73331767Y-45029949D01*
X73351607Y-45048066D01*
X73355103Y-45051587D01*
X73373081Y-45071553D01*
X73376219Y-45075400D01*
X73392162Y-45097025D01*
X73394908Y-45101157D01*
X73408666Y-45124235D01*
X73410997Y-45128620D01*
X73422436Y-45152931D01*
X73424326Y-45157517D01*
X73433339Y-45182827D01*
X73434774Y-45187579D01*
X73441274Y-45213649D01*
X73442238Y-45218518D01*
X73446163Y-45245097D01*
X73446647Y-45250037D01*
X73447959Y-45276872D01*
X73448020Y-45279353D01*
X73448020Y-48804353D01*
X73447044Y-48814264D01*
X73444153Y-48823793D01*
X73439459Y-48832576D01*
X73433141Y-48840274D01*
X73425443Y-48846592D01*
X73416660Y-48851286D01*
X73407131Y-48854177D01*
X73397220Y-48855153D01*
X72847220Y-48855153D01*
X72837309Y-48854177D01*
X72827780Y-48851286D01*
X72818997Y-48846592D01*
X72811299Y-48840274D01*
X72804981Y-48832576D01*
X72800287Y-48823793D01*
X72797396Y-48814264D01*
X72796420Y-48804353D01*
X72796420Y-45279353D01*
X72796421Y-45278996D01*
X72796448Y-45275156D01*
X72796547Y-45272323D01*
X72798234Y-45245509D01*
X72798787Y-45240578D01*
X72803082Y-45214056D01*
X72804115Y-45209199D01*
X72810979Y-45183223D01*
X72812479Y-45178494D01*
X72821844Y-45153312D01*
X72823799Y-45148749D01*
X72835577Y-45124601D01*
X72837968Y-45120253D01*
X72852046Y-45097369D01*
X72854850Y-45093274D01*
X72871094Y-45071873D01*
X72874285Y-45068070D01*
X72892540Y-45048357D01*
X72896085Y-45044885D01*
X72916176Y-45027047D01*
X72920045Y-45023937D01*
X72941781Y-45008145D01*
X72945934Y-45005427D01*
X72969108Y-44991831D01*
X72973505Y-44989532D01*
X72997894Y-44978262D01*
X73002498Y-44976402D01*
X73027871Y-44967567D01*
X73032630Y-44966167D01*
X73058744Y-44959849D01*
X73063620Y-44958918D01*
X73090226Y-44955179D01*
X73095169Y-44954730D01*
X73122013Y-44953605D01*
X73126974Y-44953639D01*
G37*
D14*
X58318400Y-138887200D03*
X138318400Y-138887200D03*
X135778400Y-53157200D03*
X62118400Y-53157200D03*
G36*
G01*
X63537178Y-43040680D02*
X63907178Y-43040680D01*
G75*
G02*
X63957978Y-43091480I0J-50800D01*
G01*
X63957978Y-44091480D01*
G75*
G02*
X63907178Y-44142280I-50800J0D01*
G01*
X63537178Y-44142280D01*
G75*
G02*
X63486378Y-44091480I0J50800D01*
G01*
X63486378Y-43091480D01*
G75*
G02*
X63537178Y-43040680I50800J0D01*
G01*
G37*
G36*
G01*
X62047178Y-44142280D02*
X61677178Y-44142280D01*
G75*
G02*
X61626378Y-44091480I0J50800D01*
G01*
X61626378Y-43091480D01*
G75*
G02*
X61677178Y-43040680I50800J0D01*
G01*
X62047178Y-43040680D01*
G75*
G02*
X62097978Y-43091480I0J-50800D01*
G01*
X62097978Y-44091480D01*
G75*
G02*
X62047178Y-44142280I-50800J0D01*
G01*
G37*
G36*
G01*
X54160600Y-138579200D02*
X54551400Y-138579200D01*
G75*
G02*
X54716800Y-138744600I0J-165400D01*
G01*
X54716800Y-139075400D01*
G75*
G02*
X54551400Y-139240800I-165400J0D01*
G01*
X54160600Y-139240800D01*
G75*
G02*
X53995200Y-139075400I0J165400D01*
G01*
X53995200Y-138744600D01*
G75*
G02*
X54160600Y-138579200I165400J0D01*
G01*
G37*
G36*
G01*
X54160600Y-137619200D02*
X54551400Y-137619200D01*
G75*
G02*
X54716800Y-137784600I0J-165400D01*
G01*
X54716800Y-138115400D01*
G75*
G02*
X54551400Y-138280800I-165400J0D01*
G01*
X54160600Y-138280800D01*
G75*
G02*
X53995200Y-138115400I0J165400D01*
G01*
X53995200Y-137784600D01*
G75*
G02*
X54160600Y-137619200I165400J0D01*
G01*
G37*
G36*
G01*
X141917600Y-138515700D02*
X142308400Y-138515700D01*
G75*
G02*
X142473800Y-138681100I0J-165400D01*
G01*
X142473800Y-139011900D01*
G75*
G02*
X142308400Y-139177300I-165400J0D01*
G01*
X141917600Y-139177300D01*
G75*
G02*
X141752200Y-139011900I0J165400D01*
G01*
X141752200Y-138681100D01*
G75*
G02*
X141917600Y-138515700I165400J0D01*
G01*
G37*
G36*
G01*
X141917600Y-137555700D02*
X142308400Y-137555700D01*
G75*
G02*
X142473800Y-137721100I0J-165400D01*
G01*
X142473800Y-138051900D01*
G75*
G02*
X142308400Y-138217300I-165400J0D01*
G01*
X141917600Y-138217300D01*
G75*
G02*
X141752200Y-138051900I0J165400D01*
G01*
X141752200Y-137721100D01*
G75*
G02*
X141917600Y-137555700I165400J0D01*
G01*
G37*
G36*
G01*
X140466900Y-53508300D02*
X140076100Y-53508300D01*
G75*
G02*
X139910700Y-53342900I0J165400D01*
G01*
X139910700Y-53012100D01*
G75*
G02*
X140076100Y-52846700I165400J0D01*
G01*
X140466900Y-52846700D01*
G75*
G02*
X140632300Y-53012100I0J-165400D01*
G01*
X140632300Y-53342900D01*
G75*
G02*
X140466900Y-53508300I-165400J0D01*
G01*
G37*
G36*
G01*
X140466900Y-54468300D02*
X140076100Y-54468300D01*
G75*
G02*
X139910700Y-54302900I0J165400D01*
G01*
X139910700Y-53972100D01*
G75*
G02*
X140076100Y-53806700I165400J0D01*
G01*
X140466900Y-53806700D01*
G75*
G02*
X140632300Y-53972100I0J-165400D01*
G01*
X140632300Y-54302900D01*
G75*
G02*
X140466900Y-54468300I-165400J0D01*
G01*
G37*
G36*
G01*
X58043900Y-53508300D02*
X57653100Y-53508300D01*
G75*
G02*
X57487700Y-53342900I0J165400D01*
G01*
X57487700Y-53012100D01*
G75*
G02*
X57653100Y-52846700I165400J0D01*
G01*
X58043900Y-52846700D01*
G75*
G02*
X58209300Y-53012100I0J-165400D01*
G01*
X58209300Y-53342900D01*
G75*
G02*
X58043900Y-53508300I-165400J0D01*
G01*
G37*
G36*
G01*
X58043900Y-54468300D02*
X57653100Y-54468300D01*
G75*
G02*
X57487700Y-54302900I0J165400D01*
G01*
X57487700Y-53972100D01*
G75*
G02*
X57653100Y-53806700I165400J0D01*
G01*
X58043900Y-53806700D01*
G75*
G02*
X58209300Y-53972100I0J-165400D01*
G01*
X58209300Y-54302900D01*
G75*
G02*
X58043900Y-54468300I-165400J0D01*
G01*
G37*
D15*
X55880000Y-62865000D03*
X55880000Y-74295000D03*
X55880000Y-70612000D03*
X55880000Y-66675000D03*
G36*
G01*
X81830100Y-69616200D02*
X82380900Y-69616200D01*
G75*
G02*
X82631300Y-69866600I0J-250400D01*
G01*
X82631300Y-70367400D01*
G75*
G02*
X82380900Y-70617800I-250400J0D01*
G01*
X81830100Y-70617800D01*
G75*
G02*
X81579700Y-70367400I0J250400D01*
G01*
X81579700Y-69866600D01*
G75*
G02*
X81830100Y-69616200I250400J0D01*
G01*
G37*
G36*
G01*
X81830100Y-68066200D02*
X82380900Y-68066200D01*
G75*
G02*
X82631300Y-68316600I0J-250400D01*
G01*
X82631300Y-68817400D01*
G75*
G02*
X82380900Y-69067800I-250400J0D01*
G01*
X81830100Y-69067800D01*
G75*
G02*
X81579700Y-68817400I0J250400D01*
G01*
X81579700Y-68316600D01*
G75*
G02*
X81830100Y-68066200I250400J0D01*
G01*
G37*
G36*
G01*
X94798700Y-83675900D02*
X94798700Y-83075100D01*
G75*
G02*
X95024100Y-82849700I225400J0D01*
G01*
X95474900Y-82849700D01*
G75*
G02*
X95700300Y-83075100I0J-225400D01*
G01*
X95700300Y-83675900D01*
G75*
G02*
X95474900Y-83901300I-225400J0D01*
G01*
X95024100Y-83901300D01*
G75*
G02*
X94798700Y-83675900I0J225400D01*
G01*
G37*
G36*
G01*
X93148700Y-83675900D02*
X93148700Y-83075100D01*
G75*
G02*
X93374100Y-82849700I225400J0D01*
G01*
X93824900Y-82849700D01*
G75*
G02*
X94050300Y-83075100I0J-225400D01*
G01*
X94050300Y-83675900D01*
G75*
G02*
X93824900Y-83901300I-225400J0D01*
G01*
X93374100Y-83901300D01*
G75*
G02*
X93148700Y-83675900I0J225400D01*
G01*
G37*
G36*
G01*
X94050300Y-78122100D02*
X94050300Y-78722900D01*
G75*
G02*
X93824900Y-78948300I-225400J0D01*
G01*
X93374100Y-78948300D01*
G75*
G02*
X93148700Y-78722900I0J225400D01*
G01*
X93148700Y-78122100D01*
G75*
G02*
X93374100Y-77896700I225400J0D01*
G01*
X93824900Y-77896700D01*
G75*
G02*
X94050300Y-78122100I0J-225400D01*
G01*
G37*
G36*
G01*
X95700300Y-78122100D02*
X95700300Y-78722900D01*
G75*
G02*
X95474900Y-78948300I-225400J0D01*
G01*
X95024100Y-78948300D01*
G75*
G02*
X94798700Y-78722900I0J225400D01*
G01*
X94798700Y-78122100D01*
G75*
G02*
X95024100Y-77896700I225400J0D01*
G01*
X95474900Y-77896700D01*
G75*
G02*
X95700300Y-78122100I0J-225400D01*
G01*
G37*
G36*
G01*
X92409600Y-74478700D02*
X93010400Y-74478700D01*
G75*
G02*
X93235800Y-74704100I0J-225400D01*
G01*
X93235800Y-75154900D01*
G75*
G02*
X93010400Y-75380300I-225400J0D01*
G01*
X92409600Y-75380300D01*
G75*
G02*
X92184200Y-75154900I0J225400D01*
G01*
X92184200Y-74704100D01*
G75*
G02*
X92409600Y-74478700I225400J0D01*
G01*
G37*
G36*
G01*
X92409600Y-72828700D02*
X93010400Y-72828700D01*
G75*
G02*
X93235800Y-73054100I0J-225400D01*
G01*
X93235800Y-73504900D01*
G75*
G02*
X93010400Y-73730300I-225400J0D01*
G01*
X92409600Y-73730300D01*
G75*
G02*
X92184200Y-73504900I0J225400D01*
G01*
X92184200Y-73054100D01*
G75*
G02*
X92409600Y-72828700I225400J0D01*
G01*
G37*
G36*
G01*
X84949800Y-67124933D02*
X84949800Y-70035067D01*
G75*
G02*
X84679067Y-70305800I-270733J0D01*
G01*
X83893933Y-70305800D01*
G75*
G02*
X83623200Y-70035067I0J270733D01*
G01*
X83623200Y-67124933D01*
G75*
G02*
X83893933Y-66854200I270733J0D01*
G01*
X84679067Y-66854200D01*
G75*
G02*
X84949800Y-67124933I0J-270733D01*
G01*
G37*
G36*
G01*
X90874800Y-67124933D02*
X90874800Y-70035067D01*
G75*
G02*
X90604067Y-70305800I-270733J0D01*
G01*
X89818933Y-70305800D01*
G75*
G02*
X89548200Y-70035067I0J270733D01*
G01*
X89548200Y-67124933D01*
G75*
G02*
X89818933Y-66854200I270733J0D01*
G01*
X90604067Y-66854200D01*
G75*
G02*
X90874800Y-67124933I0J-270733D01*
G01*
G37*
G36*
G01*
X82915900Y-83831300D02*
X82565100Y-83831300D01*
G75*
G02*
X82389700Y-83655900I0J175400D01*
G01*
X82389700Y-81955100D01*
G75*
G02*
X82565100Y-81779700I175400J0D01*
G01*
X82915900Y-81779700D01*
G75*
G02*
X83091300Y-81955100I0J-175400D01*
G01*
X83091300Y-83655900D01*
G75*
G02*
X82915900Y-83831300I-175400J0D01*
G01*
G37*
G36*
G01*
X84185900Y-83831300D02*
X83835100Y-83831300D01*
G75*
G02*
X83659700Y-83655900I0J175400D01*
G01*
X83659700Y-81955100D01*
G75*
G02*
X83835100Y-81779700I175400J0D01*
G01*
X84185900Y-81779700D01*
G75*
G02*
X84361300Y-81955100I0J-175400D01*
G01*
X84361300Y-83655900D01*
G75*
G02*
X84185900Y-83831300I-175400J0D01*
G01*
G37*
G36*
G01*
X85455900Y-83831300D02*
X85105100Y-83831300D01*
G75*
G02*
X84929700Y-83655900I0J175400D01*
G01*
X84929700Y-81955100D01*
G75*
G02*
X85105100Y-81779700I175400J0D01*
G01*
X85455900Y-81779700D01*
G75*
G02*
X85631300Y-81955100I0J-175400D01*
G01*
X85631300Y-83655900D01*
G75*
G02*
X85455900Y-83831300I-175400J0D01*
G01*
G37*
G36*
G01*
X86725900Y-83831300D02*
X86375100Y-83831300D01*
G75*
G02*
X86199700Y-83655900I0J175400D01*
G01*
X86199700Y-81955100D01*
G75*
G02*
X86375100Y-81779700I175400J0D01*
G01*
X86725900Y-81779700D01*
G75*
G02*
X86901300Y-81955100I0J-175400D01*
G01*
X86901300Y-83655900D01*
G75*
G02*
X86725900Y-83831300I-175400J0D01*
G01*
G37*
G36*
G01*
X86725900Y-88781300D02*
X86375100Y-88781300D01*
G75*
G02*
X86199700Y-88605900I0J175400D01*
G01*
X86199700Y-86905100D01*
G75*
G02*
X86375100Y-86729700I175400J0D01*
G01*
X86725900Y-86729700D01*
G75*
G02*
X86901300Y-86905100I0J-175400D01*
G01*
X86901300Y-88605900D01*
G75*
G02*
X86725900Y-88781300I-175400J0D01*
G01*
G37*
G36*
G01*
X85455900Y-88781300D02*
X85105100Y-88781300D01*
G75*
G02*
X84929700Y-88605900I0J175400D01*
G01*
X84929700Y-86905100D01*
G75*
G02*
X85105100Y-86729700I175400J0D01*
G01*
X85455900Y-86729700D01*
G75*
G02*
X85631300Y-86905100I0J-175400D01*
G01*
X85631300Y-88605900D01*
G75*
G02*
X85455900Y-88781300I-175400J0D01*
G01*
G37*
G36*
G01*
X84185900Y-88781300D02*
X83835100Y-88781300D01*
G75*
G02*
X83659700Y-88605900I0J175400D01*
G01*
X83659700Y-86905100D01*
G75*
G02*
X83835100Y-86729700I175400J0D01*
G01*
X84185900Y-86729700D01*
G75*
G02*
X84361300Y-86905100I0J-175400D01*
G01*
X84361300Y-88605900D01*
G75*
G02*
X84185900Y-88781300I-175400J0D01*
G01*
G37*
G36*
G01*
X82915900Y-88781300D02*
X82565100Y-88781300D01*
G75*
G02*
X82389700Y-88605900I0J175400D01*
G01*
X82389700Y-86905100D01*
G75*
G02*
X82565100Y-86729700I175400J0D01*
G01*
X82915900Y-86729700D01*
G75*
G02*
X83091300Y-86905100I0J-175400D01*
G01*
X83091300Y-88605900D01*
G75*
G02*
X82915900Y-88781300I-175400J0D01*
G01*
G37*
G36*
G01*
X86375100Y-77458700D02*
X86725900Y-77458700D01*
G75*
G02*
X86901300Y-77634100I0J-175400D01*
G01*
X86901300Y-79334900D01*
G75*
G02*
X86725900Y-79510300I-175400J0D01*
G01*
X86375100Y-79510300D01*
G75*
G02*
X86199700Y-79334900I0J175400D01*
G01*
X86199700Y-77634100D01*
G75*
G02*
X86375100Y-77458700I175400J0D01*
G01*
G37*
G36*
G01*
X85105100Y-77458700D02*
X85455900Y-77458700D01*
G75*
G02*
X85631300Y-77634100I0J-175400D01*
G01*
X85631300Y-79334900D01*
G75*
G02*
X85455900Y-79510300I-175400J0D01*
G01*
X85105100Y-79510300D01*
G75*
G02*
X84929700Y-79334900I0J175400D01*
G01*
X84929700Y-77634100D01*
G75*
G02*
X85105100Y-77458700I175400J0D01*
G01*
G37*
G36*
G01*
X83835100Y-77458700D02*
X84185900Y-77458700D01*
G75*
G02*
X84361300Y-77634100I0J-175400D01*
G01*
X84361300Y-79334900D01*
G75*
G02*
X84185900Y-79510300I-175400J0D01*
G01*
X83835100Y-79510300D01*
G75*
G02*
X83659700Y-79334900I0J175400D01*
G01*
X83659700Y-77634100D01*
G75*
G02*
X83835100Y-77458700I175400J0D01*
G01*
G37*
G36*
G01*
X82565100Y-77458700D02*
X82915900Y-77458700D01*
G75*
G02*
X83091300Y-77634100I0J-175400D01*
G01*
X83091300Y-79334900D01*
G75*
G02*
X82915900Y-79510300I-175400J0D01*
G01*
X82565100Y-79510300D01*
G75*
G02*
X82389700Y-79334900I0J175400D01*
G01*
X82389700Y-77634100D01*
G75*
G02*
X82565100Y-77458700I175400J0D01*
G01*
G37*
G36*
G01*
X82565100Y-72508700D02*
X82915900Y-72508700D01*
G75*
G02*
X83091300Y-72684100I0J-175400D01*
G01*
X83091300Y-74384900D01*
G75*
G02*
X82915900Y-74560300I-175400J0D01*
G01*
X82565100Y-74560300D01*
G75*
G02*
X82389700Y-74384900I0J175400D01*
G01*
X82389700Y-72684100D01*
G75*
G02*
X82565100Y-72508700I175400J0D01*
G01*
G37*
G36*
G01*
X83835100Y-72508700D02*
X84185900Y-72508700D01*
G75*
G02*
X84361300Y-72684100I0J-175400D01*
G01*
X84361300Y-74384900D01*
G75*
G02*
X84185900Y-74560300I-175400J0D01*
G01*
X83835100Y-74560300D01*
G75*
G02*
X83659700Y-74384900I0J175400D01*
G01*
X83659700Y-72684100D01*
G75*
G02*
X83835100Y-72508700I175400J0D01*
G01*
G37*
G36*
G01*
X85105100Y-72508700D02*
X85455900Y-72508700D01*
G75*
G02*
X85631300Y-72684100I0J-175400D01*
G01*
X85631300Y-74384900D01*
G75*
G02*
X85455900Y-74560300I-175400J0D01*
G01*
X85105100Y-74560300D01*
G75*
G02*
X84929700Y-74384900I0J175400D01*
G01*
X84929700Y-72684100D01*
G75*
G02*
X85105100Y-72508700I175400J0D01*
G01*
G37*
G36*
G01*
X86375100Y-72508700D02*
X86725900Y-72508700D01*
G75*
G02*
X86901300Y-72684100I0J-175400D01*
G01*
X86901300Y-74384900D01*
G75*
G02*
X86725900Y-74560300I-175400J0D01*
G01*
X86375100Y-74560300D01*
G75*
G02*
X86199700Y-74384900I0J175400D01*
G01*
X86199700Y-72684100D01*
G75*
G02*
X86375100Y-72508700I175400J0D01*
G01*
G37*
G36*
G01*
X94698700Y-81872900D02*
X94698700Y-81322100D01*
G75*
G02*
X94949100Y-81071700I250400J0D01*
G01*
X95449900Y-81071700D01*
G75*
G02*
X95700300Y-81322100I0J-250400D01*
G01*
X95700300Y-81872900D01*
G75*
G02*
X95449900Y-82123300I-250400J0D01*
G01*
X94949100Y-82123300D01*
G75*
G02*
X94698700Y-81872900I0J250400D01*
G01*
G37*
G36*
G01*
X93148700Y-81872900D02*
X93148700Y-81322100D01*
G75*
G02*
X93399100Y-81071700I250400J0D01*
G01*
X93899900Y-81071700D01*
G75*
G02*
X94150300Y-81322100I0J-250400D01*
G01*
X94150300Y-81872900D01*
G75*
G02*
X93899900Y-82123300I-250400J0D01*
G01*
X93399100Y-82123300D01*
G75*
G02*
X93148700Y-81872900I0J250400D01*
G01*
G37*
G36*
G01*
X91396700Y-78697900D02*
X91396700Y-78147100D01*
G75*
G02*
X91647100Y-77896700I250400J0D01*
G01*
X92147900Y-77896700D01*
G75*
G02*
X92398300Y-78147100I0J-250400D01*
G01*
X92398300Y-78697900D01*
G75*
G02*
X92147900Y-78948300I-250400J0D01*
G01*
X91647100Y-78948300D01*
G75*
G02*
X91396700Y-78697900I0J250400D01*
G01*
G37*
G36*
G01*
X89846700Y-78697900D02*
X89846700Y-78147100D01*
G75*
G02*
X90097100Y-77896700I250400J0D01*
G01*
X90597900Y-77896700D01*
G75*
G02*
X90848300Y-78147100I0J-250400D01*
G01*
X90848300Y-78697900D01*
G75*
G02*
X90597900Y-78948300I-250400J0D01*
G01*
X90097100Y-78948300D01*
G75*
G02*
X89846700Y-78697900I0J250400D01*
G01*
G37*
G36*
G01*
X91396700Y-76919900D02*
X91396700Y-76369100D01*
G75*
G02*
X91647100Y-76118700I250400J0D01*
G01*
X92147900Y-76118700D01*
G75*
G02*
X92398300Y-76369100I0J-250400D01*
G01*
X92398300Y-76919900D01*
G75*
G02*
X92147900Y-77170300I-250400J0D01*
G01*
X91647100Y-77170300D01*
G75*
G02*
X91396700Y-76919900I0J250400D01*
G01*
G37*
G36*
G01*
X89846700Y-76919900D02*
X89846700Y-76369100D01*
G75*
G02*
X90097100Y-76118700I250400J0D01*
G01*
X90597900Y-76118700D01*
G75*
G02*
X90848300Y-76369100I0J-250400D01*
G01*
X90848300Y-76919900D01*
G75*
G02*
X90597900Y-77170300I-250400J0D01*
G01*
X90097100Y-77170300D01*
G75*
G02*
X89846700Y-76919900I0J250400D01*
G01*
G37*
G36*
G01*
X90523300Y-80078500D02*
X90523300Y-81078500D01*
G75*
G02*
X90472500Y-81129300I-50800J0D01*
G01*
X89872500Y-81129300D01*
G75*
G02*
X89821700Y-81078500I0J50800D01*
G01*
X89821700Y-80078500D01*
G75*
G02*
X89872500Y-80027700I50800J0D01*
G01*
X90472500Y-80027700D01*
G75*
G02*
X90523300Y-80078500I0J-50800D01*
G01*
G37*
G36*
G01*
X91473300Y-80078500D02*
X91473300Y-81078500D01*
G75*
G02*
X91422500Y-81129300I-50800J0D01*
G01*
X90822500Y-81129300D01*
G75*
G02*
X90771700Y-81078500I0J50800D01*
G01*
X90771700Y-80078500D01*
G75*
G02*
X90822500Y-80027700I50800J0D01*
G01*
X91422500Y-80027700D01*
G75*
G02*
X91473300Y-80078500I0J-50800D01*
G01*
G37*
G36*
G01*
X92423300Y-80078500D02*
X92423300Y-81078500D01*
G75*
G02*
X92372500Y-81129300I-50800J0D01*
G01*
X91772500Y-81129300D01*
G75*
G02*
X91721700Y-81078500I0J50800D01*
G01*
X91721700Y-80078500D01*
G75*
G02*
X91772500Y-80027700I50800J0D01*
G01*
X92372500Y-80027700D01*
G75*
G02*
X92423300Y-80078500I0J-50800D01*
G01*
G37*
G36*
G01*
X92423300Y-82878500D02*
X92423300Y-83878500D01*
G75*
G02*
X92372500Y-83929300I-50800J0D01*
G01*
X91772500Y-83929300D01*
G75*
G02*
X91721700Y-83878500I0J50800D01*
G01*
X91721700Y-82878500D01*
G75*
G02*
X91772500Y-82827700I50800J0D01*
G01*
X92372500Y-82827700D01*
G75*
G02*
X92423300Y-82878500I0J-50800D01*
G01*
G37*
G36*
G01*
X91473300Y-82878500D02*
X91473300Y-83878500D01*
G75*
G02*
X91422500Y-83929300I-50800J0D01*
G01*
X90822500Y-83929300D01*
G75*
G02*
X90771700Y-83878500I0J50800D01*
G01*
X90771700Y-82878500D01*
G75*
G02*
X90822500Y-82827700I50800J0D01*
G01*
X91422500Y-82827700D01*
G75*
G02*
X91473300Y-82878500I0J-50800D01*
G01*
G37*
G36*
G01*
X90523300Y-82878500D02*
X90523300Y-83878500D01*
G75*
G02*
X90472500Y-83929300I-50800J0D01*
G01*
X89872500Y-83929300D01*
G75*
G02*
X89821700Y-83878500I0J50800D01*
G01*
X89821700Y-82878500D01*
G75*
G02*
X89872500Y-82827700I50800J0D01*
G01*
X90472500Y-82827700D01*
G75*
G02*
X90523300Y-82878500I0J-50800D01*
G01*
G37*
M02*
