%TF.GenerationSoftware,KiCad,Pcbnew,(5.1.10)-1*%
%TF.CreationDate,2021-11-16T14:43:47-05:00*%
%TF.ProjectId,batteryboard,62617474-6572-4796-926f-6172642e6b69,rev?*%
%TF.SameCoordinates,Original*%
%TF.FileFunction,Legend,Bot*%
%TF.FilePolarity,Positive*%
%FSLAX46Y46*%
G04 Gerber Fmt 4.6, Leading zero omitted, Abs format (unit mm)*
G04 Created by KiCad (PCBNEW (5.1.10)-1) date 2021-11-16 14:43:47*
%MOMM*%
%LPD*%
G01*
G04 APERTURE LIST*
%ADD10C,0.381000*%
%ADD11C,0.010000*%
%ADD12C,0.100000*%
%ADD13C,0.500000*%
%ADD14C,0.120000*%
%ADD15C,0.060000*%
%ADD16C,0.127000*%
G04 APERTURE END LIST*
D10*
X77542571Y-87348785D02*
X77542571Y-88800214D01*
X77542571Y-91158785D02*
X77542571Y-92610214D01*
X78268285Y-91884500D02*
X76816857Y-91884500D01*
X77542571Y-77696785D02*
X77542571Y-79148214D01*
X77542571Y-81506785D02*
X77542571Y-82958214D01*
X78268285Y-82232500D02*
X76816857Y-82232500D01*
X73632785Y-52296785D02*
X71727785Y-52296785D01*
X71727785Y-53022500D01*
X71818500Y-53203928D01*
X71909214Y-53294642D01*
X72090642Y-53385357D01*
X72362785Y-53385357D01*
X72544214Y-53294642D01*
X72634928Y-53203928D01*
X72725642Y-53022500D01*
X72725642Y-52296785D01*
X72907071Y-54201785D02*
X72907071Y-55653214D01*
X73632785Y-54927500D02*
X72181357Y-54927500D01*
X83538785Y-51852285D02*
X81633785Y-51852285D01*
X81633785Y-52578000D01*
X81724500Y-52759428D01*
X81815214Y-52850142D01*
X81996642Y-52940857D01*
X82268785Y-52940857D01*
X82450214Y-52850142D01*
X82540928Y-52759428D01*
X82631642Y-52578000D01*
X82631642Y-51852285D01*
X82813071Y-53757285D02*
X82813071Y-55208714D01*
X83538785Y-54483000D02*
X82087357Y-54483000D01*
X103051428Y-52423785D02*
X103142142Y-52695928D01*
X103232857Y-52786642D01*
X103414285Y-52877357D01*
X103686428Y-52877357D01*
X103867857Y-52786642D01*
X103958571Y-52695928D01*
X104049285Y-52514500D01*
X104049285Y-51788785D01*
X102144285Y-51788785D01*
X102144285Y-52423785D01*
X102235000Y-52605214D01*
X102325714Y-52695928D01*
X102507142Y-52786642D01*
X102688571Y-52786642D01*
X102870000Y-52695928D01*
X102960714Y-52605214D01*
X103051428Y-52423785D01*
X103051428Y-51788785D01*
X103323571Y-53693785D02*
X103323571Y-55145214D01*
X123879428Y-52931785D02*
X123970142Y-53203928D01*
X124060857Y-53294642D01*
X124242285Y-53385357D01*
X124514428Y-53385357D01*
X124695857Y-53294642D01*
X124786571Y-53203928D01*
X124877285Y-53022500D01*
X124877285Y-52296785D01*
X122972285Y-52296785D01*
X122972285Y-52931785D01*
X123063000Y-53113214D01*
X123153714Y-53203928D01*
X123335142Y-53294642D01*
X123516571Y-53294642D01*
X123698000Y-53203928D01*
X123788714Y-53113214D01*
X123879428Y-52931785D01*
X123879428Y-52296785D01*
X124151571Y-54201785D02*
X124151571Y-55653214D01*
X124133428Y-138049000D02*
X124224142Y-138321142D01*
X124314857Y-138411857D01*
X124496285Y-138502571D01*
X124768428Y-138502571D01*
X124949857Y-138411857D01*
X125040571Y-138321142D01*
X125131285Y-138139714D01*
X125131285Y-137414000D01*
X123226285Y-137414000D01*
X123226285Y-138049000D01*
X123317000Y-138230428D01*
X123407714Y-138321142D01*
X123589142Y-138411857D01*
X123770571Y-138411857D01*
X123952000Y-138321142D01*
X124042714Y-138230428D01*
X124133428Y-138049000D01*
X124133428Y-137414000D01*
X125131285Y-139319000D02*
X123226285Y-139319000D01*
X124587000Y-139954000D01*
X123226285Y-140589000D01*
X125131285Y-140589000D01*
X72571428Y-138049000D02*
X72662142Y-138321142D01*
X72752857Y-138411857D01*
X72934285Y-138502571D01*
X73206428Y-138502571D01*
X73387857Y-138411857D01*
X73478571Y-138321142D01*
X73569285Y-138139714D01*
X73569285Y-137414000D01*
X71664285Y-137414000D01*
X71664285Y-138049000D01*
X71755000Y-138230428D01*
X71845714Y-138321142D01*
X72027142Y-138411857D01*
X72208571Y-138411857D01*
X72390000Y-138321142D01*
X72480714Y-138230428D01*
X72571428Y-138049000D01*
X72571428Y-137414000D01*
X73569285Y-139319000D02*
X71664285Y-139319000D01*
X73025000Y-139954000D01*
X71664285Y-140589000D01*
X73569285Y-140589000D01*
X82477428Y-138049000D02*
X82568142Y-138321142D01*
X82658857Y-138411857D01*
X82840285Y-138502571D01*
X83112428Y-138502571D01*
X83293857Y-138411857D01*
X83384571Y-138321142D01*
X83475285Y-138139714D01*
X83475285Y-137414000D01*
X81570285Y-137414000D01*
X81570285Y-138049000D01*
X81661000Y-138230428D01*
X81751714Y-138321142D01*
X81933142Y-138411857D01*
X82114571Y-138411857D01*
X82296000Y-138321142D01*
X82386714Y-138230428D01*
X82477428Y-138049000D01*
X82477428Y-137414000D01*
X83475285Y-139319000D02*
X81570285Y-139319000D01*
X82931000Y-139954000D01*
X81570285Y-140589000D01*
X83475285Y-140589000D01*
X102924428Y-137477500D02*
X103015142Y-137749642D01*
X103105857Y-137840357D01*
X103287285Y-137931071D01*
X103559428Y-137931071D01*
X103740857Y-137840357D01*
X103831571Y-137749642D01*
X103922285Y-137568214D01*
X103922285Y-136842500D01*
X102017285Y-136842500D01*
X102017285Y-137477500D01*
X102108000Y-137658928D01*
X102198714Y-137749642D01*
X102380142Y-137840357D01*
X102561571Y-137840357D01*
X102743000Y-137749642D01*
X102833714Y-137658928D01*
X102924428Y-137477500D01*
X102924428Y-136842500D01*
X103922285Y-138747500D02*
X102017285Y-138747500D01*
X103378000Y-139382500D01*
X102017285Y-140017500D01*
X103922285Y-140017500D01*
D11*
G36*
X55729673Y-115115628D02*
G01*
X55724201Y-115056325D01*
X55714831Y-115010738D01*
X55707033Y-114990563D01*
X55697985Y-114968513D01*
X55698114Y-114956762D01*
X55699811Y-114956167D01*
X55704311Y-114945777D01*
X55707665Y-114915330D01*
X55709803Y-114865906D01*
X55710654Y-114798587D01*
X55710667Y-114788109D01*
X55710667Y-114620051D01*
X55308549Y-114484670D01*
X55221124Y-114455085D01*
X55140475Y-114427500D01*
X55068695Y-114402653D01*
X55007874Y-114381280D01*
X54960103Y-114364119D01*
X54927474Y-114351908D01*
X54912077Y-114345383D01*
X54911157Y-114344565D01*
X54921929Y-114340338D01*
X54950643Y-114330292D01*
X54995112Y-114315158D01*
X55053151Y-114295672D01*
X55122574Y-114272564D01*
X55201196Y-114246568D01*
X55286830Y-114218417D01*
X55310629Y-114210621D01*
X55705375Y-114081402D01*
X55708296Y-113914297D01*
X55709250Y-113851514D01*
X55709375Y-113806991D01*
X55708380Y-113777826D01*
X55705979Y-113761118D01*
X55701881Y-113753967D01*
X55695800Y-113753472D01*
X55692421Y-113754616D01*
X55679454Y-113759448D01*
X55648313Y-113770911D01*
X55600706Y-113788381D01*
X55538341Y-113811230D01*
X55462929Y-113838835D01*
X55376178Y-113870570D01*
X55279797Y-113905808D01*
X55175495Y-113943925D01*
X55064981Y-113984296D01*
X55022750Y-113999718D01*
X54908336Y-114041637D01*
X54797985Y-114082333D01*
X54693611Y-114121084D01*
X54597129Y-114157167D01*
X54510453Y-114189859D01*
X54435498Y-114218436D01*
X54374178Y-114242176D01*
X54328408Y-114260355D01*
X54300103Y-114272251D01*
X54295655Y-114274316D01*
X54215985Y-114322160D01*
X54153715Y-114379716D01*
X54109928Y-114445917D01*
X54100751Y-114466808D01*
X54090204Y-114497253D01*
X54082987Y-114528747D01*
X54078394Y-114566637D01*
X54075716Y-114616271D01*
X54074528Y-114665125D01*
X54074003Y-114718963D01*
X54074284Y-114766776D01*
X54075291Y-114803696D01*
X54076944Y-114824860D01*
X54077162Y-114826021D01*
X54081907Y-114839818D01*
X54091756Y-114849315D01*
X54110716Y-114855906D01*
X54142794Y-114860982D01*
X54191958Y-114865935D01*
X54235034Y-114870232D01*
X54274465Y-114874826D01*
X54299700Y-114878409D01*
X54333358Y-114884162D01*
X54327377Y-114805077D01*
X54324834Y-114740663D01*
X54329141Y-114691542D01*
X54341462Y-114652615D01*
X54362964Y-114618784D01*
X54372561Y-114607551D01*
X54403441Y-114580552D01*
X54443932Y-114554465D01*
X54486561Y-114533340D01*
X54523856Y-114521230D01*
X54534295Y-114519869D01*
X54546762Y-114523357D01*
X54576788Y-114533574D01*
X54622158Y-114549691D01*
X54680661Y-114570877D01*
X54750083Y-114596302D01*
X54828213Y-114625136D01*
X54912837Y-114656547D01*
X55001743Y-114689706D01*
X55092718Y-114723783D01*
X55183550Y-114757946D01*
X55272025Y-114791367D01*
X55355932Y-114823214D01*
X55433057Y-114852657D01*
X55501188Y-114878866D01*
X55558112Y-114901010D01*
X55601616Y-114918259D01*
X55629488Y-114929783D01*
X55639358Y-114934556D01*
X55633241Y-114940545D01*
X55610621Y-114951640D01*
X55575081Y-114966259D01*
X55530200Y-114982818D01*
X55530144Y-114982838D01*
X55483740Y-114999657D01*
X55445123Y-115014609D01*
X55418439Y-115026023D01*
X55407906Y-115032088D01*
X55409311Y-115045539D01*
X55418633Y-115070126D01*
X55424516Y-115082382D01*
X55439984Y-115127718D01*
X55445762Y-115178808D01*
X55441630Y-115227306D01*
X55429203Y-115261934D01*
X55393640Y-115301750D01*
X55338806Y-115333805D01*
X55282041Y-115353464D01*
X55258766Y-115358662D01*
X55229018Y-115362984D01*
X55190431Y-115366566D01*
X55140640Y-115369543D01*
X55077280Y-115372051D01*
X54997984Y-115374225D01*
X54900386Y-115376199D01*
X54877229Y-115376603D01*
X54535916Y-115382424D01*
X54535916Y-115697000D01*
X55710666Y-115697000D01*
X55710666Y-115400667D01*
X55634228Y-115400667D01*
X55595260Y-115400434D01*
X55574509Y-115399052D01*
X55569030Y-115395498D01*
X55575873Y-115388748D01*
X55583957Y-115383212D01*
X55628543Y-115348199D01*
X55670614Y-115306035D01*
X55703457Y-115263774D01*
X55712765Y-115247920D01*
X55723629Y-115223009D01*
X55729487Y-115196767D01*
X55731187Y-115162560D01*
X55729673Y-115115628D01*
G37*
X55729673Y-115115628D02*
X55724201Y-115056325D01*
X55714831Y-115010738D01*
X55707033Y-114990563D01*
X55697985Y-114968513D01*
X55698114Y-114956762D01*
X55699811Y-114956167D01*
X55704311Y-114945777D01*
X55707665Y-114915330D01*
X55709803Y-114865906D01*
X55710654Y-114798587D01*
X55710667Y-114788109D01*
X55710667Y-114620051D01*
X55308549Y-114484670D01*
X55221124Y-114455085D01*
X55140475Y-114427500D01*
X55068695Y-114402653D01*
X55007874Y-114381280D01*
X54960103Y-114364119D01*
X54927474Y-114351908D01*
X54912077Y-114345383D01*
X54911157Y-114344565D01*
X54921929Y-114340338D01*
X54950643Y-114330292D01*
X54995112Y-114315158D01*
X55053151Y-114295672D01*
X55122574Y-114272564D01*
X55201196Y-114246568D01*
X55286830Y-114218417D01*
X55310629Y-114210621D01*
X55705375Y-114081402D01*
X55708296Y-113914297D01*
X55709250Y-113851514D01*
X55709375Y-113806991D01*
X55708380Y-113777826D01*
X55705979Y-113761118D01*
X55701881Y-113753967D01*
X55695800Y-113753472D01*
X55692421Y-113754616D01*
X55679454Y-113759448D01*
X55648313Y-113770911D01*
X55600706Y-113788381D01*
X55538341Y-113811230D01*
X55462929Y-113838835D01*
X55376178Y-113870570D01*
X55279797Y-113905808D01*
X55175495Y-113943925D01*
X55064981Y-113984296D01*
X55022750Y-113999718D01*
X54908336Y-114041637D01*
X54797985Y-114082333D01*
X54693611Y-114121084D01*
X54597129Y-114157167D01*
X54510453Y-114189859D01*
X54435498Y-114218436D01*
X54374178Y-114242176D01*
X54328408Y-114260355D01*
X54300103Y-114272251D01*
X54295655Y-114274316D01*
X54215985Y-114322160D01*
X54153715Y-114379716D01*
X54109928Y-114445917D01*
X54100751Y-114466808D01*
X54090204Y-114497253D01*
X54082987Y-114528747D01*
X54078394Y-114566637D01*
X54075716Y-114616271D01*
X54074528Y-114665125D01*
X54074003Y-114718963D01*
X54074284Y-114766776D01*
X54075291Y-114803696D01*
X54076944Y-114824860D01*
X54077162Y-114826021D01*
X54081907Y-114839818D01*
X54091756Y-114849315D01*
X54110716Y-114855906D01*
X54142794Y-114860982D01*
X54191958Y-114865935D01*
X54235034Y-114870232D01*
X54274465Y-114874826D01*
X54299700Y-114878409D01*
X54333358Y-114884162D01*
X54327377Y-114805077D01*
X54324834Y-114740663D01*
X54329141Y-114691542D01*
X54341462Y-114652615D01*
X54362964Y-114618784D01*
X54372561Y-114607551D01*
X54403441Y-114580552D01*
X54443932Y-114554465D01*
X54486561Y-114533340D01*
X54523856Y-114521230D01*
X54534295Y-114519869D01*
X54546762Y-114523357D01*
X54576788Y-114533574D01*
X54622158Y-114549691D01*
X54680661Y-114570877D01*
X54750083Y-114596302D01*
X54828213Y-114625136D01*
X54912837Y-114656547D01*
X55001743Y-114689706D01*
X55092718Y-114723783D01*
X55183550Y-114757946D01*
X55272025Y-114791367D01*
X55355932Y-114823214D01*
X55433057Y-114852657D01*
X55501188Y-114878866D01*
X55558112Y-114901010D01*
X55601616Y-114918259D01*
X55629488Y-114929783D01*
X55639358Y-114934556D01*
X55633241Y-114940545D01*
X55610621Y-114951640D01*
X55575081Y-114966259D01*
X55530200Y-114982818D01*
X55530144Y-114982838D01*
X55483740Y-114999657D01*
X55445123Y-115014609D01*
X55418439Y-115026023D01*
X55407906Y-115032088D01*
X55409311Y-115045539D01*
X55418633Y-115070126D01*
X55424516Y-115082382D01*
X55439984Y-115127718D01*
X55445762Y-115178808D01*
X55441630Y-115227306D01*
X55429203Y-115261934D01*
X55393640Y-115301750D01*
X55338806Y-115333805D01*
X55282041Y-115353464D01*
X55258766Y-115358662D01*
X55229018Y-115362984D01*
X55190431Y-115366566D01*
X55140640Y-115369543D01*
X55077280Y-115372051D01*
X54997984Y-115374225D01*
X54900386Y-115376199D01*
X54877229Y-115376603D01*
X54535916Y-115382424D01*
X54535916Y-115697000D01*
X55710666Y-115697000D01*
X55710666Y-115400667D01*
X55634228Y-115400667D01*
X55595260Y-115400434D01*
X55574509Y-115399052D01*
X55569030Y-115395498D01*
X55575873Y-115388748D01*
X55583957Y-115383212D01*
X55628543Y-115348199D01*
X55670614Y-115306035D01*
X55703457Y-115263774D01*
X55712765Y-115247920D01*
X55723629Y-115223009D01*
X55729487Y-115196767D01*
X55731187Y-115162560D01*
X55729673Y-115115628D01*
G36*
X56152804Y-120885479D02*
G01*
X56149875Y-120729375D01*
X55872084Y-120726554D01*
X55594292Y-120723732D01*
X55640544Y-120666947D01*
X55675534Y-120619822D01*
X55699921Y-120575059D01*
X55715408Y-120527083D01*
X55723697Y-120470320D01*
X55726490Y-120399195D01*
X55726541Y-120385417D01*
X55726177Y-120331573D01*
X55724379Y-120292874D01*
X55720090Y-120263302D01*
X55712254Y-120236841D01*
X55699815Y-120207470D01*
X55692584Y-120192019D01*
X55642203Y-120109949D01*
X55575044Y-120040022D01*
X55492239Y-119983099D01*
X55394920Y-119940043D01*
X55340250Y-119923749D01*
X55285491Y-119914085D01*
X55216469Y-119908249D01*
X55139742Y-119906252D01*
X55061866Y-119908101D01*
X54989398Y-119913807D01*
X54929815Y-119923177D01*
X54828531Y-119954394D01*
X54737366Y-120000999D01*
X54658731Y-120061202D01*
X54595035Y-120133214D01*
X54554694Y-120201826D01*
X54537776Y-120240614D01*
X54527205Y-120274201D01*
X54521270Y-120310591D01*
X54518260Y-120357787D01*
X54517683Y-120374833D01*
X54517053Y-120427695D01*
X54519580Y-120467225D01*
X54526288Y-120501151D01*
X54538203Y-120537200D01*
X54539762Y-120541331D01*
X54579051Y-120621823D01*
X54633038Y-120691989D01*
X54662719Y-120721387D01*
X54699958Y-120755732D01*
X54617937Y-120755783D01*
X54535916Y-120755833D01*
X54535916Y-121041583D01*
X55142013Y-121041583D01*
X55142013Y-120732360D01*
X55053177Y-120726723D01*
X54971769Y-120708695D01*
X54900597Y-120679231D01*
X54842468Y-120639282D01*
X54800191Y-120589803D01*
X54791317Y-120573849D01*
X54774203Y-120521212D01*
X54769088Y-120462359D01*
X54776216Y-120406293D01*
X54785997Y-120378729D01*
X54814642Y-120337111D01*
X54857374Y-120297550D01*
X54907420Y-120265691D01*
X54936671Y-120253125D01*
X54971200Y-120244224D01*
X55017782Y-120236215D01*
X55067312Y-120230613D01*
X55075698Y-120229987D01*
X55177237Y-120229538D01*
X55267405Y-120242319D01*
X55344511Y-120267782D01*
X55406868Y-120305377D01*
X55450979Y-120351933D01*
X55467577Y-120377709D01*
X55477238Y-120400897D01*
X55481798Y-120428845D01*
X55483095Y-120468905D01*
X55483125Y-120480537D01*
X55482363Y-120524108D01*
X55478835Y-120553792D01*
X55470677Y-120576850D01*
X55456025Y-120600544D01*
X55450239Y-120608648D01*
X55400463Y-120659489D01*
X55334729Y-120697281D01*
X55254230Y-120721379D01*
X55235469Y-120724654D01*
X55142013Y-120732360D01*
X55142013Y-121041583D01*
X56155731Y-121041583D01*
X56152804Y-120885479D01*
G37*
X56152804Y-120885479D02*
X56149875Y-120729375D01*
X55872084Y-120726554D01*
X55594292Y-120723732D01*
X55640544Y-120666947D01*
X55675534Y-120619822D01*
X55699921Y-120575059D01*
X55715408Y-120527083D01*
X55723697Y-120470320D01*
X55726490Y-120399195D01*
X55726541Y-120385417D01*
X55726177Y-120331573D01*
X55724379Y-120292874D01*
X55720090Y-120263302D01*
X55712254Y-120236841D01*
X55699815Y-120207470D01*
X55692584Y-120192019D01*
X55642203Y-120109949D01*
X55575044Y-120040022D01*
X55492239Y-119983099D01*
X55394920Y-119940043D01*
X55340250Y-119923749D01*
X55285491Y-119914085D01*
X55216469Y-119908249D01*
X55139742Y-119906252D01*
X55061866Y-119908101D01*
X54989398Y-119913807D01*
X54929815Y-119923177D01*
X54828531Y-119954394D01*
X54737366Y-120000999D01*
X54658731Y-120061202D01*
X54595035Y-120133214D01*
X54554694Y-120201826D01*
X54537776Y-120240614D01*
X54527205Y-120274201D01*
X54521270Y-120310591D01*
X54518260Y-120357787D01*
X54517683Y-120374833D01*
X54517053Y-120427695D01*
X54519580Y-120467225D01*
X54526288Y-120501151D01*
X54538203Y-120537200D01*
X54539762Y-120541331D01*
X54579051Y-120621823D01*
X54633038Y-120691989D01*
X54662719Y-120721387D01*
X54699958Y-120755732D01*
X54617937Y-120755783D01*
X54535916Y-120755833D01*
X54535916Y-121041583D01*
X55142013Y-121041583D01*
X55142013Y-120732360D01*
X55053177Y-120726723D01*
X54971769Y-120708695D01*
X54900597Y-120679231D01*
X54842468Y-120639282D01*
X54800191Y-120589803D01*
X54791317Y-120573849D01*
X54774203Y-120521212D01*
X54769088Y-120462359D01*
X54776216Y-120406293D01*
X54785997Y-120378729D01*
X54814642Y-120337111D01*
X54857374Y-120297550D01*
X54907420Y-120265691D01*
X54936671Y-120253125D01*
X54971200Y-120244224D01*
X55017782Y-120236215D01*
X55067312Y-120230613D01*
X55075698Y-120229987D01*
X55177237Y-120229538D01*
X55267405Y-120242319D01*
X55344511Y-120267782D01*
X55406868Y-120305377D01*
X55450979Y-120351933D01*
X55467577Y-120377709D01*
X55477238Y-120400897D01*
X55481798Y-120428845D01*
X55483095Y-120468905D01*
X55483125Y-120480537D01*
X55482363Y-120524108D01*
X55478835Y-120553792D01*
X55470677Y-120576850D01*
X55456025Y-120600544D01*
X55450239Y-120608648D01*
X55400463Y-120659489D01*
X55334729Y-120697281D01*
X55254230Y-120721379D01*
X55235469Y-120724654D01*
X55142013Y-120732360D01*
X55142013Y-121041583D01*
X56155731Y-121041583D01*
X56152804Y-120885479D01*
G36*
X55731855Y-119159864D02*
G01*
X55729795Y-119095547D01*
X55725736Y-119040899D01*
X55721447Y-119010358D01*
X55701394Y-118937626D01*
X55671291Y-118870908D01*
X55633757Y-118814542D01*
X55591412Y-118772868D01*
X55569795Y-118759175D01*
X55549540Y-118749359D01*
X55528846Y-118741295D01*
X55505365Y-118734763D01*
X55476748Y-118729542D01*
X55440646Y-118725411D01*
X55394710Y-118722150D01*
X55336591Y-118719539D01*
X55263940Y-118717355D01*
X55174409Y-118715380D01*
X55086250Y-118713752D01*
X54985093Y-118711918D01*
X54902724Y-118710228D01*
X54836768Y-118708517D01*
X54784849Y-118706621D01*
X54744590Y-118704376D01*
X54713617Y-118701618D01*
X54689552Y-118698184D01*
X54670021Y-118693909D01*
X54652647Y-118688630D01*
X54636458Y-118682719D01*
X54597083Y-118667227D01*
X54569426Y-118657404D01*
X54551511Y-118655683D01*
X54541362Y-118664494D01*
X54537000Y-118686270D01*
X54536450Y-118723442D01*
X54537734Y-118778442D01*
X54538272Y-118803492D01*
X54541208Y-118959855D01*
X54583541Y-118974261D01*
X54613302Y-118984466D01*
X54635504Y-118992213D01*
X54639277Y-118993568D01*
X54642532Y-119003570D01*
X54631374Y-119026701D01*
X54615595Y-119050088D01*
X54572348Y-119116595D01*
X54543547Y-119178337D01*
X54526565Y-119243060D01*
X54518773Y-119318508D01*
X54518022Y-119337610D01*
X54517278Y-119396229D01*
X54519658Y-119440825D01*
X54525870Y-119478404D01*
X54535746Y-119513319D01*
X54567402Y-119580654D01*
X54614315Y-119642322D01*
X54671075Y-119691605D01*
X54687776Y-119702143D01*
X54752054Y-119728663D01*
X54825976Y-119741836D01*
X54902624Y-119741496D01*
X54906856Y-119740678D01*
X54906856Y-119423821D01*
X54860266Y-119422601D01*
X54815502Y-119405129D01*
X54776646Y-119372131D01*
X54751292Y-119332375D01*
X54741082Y-119290232D01*
X54742245Y-119238743D01*
X54753899Y-119185821D01*
X54772321Y-119144022D01*
X54800087Y-119101544D01*
X54828412Y-119071136D01*
X54861854Y-119050404D01*
X54904973Y-119036953D01*
X54962328Y-119028386D01*
X54998661Y-119025117D01*
X55094516Y-119017618D01*
X55065104Y-119137955D01*
X55047811Y-119208224D01*
X55034387Y-119261045D01*
X55023823Y-119299567D01*
X55015107Y-119326938D01*
X55007230Y-119346307D01*
X54999182Y-119360822D01*
X54989953Y-119373632D01*
X54989187Y-119374609D01*
X54951190Y-119408066D01*
X54906856Y-119423821D01*
X54906856Y-119740678D01*
X54975082Y-119727478D01*
X55018508Y-119710010D01*
X55071452Y-119675207D01*
X55116027Y-119628746D01*
X55153475Y-119568483D01*
X55185039Y-119492272D01*
X55211960Y-119397969D01*
X55220169Y-119361902D01*
X55237265Y-119284868D01*
X55254147Y-119212829D01*
X55270068Y-119148663D01*
X55284275Y-119095250D01*
X55296019Y-119055468D01*
X55304551Y-119032195D01*
X55307208Y-119027808D01*
X55324187Y-119023304D01*
X55353543Y-119025715D01*
X55388187Y-119033654D01*
X55421026Y-119045732D01*
X55434181Y-119052662D01*
X55462080Y-119080434D01*
X55479646Y-119124143D01*
X55487188Y-119184888D01*
X55486631Y-119238930D01*
X55481988Y-119288515D01*
X55473085Y-119322950D01*
X55460807Y-119345067D01*
X55436562Y-119371218D01*
X55404540Y-119397871D01*
X55373086Y-119418488D01*
X55358856Y-119424951D01*
X55354756Y-119433731D01*
X55354898Y-119457181D01*
X55359437Y-119497139D01*
X55368532Y-119555440D01*
X55371460Y-119572658D01*
X55396193Y-119716321D01*
X55427471Y-119707351D01*
X55514527Y-119671963D01*
X55589069Y-119620149D01*
X55649538Y-119553592D01*
X55694375Y-119473978D01*
X55720440Y-119390831D01*
X55726210Y-119349334D01*
X55730046Y-119292908D01*
X55731934Y-119227701D01*
X55731855Y-119159864D01*
G37*
X55731855Y-119159864D02*
X55729795Y-119095547D01*
X55725736Y-119040899D01*
X55721447Y-119010358D01*
X55701394Y-118937626D01*
X55671291Y-118870908D01*
X55633757Y-118814542D01*
X55591412Y-118772868D01*
X55569795Y-118759175D01*
X55549540Y-118749359D01*
X55528846Y-118741295D01*
X55505365Y-118734763D01*
X55476748Y-118729542D01*
X55440646Y-118725411D01*
X55394710Y-118722150D01*
X55336591Y-118719539D01*
X55263940Y-118717355D01*
X55174409Y-118715380D01*
X55086250Y-118713752D01*
X54985093Y-118711918D01*
X54902724Y-118710228D01*
X54836768Y-118708517D01*
X54784849Y-118706621D01*
X54744590Y-118704376D01*
X54713617Y-118701618D01*
X54689552Y-118698184D01*
X54670021Y-118693909D01*
X54652647Y-118688630D01*
X54636458Y-118682719D01*
X54597083Y-118667227D01*
X54569426Y-118657404D01*
X54551511Y-118655683D01*
X54541362Y-118664494D01*
X54537000Y-118686270D01*
X54536450Y-118723442D01*
X54537734Y-118778442D01*
X54538272Y-118803492D01*
X54541208Y-118959855D01*
X54583541Y-118974261D01*
X54613302Y-118984466D01*
X54635504Y-118992213D01*
X54639277Y-118993568D01*
X54642532Y-119003570D01*
X54631374Y-119026701D01*
X54615595Y-119050088D01*
X54572348Y-119116595D01*
X54543547Y-119178337D01*
X54526565Y-119243060D01*
X54518773Y-119318508D01*
X54518022Y-119337610D01*
X54517278Y-119396229D01*
X54519658Y-119440825D01*
X54525870Y-119478404D01*
X54535746Y-119513319D01*
X54567402Y-119580654D01*
X54614315Y-119642322D01*
X54671075Y-119691605D01*
X54687776Y-119702143D01*
X54752054Y-119728663D01*
X54825976Y-119741836D01*
X54902624Y-119741496D01*
X54906856Y-119740678D01*
X54906856Y-119423821D01*
X54860266Y-119422601D01*
X54815502Y-119405129D01*
X54776646Y-119372131D01*
X54751292Y-119332375D01*
X54741082Y-119290232D01*
X54742245Y-119238743D01*
X54753899Y-119185821D01*
X54772321Y-119144022D01*
X54800087Y-119101544D01*
X54828412Y-119071136D01*
X54861854Y-119050404D01*
X54904973Y-119036953D01*
X54962328Y-119028386D01*
X54998661Y-119025117D01*
X55094516Y-119017618D01*
X55065104Y-119137955D01*
X55047811Y-119208224D01*
X55034387Y-119261045D01*
X55023823Y-119299567D01*
X55015107Y-119326938D01*
X55007230Y-119346307D01*
X54999182Y-119360822D01*
X54989953Y-119373632D01*
X54989187Y-119374609D01*
X54951190Y-119408066D01*
X54906856Y-119423821D01*
X54906856Y-119740678D01*
X54975082Y-119727478D01*
X55018508Y-119710010D01*
X55071452Y-119675207D01*
X55116027Y-119628746D01*
X55153475Y-119568483D01*
X55185039Y-119492272D01*
X55211960Y-119397969D01*
X55220169Y-119361902D01*
X55237265Y-119284868D01*
X55254147Y-119212829D01*
X55270068Y-119148663D01*
X55284275Y-119095250D01*
X55296019Y-119055468D01*
X55304551Y-119032195D01*
X55307208Y-119027808D01*
X55324187Y-119023304D01*
X55353543Y-119025715D01*
X55388187Y-119033654D01*
X55421026Y-119045732D01*
X55434181Y-119052662D01*
X55462080Y-119080434D01*
X55479646Y-119124143D01*
X55487188Y-119184888D01*
X55486631Y-119238930D01*
X55481988Y-119288515D01*
X55473085Y-119322950D01*
X55460807Y-119345067D01*
X55436562Y-119371218D01*
X55404540Y-119397871D01*
X55373086Y-119418488D01*
X55358856Y-119424951D01*
X55354756Y-119433731D01*
X55354898Y-119457181D01*
X55359437Y-119497139D01*
X55368532Y-119555440D01*
X55371460Y-119572658D01*
X55396193Y-119716321D01*
X55427471Y-119707351D01*
X55514527Y-119671963D01*
X55589069Y-119620149D01*
X55649538Y-119553592D01*
X55694375Y-119473978D01*
X55720440Y-119390831D01*
X55726210Y-119349334D01*
X55730046Y-119292908D01*
X55731934Y-119227701D01*
X55731855Y-119159864D01*
G36*
X55916389Y-118091256D02*
G01*
X55710666Y-118088386D01*
X55710666Y-117877167D01*
X55456666Y-117877167D01*
X55456666Y-117983445D01*
X55456667Y-118089724D01*
X55140261Y-118086633D01*
X55049820Y-118085682D01*
X54978141Y-118084679D01*
X54922823Y-118083455D01*
X54881461Y-118081836D01*
X54851653Y-118079653D01*
X54830995Y-118076732D01*
X54817084Y-118072903D01*
X54807517Y-118067995D01*
X54800502Y-118062392D01*
X54786496Y-118046221D01*
X54781024Y-118026650D01*
X54782211Y-117995750D01*
X54782995Y-117988309D01*
X54787898Y-117950815D01*
X54793497Y-117917552D01*
X54795733Y-117907165D01*
X54798484Y-117891314D01*
X54793958Y-117882052D01*
X54777734Y-117876480D01*
X54745386Y-117871701D01*
X54740708Y-117871106D01*
X54691978Y-117866274D01*
X54639011Y-117862972D01*
X54616535Y-117862274D01*
X54554278Y-117861292D01*
X54538544Y-117903625D01*
X54531197Y-117933454D01*
X54524770Y-117978162D01*
X54520058Y-118031459D01*
X54518478Y-118062375D01*
X54517133Y-118119841D01*
X54518453Y-118162316D01*
X54522991Y-118195872D01*
X54531302Y-118226577D01*
X54534229Y-118235067D01*
X54552612Y-118274844D01*
X54576687Y-118312482D01*
X54589108Y-118327242D01*
X54607236Y-118345037D01*
X54625313Y-118359648D01*
X54645582Y-118371419D01*
X54670288Y-118380693D01*
X54701673Y-118387815D01*
X54741982Y-118393128D01*
X54793457Y-118396976D01*
X54858342Y-118399702D01*
X54938881Y-118401651D01*
X55037318Y-118403165D01*
X55088896Y-118403806D01*
X55456666Y-118408205D01*
X55456666Y-118543917D01*
X55710666Y-118543917D01*
X55710666Y-118406333D01*
X55940424Y-118406333D01*
X56031267Y-118250229D01*
X56122111Y-118094125D01*
X55916389Y-118091256D01*
G37*
X55916389Y-118091256D02*
X55710666Y-118088386D01*
X55710666Y-117877167D01*
X55456666Y-117877167D01*
X55456666Y-117983445D01*
X55456667Y-118089724D01*
X55140261Y-118086633D01*
X55049820Y-118085682D01*
X54978141Y-118084679D01*
X54922823Y-118083455D01*
X54881461Y-118081836D01*
X54851653Y-118079653D01*
X54830995Y-118076732D01*
X54817084Y-118072903D01*
X54807517Y-118067995D01*
X54800502Y-118062392D01*
X54786496Y-118046221D01*
X54781024Y-118026650D01*
X54782211Y-117995750D01*
X54782995Y-117988309D01*
X54787898Y-117950815D01*
X54793497Y-117917552D01*
X54795733Y-117907165D01*
X54798484Y-117891314D01*
X54793958Y-117882052D01*
X54777734Y-117876480D01*
X54745386Y-117871701D01*
X54740708Y-117871106D01*
X54691978Y-117866274D01*
X54639011Y-117862972D01*
X54616535Y-117862274D01*
X54554278Y-117861292D01*
X54538544Y-117903625D01*
X54531197Y-117933454D01*
X54524770Y-117978162D01*
X54520058Y-118031459D01*
X54518478Y-118062375D01*
X54517133Y-118119841D01*
X54518453Y-118162316D01*
X54522991Y-118195872D01*
X54531302Y-118226577D01*
X54534229Y-118235067D01*
X54552612Y-118274844D01*
X54576687Y-118312482D01*
X54589108Y-118327242D01*
X54607236Y-118345037D01*
X54625313Y-118359648D01*
X54645582Y-118371419D01*
X54670288Y-118380693D01*
X54701673Y-118387815D01*
X54741982Y-118393128D01*
X54793457Y-118396976D01*
X54858342Y-118399702D01*
X54938881Y-118401651D01*
X55037318Y-118403165D01*
X55088896Y-118403806D01*
X55456666Y-118408205D01*
X55456666Y-118543917D01*
X55710666Y-118543917D01*
X55710666Y-118406333D01*
X55940424Y-118406333D01*
X56031267Y-118250229D01*
X56122111Y-118094125D01*
X55916389Y-118091256D01*
G36*
X56113369Y-117340753D02*
G01*
X56085366Y-117339454D01*
X56042620Y-117338416D01*
X55988342Y-117337713D01*
X55925745Y-117337421D01*
X55917425Y-117337417D01*
X55711433Y-117337417D01*
X55708404Y-117234229D01*
X55705375Y-117131042D01*
X55581021Y-117128060D01*
X55456666Y-117125078D01*
X55456666Y-117337417D01*
X55139166Y-117337417D01*
X55048825Y-117337371D01*
X54977256Y-117337128D01*
X54922067Y-117336529D01*
X54880863Y-117335416D01*
X54851253Y-117333630D01*
X54830841Y-117331013D01*
X54817234Y-117327407D01*
X54808039Y-117322652D01*
X54800862Y-117316591D01*
X54799158Y-117314908D01*
X54785843Y-117298066D01*
X54780796Y-117278230D01*
X54782403Y-117247473D01*
X54783524Y-117238179D01*
X54789776Y-117191861D01*
X54792406Y-117161093D01*
X54788254Y-117142256D01*
X54774164Y-117131733D01*
X54746978Y-117125909D01*
X54703538Y-117121165D01*
X54679100Y-117118560D01*
X54625153Y-117113105D01*
X54588846Y-117110983D01*
X54566919Y-117112187D01*
X54556108Y-117116712D01*
X54554783Y-117118325D01*
X54540817Y-117151612D01*
X54529752Y-117200361D01*
X54521940Y-117259018D01*
X54517732Y-117322034D01*
X54517479Y-117383856D01*
X54521532Y-117438932D01*
X54530242Y-117481711D01*
X54531555Y-117485583D01*
X54564281Y-117551920D01*
X54608798Y-117600918D01*
X54651185Y-117627070D01*
X54664963Y-117633028D01*
X54679454Y-117637865D01*
X54696979Y-117641723D01*
X54719859Y-117644740D01*
X54750418Y-117647058D01*
X54790975Y-117648816D01*
X54843854Y-117650156D01*
X54911375Y-117651217D01*
X54995860Y-117652140D01*
X55078312Y-117652882D01*
X55456667Y-117656138D01*
X55456666Y-117729611D01*
X55456666Y-117803083D01*
X55710666Y-117803083D01*
X55710666Y-117655610D01*
X55828387Y-117652618D01*
X55946108Y-117649625D01*
X56034762Y-117498341D01*
X56064283Y-117447689D01*
X56089639Y-117403655D01*
X56109056Y-117369364D01*
X56120761Y-117347938D01*
X56123417Y-117342237D01*
X56113369Y-117340753D01*
G37*
X56113369Y-117340753D02*
X56085366Y-117339454D01*
X56042620Y-117338416D01*
X55988342Y-117337713D01*
X55925745Y-117337421D01*
X55917425Y-117337417D01*
X55711433Y-117337417D01*
X55708404Y-117234229D01*
X55705375Y-117131042D01*
X55581021Y-117128060D01*
X55456666Y-117125078D01*
X55456666Y-117337417D01*
X55139166Y-117337417D01*
X55048825Y-117337371D01*
X54977256Y-117337128D01*
X54922067Y-117336529D01*
X54880863Y-117335416D01*
X54851253Y-117333630D01*
X54830841Y-117331013D01*
X54817234Y-117327407D01*
X54808039Y-117322652D01*
X54800862Y-117316591D01*
X54799158Y-117314908D01*
X54785843Y-117298066D01*
X54780796Y-117278230D01*
X54782403Y-117247473D01*
X54783524Y-117238179D01*
X54789776Y-117191861D01*
X54792406Y-117161093D01*
X54788254Y-117142256D01*
X54774164Y-117131733D01*
X54746978Y-117125909D01*
X54703538Y-117121165D01*
X54679100Y-117118560D01*
X54625153Y-117113105D01*
X54588846Y-117110983D01*
X54566919Y-117112187D01*
X54556108Y-117116712D01*
X54554783Y-117118325D01*
X54540817Y-117151612D01*
X54529752Y-117200361D01*
X54521940Y-117259018D01*
X54517732Y-117322034D01*
X54517479Y-117383856D01*
X54521532Y-117438932D01*
X54530242Y-117481711D01*
X54531555Y-117485583D01*
X54564281Y-117551920D01*
X54608798Y-117600918D01*
X54651185Y-117627070D01*
X54664963Y-117633028D01*
X54679454Y-117637865D01*
X54696979Y-117641723D01*
X54719859Y-117644740D01*
X54750418Y-117647058D01*
X54790975Y-117648816D01*
X54843854Y-117650156D01*
X54911375Y-117651217D01*
X54995860Y-117652140D01*
X55078312Y-117652882D01*
X55456667Y-117656138D01*
X55456666Y-117729611D01*
X55456666Y-117803083D01*
X55710666Y-117803083D01*
X55710666Y-117655610D01*
X55828387Y-117652618D01*
X55946108Y-117649625D01*
X56034762Y-117498341D01*
X56064283Y-117447689D01*
X56089639Y-117403655D01*
X56109056Y-117369364D01*
X56120761Y-117347938D01*
X56123417Y-117342237D01*
X56113369Y-117340753D01*
G36*
X55728796Y-116383643D02*
G01*
X55722890Y-116342425D01*
X55716106Y-116315067D01*
X55677942Y-116215707D01*
X55625421Y-116131765D01*
X55557933Y-116062612D01*
X55474871Y-116007616D01*
X55381434Y-115968060D01*
X55330581Y-115954202D01*
X55266333Y-115941195D01*
X55196458Y-115930240D01*
X55128723Y-115922537D01*
X55070898Y-115919285D01*
X55065500Y-115919250D01*
X55033333Y-115919250D01*
X55033333Y-116691833D01*
X55008796Y-116691833D01*
X54964142Y-116685443D01*
X54913123Y-116668687D01*
X54865261Y-116645184D01*
X54839880Y-116627614D01*
X54792452Y-116575689D01*
X54763893Y-116514481D01*
X54754781Y-116448417D01*
X54763219Y-116384178D01*
X54788771Y-116332347D01*
X54831679Y-116292590D01*
X54884698Y-116267077D01*
X54906798Y-116257464D01*
X54916749Y-116249358D01*
X54916794Y-116248944D01*
X54914831Y-116231146D01*
X54909818Y-116198665D01*
X54902599Y-116156071D01*
X54894019Y-116107935D01*
X54884919Y-116058828D01*
X54876145Y-116013321D01*
X54868539Y-115975984D01*
X54862944Y-115951390D01*
X54860521Y-115943994D01*
X54846498Y-115943673D01*
X54819898Y-115953670D01*
X54785004Y-115971510D01*
X54746099Y-115994714D01*
X54707468Y-116020806D01*
X54673393Y-116047308D01*
X54658482Y-116060834D01*
X54597056Y-116134506D01*
X54552251Y-116219972D01*
X54530537Y-116286421D01*
X54521758Y-116336819D01*
X54516886Y-116400632D01*
X54515897Y-116470475D01*
X54518768Y-116538962D01*
X54525476Y-116598711D01*
X54531606Y-116628333D01*
X54567616Y-116725933D01*
X54620146Y-116810405D01*
X54688876Y-116881445D01*
X54773486Y-116938749D01*
X54873655Y-116982013D01*
X54917681Y-116995232D01*
X54974033Y-117005703D01*
X55044153Y-117011924D01*
X55121070Y-117013893D01*
X55197818Y-117011608D01*
X55223833Y-117009165D01*
X55223833Y-116688291D01*
X55223833Y-116234347D01*
X55274104Y-116241785D01*
X55346797Y-116261389D01*
X55406101Y-116295533D01*
X55450503Y-116342233D01*
X55478494Y-116399504D01*
X55488562Y-116465363D01*
X55483829Y-116517179D01*
X55469508Y-116553069D01*
X55442191Y-116592530D01*
X55407402Y-116628884D01*
X55370663Y-116655455D01*
X55368469Y-116656618D01*
X55339153Y-116667657D01*
X55300342Y-116677258D01*
X55280361Y-116680620D01*
X55223833Y-116688291D01*
X55223833Y-117009165D01*
X55267426Y-117005070D01*
X55319083Y-116995317D01*
X55426455Y-116957623D01*
X55519291Y-116904992D01*
X55597125Y-116837792D01*
X55659490Y-116756388D01*
X55686804Y-116706167D01*
X55704063Y-116668786D01*
X55715607Y-116638647D01*
X55722769Y-116609411D01*
X55726883Y-116574742D01*
X55729283Y-116528302D01*
X55730221Y-116499824D01*
X55731091Y-116434161D01*
X55728796Y-116383643D01*
G37*
X55728796Y-116383643D02*
X55722890Y-116342425D01*
X55716106Y-116315067D01*
X55677942Y-116215707D01*
X55625421Y-116131765D01*
X55557933Y-116062612D01*
X55474871Y-116007616D01*
X55381434Y-115968060D01*
X55330581Y-115954202D01*
X55266333Y-115941195D01*
X55196458Y-115930240D01*
X55128723Y-115922537D01*
X55070898Y-115919285D01*
X55065500Y-115919250D01*
X55033333Y-115919250D01*
X55033333Y-116691833D01*
X55008796Y-116691833D01*
X54964142Y-116685443D01*
X54913123Y-116668687D01*
X54865261Y-116645184D01*
X54839880Y-116627614D01*
X54792452Y-116575689D01*
X54763893Y-116514481D01*
X54754781Y-116448417D01*
X54763219Y-116384178D01*
X54788771Y-116332347D01*
X54831679Y-116292590D01*
X54884698Y-116267077D01*
X54906798Y-116257464D01*
X54916749Y-116249358D01*
X54916794Y-116248944D01*
X54914831Y-116231146D01*
X54909818Y-116198665D01*
X54902599Y-116156071D01*
X54894019Y-116107935D01*
X54884919Y-116058828D01*
X54876145Y-116013321D01*
X54868539Y-115975984D01*
X54862944Y-115951390D01*
X54860521Y-115943994D01*
X54846498Y-115943673D01*
X54819898Y-115953670D01*
X54785004Y-115971510D01*
X54746099Y-115994714D01*
X54707468Y-116020806D01*
X54673393Y-116047308D01*
X54658482Y-116060834D01*
X54597056Y-116134506D01*
X54552251Y-116219972D01*
X54530537Y-116286421D01*
X54521758Y-116336819D01*
X54516886Y-116400632D01*
X54515897Y-116470475D01*
X54518768Y-116538962D01*
X54525476Y-116598711D01*
X54531606Y-116628333D01*
X54567616Y-116725933D01*
X54620146Y-116810405D01*
X54688876Y-116881445D01*
X54773486Y-116938749D01*
X54873655Y-116982013D01*
X54917681Y-116995232D01*
X54974033Y-117005703D01*
X55044153Y-117011924D01*
X55121070Y-117013893D01*
X55197818Y-117011608D01*
X55223833Y-117009165D01*
X55223833Y-116688291D01*
X55223833Y-116234347D01*
X55274104Y-116241785D01*
X55346797Y-116261389D01*
X55406101Y-116295533D01*
X55450503Y-116342233D01*
X55478494Y-116399504D01*
X55488562Y-116465363D01*
X55483829Y-116517179D01*
X55469508Y-116553069D01*
X55442191Y-116592530D01*
X55407402Y-116628884D01*
X55370663Y-116655455D01*
X55368469Y-116656618D01*
X55339153Y-116667657D01*
X55300342Y-116677258D01*
X55280361Y-116680620D01*
X55223833Y-116688291D01*
X55223833Y-117009165D01*
X55267426Y-117005070D01*
X55319083Y-116995317D01*
X55426455Y-116957623D01*
X55519291Y-116904992D01*
X55597125Y-116837792D01*
X55659490Y-116756388D01*
X55686804Y-116706167D01*
X55704063Y-116668786D01*
X55715607Y-116638647D01*
X55722769Y-116609411D01*
X55726883Y-116574742D01*
X55729283Y-116528302D01*
X55730221Y-116499824D01*
X55731091Y-116434161D01*
X55728796Y-116383643D01*
G36*
X55580971Y-113262833D02*
G01*
X55625600Y-113214416D01*
X55656242Y-113175826D01*
X55685425Y-113130503D01*
X55698386Y-113105937D01*
X55710584Y-113078040D01*
X55718664Y-113052677D01*
X55723457Y-113024311D01*
X55725797Y-112987408D01*
X55726517Y-112936432D01*
X55726541Y-112918875D01*
X55726253Y-112864223D01*
X55724719Y-112825041D01*
X55720936Y-112795635D01*
X55713902Y-112770311D01*
X55702612Y-112743373D01*
X55691572Y-112720368D01*
X55639969Y-112636957D01*
X55573345Y-112567647D01*
X55490956Y-112511820D01*
X55392058Y-112468855D01*
X55387457Y-112467297D01*
X55357650Y-112458012D01*
X55329473Y-112451374D01*
X55298489Y-112446949D01*
X55260258Y-112444308D01*
X55210344Y-112443019D01*
X55144307Y-112442650D01*
X55133875Y-112442647D01*
X55064525Y-112442978D01*
X55011855Y-112444232D01*
X54971386Y-112446828D01*
X54938637Y-112451182D01*
X54909128Y-112457714D01*
X54879875Y-112466363D01*
X54780677Y-112507703D01*
X54693653Y-112563652D01*
X54620986Y-112632427D01*
X54564860Y-112712245D01*
X54554487Y-112732045D01*
X54537922Y-112768112D01*
X54527511Y-112799346D01*
X54521625Y-112833305D01*
X54518636Y-112877547D01*
X54517820Y-112902166D01*
X54518134Y-112965124D01*
X54522563Y-113016246D01*
X54529004Y-113045875D01*
X54567056Y-113133654D01*
X54619651Y-113208413D01*
X54642210Y-113232551D01*
X54693659Y-113284000D01*
X54535916Y-113284000D01*
X54535916Y-113580333D01*
X55084624Y-113580333D01*
X55084624Y-113259836D01*
X54994417Y-113246000D01*
X54916774Y-113218898D01*
X54853229Y-113179184D01*
X54805316Y-113127514D01*
X54783448Y-113088208D01*
X54771359Y-113040555D01*
X54770075Y-112984835D01*
X54779234Y-112930962D01*
X54790204Y-112902437D01*
X54828849Y-112849697D01*
X54884630Y-112809230D01*
X54957393Y-112781101D01*
X55046982Y-112765373D01*
X55128583Y-112761757D01*
X55230771Y-112768089D01*
X55316134Y-112786500D01*
X55384485Y-112816873D01*
X55435636Y-112859088D01*
X55469398Y-112913026D01*
X55485582Y-112978570D01*
X55486318Y-112986984D01*
X55484845Y-113052880D01*
X55468475Y-113107631D01*
X55435200Y-113156882D01*
X55420194Y-113172863D01*
X55373612Y-113210210D01*
X55318085Y-113236367D01*
X55249641Y-113252806D01*
X55185859Y-113259753D01*
X55084624Y-113259836D01*
X55084624Y-113580333D01*
X56155166Y-113580333D01*
X56155166Y-113262833D01*
X55580971Y-113262833D01*
G37*
X55580971Y-113262833D02*
X55625600Y-113214416D01*
X55656242Y-113175826D01*
X55685425Y-113130503D01*
X55698386Y-113105937D01*
X55710584Y-113078040D01*
X55718664Y-113052677D01*
X55723457Y-113024311D01*
X55725797Y-112987408D01*
X55726517Y-112936432D01*
X55726541Y-112918875D01*
X55726253Y-112864223D01*
X55724719Y-112825041D01*
X55720936Y-112795635D01*
X55713902Y-112770311D01*
X55702612Y-112743373D01*
X55691572Y-112720368D01*
X55639969Y-112636957D01*
X55573345Y-112567647D01*
X55490956Y-112511820D01*
X55392058Y-112468855D01*
X55387457Y-112467297D01*
X55357650Y-112458012D01*
X55329473Y-112451374D01*
X55298489Y-112446949D01*
X55260258Y-112444308D01*
X55210344Y-112443019D01*
X55144307Y-112442650D01*
X55133875Y-112442647D01*
X55064525Y-112442978D01*
X55011855Y-112444232D01*
X54971386Y-112446828D01*
X54938637Y-112451182D01*
X54909128Y-112457714D01*
X54879875Y-112466363D01*
X54780677Y-112507703D01*
X54693653Y-112563652D01*
X54620986Y-112632427D01*
X54564860Y-112712245D01*
X54554487Y-112732045D01*
X54537922Y-112768112D01*
X54527511Y-112799346D01*
X54521625Y-112833305D01*
X54518636Y-112877547D01*
X54517820Y-112902166D01*
X54518134Y-112965124D01*
X54522563Y-113016246D01*
X54529004Y-113045875D01*
X54567056Y-113133654D01*
X54619651Y-113208413D01*
X54642210Y-113232551D01*
X54693659Y-113284000D01*
X54535916Y-113284000D01*
X54535916Y-113580333D01*
X55084624Y-113580333D01*
X55084624Y-113259836D01*
X54994417Y-113246000D01*
X54916774Y-113218898D01*
X54853229Y-113179184D01*
X54805316Y-113127514D01*
X54783448Y-113088208D01*
X54771359Y-113040555D01*
X54770075Y-112984835D01*
X54779234Y-112930962D01*
X54790204Y-112902437D01*
X54828849Y-112849697D01*
X54884630Y-112809230D01*
X54957393Y-112781101D01*
X55046982Y-112765373D01*
X55128583Y-112761757D01*
X55230771Y-112768089D01*
X55316134Y-112786500D01*
X55384485Y-112816873D01*
X55435636Y-112859088D01*
X55469398Y-112913026D01*
X55485582Y-112978570D01*
X55486318Y-112986984D01*
X55484845Y-113052880D01*
X55468475Y-113107631D01*
X55435200Y-113156882D01*
X55420194Y-113172863D01*
X55373612Y-113210210D01*
X55318085Y-113236367D01*
X55249641Y-113252806D01*
X55185859Y-113259753D01*
X55084624Y-113259836D01*
X55084624Y-113580333D01*
X56155166Y-113580333D01*
X56155166Y-113262833D01*
X55580971Y-113262833D01*
G36*
X55727703Y-111568400D02*
G01*
X55719537Y-111507827D01*
X55715628Y-111490565D01*
X55682629Y-111400923D01*
X55632924Y-111315222D01*
X55569992Y-111237791D01*
X55497311Y-111172960D01*
X55424233Y-111127876D01*
X55344050Y-111094168D01*
X55264721Y-111073365D01*
X55179369Y-111064161D01*
X55091541Y-111064724D01*
X54991101Y-111074290D01*
X54905293Y-111094163D01*
X54829240Y-111126438D01*
X54758064Y-111173212D01*
X54686887Y-111236583D01*
X54683208Y-111240258D01*
X54624489Y-111305537D01*
X54581323Y-111369846D01*
X54549646Y-111440165D01*
X54530705Y-111502106D01*
X54521311Y-111556301D01*
X54516644Y-111623362D01*
X54516681Y-111695527D01*
X54521398Y-111765035D01*
X54530772Y-111824127D01*
X54531702Y-111828088D01*
X54567292Y-111933810D01*
X54619337Y-112027096D01*
X54686681Y-112106740D01*
X54768173Y-112171538D01*
X54862657Y-112220285D01*
X54927980Y-112242114D01*
X54965436Y-112249977D01*
X55015244Y-112257350D01*
X55068604Y-112263001D01*
X55087003Y-112264378D01*
X55123291Y-112263795D01*
X55123291Y-111934394D01*
X55065801Y-111933744D01*
X55024033Y-111931550D01*
X54992559Y-111927077D01*
X54965951Y-111919593D01*
X54942238Y-111909928D01*
X54878737Y-111871421D01*
X54828984Y-111820820D01*
X54794280Y-111761423D01*
X54775927Y-111696531D01*
X54775223Y-111629441D01*
X54793470Y-111563454D01*
X54800141Y-111549444D01*
X54837055Y-111497360D01*
X54889786Y-111450056D01*
X54938083Y-111419903D01*
X54959973Y-111409501D01*
X54981750Y-111402454D01*
X55008181Y-111398122D01*
X55044037Y-111395861D01*
X55094084Y-111395030D01*
X55123291Y-111394950D01*
X55181565Y-111395278D01*
X55223584Y-111396775D01*
X55254254Y-111400102D01*
X55278481Y-111405921D01*
X55301171Y-111414890D01*
X55312896Y-111420479D01*
X55378386Y-111462741D01*
X55426990Y-111514810D01*
X55458764Y-111573809D01*
X55473766Y-111636857D01*
X55472053Y-111701078D01*
X55453681Y-111763590D01*
X55418707Y-111821516D01*
X55367189Y-111871977D01*
X55303208Y-111910271D01*
X55277270Y-111920988D01*
X55251459Y-111928040D01*
X55220413Y-111932145D01*
X55178771Y-111934022D01*
X55123291Y-111934394D01*
X55123291Y-112263795D01*
X55202349Y-112262523D01*
X55310951Y-112242386D01*
X55411053Y-112205159D01*
X55500903Y-112152037D01*
X55578744Y-112084212D01*
X55642822Y-112002880D01*
X55691384Y-111909232D01*
X55715202Y-111837001D01*
X55725083Y-111781272D01*
X55730467Y-111712806D01*
X55731343Y-111639288D01*
X55727703Y-111568400D01*
G37*
X55727703Y-111568400D02*
X55719537Y-111507827D01*
X55715628Y-111490565D01*
X55682629Y-111400923D01*
X55632924Y-111315222D01*
X55569992Y-111237791D01*
X55497311Y-111172960D01*
X55424233Y-111127876D01*
X55344050Y-111094168D01*
X55264721Y-111073365D01*
X55179369Y-111064161D01*
X55091541Y-111064724D01*
X54991101Y-111074290D01*
X54905293Y-111094163D01*
X54829240Y-111126438D01*
X54758064Y-111173212D01*
X54686887Y-111236583D01*
X54683208Y-111240258D01*
X54624489Y-111305537D01*
X54581323Y-111369846D01*
X54549646Y-111440165D01*
X54530705Y-111502106D01*
X54521311Y-111556301D01*
X54516644Y-111623362D01*
X54516681Y-111695527D01*
X54521398Y-111765035D01*
X54530772Y-111824127D01*
X54531702Y-111828088D01*
X54567292Y-111933810D01*
X54619337Y-112027096D01*
X54686681Y-112106740D01*
X54768173Y-112171538D01*
X54862657Y-112220285D01*
X54927980Y-112242114D01*
X54965436Y-112249977D01*
X55015244Y-112257350D01*
X55068604Y-112263001D01*
X55087003Y-112264378D01*
X55123291Y-112263795D01*
X55123291Y-111934394D01*
X55065801Y-111933744D01*
X55024033Y-111931550D01*
X54992559Y-111927077D01*
X54965951Y-111919593D01*
X54942238Y-111909928D01*
X54878737Y-111871421D01*
X54828984Y-111820820D01*
X54794280Y-111761423D01*
X54775927Y-111696531D01*
X54775223Y-111629441D01*
X54793470Y-111563454D01*
X54800141Y-111549444D01*
X54837055Y-111497360D01*
X54889786Y-111450056D01*
X54938083Y-111419903D01*
X54959973Y-111409501D01*
X54981750Y-111402454D01*
X55008181Y-111398122D01*
X55044037Y-111395861D01*
X55094084Y-111395030D01*
X55123291Y-111394950D01*
X55181565Y-111395278D01*
X55223584Y-111396775D01*
X55254254Y-111400102D01*
X55278481Y-111405921D01*
X55301171Y-111414890D01*
X55312896Y-111420479D01*
X55378386Y-111462741D01*
X55426990Y-111514810D01*
X55458764Y-111573809D01*
X55473766Y-111636857D01*
X55472053Y-111701078D01*
X55453681Y-111763590D01*
X55418707Y-111821516D01*
X55367189Y-111871977D01*
X55303208Y-111910271D01*
X55277270Y-111920988D01*
X55251459Y-111928040D01*
X55220413Y-111932145D01*
X55178771Y-111934022D01*
X55123291Y-111934394D01*
X55123291Y-112263795D01*
X55202349Y-112262523D01*
X55310951Y-112242386D01*
X55411053Y-112205159D01*
X55500903Y-112152037D01*
X55578744Y-112084212D01*
X55642822Y-112002880D01*
X55691384Y-111909232D01*
X55715202Y-111837001D01*
X55725083Y-111781272D01*
X55730467Y-111712806D01*
X55731343Y-111639288D01*
X55727703Y-111568400D01*
G36*
X55731855Y-110322781D02*
G01*
X55729795Y-110258464D01*
X55725736Y-110203816D01*
X55721447Y-110173274D01*
X55701394Y-110100543D01*
X55671291Y-110033825D01*
X55633757Y-109977459D01*
X55591412Y-109935785D01*
X55569795Y-109922091D01*
X55549614Y-109912340D01*
X55528864Y-109904323D01*
X55505200Y-109897823D01*
X55476279Y-109892618D01*
X55439756Y-109888489D01*
X55393286Y-109885216D01*
X55334527Y-109882580D01*
X55261134Y-109880360D01*
X55170762Y-109878336D01*
X55086250Y-109876740D01*
X54985069Y-109874860D01*
X54902675Y-109873130D01*
X54836694Y-109871385D01*
X54784748Y-109869461D01*
X54744461Y-109867193D01*
X54713457Y-109864416D01*
X54689360Y-109860966D01*
X54669793Y-109856678D01*
X54652380Y-109851388D01*
X54636458Y-109845585D01*
X54597079Y-109830122D01*
X54569421Y-109820317D01*
X54551507Y-109818604D01*
X54541358Y-109827417D01*
X54536997Y-109849187D01*
X54536448Y-109886349D01*
X54537733Y-109941336D01*
X54538272Y-109966409D01*
X54541208Y-110122771D01*
X54583541Y-110137178D01*
X54613302Y-110147382D01*
X54635504Y-110155129D01*
X54639277Y-110156485D01*
X54642532Y-110166487D01*
X54631374Y-110189618D01*
X54615595Y-110213005D01*
X54572348Y-110279512D01*
X54543547Y-110341254D01*
X54526565Y-110405977D01*
X54518773Y-110481425D01*
X54518022Y-110500527D01*
X54517278Y-110559146D01*
X54519658Y-110603742D01*
X54525870Y-110641321D01*
X54535746Y-110676236D01*
X54567442Y-110743636D01*
X54614432Y-110805368D01*
X54671298Y-110854705D01*
X54687776Y-110865104D01*
X54753693Y-110892414D01*
X54828803Y-110905599D01*
X54906399Y-110904507D01*
X54906856Y-110904411D01*
X54906856Y-110586738D01*
X54860266Y-110585517D01*
X54815502Y-110568046D01*
X54776646Y-110535047D01*
X54751292Y-110495292D01*
X54741082Y-110453149D01*
X54742245Y-110401660D01*
X54753899Y-110348738D01*
X54772321Y-110306939D01*
X54800087Y-110264460D01*
X54828412Y-110234053D01*
X54861854Y-110213321D01*
X54904973Y-110199869D01*
X54962328Y-110191303D01*
X54998661Y-110188033D01*
X55094516Y-110180535D01*
X55065104Y-110300872D01*
X55047811Y-110371141D01*
X55034387Y-110423962D01*
X55023823Y-110462484D01*
X55015107Y-110489855D01*
X55007230Y-110509223D01*
X54999182Y-110523738D01*
X54989953Y-110536548D01*
X54989187Y-110537526D01*
X54951190Y-110570982D01*
X54906856Y-110586738D01*
X54906856Y-110904411D01*
X54979774Y-110888986D01*
X55019126Y-110872611D01*
X55071968Y-110837768D01*
X55116504Y-110791073D01*
X55153952Y-110730418D01*
X55185531Y-110653697D01*
X55212458Y-110558801D01*
X55220169Y-110524819D01*
X55237265Y-110447784D01*
X55254147Y-110375745D01*
X55270068Y-110311580D01*
X55284275Y-110258167D01*
X55296019Y-110218385D01*
X55304551Y-110195112D01*
X55307208Y-110190725D01*
X55324187Y-110186220D01*
X55353543Y-110188631D01*
X55388187Y-110196570D01*
X55421026Y-110208648D01*
X55434181Y-110215579D01*
X55462080Y-110243351D01*
X55479646Y-110287060D01*
X55487188Y-110347805D01*
X55486631Y-110401847D01*
X55481988Y-110451432D01*
X55473085Y-110485866D01*
X55460807Y-110507984D01*
X55436562Y-110534134D01*
X55404540Y-110560788D01*
X55373086Y-110581405D01*
X55358856Y-110587868D01*
X55354756Y-110596647D01*
X55354898Y-110620098D01*
X55359437Y-110660056D01*
X55368532Y-110718356D01*
X55371460Y-110735574D01*
X55396193Y-110879238D01*
X55427471Y-110870268D01*
X55514527Y-110834880D01*
X55589069Y-110783065D01*
X55649538Y-110716509D01*
X55694375Y-110636895D01*
X55720440Y-110553748D01*
X55726210Y-110512251D01*
X55730046Y-110455824D01*
X55731934Y-110390618D01*
X55731855Y-110322781D01*
G37*
X55731855Y-110322781D02*
X55729795Y-110258464D01*
X55725736Y-110203816D01*
X55721447Y-110173274D01*
X55701394Y-110100543D01*
X55671291Y-110033825D01*
X55633757Y-109977459D01*
X55591412Y-109935785D01*
X55569795Y-109922091D01*
X55549614Y-109912340D01*
X55528864Y-109904323D01*
X55505200Y-109897823D01*
X55476279Y-109892618D01*
X55439756Y-109888489D01*
X55393286Y-109885216D01*
X55334527Y-109882580D01*
X55261134Y-109880360D01*
X55170762Y-109878336D01*
X55086250Y-109876740D01*
X54985069Y-109874860D01*
X54902675Y-109873130D01*
X54836694Y-109871385D01*
X54784748Y-109869461D01*
X54744461Y-109867193D01*
X54713457Y-109864416D01*
X54689360Y-109860966D01*
X54669793Y-109856678D01*
X54652380Y-109851388D01*
X54636458Y-109845585D01*
X54597079Y-109830122D01*
X54569421Y-109820317D01*
X54551507Y-109818604D01*
X54541358Y-109827417D01*
X54536997Y-109849187D01*
X54536448Y-109886349D01*
X54537733Y-109941336D01*
X54538272Y-109966409D01*
X54541208Y-110122771D01*
X54583541Y-110137178D01*
X54613302Y-110147382D01*
X54635504Y-110155129D01*
X54639277Y-110156485D01*
X54642532Y-110166487D01*
X54631374Y-110189618D01*
X54615595Y-110213005D01*
X54572348Y-110279512D01*
X54543547Y-110341254D01*
X54526565Y-110405977D01*
X54518773Y-110481425D01*
X54518022Y-110500527D01*
X54517278Y-110559146D01*
X54519658Y-110603742D01*
X54525870Y-110641321D01*
X54535746Y-110676236D01*
X54567442Y-110743636D01*
X54614432Y-110805368D01*
X54671298Y-110854705D01*
X54687776Y-110865104D01*
X54753693Y-110892414D01*
X54828803Y-110905599D01*
X54906399Y-110904507D01*
X54906856Y-110904411D01*
X54906856Y-110586738D01*
X54860266Y-110585517D01*
X54815502Y-110568046D01*
X54776646Y-110535047D01*
X54751292Y-110495292D01*
X54741082Y-110453149D01*
X54742245Y-110401660D01*
X54753899Y-110348738D01*
X54772321Y-110306939D01*
X54800087Y-110264460D01*
X54828412Y-110234053D01*
X54861854Y-110213321D01*
X54904973Y-110199869D01*
X54962328Y-110191303D01*
X54998661Y-110188033D01*
X55094516Y-110180535D01*
X55065104Y-110300872D01*
X55047811Y-110371141D01*
X55034387Y-110423962D01*
X55023823Y-110462484D01*
X55015107Y-110489855D01*
X55007230Y-110509223D01*
X54999182Y-110523738D01*
X54989953Y-110536548D01*
X54989187Y-110537526D01*
X54951190Y-110570982D01*
X54906856Y-110586738D01*
X54906856Y-110904411D01*
X54979774Y-110888986D01*
X55019126Y-110872611D01*
X55071968Y-110837768D01*
X55116504Y-110791073D01*
X55153952Y-110730418D01*
X55185531Y-110653697D01*
X55212458Y-110558801D01*
X55220169Y-110524819D01*
X55237265Y-110447784D01*
X55254147Y-110375745D01*
X55270068Y-110311580D01*
X55284275Y-110258167D01*
X55296019Y-110218385D01*
X55304551Y-110195112D01*
X55307208Y-110190725D01*
X55324187Y-110186220D01*
X55353543Y-110188631D01*
X55388187Y-110196570D01*
X55421026Y-110208648D01*
X55434181Y-110215579D01*
X55462080Y-110243351D01*
X55479646Y-110287060D01*
X55487188Y-110347805D01*
X55486631Y-110401847D01*
X55481988Y-110451432D01*
X55473085Y-110485866D01*
X55460807Y-110507984D01*
X55436562Y-110534134D01*
X55404540Y-110560788D01*
X55373086Y-110581405D01*
X55358856Y-110587868D01*
X55354756Y-110596647D01*
X55354898Y-110620098D01*
X55359437Y-110660056D01*
X55368532Y-110718356D01*
X55371460Y-110735574D01*
X55396193Y-110879238D01*
X55427471Y-110870268D01*
X55514527Y-110834880D01*
X55589069Y-110783065D01*
X55649538Y-110716509D01*
X55694375Y-110636895D01*
X55720440Y-110553748D01*
X55726210Y-110512251D01*
X55730046Y-110455824D01*
X55731934Y-110390618D01*
X55731855Y-110322781D01*
G36*
X54535916Y-107632500D02*
G01*
X54535916Y-107928833D01*
X54693659Y-107928833D01*
X54640644Y-107981848D01*
X54600096Y-108030076D01*
X54564218Y-108086426D01*
X54554168Y-108106202D01*
X54537435Y-108144718D01*
X54526969Y-108178465D01*
X54521065Y-108215428D01*
X54518021Y-108263594D01*
X54517515Y-108278083D01*
X54516943Y-108333543D01*
X54519891Y-108375295D01*
X54527194Y-108410626D01*
X54535618Y-108436183D01*
X54579274Y-108524441D01*
X54640063Y-108601725D01*
X54716232Y-108666623D01*
X54806030Y-108717721D01*
X54907705Y-108753608D01*
X54938083Y-108760742D01*
X55003172Y-108770220D01*
X55079719Y-108774690D01*
X55140559Y-108774477D01*
X55140559Y-108456007D01*
X55055477Y-108451496D01*
X54974523Y-108436656D01*
X54902960Y-108411694D01*
X54856821Y-108385166D01*
X54813832Y-108341709D01*
X54784083Y-108286176D01*
X54769100Y-108224120D01*
X54770404Y-108161093D01*
X54783063Y-108116348D01*
X54807845Y-108077249D01*
X54846894Y-108037675D01*
X54894078Y-108002813D01*
X54943268Y-107977844D01*
X54949500Y-107975592D01*
X54998955Y-107964139D01*
X55062056Y-107957398D01*
X55131809Y-107955404D01*
X55201216Y-107958187D01*
X55263282Y-107965781D01*
X55298592Y-107973970D01*
X55371802Y-108004501D01*
X55427390Y-108046262D01*
X55465033Y-108098833D01*
X55484407Y-108161789D01*
X55486540Y-108219282D01*
X55473484Y-108286720D01*
X55443072Y-108342674D01*
X55394365Y-108388617D01*
X55367910Y-108405463D01*
X55302041Y-108433199D01*
X55224502Y-108449977D01*
X55140559Y-108456007D01*
X55140559Y-108774477D01*
X55161705Y-108774402D01*
X55243108Y-108769604D01*
X55317907Y-108760544D01*
X55380081Y-108747471D01*
X55398458Y-108741744D01*
X55495754Y-108698571D01*
X55576572Y-108642689D01*
X55642041Y-108573137D01*
X55691771Y-108492062D01*
X55706558Y-108460989D01*
X55716423Y-108435394D01*
X55722359Y-108409619D01*
X55725361Y-108378009D01*
X55726421Y-108334907D01*
X55726541Y-108294210D01*
X55726128Y-108238250D01*
X55724335Y-108197926D01*
X55720332Y-108167713D01*
X55713288Y-108142085D01*
X55702372Y-108115519D01*
X55698386Y-108106897D01*
X55674187Y-108063752D01*
X55643339Y-108019605D01*
X55625600Y-107998417D01*
X55580971Y-107950000D01*
X56155166Y-107950000D01*
X56155166Y-107632500D01*
X54535916Y-107632500D01*
G37*
X54535916Y-107632500D02*
X54535916Y-107928833D01*
X54693659Y-107928833D01*
X54640644Y-107981848D01*
X54600096Y-108030076D01*
X54564218Y-108086426D01*
X54554168Y-108106202D01*
X54537435Y-108144718D01*
X54526969Y-108178465D01*
X54521065Y-108215428D01*
X54518021Y-108263594D01*
X54517515Y-108278083D01*
X54516943Y-108333543D01*
X54519891Y-108375295D01*
X54527194Y-108410626D01*
X54535618Y-108436183D01*
X54579274Y-108524441D01*
X54640063Y-108601725D01*
X54716232Y-108666623D01*
X54806030Y-108717721D01*
X54907705Y-108753608D01*
X54938083Y-108760742D01*
X55003172Y-108770220D01*
X55079719Y-108774690D01*
X55140559Y-108774477D01*
X55140559Y-108456007D01*
X55055477Y-108451496D01*
X54974523Y-108436656D01*
X54902960Y-108411694D01*
X54856821Y-108385166D01*
X54813832Y-108341709D01*
X54784083Y-108286176D01*
X54769100Y-108224120D01*
X54770404Y-108161093D01*
X54783063Y-108116348D01*
X54807845Y-108077249D01*
X54846894Y-108037675D01*
X54894078Y-108002813D01*
X54943268Y-107977844D01*
X54949500Y-107975592D01*
X54998955Y-107964139D01*
X55062056Y-107957398D01*
X55131809Y-107955404D01*
X55201216Y-107958187D01*
X55263282Y-107965781D01*
X55298592Y-107973970D01*
X55371802Y-108004501D01*
X55427390Y-108046262D01*
X55465033Y-108098833D01*
X55484407Y-108161789D01*
X55486540Y-108219282D01*
X55473484Y-108286720D01*
X55443072Y-108342674D01*
X55394365Y-108388617D01*
X55367910Y-108405463D01*
X55302041Y-108433199D01*
X55224502Y-108449977D01*
X55140559Y-108456007D01*
X55140559Y-108774477D01*
X55161705Y-108774402D01*
X55243108Y-108769604D01*
X55317907Y-108760544D01*
X55380081Y-108747471D01*
X55398458Y-108741744D01*
X55495754Y-108698571D01*
X55576572Y-108642689D01*
X55642041Y-108573137D01*
X55691771Y-108492062D01*
X55706558Y-108460989D01*
X55716423Y-108435394D01*
X55722359Y-108409619D01*
X55725361Y-108378009D01*
X55726421Y-108334907D01*
X55726541Y-108294210D01*
X55726128Y-108238250D01*
X55724335Y-108197926D01*
X55720332Y-108167713D01*
X55713288Y-108142085D01*
X55702372Y-108115519D01*
X55698386Y-108106897D01*
X55674187Y-108063752D01*
X55643339Y-108019605D01*
X55625600Y-107998417D01*
X55580971Y-107950000D01*
X56155166Y-107950000D01*
X56155166Y-107632500D01*
X54535916Y-107632500D01*
G36*
X55729334Y-109028419D02*
G01*
X55728886Y-109018917D01*
X55723369Y-108961464D01*
X55713469Y-108911123D01*
X55700348Y-108871538D01*
X55685171Y-108846357D01*
X55671443Y-108839000D01*
X55657141Y-108842283D01*
X55627972Y-108851053D01*
X55588699Y-108863689D01*
X55544085Y-108878571D01*
X55498894Y-108894080D01*
X55457890Y-108908594D01*
X55425837Y-108920494D01*
X55407496Y-108928160D01*
X55405184Y-108929557D01*
X55407118Y-108940250D01*
X55416349Y-108963489D01*
X55423705Y-108979373D01*
X55442368Y-109036718D01*
X55445025Y-109094299D01*
X55432536Y-109147465D01*
X55405762Y-109191569D01*
X55380269Y-109213731D01*
X55358826Y-109227076D01*
X55337660Y-109237975D01*
X55314359Y-109246721D01*
X55286514Y-109253607D01*
X55251714Y-109258927D01*
X55207549Y-109262975D01*
X55151607Y-109266045D01*
X55081479Y-109268430D01*
X54994754Y-109270424D01*
X54901041Y-109272117D01*
X54541208Y-109278208D01*
X54538278Y-109434536D01*
X54537527Y-109499021D01*
X54538181Y-109544910D01*
X54540408Y-109574740D01*
X54544372Y-109591044D01*
X54548861Y-109596036D01*
X54561731Y-109596964D01*
X54593778Y-109597739D01*
X54643012Y-109598352D01*
X54707444Y-109598796D01*
X54785085Y-109599061D01*
X54873946Y-109599140D01*
X54972037Y-109599024D01*
X55077368Y-109598705D01*
X55133875Y-109598459D01*
X55705375Y-109595708D01*
X55708316Y-109450657D01*
X55711258Y-109305606D01*
X55637541Y-109302491D01*
X55563824Y-109299375D01*
X55624016Y-109251750D01*
X55663474Y-109215725D01*
X55695780Y-109177319D01*
X55708756Y-109156500D01*
X55721083Y-109129594D01*
X55727936Y-109103969D01*
X55730343Y-109072590D01*
X55729334Y-109028419D01*
G37*
X55729334Y-109028419D02*
X55728886Y-109018917D01*
X55723369Y-108961464D01*
X55713469Y-108911123D01*
X55700348Y-108871538D01*
X55685171Y-108846357D01*
X55671443Y-108839000D01*
X55657141Y-108842283D01*
X55627972Y-108851053D01*
X55588699Y-108863689D01*
X55544085Y-108878571D01*
X55498894Y-108894080D01*
X55457890Y-108908594D01*
X55425837Y-108920494D01*
X55407496Y-108928160D01*
X55405184Y-108929557D01*
X55407118Y-108940250D01*
X55416349Y-108963489D01*
X55423705Y-108979373D01*
X55442368Y-109036718D01*
X55445025Y-109094299D01*
X55432536Y-109147465D01*
X55405762Y-109191569D01*
X55380269Y-109213731D01*
X55358826Y-109227076D01*
X55337660Y-109237975D01*
X55314359Y-109246721D01*
X55286514Y-109253607D01*
X55251714Y-109258927D01*
X55207549Y-109262975D01*
X55151607Y-109266045D01*
X55081479Y-109268430D01*
X54994754Y-109270424D01*
X54901041Y-109272117D01*
X54541208Y-109278208D01*
X54538278Y-109434536D01*
X54537527Y-109499021D01*
X54538181Y-109544910D01*
X54540408Y-109574740D01*
X54544372Y-109591044D01*
X54548861Y-109596036D01*
X54561731Y-109596964D01*
X54593778Y-109597739D01*
X54643012Y-109598352D01*
X54707444Y-109598796D01*
X54785085Y-109599061D01*
X54873946Y-109599140D01*
X54972037Y-109599024D01*
X55077368Y-109598705D01*
X55133875Y-109598459D01*
X55705375Y-109595708D01*
X55708316Y-109450657D01*
X55711258Y-109305606D01*
X55637541Y-109302491D01*
X55563824Y-109299375D01*
X55624016Y-109251750D01*
X55663474Y-109215725D01*
X55695780Y-109177319D01*
X55708756Y-109156500D01*
X55721083Y-109129594D01*
X55727936Y-109103969D01*
X55730343Y-109072590D01*
X55729334Y-109028419D01*
D12*
X98298100Y-57499700D02*
X98298100Y-135140700D01*
X98298100Y-134549700D02*
X118948100Y-134549700D01*
X118948100Y-134759700D02*
X118948100Y-57499700D01*
X118948100Y-57499700D02*
X98298100Y-57499700D01*
D13*
X98463100Y-134759700D02*
X118783100Y-134759700D01*
X98463100Y-134886700D02*
X118783100Y-134886700D01*
X98463100Y-135013700D02*
X118783100Y-135013700D01*
X98463100Y-135140700D02*
X118783100Y-135140700D01*
X118783100Y-134759700D02*
X118783100Y-135140700D01*
X98463100Y-134759700D02*
X98463100Y-135140700D01*
X119113300Y-134759700D02*
X119113300Y-135140700D01*
X139433300Y-134759700D02*
X139433300Y-135140700D01*
X119113300Y-135140700D02*
X139433300Y-135140700D01*
X119113300Y-135013700D02*
X139433300Y-135013700D01*
X119113300Y-134886700D02*
X139433300Y-134886700D01*
X119113300Y-134759700D02*
X139433300Y-134759700D01*
D12*
X139598300Y-57499700D02*
X118948300Y-57499700D01*
X139598300Y-134759700D02*
X139598300Y-57499700D01*
X118948300Y-134549700D02*
X139598300Y-134549700D01*
X118948300Y-57499700D02*
X118948300Y-135140700D01*
D13*
X77508100Y-57315100D02*
X77508100Y-56934100D01*
X57188100Y-57315100D02*
X57188100Y-56934100D01*
X77508100Y-56934100D02*
X57188100Y-56934100D01*
X77508100Y-57061100D02*
X57188100Y-57061100D01*
X77508100Y-57188100D02*
X57188100Y-57188100D01*
X77508100Y-57315100D02*
X57188100Y-57315100D01*
D12*
X57023100Y-134575100D02*
X77673100Y-134575100D01*
X57023100Y-57315100D02*
X57023100Y-134575100D01*
X77673100Y-57525100D02*
X57023100Y-57525100D01*
X77673100Y-134575100D02*
X77673100Y-56934100D01*
X98323300Y-134575100D02*
X98323300Y-56934100D01*
X98323300Y-57525100D02*
X77673300Y-57525100D01*
X77673300Y-57315100D02*
X77673300Y-134575100D01*
X77673300Y-134575100D02*
X98323300Y-134575100D01*
D13*
X98158300Y-57315100D02*
X77838300Y-57315100D01*
X98158300Y-57188100D02*
X77838300Y-57188100D01*
X98158300Y-57061100D02*
X77838300Y-57061100D01*
X98158300Y-56934100D02*
X77838300Y-56934100D01*
X77838300Y-57315100D02*
X77838300Y-56934100D01*
X98158300Y-57315100D02*
X98158300Y-56934100D01*
D14*
X69010559Y-47116000D02*
X69317841Y-47116000D01*
X69010559Y-46356000D02*
X69317841Y-46356000D01*
X65327559Y-47116000D02*
X65634841Y-47116000D01*
X65327559Y-46356000D02*
X65634841Y-46356000D01*
X61517559Y-47116000D02*
X61824841Y-47116000D01*
X61517559Y-46356000D02*
X61824841Y-46356000D01*
X67994800Y-47397641D02*
X67994800Y-47090359D01*
X67234800Y-47397641D02*
X67234800Y-47090359D01*
X64413400Y-45441841D02*
X64413400Y-45134559D01*
X63653400Y-45441841D02*
X63653400Y-45134559D01*
X60578000Y-45441841D02*
X60578000Y-45134559D01*
X59818000Y-45441841D02*
X59818000Y-45134559D01*
X69740400Y-45886600D02*
X68540400Y-45886600D01*
X68540400Y-45886600D02*
X68540400Y-45886600D01*
X69540400Y-44486600D02*
X68940400Y-44486600D01*
X66032000Y-45886600D02*
X64832000Y-45886600D01*
X64832000Y-45886600D02*
X64832000Y-45886600D01*
X65832000Y-44486600D02*
X65232000Y-44486600D01*
X62247400Y-45886600D02*
X61047400Y-45886600D01*
X61047400Y-45886600D02*
X61047400Y-45886600D01*
X62047400Y-44486600D02*
X61447400Y-44486600D01*
X69192191Y-43591480D02*
X68792191Y-43191480D01*
X68792191Y-43191480D02*
X68792191Y-43991480D01*
X68792191Y-43991480D02*
X69192191Y-43591480D01*
X69192191Y-43191480D02*
X69192191Y-43991480D01*
X68792191Y-43591480D02*
X68592191Y-43591480D01*
X69192191Y-43591480D02*
X69392191Y-43591480D01*
D15*
X69392191Y-43091480D02*
X69392191Y-42891480D01*
X69292191Y-42991480D02*
X69392191Y-42891480D01*
X69392191Y-42891480D02*
X69492191Y-42991480D01*
X68592191Y-42891480D02*
X68692191Y-42991480D01*
X68592191Y-43091480D02*
X68592191Y-42891480D01*
X68492191Y-42991480D02*
X68592191Y-42891480D01*
D14*
X65392173Y-43591480D02*
X64992173Y-43191480D01*
X64992173Y-43191480D02*
X64992173Y-43991480D01*
X64992173Y-43991480D02*
X65392173Y-43591480D01*
X65392173Y-43191480D02*
X65392173Y-43991480D01*
X64992173Y-43591480D02*
X64792173Y-43591480D01*
X65392173Y-43591480D02*
X65592173Y-43591480D01*
D15*
X65592173Y-43091480D02*
X65592173Y-42891480D01*
X65492173Y-42991480D02*
X65592173Y-42891480D01*
X65592173Y-42891480D02*
X65692173Y-42991480D01*
X64792173Y-42891480D02*
X64892173Y-42991480D01*
X64792173Y-43091480D02*
X64792173Y-42891480D01*
X64692173Y-42991480D02*
X64792173Y-42891480D01*
D14*
X61592181Y-43591480D02*
X61192181Y-43191480D01*
X61192181Y-43191480D02*
X61192181Y-43991480D01*
X61192181Y-43991480D02*
X61592181Y-43591480D01*
X61592181Y-43191480D02*
X61592181Y-43991480D01*
X61192181Y-43591480D02*
X60992181Y-43591480D01*
X61592181Y-43591480D02*
X61792181Y-43591480D01*
D15*
X61792181Y-43091480D02*
X61792181Y-42891480D01*
X61692181Y-42991480D02*
X61792181Y-42891480D01*
X61792181Y-42891480D02*
X61892181Y-42991480D01*
X60992181Y-42891480D02*
X61092181Y-42991480D01*
X60992181Y-43091480D02*
X60992181Y-42891480D01*
X60892181Y-42991480D02*
X60992181Y-42891480D01*
D16*
X108275361Y-95813033D02*
X108728933Y-95813033D01*
X108819647Y-95782795D01*
X108880123Y-95722319D01*
X108910361Y-95631604D01*
X108910361Y-95571128D01*
X108275361Y-96054938D02*
X108275361Y-96448033D01*
X108517266Y-96236366D01*
X108517266Y-96327080D01*
X108547504Y-96387557D01*
X108577742Y-96417795D01*
X108638219Y-96448033D01*
X108789409Y-96448033D01*
X108849885Y-96417795D01*
X108880123Y-96387557D01*
X108910361Y-96327080D01*
X108910361Y-96145652D01*
X108880123Y-96085176D01*
X108849885Y-96054938D01*
D13*
X108980242Y-118644938D02*
X108980242Y-122454461D01*
X110885004Y-120549700D02*
X107075480Y-120549700D01*
X108980242Y-69594938D02*
X108980242Y-73404461D01*
D16*
X128925561Y-95813033D02*
X129379133Y-95813033D01*
X129469847Y-95782795D01*
X129530323Y-95722319D01*
X129560561Y-95631604D01*
X129560561Y-95571128D01*
X129560561Y-96448033D02*
X129560561Y-96085176D01*
X129560561Y-96266604D02*
X128925561Y-96266604D01*
X129016276Y-96206128D01*
X129076752Y-96145652D01*
X129106990Y-96085176D01*
D13*
X129630442Y-69594938D02*
X129630442Y-73404461D01*
X129630442Y-118644938D02*
X129630442Y-122454461D01*
X131535204Y-120549700D02*
X127725680Y-120549700D01*
D16*
X67000361Y-95838433D02*
X67453933Y-95838433D01*
X67544647Y-95808195D01*
X67605123Y-95747719D01*
X67635361Y-95657004D01*
X67635361Y-95596528D01*
X67212028Y-96412957D02*
X67635361Y-96412957D01*
X66970123Y-96261766D02*
X67423695Y-96110576D01*
X67423695Y-96503671D01*
D13*
X67705242Y-118670338D02*
X67705242Y-122479861D01*
X67705242Y-69620338D02*
X67705242Y-73429861D01*
X69610004Y-71525100D02*
X65800480Y-71525100D01*
D16*
X87650561Y-95838433D02*
X88104133Y-95838433D01*
X88194847Y-95808195D01*
X88255323Y-95747719D01*
X88285561Y-95657004D01*
X88285561Y-95596528D01*
X87711038Y-96110576D02*
X87680800Y-96140814D01*
X87650561Y-96201290D01*
X87650561Y-96352480D01*
X87680800Y-96412957D01*
X87711038Y-96443195D01*
X87771514Y-96473433D01*
X87831990Y-96473433D01*
X87922704Y-96443195D01*
X88285561Y-96080338D01*
X88285561Y-96473433D01*
D13*
X88355442Y-69620338D02*
X88355442Y-73429861D01*
X90260204Y-71525100D02*
X86450680Y-71525100D01*
X88355442Y-118670338D02*
X88355442Y-122479861D01*
D16*
X68994261Y-47930404D02*
X68691880Y-47718738D01*
X68994261Y-47567547D02*
X68359261Y-47567547D01*
X68359261Y-47809452D01*
X68389500Y-47869928D01*
X68419738Y-47900166D01*
X68480214Y-47930404D01*
X68570928Y-47930404D01*
X68631404Y-47900166D01*
X68661642Y-47869928D01*
X68691880Y-47809452D01*
X68691880Y-47567547D01*
X68994261Y-48535166D02*
X68994261Y-48172309D01*
X68994261Y-48353738D02*
X68359261Y-48353738D01*
X68449976Y-48293261D01*
X68510452Y-48232785D01*
X68540690Y-48172309D01*
X68359261Y-48928261D02*
X68359261Y-48988738D01*
X68389500Y-49049214D01*
X68419738Y-49079452D01*
X68480214Y-49109690D01*
X68601166Y-49139928D01*
X68752357Y-49139928D01*
X68873309Y-49109690D01*
X68933785Y-49079452D01*
X68964023Y-49049214D01*
X68994261Y-48988738D01*
X68994261Y-48928261D01*
X68964023Y-48867785D01*
X68933785Y-48837547D01*
X68873309Y-48807309D01*
X68752357Y-48777071D01*
X68601166Y-48777071D01*
X68480214Y-48807309D01*
X68419738Y-48837547D01*
X68389500Y-48867785D01*
X68359261Y-48928261D01*
X68994261Y-49442309D02*
X68994261Y-49563261D01*
X68964023Y-49623738D01*
X68933785Y-49653976D01*
X68843071Y-49714452D01*
X68722119Y-49744690D01*
X68480214Y-49744690D01*
X68419738Y-49714452D01*
X68389500Y-49684214D01*
X68359261Y-49623738D01*
X68359261Y-49502785D01*
X68389500Y-49442309D01*
X68419738Y-49412071D01*
X68480214Y-49381833D01*
X68631404Y-49381833D01*
X68691880Y-49412071D01*
X68722119Y-49442309D01*
X68752357Y-49502785D01*
X68752357Y-49623738D01*
X68722119Y-49684214D01*
X68691880Y-49714452D01*
X68631404Y-49744690D01*
X65438261Y-47803404D02*
X65135880Y-47591738D01*
X65438261Y-47440547D02*
X64803261Y-47440547D01*
X64803261Y-47682452D01*
X64833500Y-47742928D01*
X64863738Y-47773166D01*
X64924214Y-47803404D01*
X65014928Y-47803404D01*
X65075404Y-47773166D01*
X65105642Y-47742928D01*
X65135880Y-47682452D01*
X65135880Y-47440547D01*
X65438261Y-48408166D02*
X65438261Y-48045309D01*
X65438261Y-48226738D02*
X64803261Y-48226738D01*
X64893976Y-48166261D01*
X64954452Y-48105785D01*
X64984690Y-48045309D01*
X64803261Y-48801261D02*
X64803261Y-48861738D01*
X64833500Y-48922214D01*
X64863738Y-48952452D01*
X64924214Y-48982690D01*
X65045166Y-49012928D01*
X65196357Y-49012928D01*
X65317309Y-48982690D01*
X65377785Y-48952452D01*
X65408023Y-48922214D01*
X65438261Y-48861738D01*
X65438261Y-48801261D01*
X65408023Y-48740785D01*
X65377785Y-48710547D01*
X65317309Y-48680309D01*
X65196357Y-48650071D01*
X65045166Y-48650071D01*
X64924214Y-48680309D01*
X64863738Y-48710547D01*
X64833500Y-48740785D01*
X64803261Y-48801261D01*
X64803261Y-49224595D02*
X64803261Y-49647928D01*
X65438261Y-49375785D01*
X61501261Y-47676404D02*
X61198880Y-47464738D01*
X61501261Y-47313547D02*
X60866261Y-47313547D01*
X60866261Y-47555452D01*
X60896500Y-47615928D01*
X60926738Y-47646166D01*
X60987214Y-47676404D01*
X61077928Y-47676404D01*
X61138404Y-47646166D01*
X61168642Y-47615928D01*
X61198880Y-47555452D01*
X61198880Y-47313547D01*
X61501261Y-48281166D02*
X61501261Y-47918309D01*
X61501261Y-48099738D02*
X60866261Y-48099738D01*
X60956976Y-48039261D01*
X61017452Y-47978785D01*
X61047690Y-47918309D01*
X60866261Y-48674261D02*
X60866261Y-48734738D01*
X60896500Y-48795214D01*
X60926738Y-48825452D01*
X60987214Y-48855690D01*
X61108166Y-48885928D01*
X61259357Y-48885928D01*
X61380309Y-48855690D01*
X61440785Y-48825452D01*
X61471023Y-48795214D01*
X61501261Y-48734738D01*
X61501261Y-48674261D01*
X61471023Y-48613785D01*
X61440785Y-48583547D01*
X61380309Y-48553309D01*
X61259357Y-48523071D01*
X61108166Y-48523071D01*
X60987214Y-48553309D01*
X60926738Y-48583547D01*
X60896500Y-48613785D01*
X60866261Y-48674261D01*
X60866261Y-49430214D02*
X60866261Y-49309261D01*
X60896500Y-49248785D01*
X60926738Y-49218547D01*
X61017452Y-49158071D01*
X61138404Y-49127833D01*
X61380309Y-49127833D01*
X61440785Y-49158071D01*
X61471023Y-49188309D01*
X61501261Y-49248785D01*
X61501261Y-49369738D01*
X61471023Y-49430214D01*
X61440785Y-49460452D01*
X61380309Y-49490690D01*
X61229119Y-49490690D01*
X61168642Y-49460452D01*
X61138404Y-49430214D01*
X61108166Y-49369738D01*
X61108166Y-49248785D01*
X61138404Y-49188309D01*
X61168642Y-49158071D01*
X61229119Y-49127833D01*
X67851261Y-48819404D02*
X67548880Y-48607738D01*
X67851261Y-48456547D02*
X67216261Y-48456547D01*
X67216261Y-48698452D01*
X67246500Y-48758928D01*
X67276738Y-48789166D01*
X67337214Y-48819404D01*
X67427928Y-48819404D01*
X67488404Y-48789166D01*
X67518642Y-48758928D01*
X67548880Y-48698452D01*
X67548880Y-48456547D01*
X67851261Y-49424166D02*
X67851261Y-49061309D01*
X67851261Y-49242738D02*
X67216261Y-49242738D01*
X67306976Y-49182261D01*
X67367452Y-49121785D01*
X67397690Y-49061309D01*
X67216261Y-49817261D02*
X67216261Y-49877738D01*
X67246500Y-49938214D01*
X67276738Y-49968452D01*
X67337214Y-49998690D01*
X67458166Y-50028928D01*
X67609357Y-50028928D01*
X67730309Y-49998690D01*
X67790785Y-49968452D01*
X67821023Y-49938214D01*
X67851261Y-49877738D01*
X67851261Y-49817261D01*
X67821023Y-49756785D01*
X67790785Y-49726547D01*
X67730309Y-49696309D01*
X67609357Y-49666071D01*
X67458166Y-49666071D01*
X67337214Y-49696309D01*
X67276738Y-49726547D01*
X67246500Y-49756785D01*
X67216261Y-49817261D01*
X67216261Y-50603452D02*
X67216261Y-50301071D01*
X67518642Y-50270833D01*
X67488404Y-50301071D01*
X67458166Y-50361547D01*
X67458166Y-50512738D01*
X67488404Y-50573214D01*
X67518642Y-50603452D01*
X67579119Y-50633690D01*
X67730309Y-50633690D01*
X67790785Y-50603452D01*
X67821023Y-50573214D01*
X67851261Y-50512738D01*
X67851261Y-50361547D01*
X67821023Y-50301071D01*
X67790785Y-50270833D01*
X64295261Y-46977904D02*
X63992880Y-46766238D01*
X64295261Y-46615047D02*
X63660261Y-46615047D01*
X63660261Y-46856952D01*
X63690500Y-46917428D01*
X63720738Y-46947666D01*
X63781214Y-46977904D01*
X63871928Y-46977904D01*
X63932404Y-46947666D01*
X63962642Y-46917428D01*
X63992880Y-46856952D01*
X63992880Y-46615047D01*
X64295261Y-47582666D02*
X64295261Y-47219809D01*
X64295261Y-47401238D02*
X63660261Y-47401238D01*
X63750976Y-47340761D01*
X63811452Y-47280285D01*
X63841690Y-47219809D01*
X63660261Y-47975761D02*
X63660261Y-48036238D01*
X63690500Y-48096714D01*
X63720738Y-48126952D01*
X63781214Y-48157190D01*
X63902166Y-48187428D01*
X64053357Y-48187428D01*
X64174309Y-48157190D01*
X64234785Y-48126952D01*
X64265023Y-48096714D01*
X64295261Y-48036238D01*
X64295261Y-47975761D01*
X64265023Y-47915285D01*
X64234785Y-47885047D01*
X64174309Y-47854809D01*
X64053357Y-47824571D01*
X63902166Y-47824571D01*
X63781214Y-47854809D01*
X63720738Y-47885047D01*
X63690500Y-47915285D01*
X63660261Y-47975761D01*
X63660261Y-48399095D02*
X63660261Y-48792190D01*
X63902166Y-48580523D01*
X63902166Y-48671238D01*
X63932404Y-48731714D01*
X63962642Y-48761952D01*
X64023119Y-48792190D01*
X64174309Y-48792190D01*
X64234785Y-48761952D01*
X64265023Y-48731714D01*
X64295261Y-48671238D01*
X64295261Y-48489809D01*
X64265023Y-48429333D01*
X64234785Y-48399095D01*
X60485261Y-46850904D02*
X60182880Y-46639238D01*
X60485261Y-46488047D02*
X59850261Y-46488047D01*
X59850261Y-46729952D01*
X59880500Y-46790428D01*
X59910738Y-46820666D01*
X59971214Y-46850904D01*
X60061928Y-46850904D01*
X60122404Y-46820666D01*
X60152642Y-46790428D01*
X60182880Y-46729952D01*
X60182880Y-46488047D01*
X60485261Y-47455666D02*
X60485261Y-47092809D01*
X60485261Y-47274238D02*
X59850261Y-47274238D01*
X59940976Y-47213761D01*
X60001452Y-47153285D01*
X60031690Y-47092809D01*
X59850261Y-47848761D02*
X59850261Y-47909238D01*
X59880500Y-47969714D01*
X59910738Y-47999952D01*
X59971214Y-48030190D01*
X60092166Y-48060428D01*
X60243357Y-48060428D01*
X60364309Y-48030190D01*
X60424785Y-47999952D01*
X60455023Y-47969714D01*
X60485261Y-47909238D01*
X60485261Y-47848761D01*
X60455023Y-47788285D01*
X60424785Y-47758047D01*
X60364309Y-47727809D01*
X60243357Y-47697571D01*
X60092166Y-47697571D01*
X59971214Y-47727809D01*
X59910738Y-47758047D01*
X59880500Y-47788285D01*
X59850261Y-47848761D01*
X59910738Y-48302333D02*
X59880500Y-48332571D01*
X59850261Y-48393047D01*
X59850261Y-48544238D01*
X59880500Y-48604714D01*
X59910738Y-48634952D01*
X59971214Y-48665190D01*
X60031690Y-48665190D01*
X60122404Y-48634952D01*
X60485261Y-48272095D01*
X60485261Y-48665190D01*
X69943738Y-47975761D02*
X69913500Y-47915285D01*
X69853023Y-47854809D01*
X69762309Y-47764095D01*
X69732071Y-47703619D01*
X69732071Y-47643142D01*
X69883261Y-47673380D02*
X69853023Y-47612904D01*
X69792547Y-47552428D01*
X69671595Y-47522190D01*
X69459928Y-47522190D01*
X69338976Y-47552428D01*
X69278500Y-47612904D01*
X69248261Y-47673380D01*
X69248261Y-47794333D01*
X69278500Y-47854809D01*
X69338976Y-47915285D01*
X69459928Y-47945523D01*
X69671595Y-47945523D01*
X69792547Y-47915285D01*
X69853023Y-47854809D01*
X69883261Y-47794333D01*
X69883261Y-47673380D01*
X69883261Y-48550285D02*
X69883261Y-48187428D01*
X69883261Y-48368857D02*
X69248261Y-48368857D01*
X69338976Y-48308380D01*
X69399452Y-48247904D01*
X69429690Y-48187428D01*
X69248261Y-48943380D02*
X69248261Y-49003857D01*
X69278500Y-49064333D01*
X69308738Y-49094571D01*
X69369214Y-49124809D01*
X69490166Y-49155047D01*
X69641357Y-49155047D01*
X69762309Y-49124809D01*
X69822785Y-49094571D01*
X69853023Y-49064333D01*
X69883261Y-49003857D01*
X69883261Y-48943380D01*
X69853023Y-48882904D01*
X69822785Y-48852666D01*
X69762309Y-48822428D01*
X69641357Y-48792190D01*
X69490166Y-48792190D01*
X69369214Y-48822428D01*
X69308738Y-48852666D01*
X69278500Y-48882904D01*
X69248261Y-48943380D01*
X69248261Y-49366714D02*
X69248261Y-49759809D01*
X69490166Y-49548142D01*
X69490166Y-49638857D01*
X69520404Y-49699333D01*
X69550642Y-49729571D01*
X69611119Y-49759809D01*
X69762309Y-49759809D01*
X69822785Y-49729571D01*
X69853023Y-49699333D01*
X69883261Y-49638857D01*
X69883261Y-49457428D01*
X69853023Y-49396952D01*
X69822785Y-49366714D01*
X66451238Y-47912261D02*
X66421000Y-47851785D01*
X66360523Y-47791309D01*
X66269809Y-47700595D01*
X66239571Y-47640119D01*
X66239571Y-47579642D01*
X66390761Y-47609880D02*
X66360523Y-47549404D01*
X66300047Y-47488928D01*
X66179095Y-47458690D01*
X65967428Y-47458690D01*
X65846476Y-47488928D01*
X65786000Y-47549404D01*
X65755761Y-47609880D01*
X65755761Y-47730833D01*
X65786000Y-47791309D01*
X65846476Y-47851785D01*
X65967428Y-47882023D01*
X66179095Y-47882023D01*
X66300047Y-47851785D01*
X66360523Y-47791309D01*
X66390761Y-47730833D01*
X66390761Y-47609880D01*
X66390761Y-48486785D02*
X66390761Y-48123928D01*
X66390761Y-48305357D02*
X65755761Y-48305357D01*
X65846476Y-48244880D01*
X65906952Y-48184404D01*
X65937190Y-48123928D01*
X65755761Y-48879880D02*
X65755761Y-48940357D01*
X65786000Y-49000833D01*
X65816238Y-49031071D01*
X65876714Y-49061309D01*
X65997666Y-49091547D01*
X66148857Y-49091547D01*
X66269809Y-49061309D01*
X66330285Y-49031071D01*
X66360523Y-49000833D01*
X66390761Y-48940357D01*
X66390761Y-48879880D01*
X66360523Y-48819404D01*
X66330285Y-48789166D01*
X66269809Y-48758928D01*
X66148857Y-48728690D01*
X65997666Y-48728690D01*
X65876714Y-48758928D01*
X65816238Y-48789166D01*
X65786000Y-48819404D01*
X65755761Y-48879880D01*
X66390761Y-49696309D02*
X66390761Y-49333452D01*
X66390761Y-49514880D02*
X65755761Y-49514880D01*
X65846476Y-49454404D01*
X65906952Y-49393928D01*
X65937190Y-49333452D01*
X62641238Y-47785261D02*
X62611000Y-47724785D01*
X62550523Y-47664309D01*
X62459809Y-47573595D01*
X62429571Y-47513119D01*
X62429571Y-47452642D01*
X62580761Y-47482880D02*
X62550523Y-47422404D01*
X62490047Y-47361928D01*
X62369095Y-47331690D01*
X62157428Y-47331690D01*
X62036476Y-47361928D01*
X61976000Y-47422404D01*
X61945761Y-47482880D01*
X61945761Y-47603833D01*
X61976000Y-47664309D01*
X62036476Y-47724785D01*
X62157428Y-47755023D01*
X62369095Y-47755023D01*
X62490047Y-47724785D01*
X62550523Y-47664309D01*
X62580761Y-47603833D01*
X62580761Y-47482880D01*
X62580761Y-48359785D02*
X62580761Y-47996928D01*
X62580761Y-48178357D02*
X61945761Y-48178357D01*
X62036476Y-48117880D01*
X62096952Y-48057404D01*
X62127190Y-47996928D01*
X61945761Y-48752880D02*
X61945761Y-48813357D01*
X61976000Y-48873833D01*
X62006238Y-48904071D01*
X62066714Y-48934309D01*
X62187666Y-48964547D01*
X62338857Y-48964547D01*
X62459809Y-48934309D01*
X62520285Y-48904071D01*
X62550523Y-48873833D01*
X62580761Y-48813357D01*
X62580761Y-48752880D01*
X62550523Y-48692404D01*
X62520285Y-48662166D01*
X62459809Y-48631928D01*
X62338857Y-48601690D01*
X62187666Y-48601690D01*
X62066714Y-48631928D01*
X62006238Y-48662166D01*
X61976000Y-48692404D01*
X61945761Y-48752880D01*
X61945761Y-49357642D02*
X61945761Y-49418119D01*
X61976000Y-49478595D01*
X62006238Y-49508833D01*
X62066714Y-49539071D01*
X62187666Y-49569309D01*
X62338857Y-49569309D01*
X62459809Y-49539071D01*
X62520285Y-49508833D01*
X62550523Y-49478595D01*
X62580761Y-49418119D01*
X62580761Y-49357642D01*
X62550523Y-49297166D01*
X62520285Y-49266928D01*
X62459809Y-49236690D01*
X62338857Y-49206452D01*
X62187666Y-49206452D01*
X62066714Y-49236690D01*
X62006238Y-49266928D01*
X61976000Y-49297166D01*
X61945761Y-49357642D01*
X67470261Y-43249547D02*
X66835261Y-43249547D01*
X66835261Y-43400738D01*
X66865500Y-43491452D01*
X66925976Y-43551928D01*
X66986452Y-43582166D01*
X67107404Y-43612404D01*
X67198119Y-43612404D01*
X67319071Y-43582166D01*
X67379547Y-43551928D01*
X67440023Y-43491452D01*
X67470261Y-43400738D01*
X67470261Y-43249547D01*
X67470261Y-44217166D02*
X67470261Y-43854309D01*
X67470261Y-44035738D02*
X66835261Y-44035738D01*
X66925976Y-43975261D01*
X66986452Y-43914785D01*
X67016690Y-43854309D01*
X66835261Y-44610261D02*
X66835261Y-44670738D01*
X66865500Y-44731214D01*
X66895738Y-44761452D01*
X66956214Y-44791690D01*
X67077166Y-44821928D01*
X67228357Y-44821928D01*
X67349309Y-44791690D01*
X67409785Y-44761452D01*
X67440023Y-44731214D01*
X67470261Y-44670738D01*
X67470261Y-44610261D01*
X67440023Y-44549785D01*
X67409785Y-44519547D01*
X67349309Y-44489309D01*
X67228357Y-44459071D01*
X67077166Y-44459071D01*
X66956214Y-44489309D01*
X66895738Y-44519547D01*
X66865500Y-44549785D01*
X66835261Y-44610261D01*
X66835261Y-45033595D02*
X66835261Y-45426690D01*
X67077166Y-45215023D01*
X67077166Y-45305738D01*
X67107404Y-45366214D01*
X67137642Y-45396452D01*
X67198119Y-45426690D01*
X67349309Y-45426690D01*
X67409785Y-45396452D01*
X67440023Y-45366214D01*
X67470261Y-45305738D01*
X67470261Y-45124309D01*
X67440023Y-45063833D01*
X67409785Y-45033595D01*
X63660261Y-43122547D02*
X63025261Y-43122547D01*
X63025261Y-43273738D01*
X63055500Y-43364452D01*
X63115976Y-43424928D01*
X63176452Y-43455166D01*
X63297404Y-43485404D01*
X63388119Y-43485404D01*
X63509071Y-43455166D01*
X63569547Y-43424928D01*
X63630023Y-43364452D01*
X63660261Y-43273738D01*
X63660261Y-43122547D01*
X63660261Y-44090166D02*
X63660261Y-43727309D01*
X63660261Y-43908738D02*
X63025261Y-43908738D01*
X63115976Y-43848261D01*
X63176452Y-43787785D01*
X63206690Y-43727309D01*
X63025261Y-44483261D02*
X63025261Y-44543738D01*
X63055500Y-44604214D01*
X63085738Y-44634452D01*
X63146214Y-44664690D01*
X63267166Y-44694928D01*
X63418357Y-44694928D01*
X63539309Y-44664690D01*
X63599785Y-44634452D01*
X63630023Y-44604214D01*
X63660261Y-44543738D01*
X63660261Y-44483261D01*
X63630023Y-44422785D01*
X63599785Y-44392547D01*
X63539309Y-44362309D01*
X63418357Y-44332071D01*
X63267166Y-44332071D01*
X63146214Y-44362309D01*
X63085738Y-44392547D01*
X63055500Y-44422785D01*
X63025261Y-44483261D01*
X63660261Y-45299690D02*
X63660261Y-44936833D01*
X63660261Y-45118261D02*
X63025261Y-45118261D01*
X63115976Y-45057785D01*
X63176452Y-44997309D01*
X63206690Y-44936833D01*
X59723261Y-43249547D02*
X59088261Y-43249547D01*
X59088261Y-43400738D01*
X59118500Y-43491452D01*
X59178976Y-43551928D01*
X59239452Y-43582166D01*
X59360404Y-43612404D01*
X59451119Y-43612404D01*
X59572071Y-43582166D01*
X59632547Y-43551928D01*
X59693023Y-43491452D01*
X59723261Y-43400738D01*
X59723261Y-43249547D01*
X59723261Y-44217166D02*
X59723261Y-43854309D01*
X59723261Y-44035738D02*
X59088261Y-44035738D01*
X59178976Y-43975261D01*
X59239452Y-43914785D01*
X59269690Y-43854309D01*
X59088261Y-44610261D02*
X59088261Y-44670738D01*
X59118500Y-44731214D01*
X59148738Y-44761452D01*
X59209214Y-44791690D01*
X59330166Y-44821928D01*
X59481357Y-44821928D01*
X59602309Y-44791690D01*
X59662785Y-44761452D01*
X59693023Y-44731214D01*
X59723261Y-44670738D01*
X59723261Y-44610261D01*
X59693023Y-44549785D01*
X59662785Y-44519547D01*
X59602309Y-44489309D01*
X59481357Y-44459071D01*
X59330166Y-44459071D01*
X59209214Y-44489309D01*
X59148738Y-44519547D01*
X59118500Y-44549785D01*
X59088261Y-44610261D01*
X59088261Y-45215023D02*
X59088261Y-45275500D01*
X59118500Y-45335976D01*
X59148738Y-45366214D01*
X59209214Y-45396452D01*
X59330166Y-45426690D01*
X59481357Y-45426690D01*
X59602309Y-45396452D01*
X59662785Y-45366214D01*
X59693023Y-45335976D01*
X59723261Y-45275500D01*
X59723261Y-45215023D01*
X59693023Y-45154547D01*
X59662785Y-45124309D01*
X59602309Y-45094071D01*
X59481357Y-45063833D01*
X59330166Y-45063833D01*
X59209214Y-45094071D01*
X59148738Y-45124309D01*
X59118500Y-45154547D01*
X59088261Y-45215023D01*
M02*
