M48
; DRILL file {KiCad (6.0.2)} date Wed Sep  7 09:45:03 2022
; FORMAT={-:-/ absolute / inch / decimal}
; #@! TF.CreationDate,2022-09-07T09:45:03-04:00
; #@! TF.GenerationSoftware,Kicad,Pcbnew,(6.0.2)
; #@! TF.FileFunction,Plated,1,2,PTH
FMAT,2
INCH
; #@! TA.AperFunction,Plated,PTH,ViaDrill
T1C0.0060
; #@! TA.AperFunction,Plated,PTH,ViaDrill
T2C0.0150
; #@! TA.AperFunction,Plated,PTH,ComponentDrill
T3C0.0276
; #@! TA.AperFunction,Plated,PTH,ComponentDrill
T4C0.0394
; #@! TA.AperFunction,Plated,PTH,ComponentDrill
T5C0.1250
%
G90
G05
T1
X2.37Y-1.85
X2.4294Y-1.8924
X2.4335Y-1.779
X2.4935Y-1.803
X2.565Y-1.995
X2.5785Y-1.908
X2.6035Y-1.809
X2.662Y-1.813
X2.675Y-1.75
X2.675Y-1.979
X2.907Y-1.993
X3.2555Y-2.0195
X3.32Y-2.0195
T2
X2.53Y-2.53
X2.53Y-2.61
X2.53Y-2.69
X2.5371Y-3.0029
X2.5384Y-3.0816
X2.6971Y-3.0029
X2.6984Y-3.0816
X2.7Y-2.53
X2.7Y-2.61
X2.7Y-2.69
X2.7Y-3.24
X2.8671Y-3.0029
X2.8684Y-3.0816
X2.87Y-2.53
X2.87Y-2.61
X2.87Y-2.69
X2.925Y-3.21
X3.0363Y-1.9637
X3.43Y-2.63
X3.43Y-3.325
X3.5125Y-2.5425
X3.5125Y-2.5725
X3.5125Y-2.6025
X3.5475Y-2.5425
X3.5475Y-2.5725
X3.5475Y-2.6025
X3.5825Y-2.5425
X3.5825Y-2.5725
X3.5825Y-2.6025
X3.65Y-2.1
X3.65Y-2.2
X3.65Y-2.3
X3.6524Y-3.2826
X3.7Y-2.05
X3.7Y-2.15
X3.7Y-2.25
X3.75Y-2.1
X3.75Y-2.2
X3.75Y-2.3
X3.75Y-3.13
X3.8Y-2.05
X3.8Y-2.15
X3.8Y-2.25
X3.85Y-2.1
X3.85Y-2.2
X3.85Y-2.3
X3.9Y-2.15
X3.9Y-2.25
X3.95Y-2.1
X3.95Y-2.2
X3.95Y-2.3
X4.0Y-2.15
X4.0Y-2.25
X4.05Y-2.1
X4.05Y-2.2
X4.05Y-2.3
X4.1Y-2.05
X4.1Y-2.15
X4.1Y-2.25
X4.45Y-5.3
X4.45Y-5.4
X4.45Y-5.5
X4.5Y-5.25
X4.5Y-5.35
X4.5Y-5.45
X4.55Y-5.3
X4.55Y-5.4
X4.55Y-5.5
X4.6Y-5.25
X4.6Y-5.35
X4.6Y-5.45
X4.625Y-2.0
X4.625Y-2.05
X4.625Y-2.1
X4.65Y-5.3
X4.65Y-5.4
X4.65Y-5.5
X4.6741Y-1.9759
X4.675Y-2.025
X4.675Y-2.075
X4.7Y-5.25
X4.7Y-5.35
X4.7Y-5.45
X4.7244Y-1.9606
X4.725Y-2.0
X4.725Y-2.05
X4.725Y-2.1
X4.75Y-5.3
X4.75Y-5.4
X4.75Y-5.5
X4.775Y-1.975
X4.775Y-2.025
X4.775Y-2.075
X4.8Y-5.25
X4.8Y-5.35
X4.8Y-5.45
X4.85Y-5.3
X4.85Y-5.4
X4.85Y-5.5
X4.9Y-2.1
X4.9Y-2.2
X4.9Y-2.3
X4.9Y-2.4
X4.9Y-2.5
X4.9Y-5.25
X4.9Y-5.35
X4.9Y-5.45
X4.95Y-2.35
X4.95Y-2.45
X4.95Y-2.55
X5.0Y-2.4
X5.0Y-2.5
X5.05Y-2.35
X5.05Y-2.45
X5.05Y-2.55
X5.1Y-2.4
X5.1Y-2.5
X5.15Y-2.35
X5.15Y-2.45
X5.15Y-2.55
X5.2Y-2.1
X5.2Y-2.2
X5.2Y-2.3
X5.2Y-2.4
X5.2Y-2.5
T3
X3.333Y-3.685
X3.533Y-3.685
T4
X2.185Y-2.5
X2.185Y-2.65
X2.185Y-2.805
X2.185Y-2.95
T5
X2.296Y-5.468
X2.4456Y-2.0928
X5.3456Y-2.0928
X5.4456Y-5.468
T0
M30
