%FSLAX45Y45*%
G04 Gerber Fmt 4.5, Leading zero omitted, Abs format (unit mm)*
G04 Created by KiCad (PCBNEW (6.0.2)) date 2022-09-07 09:45:05*
%MOMM*%
%LPD*%
G01*
G04 APERTURE LIST*
%TA.AperFunction,Profile*%
%ADD10C,0.254000*%
%TD*%
%ADD11C,0.200000*%
%ADD12C,0.157000*%
%ADD13C,0.345000*%
G04 APERTURE END LIST*
D10*
X10962640Y-14277340D02*
X10962640Y-14224000D01*
X10962640Y-14277340D02*
G75*
G03*
X11082020Y-14396720I119380J0D01*
G01*
X6474221Y-4284136D02*
X6944215Y-4284136D01*
X14150340Y-10541000D02*
X14150340Y-8663940D01*
X9872223Y-5037935D02*
G75*
G03*
X10112221Y-5037937I119999J-2D01*
G01*
X12442223Y-5037937D02*
G75*
G03*
X12562222Y-5157936I119999J0D01*
G01*
X7102223Y-5152933D02*
G75*
G03*
X7222222Y-5032934I0J119999D01*
G01*
X14340840Y-4942758D02*
G75*
G03*
X14230552Y-4832470I-110288J0D01*
G01*
X12642221Y-5100436D02*
X12642221Y-4490436D01*
X10112221Y-5037935D02*
X10112221Y-4500436D01*
X9872223Y-5037935D02*
X9872223Y-4500436D01*
X10112222Y-4500435D02*
X12442222Y-4500435D01*
X7022224Y-5095433D02*
X7022224Y-4485433D01*
X12442223Y-5037935D02*
X12442223Y-4500436D01*
X5433885Y-4832470D02*
G75*
G03*
X5323840Y-4942514I0J-110045D01*
G01*
X12562222Y-5157936D02*
X12584721Y-5157936D01*
X5833885Y-4832470D02*
G75*
G03*
X5882200Y-4784154I0J48316D01*
G01*
X7222222Y-5032932D02*
X7222222Y-4500435D01*
X14150340Y-10541000D02*
G75*
G03*
X14226540Y-10617200I76200J0D01*
G01*
X7079724Y-5152933D02*
X7102223Y-5152933D01*
X7222222Y-4500435D02*
X9872222Y-4500435D01*
X12704006Y-4282268D02*
X12774679Y-4282268D01*
X12584721Y-5157936D02*
G75*
G03*
X12642221Y-5100436I0J57500D01*
G01*
X5323840Y-8511540D02*
G75*
G03*
X5400040Y-8587740I76200J0D01*
G01*
X5939720Y-4284136D02*
G75*
G03*
X5882219Y-4341637I0J-57501D01*
G01*
X14264640Y-8587740D02*
G75*
G03*
X14340840Y-8511540I0J76200D01*
G01*
X13782218Y-4784136D02*
X13782218Y-4339137D01*
X5438140Y-10617200D02*
G75*
G03*
X5514340Y-10541000I0J76200D01*
G01*
X9050020Y-14104620D02*
G75*
G03*
X8930640Y-14224000I0J-119380D01*
G01*
X5323840Y-8511540D02*
X5323840Y-4942514D01*
X14340840Y-10693400D02*
G75*
G03*
X14264640Y-10617200I-76200J0D01*
G01*
X5514340Y-8663940D02*
G75*
G03*
X5438140Y-8587740I-76200J0D01*
G01*
X13782218Y-4784136D02*
G75*
G03*
X13830553Y-4832470I48334J0D01*
G01*
X13782218Y-4339137D02*
G75*
G03*
X13725349Y-4282268I-56869J0D01*
G01*
X8930640Y-14277340D02*
X8930640Y-14224000D01*
X5433885Y-4832470D02*
X5833885Y-4832470D01*
X7022224Y-5095433D02*
G75*
G03*
X7079724Y-5152933I57500J0D01*
G01*
X14340840Y-8511540D02*
X14340840Y-4942758D01*
X5400040Y-10617200D02*
G75*
G03*
X5323840Y-10693400I0J-76200D01*
G01*
X13830553Y-4832470D02*
X14230552Y-4832470D01*
X5882200Y-4784154D02*
X5882219Y-4341637D01*
X14226540Y-10617200D02*
X14264640Y-10617200D01*
X14221460Y-14396720D02*
G75*
G03*
X14340840Y-14277340I0J119380D01*
G01*
X10962640Y-14224000D02*
G75*
G03*
X10843260Y-14104620I-119380J0D01*
G01*
X8811260Y-14396720D02*
G75*
G03*
X8930640Y-14277340I0J119380D01*
G01*
X14226540Y-8587740D02*
X14264640Y-8587740D01*
X9050020Y-14104620D02*
X10843260Y-14104620D01*
X7022220Y-4485435D02*
X7022220Y-4284137D01*
X12642218Y-4490438D02*
X12642218Y-4282268D01*
X12642218Y-4282268D02*
X12704007Y-4282268D01*
X14226540Y-8587740D02*
G75*
G03*
X14150340Y-8663940I0J-76200D01*
G01*
X5939720Y-4284136D02*
X6474221Y-4284136D01*
X12774679Y-4282268D02*
X13725349Y-4282268D01*
X5323839Y-14269720D02*
X5323840Y-10693400D01*
X6944215Y-4284137D02*
X7022220Y-4284137D01*
X5323840Y-14269720D02*
G75*
G03*
X5435600Y-14396720I119380J-7620D01*
G01*
X11082020Y-14396720D02*
X14221460Y-14396720D01*
X14340840Y-14277340D02*
X14340840Y-10693400D01*
X5400040Y-10617200D02*
X5438140Y-10617200D01*
X5435600Y-14396719D02*
X8811260Y-14396720D01*
X5514340Y-10541000D02*
X5514340Y-8663940D01*
X5400040Y-8587740D02*
X5438140Y-8587740D01*
D11*
D12*
X5856310Y-5933510D02*
X6013310Y-6090510D01*
X6013310Y-5933510D02*
X5856310Y-6090510D01*
X7921330Y-5933510D02*
X8078330Y-6090510D01*
X8078330Y-5933510D02*
X7921330Y-6090510D01*
X11583810Y-5930970D02*
X11740810Y-6087970D01*
X11740810Y-5930970D02*
X11583810Y-6087970D01*
X11583810Y-13116970D02*
X11740810Y-13273970D01*
X11740810Y-13116970D02*
X11583810Y-13273970D01*
X12048830Y-13119510D02*
X12205830Y-13276510D01*
X12205830Y-13119510D02*
X12048830Y-13276510D01*
X13648830Y-13116970D02*
X13805830Y-13273970D01*
X13805830Y-13116970D02*
X13648830Y-13273970D01*
D13*
X6107310Y-12365010D02*
G75*
G03*
X6107310Y-12365010I-172500J0D01*
G01*
X7707310Y-6845010D02*
G75*
G03*
X7707310Y-6845010I-172500J0D01*
G01*
X8172330Y-12365010D02*
G75*
G03*
X8172330Y-12365010I-172500J0D01*
G01*
X9772330Y-6845010D02*
G75*
G03*
X9772330Y-6845010I-172500J0D01*
G01*
X10234810Y-6842470D02*
G75*
G03*
X10234810Y-6842470I-172500J0D01*
G01*
X10234810Y-12362470D02*
G75*
G03*
X10234810Y-12362470I-172500J0D01*
G01*
X11834810Y-6842470D02*
G75*
G03*
X11834810Y-6842470I-172500J0D01*
G01*
X11834810Y-12362470D02*
G75*
G03*
X11834810Y-12362470I-172500J0D01*
G01*
X12299830Y-6845010D02*
G75*
G03*
X12299830Y-6845010I-172500J0D01*
G01*
X12299830Y-12362470D02*
G75*
G03*
X12299830Y-12362470I-172500J0D01*
G01*
X13899830Y-6842470D02*
G75*
G03*
X13899830Y-6842470I-172500J0D01*
G01*
X13899830Y-12365010D02*
G75*
G03*
X13899830Y-12365010I-172500J0D01*
G01*
D11*
X5568516Y-14719896D02*
X5568516Y-14519896D01*
X5616135Y-14519896D01*
X5644707Y-14529420D01*
X5663754Y-14548467D01*
X5673278Y-14567515D01*
X5682802Y-14605610D01*
X5682802Y-14634182D01*
X5673278Y-14672277D01*
X5663754Y-14691324D01*
X5644707Y-14710372D01*
X5616135Y-14719896D01*
X5568516Y-14719896D01*
X5768516Y-14719896D02*
X5768516Y-14586563D01*
X5768516Y-14624658D02*
X5778040Y-14605610D01*
X5787564Y-14596086D01*
X5806611Y-14586563D01*
X5825659Y-14586563D01*
X5892326Y-14719896D02*
X5892326Y-14586563D01*
X5892326Y-14519896D02*
X5882802Y-14529420D01*
X5892326Y-14538944D01*
X5901849Y-14529420D01*
X5892326Y-14519896D01*
X5892326Y-14538944D01*
X6016135Y-14719896D02*
X5997088Y-14710372D01*
X5987564Y-14691324D01*
X5987564Y-14519896D01*
X6120897Y-14719896D02*
X6101849Y-14710372D01*
X6092326Y-14691324D01*
X6092326Y-14519896D01*
X6349469Y-14719896D02*
X6349469Y-14519896D01*
X6416135Y-14662753D01*
X6482802Y-14519896D01*
X6482802Y-14719896D01*
X6663754Y-14719896D02*
X6663754Y-14615134D01*
X6654230Y-14596086D01*
X6635183Y-14586563D01*
X6597088Y-14586563D01*
X6578040Y-14596086D01*
X6663754Y-14710372D02*
X6644707Y-14719896D01*
X6597088Y-14719896D01*
X6578040Y-14710372D01*
X6568516Y-14691324D01*
X6568516Y-14672277D01*
X6578040Y-14653229D01*
X6597088Y-14643705D01*
X6644707Y-14643705D01*
X6663754Y-14634182D01*
X6758992Y-14586563D02*
X6758992Y-14786563D01*
X6758992Y-14596086D02*
X6778040Y-14586563D01*
X6816135Y-14586563D01*
X6835183Y-14596086D01*
X6844707Y-14605610D01*
X6854230Y-14624658D01*
X6854230Y-14681801D01*
X6844707Y-14700848D01*
X6835183Y-14710372D01*
X6816135Y-14719896D01*
X6778040Y-14719896D01*
X6758992Y-14710372D01*
X6939945Y-14700848D02*
X6949469Y-14710372D01*
X6939945Y-14719896D01*
X6930421Y-14710372D01*
X6939945Y-14700848D01*
X6939945Y-14719896D01*
X6939945Y-14596086D02*
X6949469Y-14605610D01*
X6939945Y-14615134D01*
X6930421Y-14605610D01*
X6939945Y-14596086D01*
X6939945Y-14615134D01*
D12*
X5153897Y-14970920D02*
X5310897Y-15127920D01*
X5310897Y-14970920D02*
X5153897Y-15127920D01*
D11*
X5673278Y-15139896D02*
X5558992Y-15139896D01*
X5616135Y-15139896D02*
X5616135Y-14939896D01*
X5597088Y-14968467D01*
X5578040Y-14987515D01*
X5558992Y-14997039D01*
X5758992Y-15120848D02*
X5768516Y-15130372D01*
X5758992Y-15139896D01*
X5749469Y-15130372D01*
X5758992Y-15120848D01*
X5758992Y-15139896D01*
X5949469Y-14939896D02*
X5854230Y-14939896D01*
X5844707Y-15035134D01*
X5854230Y-15025610D01*
X5873278Y-15016086D01*
X5920897Y-15016086D01*
X5939945Y-15025610D01*
X5949469Y-15035134D01*
X5958992Y-15054182D01*
X5958992Y-15101801D01*
X5949469Y-15120848D01*
X5939945Y-15130372D01*
X5920897Y-15139896D01*
X5873278Y-15139896D01*
X5854230Y-15130372D01*
X5844707Y-15120848D01*
X6025659Y-14939896D02*
X6158992Y-14939896D01*
X6073278Y-15139896D01*
X6273278Y-14939896D02*
X6292326Y-14939896D01*
X6311373Y-14949420D01*
X6320897Y-14958944D01*
X6330421Y-14977991D01*
X6339945Y-15016086D01*
X6339945Y-15063705D01*
X6330421Y-15101801D01*
X6320897Y-15120848D01*
X6311373Y-15130372D01*
X6292326Y-15139896D01*
X6273278Y-15139896D01*
X6254230Y-15130372D01*
X6244707Y-15120848D01*
X6235183Y-15101801D01*
X6225659Y-15063705D01*
X6225659Y-15016086D01*
X6235183Y-14977991D01*
X6244707Y-14958944D01*
X6254230Y-14949420D01*
X6273278Y-14939896D01*
X6425659Y-15139896D02*
X6425659Y-15006563D01*
X6425659Y-15025610D02*
X6435183Y-15016086D01*
X6454230Y-15006563D01*
X6482802Y-15006563D01*
X6501849Y-15016086D01*
X6511373Y-15035134D01*
X6511373Y-15139896D01*
X6511373Y-15035134D02*
X6520897Y-15016086D01*
X6539945Y-15006563D01*
X6568516Y-15006563D01*
X6587564Y-15016086D01*
X6597088Y-15035134D01*
X6597088Y-15139896D01*
X6692326Y-15139896D02*
X6692326Y-15006563D01*
X6692326Y-15025610D02*
X6701849Y-15016086D01*
X6720897Y-15006563D01*
X6749469Y-15006563D01*
X6768516Y-15016086D01*
X6778040Y-15035134D01*
X6778040Y-15139896D01*
X6778040Y-15035134D02*
X6787564Y-15016086D01*
X6806611Y-15006563D01*
X6835183Y-15006563D01*
X6854230Y-15016086D01*
X6863754Y-15035134D01*
X6863754Y-15139896D01*
X7254230Y-14930372D02*
X7082802Y-15187515D01*
X7511373Y-14939896D02*
X7530421Y-14939896D01*
X7549469Y-14949420D01*
X7558992Y-14958944D01*
X7568516Y-14977991D01*
X7578040Y-15016086D01*
X7578040Y-15063705D01*
X7568516Y-15101801D01*
X7558992Y-15120848D01*
X7549469Y-15130372D01*
X7530421Y-15139896D01*
X7511373Y-15139896D01*
X7492326Y-15130372D01*
X7482802Y-15120848D01*
X7473278Y-15101801D01*
X7463754Y-15063705D01*
X7463754Y-15016086D01*
X7473278Y-14977991D01*
X7482802Y-14958944D01*
X7492326Y-14949420D01*
X7511373Y-14939896D01*
X7663754Y-15120848D02*
X7673278Y-15130372D01*
X7663754Y-15139896D01*
X7654230Y-15130372D01*
X7663754Y-15120848D01*
X7663754Y-15139896D01*
X7797088Y-14939896D02*
X7816135Y-14939896D01*
X7835183Y-14949420D01*
X7844707Y-14958944D01*
X7854230Y-14977991D01*
X7863754Y-15016086D01*
X7863754Y-15063705D01*
X7854230Y-15101801D01*
X7844707Y-15120848D01*
X7835183Y-15130372D01*
X7816135Y-15139896D01*
X7797088Y-15139896D01*
X7778040Y-15130372D01*
X7768516Y-15120848D01*
X7758992Y-15101801D01*
X7749469Y-15063705D01*
X7749469Y-15016086D01*
X7758992Y-14977991D01*
X7768516Y-14958944D01*
X7778040Y-14949420D01*
X7797088Y-14939896D01*
X8035183Y-14939896D02*
X7997088Y-14939896D01*
X7978040Y-14949420D01*
X7968516Y-14958944D01*
X7949469Y-14987515D01*
X7939945Y-15025610D01*
X7939945Y-15101801D01*
X7949469Y-15120848D01*
X7958992Y-15130372D01*
X7978040Y-15139896D01*
X8016135Y-15139896D01*
X8035183Y-15130372D01*
X8044707Y-15120848D01*
X8054230Y-15101801D01*
X8054230Y-15054182D01*
X8044707Y-15035134D01*
X8035183Y-15025610D01*
X8016135Y-15016086D01*
X7978040Y-15016086D01*
X7958992Y-15025610D01*
X7949469Y-15035134D01*
X7939945Y-15054182D01*
X8244707Y-15139896D02*
X8130421Y-15139896D01*
X8187564Y-15139896D02*
X8187564Y-14939896D01*
X8168516Y-14968467D01*
X8149469Y-14987515D01*
X8130421Y-14997039D01*
X8358992Y-15025610D02*
X8339945Y-15016086D01*
X8330421Y-15006563D01*
X8320897Y-14987515D01*
X8320897Y-14977991D01*
X8330421Y-14958944D01*
X8339945Y-14949420D01*
X8358992Y-14939896D01*
X8397088Y-14939896D01*
X8416135Y-14949420D01*
X8425659Y-14958944D01*
X8435183Y-14977991D01*
X8435183Y-14987515D01*
X8425659Y-15006563D01*
X8416135Y-15016086D01*
X8397088Y-15025610D01*
X8358992Y-15025610D01*
X8339945Y-15035134D01*
X8330421Y-15044658D01*
X8320897Y-15063705D01*
X8320897Y-15101801D01*
X8330421Y-15120848D01*
X8339945Y-15130372D01*
X8358992Y-15139896D01*
X8397088Y-15139896D01*
X8416135Y-15130372D01*
X8425659Y-15120848D01*
X8435183Y-15101801D01*
X8435183Y-15063705D01*
X8425659Y-15044658D01*
X8416135Y-15035134D01*
X8397088Y-15025610D01*
X8511373Y-14939896D02*
X8511373Y-14977991D01*
X8587564Y-14939896D02*
X8587564Y-14977991D01*
X8882802Y-15216086D02*
X8873278Y-15206563D01*
X8854231Y-15177991D01*
X8844707Y-15158944D01*
X8835183Y-15130372D01*
X8825659Y-15082753D01*
X8825659Y-15044658D01*
X8835183Y-14997039D01*
X8844707Y-14968467D01*
X8854231Y-14949420D01*
X8873278Y-14920848D01*
X8882802Y-14911324D01*
X9044707Y-14939896D02*
X9006611Y-14939896D01*
X8987564Y-14949420D01*
X8978040Y-14958944D01*
X8958992Y-14987515D01*
X8949469Y-15025610D01*
X8949469Y-15101801D01*
X8958992Y-15120848D01*
X8968516Y-15130372D01*
X8987564Y-15139896D01*
X9025659Y-15139896D01*
X9044707Y-15130372D01*
X9054231Y-15120848D01*
X9063754Y-15101801D01*
X9063754Y-15054182D01*
X9054231Y-15035134D01*
X9044707Y-15025610D01*
X9025659Y-15016086D01*
X8987564Y-15016086D01*
X8968516Y-15025610D01*
X8958992Y-15035134D01*
X8949469Y-15054182D01*
X9301850Y-15139896D02*
X9301850Y-14939896D01*
X9387564Y-15139896D02*
X9387564Y-15035134D01*
X9378040Y-15016086D01*
X9358992Y-15006563D01*
X9330421Y-15006563D01*
X9311373Y-15016086D01*
X9301850Y-15025610D01*
X9511373Y-15139896D02*
X9492326Y-15130372D01*
X9482802Y-15120848D01*
X9473278Y-15101801D01*
X9473278Y-15044658D01*
X9482802Y-15025610D01*
X9492326Y-15016086D01*
X9511373Y-15006563D01*
X9539945Y-15006563D01*
X9558992Y-15016086D01*
X9568516Y-15025610D01*
X9578040Y-15044658D01*
X9578040Y-15101801D01*
X9568516Y-15120848D01*
X9558992Y-15130372D01*
X9539945Y-15139896D01*
X9511373Y-15139896D01*
X9692326Y-15139896D02*
X9673278Y-15130372D01*
X9663754Y-15111324D01*
X9663754Y-14939896D01*
X9844707Y-15130372D02*
X9825659Y-15139896D01*
X9787564Y-15139896D01*
X9768516Y-15130372D01*
X9758992Y-15111324D01*
X9758992Y-15035134D01*
X9768516Y-15016086D01*
X9787564Y-15006563D01*
X9825659Y-15006563D01*
X9844707Y-15016086D01*
X9854231Y-15035134D01*
X9854231Y-15054182D01*
X9758992Y-15073229D01*
X9930421Y-15130372D02*
X9949469Y-15139896D01*
X9987564Y-15139896D01*
X10006611Y-15130372D01*
X10016135Y-15111324D01*
X10016135Y-15101801D01*
X10006611Y-15082753D01*
X9987564Y-15073229D01*
X9958992Y-15073229D01*
X9939945Y-15063705D01*
X9930421Y-15044658D01*
X9930421Y-15035134D01*
X9939945Y-15016086D01*
X9958992Y-15006563D01*
X9987564Y-15006563D01*
X10006611Y-15016086D01*
X10082802Y-15216086D02*
X10092326Y-15206563D01*
X10111373Y-15177991D01*
X10120897Y-15158944D01*
X10130421Y-15130372D01*
X10139945Y-15082753D01*
X10139945Y-15044658D01*
X10130421Y-14997039D01*
X10120897Y-14968467D01*
X10111373Y-14949420D01*
X10092326Y-14920848D01*
X10082802Y-14911324D01*
X10444707Y-15216086D02*
X10435183Y-15206563D01*
X10416135Y-15177991D01*
X10406611Y-15158944D01*
X10397088Y-15130372D01*
X10387564Y-15082753D01*
X10387564Y-15044658D01*
X10397088Y-14997039D01*
X10406611Y-14968467D01*
X10416135Y-14949420D01*
X10435183Y-14920848D01*
X10444707Y-14911324D01*
X10520897Y-15006563D02*
X10520897Y-15139896D01*
X10520897Y-15025610D02*
X10530421Y-15016086D01*
X10549469Y-15006563D01*
X10578040Y-15006563D01*
X10597088Y-15016086D01*
X10606611Y-15035134D01*
X10606611Y-15139896D01*
X10730421Y-15139896D02*
X10711373Y-15130372D01*
X10701850Y-15120848D01*
X10692326Y-15101801D01*
X10692326Y-15044658D01*
X10701850Y-15025610D01*
X10711373Y-15016086D01*
X10730421Y-15006563D01*
X10758992Y-15006563D01*
X10778040Y-15016086D01*
X10787564Y-15025610D01*
X10797088Y-15044658D01*
X10797088Y-15101801D01*
X10787564Y-15120848D01*
X10778040Y-15130372D01*
X10758992Y-15139896D01*
X10730421Y-15139896D01*
X10854231Y-15006563D02*
X10930421Y-15006563D01*
X10882802Y-14939896D02*
X10882802Y-15111324D01*
X10892326Y-15130372D01*
X10911373Y-15139896D01*
X10930421Y-15139896D01*
X11149469Y-15006563D02*
X11149469Y-15206563D01*
X11149469Y-15016086D02*
X11168516Y-15006563D01*
X11206611Y-15006563D01*
X11225659Y-15016086D01*
X11235183Y-15025610D01*
X11244707Y-15044658D01*
X11244707Y-15101801D01*
X11235183Y-15120848D01*
X11225659Y-15130372D01*
X11206611Y-15139896D01*
X11168516Y-15139896D01*
X11149469Y-15130372D01*
X11358992Y-15139896D02*
X11339945Y-15130372D01*
X11330421Y-15111324D01*
X11330421Y-14939896D01*
X11520897Y-15139896D02*
X11520897Y-15035134D01*
X11511373Y-15016086D01*
X11492326Y-15006563D01*
X11454230Y-15006563D01*
X11435183Y-15016086D01*
X11520897Y-15130372D02*
X11501849Y-15139896D01*
X11454230Y-15139896D01*
X11435183Y-15130372D01*
X11425659Y-15111324D01*
X11425659Y-15092277D01*
X11435183Y-15073229D01*
X11454230Y-15063705D01*
X11501849Y-15063705D01*
X11520897Y-15054182D01*
X11587564Y-15006563D02*
X11663754Y-15006563D01*
X11616135Y-14939896D02*
X11616135Y-15111324D01*
X11625659Y-15130372D01*
X11644707Y-15139896D01*
X11663754Y-15139896D01*
X11806611Y-15130372D02*
X11787564Y-15139896D01*
X11749469Y-15139896D01*
X11730421Y-15130372D01*
X11720897Y-15111324D01*
X11720897Y-15035134D01*
X11730421Y-15016086D01*
X11749469Y-15006563D01*
X11787564Y-15006563D01*
X11806611Y-15016086D01*
X11816135Y-15035134D01*
X11816135Y-15054182D01*
X11720897Y-15073229D01*
X11987564Y-15139896D02*
X11987564Y-14939896D01*
X11987564Y-15130372D02*
X11968516Y-15139896D01*
X11930421Y-15139896D01*
X11911373Y-15130372D01*
X11901849Y-15120848D01*
X11892326Y-15101801D01*
X11892326Y-15044658D01*
X11901849Y-15025610D01*
X11911373Y-15016086D01*
X11930421Y-15006563D01*
X11968516Y-15006563D01*
X11987564Y-15016086D01*
X12063754Y-15216086D02*
X12073278Y-15206563D01*
X12092326Y-15177991D01*
X12101849Y-15158944D01*
X12111373Y-15130372D01*
X12120897Y-15082753D01*
X12120897Y-15044658D01*
X12111373Y-14997039D01*
X12101849Y-14968467D01*
X12092326Y-14949420D01*
X12073278Y-14920848D01*
X12063754Y-14911324D01*
X5310897Y-15326420D02*
G75*
G03*
X5310897Y-15326420I-100000J0D01*
G01*
X5549469Y-15216896D02*
X5673278Y-15216896D01*
X5606611Y-15293086D01*
X5635183Y-15293086D01*
X5654230Y-15302610D01*
X5663754Y-15312134D01*
X5673278Y-15331182D01*
X5673278Y-15378801D01*
X5663754Y-15397848D01*
X5654230Y-15407372D01*
X5635183Y-15416896D01*
X5578040Y-15416896D01*
X5558992Y-15407372D01*
X5549469Y-15397848D01*
X5758992Y-15397848D02*
X5768516Y-15407372D01*
X5758992Y-15416896D01*
X5749469Y-15407372D01*
X5758992Y-15397848D01*
X5758992Y-15416896D01*
X5939945Y-15283563D02*
X5939945Y-15416896D01*
X5892326Y-15207372D02*
X5844707Y-15350229D01*
X5968516Y-15350229D01*
X6139945Y-15216896D02*
X6044707Y-15216896D01*
X6035183Y-15312134D01*
X6044707Y-15302610D01*
X6063754Y-15293086D01*
X6111373Y-15293086D01*
X6130421Y-15302610D01*
X6139945Y-15312134D01*
X6149469Y-15331182D01*
X6149469Y-15378801D01*
X6139945Y-15397848D01*
X6130421Y-15407372D01*
X6111373Y-15416896D01*
X6063754Y-15416896D01*
X6044707Y-15407372D01*
X6035183Y-15397848D01*
X6273278Y-15216896D02*
X6292326Y-15216896D01*
X6311373Y-15226420D01*
X6320897Y-15235944D01*
X6330421Y-15254991D01*
X6339945Y-15293086D01*
X6339945Y-15340705D01*
X6330421Y-15378801D01*
X6320897Y-15397848D01*
X6311373Y-15407372D01*
X6292326Y-15416896D01*
X6273278Y-15416896D01*
X6254230Y-15407372D01*
X6244707Y-15397848D01*
X6235183Y-15378801D01*
X6225659Y-15340705D01*
X6225659Y-15293086D01*
X6235183Y-15254991D01*
X6244707Y-15235944D01*
X6254230Y-15226420D01*
X6273278Y-15216896D01*
X6425659Y-15416896D02*
X6425659Y-15283563D01*
X6425659Y-15302610D02*
X6435183Y-15293086D01*
X6454230Y-15283563D01*
X6482802Y-15283563D01*
X6501849Y-15293086D01*
X6511373Y-15312134D01*
X6511373Y-15416896D01*
X6511373Y-15312134D02*
X6520897Y-15293086D01*
X6539945Y-15283563D01*
X6568516Y-15283563D01*
X6587564Y-15293086D01*
X6597088Y-15312134D01*
X6597088Y-15416896D01*
X6692326Y-15416896D02*
X6692326Y-15283563D01*
X6692326Y-15302610D02*
X6701849Y-15293086D01*
X6720897Y-15283563D01*
X6749469Y-15283563D01*
X6768516Y-15293086D01*
X6778040Y-15312134D01*
X6778040Y-15416896D01*
X6778040Y-15312134D02*
X6787564Y-15293086D01*
X6806611Y-15283563D01*
X6835183Y-15283563D01*
X6854230Y-15293086D01*
X6863754Y-15312134D01*
X6863754Y-15416896D01*
X7254230Y-15207372D02*
X7082802Y-15464515D01*
X7511373Y-15216896D02*
X7530421Y-15216896D01*
X7549469Y-15226420D01*
X7558992Y-15235944D01*
X7568516Y-15254991D01*
X7578040Y-15293086D01*
X7578040Y-15340705D01*
X7568516Y-15378801D01*
X7558992Y-15397848D01*
X7549469Y-15407372D01*
X7530421Y-15416896D01*
X7511373Y-15416896D01*
X7492326Y-15407372D01*
X7482802Y-15397848D01*
X7473278Y-15378801D01*
X7463754Y-15340705D01*
X7463754Y-15293086D01*
X7473278Y-15254991D01*
X7482802Y-15235944D01*
X7492326Y-15226420D01*
X7511373Y-15216896D01*
X7663754Y-15397848D02*
X7673278Y-15407372D01*
X7663754Y-15416896D01*
X7654230Y-15407372D01*
X7663754Y-15397848D01*
X7663754Y-15416896D01*
X7863754Y-15416896D02*
X7749469Y-15416896D01*
X7806611Y-15416896D02*
X7806611Y-15216896D01*
X7787564Y-15245467D01*
X7768516Y-15264515D01*
X7749469Y-15274039D01*
X7930421Y-15216896D02*
X8054230Y-15216896D01*
X7987564Y-15293086D01*
X8016135Y-15293086D01*
X8035183Y-15302610D01*
X8044707Y-15312134D01*
X8054230Y-15331182D01*
X8054230Y-15378801D01*
X8044707Y-15397848D01*
X8035183Y-15407372D01*
X8016135Y-15416896D01*
X7958992Y-15416896D01*
X7939945Y-15407372D01*
X7930421Y-15397848D01*
X8235183Y-15216896D02*
X8139945Y-15216896D01*
X8130421Y-15312134D01*
X8139945Y-15302610D01*
X8158992Y-15293086D01*
X8206611Y-15293086D01*
X8225659Y-15302610D01*
X8235183Y-15312134D01*
X8244707Y-15331182D01*
X8244707Y-15378801D01*
X8235183Y-15397848D01*
X8225659Y-15407372D01*
X8206611Y-15416896D01*
X8158992Y-15416896D01*
X8139945Y-15407372D01*
X8130421Y-15397848D01*
X8358992Y-15302610D02*
X8339945Y-15293086D01*
X8330421Y-15283563D01*
X8320897Y-15264515D01*
X8320897Y-15254991D01*
X8330421Y-15235944D01*
X8339945Y-15226420D01*
X8358992Y-15216896D01*
X8397088Y-15216896D01*
X8416135Y-15226420D01*
X8425659Y-15235944D01*
X8435183Y-15254991D01*
X8435183Y-15264515D01*
X8425659Y-15283563D01*
X8416135Y-15293086D01*
X8397088Y-15302610D01*
X8358992Y-15302610D01*
X8339945Y-15312134D01*
X8330421Y-15321658D01*
X8320897Y-15340705D01*
X8320897Y-15378801D01*
X8330421Y-15397848D01*
X8339945Y-15407372D01*
X8358992Y-15416896D01*
X8397088Y-15416896D01*
X8416135Y-15407372D01*
X8425659Y-15397848D01*
X8435183Y-15378801D01*
X8435183Y-15340705D01*
X8425659Y-15321658D01*
X8416135Y-15312134D01*
X8397088Y-15302610D01*
X8511373Y-15216896D02*
X8511373Y-15254991D01*
X8587564Y-15216896D02*
X8587564Y-15254991D01*
X8882802Y-15493086D02*
X8873278Y-15483563D01*
X8854231Y-15454991D01*
X8844707Y-15435944D01*
X8835183Y-15407372D01*
X8825659Y-15359753D01*
X8825659Y-15321658D01*
X8835183Y-15274039D01*
X8844707Y-15245467D01*
X8854231Y-15226420D01*
X8873278Y-15197848D01*
X8882802Y-15188324D01*
X9063754Y-15416896D02*
X8949469Y-15416896D01*
X9006611Y-15416896D02*
X9006611Y-15216896D01*
X8987564Y-15245467D01*
X8968516Y-15264515D01*
X8949469Y-15274039D01*
X9139945Y-15235944D02*
X9149469Y-15226420D01*
X9168516Y-15216896D01*
X9216135Y-15216896D01*
X9235183Y-15226420D01*
X9244707Y-15235944D01*
X9254231Y-15254991D01*
X9254231Y-15274039D01*
X9244707Y-15302610D01*
X9130421Y-15416896D01*
X9254231Y-15416896D01*
X9492326Y-15416896D02*
X9492326Y-15216896D01*
X9578040Y-15416896D02*
X9578040Y-15312134D01*
X9568516Y-15293086D01*
X9549469Y-15283563D01*
X9520897Y-15283563D01*
X9501850Y-15293086D01*
X9492326Y-15302610D01*
X9701850Y-15416896D02*
X9682802Y-15407372D01*
X9673278Y-15397848D01*
X9663754Y-15378801D01*
X9663754Y-15321658D01*
X9673278Y-15302610D01*
X9682802Y-15293086D01*
X9701850Y-15283563D01*
X9730421Y-15283563D01*
X9749469Y-15293086D01*
X9758992Y-15302610D01*
X9768516Y-15321658D01*
X9768516Y-15378801D01*
X9758992Y-15397848D01*
X9749469Y-15407372D01*
X9730421Y-15416896D01*
X9701850Y-15416896D01*
X9882802Y-15416896D02*
X9863754Y-15407372D01*
X9854231Y-15388324D01*
X9854231Y-15216896D01*
X10035183Y-15407372D02*
X10016135Y-15416896D01*
X9978040Y-15416896D01*
X9958992Y-15407372D01*
X9949469Y-15388324D01*
X9949469Y-15312134D01*
X9958992Y-15293086D01*
X9978040Y-15283563D01*
X10016135Y-15283563D01*
X10035183Y-15293086D01*
X10044707Y-15312134D01*
X10044707Y-15331182D01*
X9949469Y-15350229D01*
X10120897Y-15407372D02*
X10139945Y-15416896D01*
X10178040Y-15416896D01*
X10197088Y-15407372D01*
X10206611Y-15388324D01*
X10206611Y-15378801D01*
X10197088Y-15359753D01*
X10178040Y-15350229D01*
X10149469Y-15350229D01*
X10130421Y-15340705D01*
X10120897Y-15321658D01*
X10120897Y-15312134D01*
X10130421Y-15293086D01*
X10149469Y-15283563D01*
X10178040Y-15283563D01*
X10197088Y-15293086D01*
X10273278Y-15493086D02*
X10282802Y-15483563D01*
X10301850Y-15454991D01*
X10311373Y-15435944D01*
X10320897Y-15407372D01*
X10330421Y-15359753D01*
X10330421Y-15321658D01*
X10320897Y-15274039D01*
X10311373Y-15245467D01*
X10301850Y-15226420D01*
X10282802Y-15197848D01*
X10273278Y-15188324D01*
X10635183Y-15493086D02*
X10625659Y-15483563D01*
X10606611Y-15454991D01*
X10597088Y-15435944D01*
X10587564Y-15407372D01*
X10578040Y-15359753D01*
X10578040Y-15321658D01*
X10587564Y-15274039D01*
X10597088Y-15245467D01*
X10606611Y-15226420D01*
X10625659Y-15197848D01*
X10635183Y-15188324D01*
X10711373Y-15283563D02*
X10711373Y-15416896D01*
X10711373Y-15302610D02*
X10720897Y-15293086D01*
X10739945Y-15283563D01*
X10768516Y-15283563D01*
X10787564Y-15293086D01*
X10797088Y-15312134D01*
X10797088Y-15416896D01*
X10920897Y-15416896D02*
X10901850Y-15407372D01*
X10892326Y-15397848D01*
X10882802Y-15378801D01*
X10882802Y-15321658D01*
X10892326Y-15302610D01*
X10901850Y-15293086D01*
X10920897Y-15283563D01*
X10949469Y-15283563D01*
X10968516Y-15293086D01*
X10978040Y-15302610D01*
X10987564Y-15321658D01*
X10987564Y-15378801D01*
X10978040Y-15397848D01*
X10968516Y-15407372D01*
X10949469Y-15416896D01*
X10920897Y-15416896D01*
X11044707Y-15283563D02*
X11120897Y-15283563D01*
X11073278Y-15216896D02*
X11073278Y-15388324D01*
X11082802Y-15407372D01*
X11101850Y-15416896D01*
X11120897Y-15416896D01*
X11339945Y-15283563D02*
X11339945Y-15483563D01*
X11339945Y-15293086D02*
X11358992Y-15283563D01*
X11397088Y-15283563D01*
X11416135Y-15293086D01*
X11425659Y-15302610D01*
X11435183Y-15321658D01*
X11435183Y-15378801D01*
X11425659Y-15397848D01*
X11416135Y-15407372D01*
X11397088Y-15416896D01*
X11358992Y-15416896D01*
X11339945Y-15407372D01*
X11549469Y-15416896D02*
X11530421Y-15407372D01*
X11520897Y-15388324D01*
X11520897Y-15216896D01*
X11711373Y-15416896D02*
X11711373Y-15312134D01*
X11701849Y-15293086D01*
X11682802Y-15283563D01*
X11644707Y-15283563D01*
X11625659Y-15293086D01*
X11711373Y-15407372D02*
X11692326Y-15416896D01*
X11644707Y-15416896D01*
X11625659Y-15407372D01*
X11616135Y-15388324D01*
X11616135Y-15369277D01*
X11625659Y-15350229D01*
X11644707Y-15340705D01*
X11692326Y-15340705D01*
X11711373Y-15331182D01*
X11778040Y-15283563D02*
X11854230Y-15283563D01*
X11806611Y-15216896D02*
X11806611Y-15388324D01*
X11816135Y-15407372D01*
X11835183Y-15416896D01*
X11854230Y-15416896D01*
X11997088Y-15407372D02*
X11978040Y-15416896D01*
X11939945Y-15416896D01*
X11920897Y-15407372D01*
X11911373Y-15388324D01*
X11911373Y-15312134D01*
X11920897Y-15293086D01*
X11939945Y-15283563D01*
X11978040Y-15283563D01*
X11997088Y-15293086D01*
X12006611Y-15312134D01*
X12006611Y-15331182D01*
X11911373Y-15350229D01*
X12178040Y-15416896D02*
X12178040Y-15216896D01*
X12178040Y-15407372D02*
X12158992Y-15416896D01*
X12120897Y-15416896D01*
X12101849Y-15407372D01*
X12092326Y-15397848D01*
X12082802Y-15378801D01*
X12082802Y-15321658D01*
X12092326Y-15302610D01*
X12101849Y-15293086D01*
X12120897Y-15283563D01*
X12158992Y-15283563D01*
X12178040Y-15293086D01*
X12254230Y-15493086D02*
X12263754Y-15483563D01*
X12282802Y-15454991D01*
X12292326Y-15435944D01*
X12301849Y-15407372D01*
X12311373Y-15359753D01*
X12311373Y-15321658D01*
X12301849Y-15274039D01*
X12292326Y-15245467D01*
X12282802Y-15226420D01*
X12263754Y-15197848D01*
X12254230Y-15188324D01*
M02*
